ISO-10303-21;
HEADER;
FILE_DESCRIPTION(('ViewDefinition[CoordinationView_V2.0]','ExchangeRequirement[Structural, SurfaceGeometry]','Option [GridExport:Off]','Option [Assemblies:Off]','Option [Bolts:On]','Option [Rebars:On]','Option [PourObjects:Off]','Option [Welds:Off]','Option [SurfaceTreatments:Off]','Option [LocationBy:0]','Option [ViewColors:On]','Option [SectionedSpine:Off]','Option [PropertySets:On]','Option [Export all:Off]'),'2;1');
FILE_NAME('SNACKS_Detalj_Tilslutning_Kantbjelke.ifc','2026-08-26T15:52:38',('SWECO\\NOULVE'),('Structural Designer'),'IFC Parser','Tekla Structures 2025 Service Pack 7, IFC Export Version: 4.0.0.0 Feb 24 2026','');
FILE_SCHEMA(('IFC2X3'));
ENDSEC;
DATA;
#1=IFCPERSON('SWECO\\NOULVE','Undefined',$,$,$,$,$,$);
#2=IFCORGANIZATION($,'Trimble Solutions Corporation',$,$,$);
#3=IFCPERSONANDORGANIZATION(#1,#2,$);
#4=IFCAPPLICATION(#2,'2025 Service Pack 7','Tekla Structures','Multi material modeling');
#5=IFCOWNERHISTORY(#3,#4,$,.NOCHANGE.,$,$,$,1787752358);
#6=IFCCARTESIANPOINT((0.,0.,0.));
#7=IFCDIRECTION((1.,0.,0.));
#8=IFCDIRECTION((0.,1.,0.));
#9=IFCDIRECTION((0.,0.,1.));
#10=IFCAXIS2PLACEMENT3D(#6,#9,#7);
#11=IFCGEOMETRICREPRESENTATIONCONTEXT($,'Model',3,1.0000000000000001E-05,#10,$);
#12=IFCGEOMETRICREPRESENTATIONSUBCONTEXT('Body','Model',*,*,*,*,#11,$,.MODEL_VIEW.,$);
#13=IFCGEOMETRICREPRESENTATIONSUBCONTEXT('Axis','Model',*,*,*,*,#11,$,.GRAPH_VIEW.,$);
#14=IFCSIUNIT(*,.LENGTHUNIT.,.MILLI.,.METRE.);
#15=IFCMEASUREWITHUNIT(IFCRATIOMEASURE(304.80000000000001),#14);
#16=IFCDIMENSIONALEXPONENTS(1,0,0,0,0,0,0);
#17=IFCCONVERSIONBASEDUNIT(#16,.LENGTHUNIT.,'FOOT',#15);
#18=IFCSIUNIT(*,.AREAUNIT.,$,.SQUARE_METRE.);
#19=IFCMEASUREWITHUNIT(IFCRATIOMEASURE(0.092903040000000006),#18);
#20=IFCDIMENSIONALEXPONENTS(2,0,0,0,0,0,0);
#21=IFCCONVERSIONBASEDUNIT(#20,.AREAUNIT.,'SQUARE FOOT',#19);
#22=IFCSIUNIT(*,.VOLUMEUNIT.,$,.CUBIC_METRE.);
#23=IFCMEASUREWITHUNIT(IFCRATIOMEASURE(0.028316846592000001),#22);
#24=IFCDIMENSIONALEXPONENTS(3,0,0,0,0,0,0);
#25=IFCCONVERSIONBASEDUNIT(#24,.VOLUMEUNIT.,'CUBIC FOOT',#23);
#26=IFCSIUNIT(*,.MASSUNIT.,.KILO.,.GRAM.);
#27=IFCSIUNIT(*,.TIMEUNIT.,$,.SECOND.);
#28=IFCSIUNIT(*,.PLANEANGLEUNIT.,$,.RADIAN.);
#29=IFCMEASUREWITHUNIT(IFCRATIOMEASURE(0.017453292519943299),#28);
#30=IFCDIMENSIONALEXPONENTS(0,0,0,0,0,0,0);
#31=IFCCONVERSIONBASEDUNIT(#30,.PLANEANGLEUNIT.,'DEGREE',#29);
#32=IFCSIUNIT(*,.SOLIDANGLEUNIT.,$,.STERADIAN.);
#33=IFCSIUNIT(*,.THERMODYNAMICTEMPERATUREUNIT.,$,.DEGREE_CELSIUS.);
#34=IFCSIUNIT(*,.LUMINOUSINTENSITYUNIT.,$,.LUMEN.);
#35=IFCUNITASSIGNMENT((#14,#18,#22,#26,#27,#28,#32,#33,#34));
#36=IFCPROJECT('2YG0JLJLPAvRd9NM8hMiC$',#5,'SNACKS Detalj Tilslutning Kantbjelke',$,$,$,$,(#11),#35);
#37=IFCLOCALPLACEMENT($,#10);
#38=IFCSITE('0cHbuZ7tTAAARUvYnq2GoH',#5,'SNACKS Detalj Tilslutning Kantbjelke',$,$,#37,$,$,.ELEMENT.,$,$,$,$,$);
#39=IFCPOSTALADDRESS($,' ',$,' ',$,' ',' ',' ',' ',' ');
#40=IFCLOCALPLACEMENT(#37,#10);
#41=IFCBUILDING('2cH2Ye1ODFPROjgJsPA4pC',#5,'Bru',$,$,#40,$,$,.ELEMENT.,$,$,#39);
#42=IFCLOCALPLACEMENT(#40,#10);
#43=IFCBUILDINGSTOREY('09Zmb6wqH33AoobR5q1mOS',#5,'Tilslutning Kantbjelke',$,$,#42,$,$,.ELEMENT.,0.);
#44=IFCOWNERHISTORY(#3,#4,$,.NOCHANGE.,$,$,$,1787756400);
#45=IFCCOLOURRGB('Unnamed',0.63921568627450998,0.73333333333333295,0.76078431372549005);
#46=IFCSURFACESTYLERENDERING(#45,0.,$,$,$,$,IFCNORMALISEDRATIOMEASURE(0.00390625),IFCSPECULAREXPONENT(10.),.NOTDEFINED.);
#47=IFCSURFACESTYLE('MISCELLANEOUS/Misc_Undefined',.POSITIVE.,(#46));
#48=IFCPRESENTATIONSTYLEASSIGNMENT((#47));
#49=IFCCARTESIANPOINT((-1.0004441719502199E-11,-99.999999999825405,-5.8207660913467401E-11));
#50=IFCCARTESIANPOINT((-15.5893511253676,-100.000000000618,779.05941667724403));
#51=IFCCARTESIANPOINT((-15.5893511253482,99.999999999035893,779.05941667736101));
#52=IFCCARTESIANPOINT((9.3223206931725096E-12,99.999999999829001,6.0026650317013302E-11));
#53=IFCPOLYLOOP((#49,#50,#51,#52));
#54=IFCFACEOUTERBOUND(#53,.T.);
#55=IFCFACE((#54));
#56=IFCCARTESIANPOINT((24.4106431571347,-100.000000000651,779.05936062987905));
#57=IFCCARTESIANPOINT((24.410643157153999,99.999999998999598,779.05936062999695));
#58=IFCPOLYLOOP((#50,#56,#57,#51));
#59=IFCFACEOUTERBOUND(#58,.T.);
#60=IFCFACE((#59));
#61=IFCCARTESIANPOINT((40.004294136587497,-99.999999999861799,-4.1836756281554699E-11));
#62=IFCCARTESIANPOINT((40.004294136606603,99.999999999788997,7.6397554948925998E-11));
#63=IFCPOLYLOOP((#56,#61,#62,#57));
#64=IFCFACEOUTERBOUND(#63,.T.);
#65=IFCFACE((#64));
#66=IFCPOLYLOOP((#61,#49,#52,#62));
#67=IFCFACEOUTERBOUND(#66,.T.);
#68=IFCFACE((#67));
#69=IFCPOLYLOOP((#57,#62,#52,#51));
#70=IFCFACEOUTERBOUND(#69,.T.);
#71=IFCFACE((#70));
#72=IFCPOLYLOOP((#61,#56,#50,#49));
#73=IFCFACEOUTERBOUND(#72,.T.);
#74=IFCFACE((#73));
#75=IFCCLOSEDSHELL((#55,#60,#65,#68,#71,#74));
#76=IFCFACETEDBREP(#75);
#77=IFCSTYLEDITEM(#76,(#48),$);
#78=IFCSHAPEREPRESENTATION(#12,'Body','Brep',(#76));
#79=IFCPRODUCTDEFINITIONSHAPE($,$,(#78));
#80=IFCCARTESIANPOINT((9220.9367751990703,31099.978565276,1350.0476817961601));
#81=IFCDIRECTION((0.99999999927043504,3.8172999793459901E-05,1.39741023508577E-06));
#82=IFCDIRECTION((1.37700000229968E-06,0.00053467200003109202,-0.99999985706196803));
#83=IFCAXIS2PLACEMENT3D(#80,#81,#82);
#84=IFCLOCALPLACEMENT(#42,#83);
#85=IFCPLATE('2GwN0GufPDyRzvS$9frmkE',#44,'Asfaltdekker_slitelag','PL200X40',$,#84,#79,'ID90e97010-e296-4df1-bf79-73f269d70b8e');
#86=IFCPLATETYPE('31y$FHfNP6mPsbYLVUf2JQ',#5,'PL200X40',$,$,$,$,$,$,.NOTDEFINED.);
#87=IFCMATERIAL('MISCELLANEOUS/Misc_Undefined');
#88=IFCCOLOURRGB('Unnamed',0.49019607843137297,0.623529411764706,0.66666666666666696);
#89=IFCSURFACESTYLERENDERING(#88,0.,$,$,$,$,IFCNORMALISEDRATIOMEASURE(0.00390625),IFCSPECULAREXPONENT(10.),.NOTDEFINED.);
#90=IFCSURFACESTYLE('MISCELLANEOUS/Misc_Undefined',.POSITIVE.,(#89));
#91=IFCPRESENTATIONSTYLEASSIGNMENT((#90));
#92=IFCFACETEDBREP(#75);
#93=IFCSTYLEDITEM(#92,(#91),$);
#94=IFCSHAPEREPRESENTATION(#12,'Body','Brep',(#92));
#95=IFCPRODUCTDEFINITIONSHAPE($,$,(#94));
#96=IFCCARTESIANPOINT((9220.9367751990703,31099.978565276,1310.0476817961501));
#97=IFCAXIS2PLACEMENT3D(#96,#81,#82);
#98=IFCLOCALPLACEMENT(#42,#97);
#99=IFCPLATE('1QHlFi85XAnxkvuvugD$RW',#44,'Asfaltdekker_bindlag','PL200X40',$,#98,#95,'ID5a46f3ec-2058-4ac7-bbb9-e39e2a37f6e0');
#100=IFCCOLOURRGB('Unnamed',0.33333333333333298,1.,0.33333333333333298);
#101=IFCSURFACESTYLERENDERING(#100,0.,$,$,$,$,IFCNORMALISEDRATIOMEASURE(0.00390625),IFCSPECULAREXPONENT(10.),.NOTDEFINED.);
#102=IFCSURFACESTYLE('MISCELLANEOUS/Misc_Undefined',.POSITIVE.,(#101));
#103=IFCPRESENTATIONSTYLEASSIGNMENT((#102));
#104=IFCCARTESIANPOINT((9.5953800641414109,-99.999999999967301,20.000723553446701));
#105=IFCCARTESIANPOINT((9.59538006413527,99.999999999949097,20.000723553528601));
#106=IFCPOLYLOOP((#49,#104,#105,#52));
#107=IFCFACEOUTERBOUND(#106,.T.);
#108=IFCFACE((#107));
#109=IFCCARTESIANPOINT((89.595667627431297,-99.999999999967301,20.000013540975502));
#110=IFCCARTESIANPOINT((89.5956676274252,99.999999999952706,20.000013541057299));
#111=IFCPOLYLOOP((#104,#109,#110,#105));
#112=IFCFACEOUTERBOUND(#111,.T.);
#113=IFCFACE((#112));
#114=IFCCARTESIANPOINT((89.999985337554307,-99.999999999956302,-4.7293724492192301E-11));
#115=IFCCARTESIANPOINT((89.999985337548196,99.999999999963606,3.4560798667371299E-11));
#116=IFCPOLYLOOP((#109,#114,#115,#110));
#117=IFCFACEOUTERBOUND(#116,.T.);
#118=IFCFACE((#117));
#119=IFCPOLYLOOP((#114,#49,#52,#115));
#120=IFCFACEOUTERBOUND(#119,.T.);
#121=IFCFACE((#120));
#122=IFCPOLYLOOP((#110,#115,#52,#105));
#123=IFCFACEOUTERBOUND(#122,.T.);
#124=IFCFACE((#123));
#125=IFCPOLYLOOP((#114,#109,#104,#49));
#126=IFCFACEOUTERBOUND(#125,.T.);
#127=IFCFACE((#126));
#128=IFCCLOSEDSHELL((#108,#113,#118,#121,#124,#127));
#129=IFCFACETEDBREP(#128);
#130=IFCSTYLEDITEM(#129,(#103),$);
#131=IFCSHAPEREPRESENTATION(#12,'Body','Brep',(#129));
#132=IFCPRODUCTDEFINITIONSHAPE($,$,(#131));
#133=IFCCARTESIANPOINT((9201.0467732582692,31099.999911118099,1359.5895765499899));
#134=IFCDIRECTION((0.999999428142477,-0.00106941500015455,8.1409953518232206E-06));
#135=IFCDIRECTION((8.1410000069736702E-06,0.,-0.99999999996686195));
#136=IFCAXIS2PLACEMENT3D(#133,#134,#135);
#137=IFCLOCALPLACEMENT(#42,#136);
#138=IFCPLATE('21N4bR7RjA4w9rGHFdOIyp',#44,'Topeka','PL200X20',$,#137,#132,'ID815c495b-1dbb-4a13-a275-4113e7612f33');
#139=IFCPLATETYPE('3y0fRjehb9vw0XVLvUZz6n',#5,'PL200X20',$,$,$,$,$,$,.NOTDEFINED.);
#140=IFCCARTESIANPOINT((-15.9874147246931,-100.00000000115701,799.05957586700197));
#141=IFCCARTESIANPOINT((-15.987414724672099,99.999999998894097,799.05957586699901));
#142=IFCPOLYLOOP((#49,#140,#141,#52));
#143=IFCFACEOUTERBOUND(#142,.T.);
#144=IFCFACE((#143));
#145=IFCCARTESIANPOINT((-3.9874147252644399,-100.000000001153,799.059461028908));
#146=IFCCARTESIANPOINT((-3.9874147252435299,99.999999998897707,799.05946102890596));
#147=IFCPOLYLOOP((#140,#145,#146,#141));
#148=IFCFACEOUTERBOUND(#147,.T.);
#149=IFCFACE((#148));
#150=IFCCARTESIANPOINT((11.999706957637301,-100.00000000001501,-3.6379788070917101E-12));
#151=IFCCARTESIANPOINT((11.9997069576582,100.00000000004,-7.2759576141834308E-12));
#152=IFCPOLYLOOP((#145,#150,#151,#146));
#153=IFCFACEOUTERBOUND(#152,.T.);
#154=IFCFACE((#153));
#155=IFCPOLYLOOP((#150,#49,#52,#151));
#156=IFCFACEOUTERBOUND(#155,.T.);
#157=IFCFACE((#156));
#158=IFCPOLYLOOP((#146,#151,#52,#141));
#159=IFCFACEOUTERBOUND(#158,.T.);
#160=IFCFACE((#159));
#161=IFCPOLYLOOP((#150,#145,#140,#49));
#162=IFCFACEOUTERBOUND(#161,.T.);
#163=IFCFACE((#162));
#164=IFCCLOSEDSHELL((#144,#149,#154,#157,#160,#163));
#165=IFCFACETEDBREP(#164);
#166=IFCSTYLEDITEM(#165,(#103),$);
#167=IFCSHAPEREPRESENTATION(#12,'Body','Brep',(#165));
#168=IFCPRODUCTDEFINITIONSHAPE($,$,(#167));
#169=IFCCARTESIANPOINT((9200.9405638817097,31099.999968300599,1269.58951833233));
#170=IFCDIRECTION((0.99999999995420796,5.0000016926787797E-09,9.5700000081251397E-06));
#171=IFCDIRECTION((9.5700000116246004E-06,-7.1999996380962603E-07,-0.99999999995394795));
#172=IFCAXIS2PLACEMENT3D(#169,#170,#171);
#173=IFCLOCALPLACEMENT(#42,#172);
#174=IFCPLATE('2xp039zhz6UhOm$SkCj7Ri',#44,'Topeka','PL200X12',$,#173,#168,'IDbbcc00c9-f6bf-467a-b630-fdcb8cb476ec');
#175=IFCPLATETYPE('34RXRS2RLFuvxP9IApCIXz',#5,'PL200X12',$,$,$,$,$,$,.NOTDEFINED.);
#176=IFCCOLOURRGB('Unnamed',0.94509803921568603,0.74117647058823499,0.039215686274509803);
#177=IFCSURFACESTYLERENDERING(#176,0.,$,$,$,$,IFCNORMALISEDRATIOMEASURE(0.00390625),IFCSPECULAREXPONENT(10.),.NOTDEFINED.);
#178=IFCSURFACESTYLE('MISCELLANEOUS/Misc_Undefined',.POSITIVE.,(#177));
#179=IFCPRESENTATIONSTYLEASSIGNMENT((#178));
#180=IFCCARTESIANPOINT((2.3464963305741502E-10,-1.4999999999984099,-100.000000000116));
#181=IFCCARTESIANPOINT((2.8921931516379102E-10,-1.5000000000018201,100.000000000106));
#182=IFCCARTESIANPOINT((-2.3828761186450699E-10,1.4999999999984099,100.000000000109));
#183=IFCCARTESIANPOINT((-2.92857293970883E-10,1.5000000000015901,-100.000000000109));
#184=IFCPOLYLOOP((#180,#181,#182,#183));
#185=IFCFACEOUTERBOUND(#184,.T.);
#186=IFCFACE((#185));
#187=IFCCARTESIANPOINT((802.22978656312398,1.5000001413141,100.00000000015299));
#188=IFCCARTESIANPOINT((802.22978656312102,1.5000001413172901,-100.000000000065));
#189=IFCPOLYLOOP((#183,#182,#187,#188));
#190=IFCFACEOUTERBOUND(#189,.T.);
#191=IFCFACE((#190));
#192=IFCCARTESIANPOINT((799.16917365304698,-1.49999985922182,-100.00000000006899));
#193=IFCCARTESIANPOINT((799.16917365305005,-1.4999998592247701,100.000000000149));
#194=IFCPOLYLOOP((#181,#180,#192,#193));
#195=IFCFACEOUTERBOUND(#194,.T.);
#196=IFCFACE((#195));
#197=IFCCARTESIANPOINT((798.71874516347305,-174.01487308758601,100.00000000001801));
#198=IFCCARTESIANPOINT((798.71874516340699,-174.01487308763399,-100.0000000002));
#199=IFCPOLYLOOP((#188,#187,#197,#198));
#200=IFCFACEOUTERBOUND(#199,.T.);
#201=IFCFACE((#200));
#202=IFCCARTESIANPOINT((795.71934523772302,-173.95487237585399,100.00000000001801));
#203=IFCPOLYLOOP((#187,#182,#181,#193,#202,#197));
#204=IFCFACEOUTERBOUND(#203,.T.);
#205=IFCFACE((#204));
#206=IFCCARTESIANPOINT((795.71934523765799,-173.954872375902,-100.0000000002));
#207=IFCPOLYLOOP((#193,#192,#206,#202));
#208=IFCFACEOUTERBOUND(#207,.T.);
#209=IFCFACE((#208));
#210=IFCPOLYLOOP((#192,#180,#183,#188,#198,#206));
#211=IFCFACEOUTERBOUND(#210,.T.);
#212=IFCFACE((#211));
#213=IFCPOLYLOOP((#202,#206,#198,#197));
#214=IFCFACEOUTERBOUND(#213,.T.);
#215=IFCFACE((#214));
#216=IFCCLOSEDSHELL((#186,#191,#196,#201,#205,#209,#212,#215));
#217=IFCFACETEDBREP(#216);
#218=IFCSTYLEDITEM(#217,(#179),$);
#219=IFCSHAPEREPRESENTATION(#12,'Body','Brep',(#217));
#220=IFCPRODUCTDEFINITIONSHAPE($,$,(#219));
#221=IFCCARTESIANPOINT((9999.9799675954491,31099.999975945801,1272.0754471913201));
#222=IFCDIRECTION((3.2054809526016502E-07,-0.99999999987156396,-1.6024009037892001E-05));
#223=IFCDIRECTION((-0.99979997525492104,0.,-0.020000237005099598));
#224=IFCAXIS2PLACEMENT3D(#221,#222,#223);
#225=IFCLOCALPLACEMENT(#42,#224);
#226=IFCBEAM('1gxH3Ps1T878O1UZhRc3cx',#44,'C60BP2','PL3X200',$,#225,#220,'ID6aed10d9-d817-481c-8601-7a3adb9839bb');
#227=IFCBEAMTYPE('1IXke3SpDAxf7dxczMhkDC',#5,'PL3X200',$,$,$,$,$,$,.NOTDEFINED.);
#228=IFCCOLOURRGB('Unnamed',0.65490196078431395,0.65490196078431395,0.65490196078431395);
#229=IFCSURFACESTYLERENDERING(#228,0.,$,$,$,$,IFCNORMALISEDRATIOMEASURE(0.00390625),IFCSPECULAREXPONENT(10.),.NOTDEFINED.);
#230=IFCSURFACESTYLE('CONCRETE/B45_SV_Standard',.POSITIVE.,(#229));
#231=IFCPRESENTATIONSTYLEASSIGNMENT((#230));
#232=IFCCARTESIANPOINT((-802.07206020996102,-100.,-15.9072527353221));
#233=IFCCARTESIANPOINT((-802.07206020996102,100.,-15.9072527353221));
#234=IFCPOLYLOOP((#49,#232,#233,#52));
#235=IFCFACEOUTERBOUND(#234,.T.);
#236=IFCFACE((#235));
#237=IFCCARTESIANPOINT((-801.99863618072402,-100.,412.28739636732303));
#238=IFCCARTESIANPOINT((-801.99863618072402,100.,412.28739636732303));
#239=IFCPOLYLOOP((#232,#237,#238,#233));
#240=IFCFACEOUTERBOUND(#239,.T.);
#241=IFCFACE((#240));
#242=IFCCARTESIANPOINT((30.0700246931683,-100.,349.99473773172002));
#243=IFCCARTESIANPOINT((30.0700246931683,100.,349.99473773172002));
#244=IFCPOLYLOOP((#237,#242,#243,#238));
#245=IFCFACEOUTERBOUND(#244,.T.);
#246=IFCFACE((#245));
#247=IFCCARTESIANPOINT((30.006883014846601,-100.,2.95585778076202E-12));
#248=IFCCARTESIANPOINT((30.006883014846601,100.,2.95585778076202E-12));
#249=IFCPOLYLOOP((#242,#247,#248,#243));
#250=IFCFACEOUTERBOUND(#249,.T.);
#251=IFCFACE((#250));
#252=IFCPOLYLOOP((#247,#49,#52,#248));
#253=IFCFACEOUTERBOUND(#252,.T.);
#254=IFCFACE((#253));
#255=IFCPOLYLOOP((#238,#243,#248,#52,#233));
#256=IFCFACEOUTERBOUND(#255,.T.);
#257=IFCFACE((#256));
#258=IFCPOLYLOOP((#247,#242,#237,#232,#49));
#259=IFCFACEOUTERBOUND(#258,.T.);
#260=IFCFACE((#259));
#261=IFCCLOSEDSHELL((#236,#241,#246,#251,#254,#257,#260));
#262=IFCFACETEDBREP(#261);
#263=IFCSTYLEDITEM(#262,(#231),$);
#264=IFCSHAPEREPRESENTATION(#12,'Body','Brep',(#262));
#265=IFCPRODUCTDEFINITIONSHAPE($,$,(#264));
#266=IFCCARTESIANPOINT((9197.94067925729,31100.,1254.5293586247799));
#267=IFCDIRECTION((0.00017147300004944599,0.,-0.99999998529850498));
#268=IFCDIRECTION((-0.99999998529850498,0.,-0.00017147300004878899));
#269=IFCAXIS2PLACEMENT3D(#266,#267,#268);
#270=IFCLOCALPLACEMENT(#42,#269);
#271=IFCSLAB('0GMrnoYH53rQWv0VQaG2Dh',#44,'Bruplate','200X427',$,#270,#265,'ID105b5c72-8911-43d5-a839-01f6a440236b',.NOTDEFINED.);
#272=IFCSLABTYPE('0B3awUVwf49BZVsYDc6N1b',#5,'200X427',$,$,$,$,$,$,.NOTDEFINED.);
#273=IFCMATERIAL('CONCRETE/B45_SV_Standard');
#274=IFCCOLOURRGB('Unnamed',0.,0.,0.);
#275=IFCSURFACESTYLERENDERING(#274,0.,$,$,$,$,IFCNORMALISEDRATIOMEASURE(0.00390625),IFCSPECULAREXPONENT(10.),.NOTDEFINED.);
#276=IFCSURFACESTYLE('MISCELLANEOUS/Misc_Undefined',.POSITIVE.,(#275));
#277=IFCPRESENTATIONSTYLEASSIGNMENT((#276));
#278=IFCCARTESIANPOINT((0.,10.,-100.));
#279=IFCCARTESIANPOINT((-1020.,10.,-100.));
#280=IFCCARTESIANPOINT((-1020.,10.,100.));
#281=IFCCARTESIANPOINT((0.,10.,100.));
#282=IFCCARTESIANPOINT((1020.,10.,100.));
#283=IFCCARTESIANPOINT((1020.,10.,-100.));
#284=IFCPOLYLOOP((#278,#279,#280,#281,#282,#283));
#285=IFCFACEOUTERBOUND(#284,.T.);
#286=IFCFACE((#285));
#287=IFCCARTESIANPOINT((0.,-10.,100.));
#288=IFCCARTESIANPOINT((-1000.,-10.,100.));
#289=IFCCARTESIANPOINT((-1000.,-10.,-100.));
#290=IFCCARTESIANPOINT((0.,-10.,-100.));
#291=IFCCARTESIANPOINT((1000.,-10.,-100.));
#292=IFCCARTESIANPOINT((1000.,-10.,100.));
#293=IFCPOLYLOOP((#287,#288,#289,#290,#291,#292));
#294=IFCFACEOUTERBOUND(#293,.T.);
#295=IFCFACE((#294));
#296=IFCCARTESIANPOINT((1020.,-2320.,100.));
#297=IFCCARTESIANPOINT((1020.,-2320.,-100.));
#298=IFCPOLYLOOP((#283,#282,#296,#297));
#299=IFCFACEOUTERBOUND(#298,.T.);
#300=IFCFACE((#299));
#301=IFCCARTESIANPOINT((1000.,-2300.,-100.));
#302=IFCCARTESIANPOINT((1000.,-2300.,100.));
#303=IFCPOLYLOOP((#292,#291,#301,#302));
#304=IFCFACEOUTERBOUND(#303,.T.);
#305=IFCFACE((#304));
#306=IFCCARTESIANPOINT((52.030124562390498,-2320.,100.));
#307=IFCCARTESIANPOINT((52.030124562390498,-2320.,-100.));
#308=IFCPOLYLOOP((#297,#296,#306,#307));
#309=IFCFACEOUTERBOUND(#308,.T.);
#310=IFCFACE((#309));
#311=IFCCARTESIANPOINT((63.570599220714897,-2300.,-100.));
#312=IFCCARTESIANPOINT((63.570599220714897,-2300.,100.));
#313=IFCPOLYLOOP((#302,#301,#311,#312));
#314=IFCFACEOUTERBOUND(#313,.T.);
#315=IFCFACE((#314));
#316=IFCCARTESIANPOINT((9.9998282069318503,-2247.2836795826302,100.));
#317=IFCCARTESIANPOINT((9.9998282069318503,-2247.2836795826302,-100.));
#318=IFCPOLYLOOP((#307,#306,#316,#317));
#319=IFCFACEOUTERBOUND(#318,.T.);
#320=IFCFACE((#319));
#321=IFCCARTESIANPOINT((-9.9998282069318503,-2172.7163204173698,-100.));
#322=IFCCARTESIANPOINT((-9.9998282069318503,-2172.7163204173698,100.));
#323=IFCPOLYLOOP((#312,#311,#321,#322));
#324=IFCFACEOUTERBOUND(#323,.T.);
#325=IFCFACE((#324));
#326=IFCCARTESIANPOINT((9.9989066428370297,-2447.2875558228502,100.));
#327=IFCCARTESIANPOINT((9.9989066428370297,-2447.2875558228502,-100.));
#328=IFCPOLYLOOP((#317,#316,#326,#327));
#329=IFCFACEOUTERBOUND(#328,.T.);
#330=IFCFACE((#329));
#331=IFCCARTESIANPOINT((-10.0007497710285,-2372.7201966575799,-100.));
#332=IFCCARTESIANPOINT((-10.0007497710285,-2372.7201966575799,100.));
#333=IFCPOLYLOOP((#322,#321,#331,#332));
#334=IFCFACEOUTERBOUND(#333,.T.);
#335=IFCFACE((#334));
#336=IFCCARTESIANPOINT((-63.573761265683103,-2320.,100.));
#337=IFCCARTESIANPOINT((-63.573761265683103,-2320.,-100.));
#338=IFCPOLYLOOP((#327,#326,#336,#337));
#339=IFCFACEOUTERBOUND(#338,.T.);
#340=IFCFACE((#339));
#341=IFCCARTESIANPOINT((-52.033286607358598,-2300.,-100.));
#342=IFCCARTESIANPOINT((-52.033286607358598,-2300.,100.));
#343=IFCPOLYLOOP((#332,#331,#341,#342));
#344=IFCFACEOUTERBOUND(#343,.T.);
#345=IFCFACE((#344));
#346=IFCCARTESIANPOINT((-1020.,-2320.,100.));
#347=IFCCARTESIANPOINT((-1020.,-2320.,-100.));
#348=IFCPOLYLOOP((#337,#336,#346,#347));
#349=IFCFACEOUTERBOUND(#348,.T.);
#350=IFCFACE((#349));
#351=IFCCARTESIANPOINT((-1000.,-2300.,-100.));
#352=IFCCARTESIANPOINT((-1000.,-2300.,100.));
#353=IFCPOLYLOOP((#342,#341,#351,#352));
#354=IFCFACEOUTERBOUND(#353,.T.);
#355=IFCFACE((#354));
#356=IFCPOLYLOOP((#347,#346,#280,#279));
#357=IFCFACEOUTERBOUND(#356,.T.);
#358=IFCFACE((#357));
#359=IFCPOLYLOOP((#352,#351,#289,#288));
#360=IFCFACEOUTERBOUND(#359,.T.);
#361=IFCFACE((#360));
#362=IFCPOLYLOOP((#280,#346,#336,#326,#316,#306,#296,#282,#281));
#363=IFCFACEOUTERBOUND(#362,.T.);
#364=IFCPOLYLOOP((#292,#302,#312,#322,#332,#342,#352,#288,#287));
#365=IFCFACEBOUND(#364,.T.);
#366=IFCFACE((#363,#365));
#367=IFCPOLYLOOP((#283,#297,#307,#317,#327,#337,#347,#279,#278));
#368=IFCFACEOUTERBOUND(#367,.T.);
#369=IFCPOLYLOOP((#289,#351,#341,#331,#321,#311,#301,#291,#290));
#370=IFCFACEBOUND(#369,.T.);
#371=IFCFACE((#368,#370));
#372=IFCCLOSEDSHELL((#286,#295,#300,#305,#310,#315,#320,#325,#330,#335,#340,#345,#350,#355,#358,#361,#366,#371));
#373=IFCFACETEDBREP(#372);
#374=IFCSTYLEDITEM(#373,(#277),$);
#375=IFCSHAPEREPRESENTATION(#12,'Body','Brep',(#373));
#376=IFCPRODUCTDEFINITIONSHAPE($,$,(#375));
#377=IFCCARTESIANPOINT((9000.,31100.,-10.));
#378=IFCDIRECTION((0.,-1.,0.));
#379=IFCDIRECTION((-1.,0.,0.));
#380=IFCAXIS2PLACEMENT3D(#377,#378,#379);
#381=IFCLOCALPLACEMENT(#42,#380);
#382=IFCBEAM('3Acv9Q48D2kPxt5dsm76cK',#44,'Ramme','PL200X20',$,#381,#376,'IDca9b925a-1083-42b9-9ef7-167db01c6994');
#383=IFCBEAMTYPE('134RsYU9fBAxJ_bJX_e0VN',#5,'PL200X20',$,$,$,$,$,$,.NOTDEFINED.);
#384=IFCCOLOURRGB('Unnamed',0.82352941176470595,0.82352941176470595,0.82352941176470595);
#385=IFCSURFACESTYLERENDERING(#384,0.,$,$,$,$,IFCNORMALISEDRATIOMEASURE(0.00390625),IFCSPECULAREXPONENT(10.),.NOTDEFINED.);
#386=IFCSURFACESTYLE('CONCRETE/B45_SV_Standard',.POSITIVE.,(#385));
#387=IFCPRESENTATIONSTYLEASSIGNMENT((#386));
#388=IFCCARTESIANPOINT((-135.480881269506,-100.,500.702991068458));
#389=IFCCARTESIANPOINT((-135.480881269506,100.,500.702991068458));
#390=IFCPOLYLOOP((#49,#388,#389,#52));
#391=IFCFACEOUTERBOUND(#390,.T.);
#392=IFCFACE((#391));
#393=IFCCARTESIANPOINT((-120.704657982863,-100.,520.00892424294398));
#394=IFCCARTESIANPOINT((-120.704657982863,100.,520.00892424294398));
#395=IFCPOLYLOOP((#388,#393,#394,#389));
#396=IFCFACEOUTERBOUND(#395,.T.);
#397=IFCFACE((#396));
#398=IFCCARTESIANPOINT((601.63536887932503,-100.,520.018738315939));
#399=IFCCARTESIANPOINT((601.63536887932503,100.,520.018738315939));
#400=IFCPOLYLOOP((#393,#398,#399,#394));
#401=IFCFACEOUTERBOUND(#400,.T.);
#402=IFCFACE((#401));
#403=IFCCARTESIANPOINT((620.55122624036005,-100.,500.04832270155202));
#404=IFCCARTESIANPOINT((620.55122624036005,100.,500.04832270155202));
#405=IFCPOLYLOOP((#398,#403,#404,#399));
#406=IFCFACEOUTERBOUND(#405,.T.);
#407=IFCFACE((#406));
#408=IFCCARTESIANPOINT((595.54963050708,-100.,39.995325458250598));
#409=IFCCARTESIANPOINT((595.54963050708,100.,39.995325458250598));
#410=IFCPOLYLOOP((#403,#408,#409,#404));
#411=IFCFACEOUTERBOUND(#410,.T.);
#412=IFCFACE((#411));
#413=IFCCARTESIANPOINT((525.55025587384705,-100.,-30.005314199794199));
#414=IFCCARTESIANPOINT((525.55025587384705,100.,-30.005314199794199));
#415=IFCPOLYLOOP((#408,#413,#414,#409));
#416=IFCFACEOUTERBOUND(#415,.T.);
#417=IFCFACE((#416));
#418=IFCCARTESIANPOINT((350.00026808808798,-100.,-30.006882526009601));
#419=IFCCARTESIANPOINT((350.00026808808798,100.,-30.006882526009601));
#420=IFCPOLYLOOP((#413,#418,#419,#414));
#421=IFCFACEOUTERBOUND(#420,.T.);
#422=IFCFACE((#421));
#423=IFCCARTESIANPOINT((349.99485462275402,-100.,3.3651303965598298E-10));
#424=IFCCARTESIANPOINT((349.99485462275402,100.,3.3651303965598298E-10));
#425=IFCPOLYLOOP((#418,#423,#424,#419));
#426=IFCFACEOUTERBOUND(#425,.T.);
#427=IFCFACE((#426));
#428=IFCPOLYLOOP((#423,#49,#52,#424));
#429=IFCFACEOUTERBOUND(#428,.T.);
#430=IFCFACE((#429));
#431=IFCPOLYLOOP((#394,#399,#404,#409,#414,#419,#424,#52,#389));
#432=IFCFACEOUTERBOUND(#431,.T.);
#433=IFCFACE((#432));
#434=IFCPOLYLOOP((#423,#418,#413,#408,#403,#398,#393,#388,#49));
#435=IFCFACEOUTERBOUND(#434,.T.);
#436=IFCFACE((#435));
#437=IFCCLOSEDSHELL((#392,#397,#402,#407,#412,#417,#422,#427,#430,#433,#436));
#438=IFCFACETEDBREP(#437);
#439=IFCSTYLEDITEM(#438,(#387),$);
#440=IFCSHAPEREPRESENTATION(#12,'Body','Brep',(#438));
#441=IFCPRODUCTDEFINITIONSHAPE($,$,(#440));
#442=IFCCARTESIANPOINT((9167.9306698298406,31100.,904.52935863262701));
#443=IFCDIRECTION((-0.99999999996009203,0.,8.9340000008633107E-06));
#444=IFCDIRECTION((8.9340000008667107E-06,0.,0.99999999996009203));
#445=IFCAXIS2PLACEMENT3D(#442,#443,#444);
#446=IFCLOCALPLACEMENT(#42,#445);
#447=IFCSLAB('1n3Cu$KqvBFgZIHVav2gUG',#44,'Kantbjelke','200X550',$,#446,#441,'ID710cce3f-534e-4b3e-a8d2-45f9390aa790',.NOTDEFINED.);
#448=IFCSLABTYPE('1J2VAXu3b5RgFzbZNlbOaD',#5,'200X550',$,$,$,$,$,$,.NOTDEFINED.);
#449=IFCRELAGGREGATES('0F7Y_sHIn36xDnUHtugTlc',#5,$,$,#36,(#38));
#450=IFCRELAGGREGATES('3h0AO1k$D42gMvBY904pWe',#5,$,$,#38,(#41));
#451=IFCRELAGGREGATES('0r7kvqsc13TvOWXrZ8jfnF',#5,$,$,#41,(#43));
#452=IFCRELCONTAINEDINSPATIALSTRUCTURE('249CB4hXT6WBSa2U9oyoyf',#5,$,$,(#447,#382,#271,#226,#174,#138,#99,#85),#43);
#453=IFCRELDEFINESBYTYPE('2LrYkJxdz7ogi6yLQLVzAU',#5,$,$,(#99,#85),#86);
#454=IFCRELDEFINESBYTYPE('3GBa6uNc9FQvpdkv_2tsgO',#5,$,$,(#138),#139);
#455=IFCRELDEFINESBYTYPE('0jv5mQY6D2qfJ6NVWt3CjK',#5,$,$,(#174),#175);
#456=IFCRELDEFINESBYTYPE('2WpYwGmOL0jvieJWke0F20',#5,$,$,(#226),#227);
#457=IFCRELDEFINESBYTYPE('3etoqvLL1E4OU6$S3Wc7Z_',#5,$,$,(#271),#272);
#458=IFCRELDEFINESBYTYPE('0sM5QtXcXA_u5T1VCwEv88',#5,$,$,(#382),#383);
#459=IFCRELDEFINESBYTYPE('07DifCFy9FjvDMHChAufLW',#5,$,$,(#447),#448);
#460=IFCRELASSOCIATESMATERIAL('2BLYRy7qL9iRpYGWvktOkO',#5,$,$,(#382,#226,#174,#138,#99,#85),#87);
#461=IFCRELASSOCIATESMATERIAL('2zDyThomb0$PYAIbuNbQey',#5,$,$,(#447,#271),#273);
#462=IFCPRESENTATIONLAYERASSIGNMENT('Asfaltdekker_slitelag',$,(#78),$);
#463=IFCPRESENTATIONLAYERASSIGNMENT('Asfaltdekker_bindlag',$,(#94),$);
#464=IFCPRESENTATIONLAYERASSIGNMENT('Topeka',$,(#131,#167),$);
#465=IFCPRESENTATIONLAYERASSIGNMENT('C60BP2',$,(#219),$);
#466=IFCPRESENTATIONLAYERASSIGNMENT('Bruplate',$,(#264),$);
#467=IFCPRESENTATIONLAYERASSIGNMENT('Ramme',$,(#375),$);
#468=IFCPRESENTATIONLAYERASSIGNMENT('Kantbjelke',$,(#440),$);
#469=IFCOWNERHISTORY(#3,#4,.READWRITE.,.ADDED.,1789134012,#3,#4,1789134012);
#470=IFCPROPERTYSET('1_2lw5Ucz8eOyfru6fJc5e',#469,'BIM_Tverrfaglig',$,(#473,#474,#475,#476,#477));
#471=IFCOWNERHISTORY(#3,#4,.READWRITE.,.ADDED.,1789134012,#3,#4,1789134012);
#472=IFCRELDEFINESBYPROPERTIES('2RX0UO9Gb3uhB8zIOr9NIH',#471,$,$,(#226),#470);
#473=IFCPROPERTYSINGLEVALUE('BIM.04 - MMI',$,IFCTEXT('350'),$);
#474=IFCPROPERTYSINGLEVALUE('BIM.05 - Elementnavn',$,IFCTEXT('C60BP2'),$);
#475=IFCPROPERTYSINGLEVALUE('BIM.06 - Fag',$,IFCTEXT('KON'),$);
#476=IFCPROPERTYSINGLEVALUE('BIM.07 - Revisjon',$,IFCTEXT('A'),$);
#477=IFCPROPERTYSINGLEVALUE('BIM.08 - Revisjonsdato',$,IFCTEXT('2023-01-16'),$);
#478=IFCOWNERHISTORY(#3,#4,.READWRITE.,.ADDED.,1789134012,#3,#4,1789134012);
#479=IFCPROPERTYSET('1C4ky47lP2aecxwgOPDXkr',#478,'KON_Felles',$,(#482,#483,#484,#485,#486,#487,#488,#489,#490,#491,#492,#493));
#480=IFCOWNERHISTORY(#3,#4,.READWRITE.,.ADDED.,1789134012,#3,#4,1789134012);
#481=IFCRELDEFINESBYPROPERTIES('30g_aJtYH3IxVu7xQ$5PWP',#480,$,$,(#226),#479);
#482=IFCPROPERTYSINGLEVALUE('KON.01 - Konstruksjonsnummer',$,IFCTEXT('K100'),$);
#483=IFCPROPERTYSINGLEVALUE('KON.03 - Akse',$,IFCTEXT('01'),$);
#484=IFCPROPERTYSINGLEVALUE('KON.10 - Konstruksjonsinndeling',$,IFCTEXT('Bru'),$);
#485=IFCPROPERTYSINGLEVALUE('KON.11 - Konstruksjonsdel',$,IFCTEXT('Bolt'),$);
#486=IFCPROPERTYSINGLEVALUE('KON.13 - Elementnavn',$,IFCTEXT('C60BP2'),$);
#487=IFCPROPERTYSINGLEVALUE('KON.20 - Produksjonsenhet',$,IFCTEXT('PLD-1002'),$);
#488=IFCPROPERTYSINGLEVALUE('KON.30 - Plasseringsprioritet',$,IFCTEXT('2 - Viker for 1'),$);
#489=IFCPROPERTYSINGLEVALUE('KON.31 - Plasseringsmerknad',$,IFCTEXT('Ikke angitt'),$);
#490=IFCPROPERTYSINGLEVALUE('KON.40 - Materialtype',$,IFCTEXT('St\X2\00E5\X0\l'),$);
#491=IFCPROPERTYSINGLEVALUE('KON.41 - Materialspesifikasjon',$,IFCTEXT('C60BP2'),$);
#492=IFCPROPERTYSINGLEVALUE('KON.51 - Produksjonsmerknad 1',$,IFCTEXT('Ikke angitt'),$);
#493=IFCPROPERTYSINGLEVALUE('KON.53 - Utf\X2\00F8\X0\relsesmerknad 1',$,IFCTEXT('Ikke angitt'),$);
#494=IFCOWNERHISTORY(#3,#4,.READWRITE.,.ADDED.,1789134012,#3,#4,1789134012);
#495=IFCPROPERTYSET('3OlCm$jJzBHPD9BmGH420Y',#494,'KON_Festemidler',$,(#498,#499,#500,#501,#502,#503,#504,#505,#506,#507,#508,#509));
#496=IFCOWNERHISTORY(#3,#4,.READWRITE.,.ADDED.,1789134012,#3,#4,1789134012);
#497=IFCRELDEFINESBYPROPERTIES('30AA9kgK11MvFGb8zDvJiK',#496,$,$,(#226),#495);
#498=IFCPROPERTYSINGLEVALUE('FMI.01 - Navn',$,IFCTEXT('C60BP2'),$);
#499=IFCPROPERTYSINGLEVALUE('FMI.02 - Antall skruer',$,IFCINTEGER(1),$);
#500=IFCPROPERTYSINGLEVALUE('FMI.03 - Skruediameter',$,IFCLENGTHMEASURE(20.),$);
#501=IFCPROPERTYSINGLEVALUE('FMI.04 - Skruelengde',$,IFCLENGTHMEASURE(100.),$);
#502=IFCPROPERTYSINGLEVALUE('FMI.05 - Kvalitet',$,IFCTEXT('8.8'),$);
#503=IFCPROPERTYSINGLEVALUE('FMI.06 - Monteringssted',$,IFCTEXT('Byggeplass'),$);
#504=IFCPROPERTYSINGLEVALUE('FMI.10 - Hulldiameter',$,IFCLENGTHMEASURE(22.),$);
#505=IFCPROPERTYSINGLEVALUE('FMI.11 - Hullmerknad',$,IFCTEXT('Ikke angitt'),$);
#506=IFCPROPERTYSINGLEVALUE('FMI.30 - Mutternavn',$,IFCTEXT('Ikke aktuelt'),$);
#507=IFCPROPERTYSINGLEVALUE('FMI.31 - Antall muttere',$,IFCINTEGER(0),$);
#508=IFCPROPERTYSINGLEVALUE('FMI.40 - Skivenavn',$,IFCTEXT('Ikke aktuelt'),$);
#509=IFCPROPERTYSINGLEVALUE('FMI.41 - Antall skiver',$,IFCINTEGER(0),$);
#510=IFCOWNERHISTORY(#3,#4,.READWRITE.,.ADDED.,1789134012,#3,#4,1789134012);
#511=IFCPROPERTYSET('1am1IshVz59gJH5m8CFus7',#510,'BIM_Tverrfaglig',$,(#514,#515,#516,#517,#518));
#512=IFCOWNERHISTORY(#3,#4,.READWRITE.,.ADDED.,1789134012,#3,#4,1789134012);
#513=IFCRELDEFINESBYPROPERTIES('3gqSGo0gT4LxmrVcyxFjml',#512,$,$,(#85),#511);
#514=IFCPROPERTYSINGLEVALUE('BIM.04 - MMI',$,IFCTEXT('350'),$);
#515=IFCPROPERTYSINGLEVALUE('BIM.05 - Elementnavn',$,IFCTEXT('Asfaltdekker slitelag'),$);
#516=IFCPROPERTYSINGLEVALUE('BIM.06 - Fag',$,IFCTEXT('KON'),$);
#517=IFCPROPERTYSINGLEVALUE('BIM.07 - Revisjon',$,IFCTEXT('A'),$);
#518=IFCPROPERTYSINGLEVALUE('BIM.08 - Revisjonsdato',$,IFCTEXT('2023-01-16'),$);
#519=IFCOWNERHISTORY(#3,#4,.READWRITE.,.ADDED.,1789134012,#3,#4,1789134012);
#520=IFCPROPERTYSET('3udk0p2Uz8j95J3TobBBJJ',#519,'KON_Felles',$,(#523,#524,#525,#526,#527,#528,#529,#530,#531,#532,#533,#534));
#521=IFCOWNERHISTORY(#3,#4,.READWRITE.,.ADDED.,1789134012,#3,#4,1789134012);
#522=IFCRELDEFINESBYPROPERTIES('235Q5sn6fENg$y6NdpNN6e',#521,$,$,(#85),#520);
#523=IFCPROPERTYSINGLEVALUE('KON.01 - Konstruksjonsnummer',$,IFCTEXT('K100'),$);
#524=IFCPROPERTYSINGLEVALUE('KON.03 - Akse',$,IFCTEXT('01'),$);
#525=IFCPROPERTYSINGLEVALUE('KON.10 - Konstruksjonsinndeling',$,IFCTEXT('Bru'),$);
#526=IFCPROPERTYSINGLEVALUE('KON.11 - Konstruksjonsdel',$,IFCTEXT('Asfaltdekke'),$);
#527=IFCPROPERTYSINGLEVALUE('KON.13 - Elementnavn',$,IFCTEXT('Asfaltdekker slitelag'),$);
#528=IFCPROPERTYSINGLEVALUE('KON.20 - Produksjonsenhet',$,IFCTEXT('PLD-1002'),$);
#529=IFCPROPERTYSINGLEVALUE('KON.30 - Plasseringsprioritet',$,IFCTEXT('2 - Viker for 1'),$);
#530=IFCPROPERTYSINGLEVALUE('KON.31 - Plasseringsmerknad',$,IFCTEXT('Ikke angitt'),$);
#531=IFCPROPERTYSINGLEVALUE('KON.40 - Materialtype',$,IFCTEXT('Asfalt'),$);
#532=IFCPROPERTYSINGLEVALUE('KON.41 - Materialspesifikasjon',$,IFCTEXT('Slitelag'),$);
#533=IFCPROPERTYSINGLEVALUE('KON.51 - Produksjonsmerknad 1',$,IFCTEXT('Ikke angitt'),$);
#534=IFCPROPERTYSINGLEVALUE('KON.53 - Utf\X2\00F8\X0\relsesmerknad 1',$,IFCTEXT('Ikke angitt'),$);
#535=IFCOWNERHISTORY(#3,#4,.READWRITE.,.ADDED.,1789134012,#3,#4,1789134012);
#536=IFCPROPERTYSET('3jm3KtkrXFM8ECjHncbje1',#535,'BIM_Tverrfaglig',$,(#539,#540,#541,#542,#543));
#537=IFCOWNERHISTORY(#3,#4,.READWRITE.,.ADDED.,1789134012,#3,#4,1789134012);
#538=IFCRELDEFINESBYPROPERTIES('3StQ3Q40TCifgz$QMeXNBW',#537,$,$,(#99),#536);
#539=IFCPROPERTYSINGLEVALUE('BIM.04 - MMI',$,IFCTEXT('350'),$);
#540=IFCPROPERTYSINGLEVALUE('BIM.05 - Elementnavn',$,IFCTEXT('Asfaltdekker bindlag'),$);
#541=IFCPROPERTYSINGLEVALUE('BIM.06 - Fag',$,IFCTEXT('KON'),$);
#542=IFCPROPERTYSINGLEVALUE('BIM.07 - Revisjon',$,IFCTEXT('A'),$);
#543=IFCPROPERTYSINGLEVALUE('BIM.08 - Revisjonsdato',$,IFCTEXT('2023-01-16'),$);
#544=IFCOWNERHISTORY(#3,#4,.READWRITE.,.ADDED.,1789134012,#3,#4,1789134012);
#545=IFCPROPERTYSET('1Kl71A_3T21ODPd8GD65F9',#544,'KON_Felles',$,(#548,#549,#550,#551,#552,#553,#554,#555,#556,#557,#558,#559));
#546=IFCOWNERHISTORY(#3,#4,.READWRITE.,.ADDED.,1789134012,#3,#4,1789134012);
#547=IFCRELDEFINESBYPROPERTIES('27ijzjE7nAw8Ti5D8W5BWG',#546,$,$,(#99),#545);
#548=IFCPROPERTYSINGLEVALUE('KON.01 - Konstruksjonsnummer',$,IFCTEXT('K100'),$);
#549=IFCPROPERTYSINGLEVALUE('KON.03 - Akse',$,IFCTEXT('01'),$);
#550=IFCPROPERTYSINGLEVALUE('KON.10 - Konstruksjonsinndeling',$,IFCTEXT('Bru'),$);
#551=IFCPROPERTYSINGLEVALUE('KON.11 - Konstruksjonsdel',$,IFCTEXT('Asfaltdekke'),$);
#552=IFCPROPERTYSINGLEVALUE('KON.13 - Elementnavn',$,IFCTEXT('Asfaltdekker bindlag'),$);
#553=IFCPROPERTYSINGLEVALUE('KON.20 - Produksjonsenhet',$,IFCTEXT('PLD-1002'),$);
#554=IFCPROPERTYSINGLEVALUE('KON.30 - Plasseringsprioritet',$,IFCTEXT('2 - Viker for 1'),$);
#555=IFCPROPERTYSINGLEVALUE('KON.31 - Plasseringsmerknad',$,IFCTEXT('Ikke angitt'),$);
#556=IFCPROPERTYSINGLEVALUE('KON.40 - Materialtype',$,IFCTEXT('Asfalt'),$);
#557=IFCPROPERTYSINGLEVALUE('KON.41 - Materialspesifikasjon',$,IFCTEXT('Bindlag'),$);
#558=IFCPROPERTYSINGLEVALUE('KON.51 - Produksjonsmerknad 1',$,IFCTEXT('Ikke angitt'),$);
#559=IFCPROPERTYSINGLEVALUE('KON.53 - Utf\X2\00F8\X0\relsesmerknad 1',$,IFCTEXT('Ikke angitt'),$);
#560=IFCOWNERHISTORY(#3,#4,.READWRITE.,.ADDED.,1789134012,#3,#4,1789134012);
#561=IFCPROPERTYSET('1OaY_Ws6D0yfavpQy1E9kV',#560,'BIM_Tverrfaglig',$,(#564,#565,#566,#567,#568));
#562=IFCOWNERHISTORY(#3,#4,.READWRITE.,.ADDED.,1789134012,#3,#4,1789134012);
#563=IFCRELDEFINESBYPROPERTIES('1rsM9UmYLCk867aTGtL5FK',#562,$,$,(#138),#561);
#564=IFCPROPERTYSINGLEVALUE('BIM.04 - MMI',$,IFCTEXT('350'),$);
#565=IFCPROPERTYSINGLEVALUE('BIM.05 - Elementnavn',$,IFCTEXT('Topeka'),$);
#566=IFCPROPERTYSINGLEVALUE('BIM.06 - Fag',$,IFCTEXT('KON'),$);
#567=IFCPROPERTYSINGLEVALUE('BIM.07 - Revisjon',$,IFCTEXT('A'),$);
#568=IFCPROPERTYSINGLEVALUE('BIM.08 - Revisjonsdato',$,IFCTEXT('2023-01-16'),$);
#569=IFCOWNERHISTORY(#3,#4,.READWRITE.,.ADDED.,1789134012,#3,#4,1789134012);
#570=IFCPROPERTYSET('2pU$u7aej6qAECmG48XHbP',#569,'KON_Felles',$,(#573,#574,#575,#576,#577,#578,#579,#580,#581,#582,#583,#584));
#571=IFCOWNERHISTORY(#3,#4,.READWRITE.,.ADDED.,1789134012,#3,#4,1789134012);
#572=IFCRELDEFINESBYPROPERTIES('25yEzSSjr8fhYaR$M1nVcr',#571,$,$,(#138),#570);
#573=IFCPROPERTYSINGLEVALUE('KON.01 - Konstruksjonsnummer',$,IFCTEXT('K100'),$);
#574=IFCPROPERTYSINGLEVALUE('KON.03 - Akse',$,IFCTEXT('01'),$);
#575=IFCPROPERTYSINGLEVALUE('KON.10 - Konstruksjonsinndeling',$,IFCTEXT('Bru'),$);
#576=IFCPROPERTYSINGLEVALUE('KON.11 - Konstruksjonsdel',$,IFCTEXT('Fuktisolering'),$);
#577=IFCPROPERTYSINGLEVALUE('KON.13 - Elementnavn',$,IFCTEXT('Topeka'),$);
#578=IFCPROPERTYSINGLEVALUE('KON.20 - Produksjonsenhet',$,IFCTEXT('PLD-1002'),$);
#579=IFCPROPERTYSINGLEVALUE('KON.30 - Plasseringsprioritet',$,IFCTEXT('2 - Viker for 1'),$);
#580=IFCPROPERTYSINGLEVALUE('KON.31 - Plasseringsmerknad',$,IFCTEXT('Ikke angitt'),$);
#581=IFCPROPERTYSINGLEVALUE('KON.40 - Materialtype',$,IFCTEXT('Fuktisolering'),$);
#582=IFCPROPERTYSINGLEVALUE('KON.41 - Materialspesifikasjon',$,IFCTEXT('Topeka'),$);
#583=IFCPROPERTYSINGLEVALUE('KON.51 - Produksjonsmerknad 1',$,IFCTEXT('Ikke angitt'),$);
#584=IFCPROPERTYSINGLEVALUE('KON.53 - Utf\X2\00F8\X0\relsesmerknad 1',$,IFCTEXT('Ikke angitt'),$);
#585=IFCOWNERHISTORY(#3,#4,.READWRITE.,.ADDED.,1789134012,#3,#4,1789134012);
#586=IFCPROPERTYSET('3ey79U2m16rugx2fpt_8y0',#585,'BIM_Tverrfaglig',$,(#589,#590,#591,#592,#593));
#587=IFCOWNERHISTORY(#3,#4,.READWRITE.,.ADDED.,1789134012,#3,#4,1789134012);
#588=IFCRELDEFINESBYPROPERTIES('0ZVz7t6X1F6hP2fGK1CIvB',#587,$,$,(#174),#586);
#589=IFCPROPERTYSINGLEVALUE('BIM.04 - MMI',$,IFCTEXT('350'),$);
#590=IFCPROPERTYSINGLEVALUE('BIM.05 - Elementnavn',$,IFCTEXT('Topeka'),$);
#591=IFCPROPERTYSINGLEVALUE('BIM.06 - Fag',$,IFCTEXT('KON'),$);
#592=IFCPROPERTYSINGLEVALUE('BIM.07 - Revisjon',$,IFCTEXT('A'),$);
#593=IFCPROPERTYSINGLEVALUE('BIM.08 - Revisjonsdato',$,IFCTEXT('2023-01-16'),$);
#594=IFCOWNERHISTORY(#3,#4,.READWRITE.,.ADDED.,1789134012,#3,#4,1789134012);
#595=IFCPROPERTYSET('3B53P1GUn4Du3Ywl9_88Y_',#594,'KON_Felles',$,(#598,#599,#600,#601,#602,#603,#604,#605,#606,#607,#608,#609));
#596=IFCOWNERHISTORY(#3,#4,.READWRITE.,.ADDED.,1789134012,#3,#4,1789134012);
#597=IFCRELDEFINESBYPROPERTIES('1xjL2l_hX48fTGOOfiVMa_',#596,$,$,(#174),#595);
#598=IFCPROPERTYSINGLEVALUE('KON.01 - Konstruksjonsnummer',$,IFCTEXT('K100'),$);
#599=IFCPROPERTYSINGLEVALUE('KON.03 - Akse',$,IFCTEXT('01'),$);
#600=IFCPROPERTYSINGLEVALUE('KON.10 - Konstruksjonsinndeling',$,IFCTEXT('Bru'),$);
#601=IFCPROPERTYSINGLEVALUE('KON.11 - Konstruksjonsdel',$,IFCTEXT('Fuktisolering'),$);
#602=IFCPROPERTYSINGLEVALUE('KON.13 - Elementnavn',$,IFCTEXT('Topeka'),$);
#603=IFCPROPERTYSINGLEVALUE('KON.20 - Produksjonsenhet',$,IFCTEXT('PLD-1002'),$);
#604=IFCPROPERTYSINGLEVALUE('KON.30 - Plasseringsprioritet',$,IFCTEXT('2 - Viker for 1'),$);
#605=IFCPROPERTYSINGLEVALUE('KON.31 - Plasseringsmerknad',$,IFCTEXT('Ikke angitt'),$);
#606=IFCPROPERTYSINGLEVALUE('KON.40 - Materialtype',$,IFCTEXT('Fuktisolering'),$);
#607=IFCPROPERTYSINGLEVALUE('KON.41 - Materialspesifikasjon',$,IFCTEXT('Topeka'),$);
#608=IFCPROPERTYSINGLEVALUE('KON.51 - Produksjonsmerknad 1',$,IFCTEXT('Ikke angitt'),$);
#609=IFCPROPERTYSINGLEVALUE('KON.53 - Utf\X2\00F8\X0\relsesmerknad 1',$,IFCTEXT('Ikke angitt'),$);
#610=IFCOWNERHISTORY(#3,#4,.READWRITE.,.ADDED.,1789134012,#3,#4,1789134012);
#611=IFCPROPERTYSET('1KPnt5s2bD9hB823xJJJ5A',#610,'BIM_Tverrfaglig',$,(#614,#615,#616,#617,#618));
#612=IFCOWNERHISTORY(#3,#4,.READWRITE.,.ADDED.,1789134012,#3,#4,1789134012);
#613=IFCRELDEFINESBYPROPERTIES('2kNYVKsZjDPOgSXUnaSiry',#612,$,$,(#271),#611);
#614=IFCPROPERTYSINGLEVALUE('BIM.04 - MMI',$,IFCTEXT('350'),$);
#615=IFCPROPERTYSINGLEVALUE('BIM.05 - Elementnavn',$,IFCTEXT('Bruplate'),$);
#616=IFCPROPERTYSINGLEVALUE('BIM.06 - Fag',$,IFCTEXT('KON'),$);
#617=IFCPROPERTYSINGLEVALUE('BIM.07 - Revisjon',$,IFCTEXT('A'),$);
#618=IFCPROPERTYSINGLEVALUE('BIM.08 - Revisjonsdato',$,IFCTEXT('2023-01-16'),$);
#619=IFCOWNERHISTORY(#3,#4,.READWRITE.,.ADDED.,1789134012,#3,#4,1789134012);
#620=IFCPROPERTYSET('0kgr4sdFD3Je52agBVWo9h',#619,'KON_Felles',$,(#623,#624,#625,#626,#627,#628,#629,#630,#631,#632,#633,#634));
#621=IFCOWNERHISTORY(#3,#4,.READWRITE.,.ADDED.,1789134012,#3,#4,1789134012);
#622=IFCRELDEFINESBYPROPERTIES('15EiW5gbD7uBVJy0W9gY8k',#621,$,$,(#271),#620);
#623=IFCPROPERTYSINGLEVALUE('KON.01 - Konstruksjonsnummer',$,IFCTEXT('K100'),$);
#624=IFCPROPERTYSINGLEVALUE('KON.03 - Akse',$,IFCTEXT('01'),$);
#625=IFCPROPERTYSINGLEVALUE('KON.10 - Konstruksjonsinndeling',$,IFCTEXT('Bru'),$);
#626=IFCPROPERTYSINGLEVALUE('KON.11 - Konstruksjonsdel',$,IFCTEXT('Bruplate'),$);
#627=IFCPROPERTYSINGLEVALUE('KON.13 - Elementnavn',$,IFCTEXT('Bruplate'),$);
#628=IFCPROPERTYSINGLEVALUE('KON.20 - Produksjonsenhet',$,IFCTEXT('PLD-1002'),$);
#629=IFCPROPERTYSINGLEVALUE('KON.30 - Plasseringsprioritet',$,IFCTEXT('2 - Viker for 1'),$);
#630=IFCPROPERTYSINGLEVALUE('KON.31 - Plasseringsmerknad',$,IFCTEXT('Ikke angitt'),$);
#631=IFCPROPERTYSINGLEVALUE('KON.40 - Materialtype',$,IFCTEXT('Betong'),$);
#632=IFCPROPERTYSINGLEVALUE('KON.41 - Materialspesifikasjon',$,IFCTEXT('B45 SV-Standard'),$);
#633=IFCPROPERTYSINGLEVALUE('KON.51 - Produksjonsmerknad 1',$,IFCTEXT('Ikke angitt'),$);
#634=IFCPROPERTYSINGLEVALUE('KON.53 - Utf\X2\00F8\X0\relsesmerknad 1',$,IFCTEXT('Ikke angitt'),$);
#635=IFCOWNERHISTORY(#3,#4,.READWRITE.,.ADDED.,1789134012,#3,#4,1789134012);
#636=IFCPROPERTYSET('0fBJl9mF9ESQJyPNt7A2M3',#635,'KON_Betong',$,(#639,#640,#641,#642,#643,#644,#645,#646));
#637=IFCOWNERHISTORY(#3,#4,.READWRITE.,.ADDED.,1789134012,#3,#4,1789134012);
#638=IFCRELDEFINESBYPROPERTIES('2D9anc$Gz4ZQ6pvau4_DwI',#637,$,$,(#271),#636);
#639=IFCPROPERTYSINGLEVALUE('BET.01 - Utf\X2\00F8\X0\relsesklasse',$,IFCTEXT('2'),$);
#640=IFCPROPERTYSINGLEVALUE('BET.02 - N\X2\00F8\X0\yaktighetsklasse',$,IFCTEXT('B'),$);
#641=IFCPROPERTYSINGLEVALUE('BET.04 - Materialspesifikasjon (dup)',$,IFCTEXT('B45 SV-Standard'),$);
#642=IFCPROPERTYSINGLEVALUE('BET.10 - Produksjonsmetode',$,IFCTEXT('Plasst\X2\00F8\X0\pt'),$);
#643=IFCPROPERTYSINGLEVALUE('BET.11 - Forskaling',$,IFCTEXT('St\X2\00E5\X0\ende bord'),$);
#644=IFCPROPERTYSINGLEVALUE('BET.21 - Overdekning hovedarmering',$,IFCTEXT('UK, NS og FS: 75mm \X2\00B1\X0\15mm, OK: 65mm \X2\00B1\X0\15mm'),$);
#645=IFCPROPERTYSINGLEVALUE('BET.30 - Diameter monteringsstenger',$,IFCTEXT('12 mm'),$);
#646=IFCPROPERTYSINGLEVALUE('BET.31 - Overdekning monteringsstenger',$,IFCTEXT('UK, NS og FS: 60mm \X2\00B1\X0\5mm, OK: 50mm \X2\00B1\X0\5mm'),$);
#647=IFCOWNERHISTORY(#3,#4,.READWRITE.,.ADDED.,1789134012,#3,#4,1789134012);
#648=IFCPROPERTYSET('3ES_OZkBjDa9aaeEcTi5i8',#647,'BIM_Tverrfaglig',$,(#651,#652,#653,#654,#655));
#649=IFCOWNERHISTORY(#3,#4,.READWRITE.,.ADDED.,1789134012,#3,#4,1789134012);
#650=IFCRELDEFINESBYPROPERTIES('2Vw3fswE5EwPxXKH2bF_7d',#649,$,$,(#447),#648);
#651=IFCPROPERTYSINGLEVALUE('BIM.04 - MMI',$,IFCTEXT('350'),$);
#652=IFCPROPERTYSINGLEVALUE('BIM.05 - Elementnavn',$,IFCTEXT('Kantbjelke'),$);
#653=IFCPROPERTYSINGLEVALUE('BIM.06 - Fag',$,IFCTEXT('KON'),$);
#654=IFCPROPERTYSINGLEVALUE('BIM.07 - Revisjon',$,IFCTEXT('A'),$);
#655=IFCPROPERTYSINGLEVALUE('BIM.08 - Revisjonsdato',$,IFCTEXT('2023-01-16'),$);
#656=IFCOWNERHISTORY(#3,#4,.READWRITE.,.ADDED.,1789134012,#3,#4,1789134012);
#657=IFCPROPERTYSET('0LCczT03j7HgvrR_Py$EK0',#656,'KON_Felles',$,(#660,#661,#662,#663,#664,#665,#666,#667,#668,#669,#670,#671));
#658=IFCOWNERHISTORY(#3,#4,.READWRITE.,.ADDED.,1789134012,#3,#4,1789134012);
#659=IFCRELDEFINESBYPROPERTIES('0YUhTi61XBYP18Fgb_iuvL',#658,$,$,(#447),#657);
#660=IFCPROPERTYSINGLEVALUE('KON.01 - Konstruksjonsnummer',$,IFCTEXT('K100'),$);
#661=IFCPROPERTYSINGLEVALUE('KON.03 - Akse',$,IFCTEXT('01'),$);
#662=IFCPROPERTYSINGLEVALUE('KON.10 - Konstruksjonsinndeling',$,IFCTEXT('Bru'),$);
#663=IFCPROPERTYSINGLEVALUE('KON.11 - Konstruksjonsdel',$,IFCTEXT('Kantbjelke'),$);
#664=IFCPROPERTYSINGLEVALUE('KON.13 - Elementnavn',$,IFCTEXT('Kantbjelke'),$);
#665=IFCPROPERTYSINGLEVALUE('KON.20 - Produksjonsenhet',$,IFCTEXT('PLD-1002'),$);
#666=IFCPROPERTYSINGLEVALUE('KON.30 - Plasseringsprioritet',$,IFCTEXT('2 - Viker for 1'),$);
#667=IFCPROPERTYSINGLEVALUE('KON.31 - Plasseringsmerknad',$,IFCTEXT('Ikke angitt'),$);
#668=IFCPROPERTYSINGLEVALUE('KON.40 - Materialtype',$,IFCTEXT('Betong'),$);
#669=IFCPROPERTYSINGLEVALUE('KON.41 - Materialspesifikasjon',$,IFCTEXT('B45 SV-Standard'),$);
#670=IFCPROPERTYSINGLEVALUE('KON.51 - Produksjonsmerknad 1',$,IFCTEXT('Ikke angitt'),$);
#671=IFCPROPERTYSINGLEVALUE('KON.53 - Utf\X2\00F8\X0\relsesmerknad 1',$,IFCTEXT('Ikke angitt'),$);
#672=IFCOWNERHISTORY(#3,#4,.READWRITE.,.ADDED.,1789134012,#3,#4,1789134012);
#673=IFCPROPERTYSET('3_TROlf0X5pAMd8gdNt$2x',#672,'KON_Betong',$,(#676,#677,#678,#679,#680,#681,#682,#683));
#674=IFCOWNERHISTORY(#3,#4,.READWRITE.,.ADDED.,1789134012,#3,#4,1789134012);
#675=IFCRELDEFINESBYPROPERTIES('2ggoA3KdLDEhql5H9RFDFA',#674,$,$,(#447),#673);
#676=IFCPROPERTYSINGLEVALUE('BET.01 - Utf\X2\00F8\X0\relsesklasse',$,IFCTEXT('2'),$);
#677=IFCPROPERTYSINGLEVALUE('BET.02 - N\X2\00F8\X0\yaktighetsklasse',$,IFCTEXT('B'),$);
#678=IFCPROPERTYSINGLEVALUE('BET.04 - Materialspesifikasjon (dup)',$,IFCTEXT('B45 SV-Standard'),$);
#679=IFCPROPERTYSINGLEVALUE('BET.10 - Produksjonsmetode',$,IFCTEXT('Plasst\X2\00F8\X0\pt'),$);
#680=IFCPROPERTYSINGLEVALUE('BET.11 - Forskaling',$,IFCTEXT('St\X2\00E5\X0\ende bord'),$);
#681=IFCPROPERTYSINGLEVALUE('BET.21 - Overdekning hovedarmering',$,IFCTEXT('UK, NS og FS: 75mm \X2\00B1\X0\15mm, OK: 65mm \X2\00B1\X0\15mm'),$);
#682=IFCPROPERTYSINGLEVALUE('BET.30 - Diameter monteringsstenger',$,IFCTEXT('12 mm'),$);
#683=IFCPROPERTYSINGLEVALUE('BET.31 - Overdekning monteringsstenger',$,IFCTEXT('UK, NS og FS: 60mm \X2\00B1\X0\5mm, OK: 50mm \X2\00B1\X0\5mm'),$);
ENDSEC;
END-ISO-10303-21;
