ISO-10303-21;
HEADER;
FILE_DESCRIPTION(('ViewDefinition[CoordinationView_V2.0]','ExchangeRequirement[Structural, SurfaceGeometry]','Option [GridExport:Off]','Option [Assemblies:Off]','Option [Bolts:On]','Option [Rebars:On]','Option [PourObjects:Off]','Option [Welds:Off]','Option [SurfaceTreatments:Off]','Option [LocationBy:0]','Option [ViewColors:On]','Option [SectionedSpine:Off]','Option [PropertySets:On]','Option [Export all:Off]'),'2;1');
FILE_NAME('SNACKS_Detalj_Nivelleringsbolt.ifc','2026-08-28T11:48:54',('SWECO\\NOULVE'),('Structural Designer'),'IFC Parser','Tekla Structures 2025 Service Pack 7, IFC Export Version: 4.0.0.0 Feb 24 2026','');
FILE_SCHEMA(('IFC2X3'));
ENDSEC;
DATA;
#1=IFCPERSON('SWECO\\NOULVE','Undefined',$,$,$,$,$,$);
#2=IFCORGANIZATION($,'Trimble Solutions Corporation',$,$,$);
#3=IFCPERSONANDORGANIZATION(#1,#2,$);
#4=IFCAPPLICATION(#2,'2025 Service Pack 7','Tekla Structures','Multi material modeling');
#5=IFCOWNERHISTORY(#3,#4,$,.NOCHANGE.,$,$,$,1787910534);
#6=IFCCARTESIANPOINT((0.,0.,0.));
#7=IFCDIRECTION((1.,0.,0.));
#8=IFCDIRECTION((0.,1.,0.));
#9=IFCDIRECTION((0.,0.,1.));
#10=IFCAXIS2PLACEMENT3D(#6,#9,#7);
#11=IFCGEOMETRICREPRESENTATIONCONTEXT($,'Model',3,1.0000000000000001E-05,#10,$);
#12=IFCGEOMETRICREPRESENTATIONSUBCONTEXT('Body','Model',*,*,*,*,#11,$,.MODEL_VIEW.,$);
#13=IFCGEOMETRICREPRESENTATIONSUBCONTEXT('Axis','Model',*,*,*,*,#11,$,.GRAPH_VIEW.,$);
#14=IFCSIUNIT(*,.LENGTHUNIT.,.MILLI.,.METRE.);
#15=IFCMEASUREWITHUNIT(IFCRATIOMEASURE(304.80000000000001),#14);
#16=IFCDIMENSIONALEXPONENTS(1,0,0,0,0,0,0);
#17=IFCCONVERSIONBASEDUNIT(#16,.LENGTHUNIT.,'FOOT',#15);
#18=IFCSIUNIT(*,.AREAUNIT.,$,.SQUARE_METRE.);
#19=IFCMEASUREWITHUNIT(IFCRATIOMEASURE(0.092903040000000006),#18);
#20=IFCDIMENSIONALEXPONENTS(2,0,0,0,0,0,0);
#21=IFCCONVERSIONBASEDUNIT(#20,.AREAUNIT.,'SQUARE FOOT',#19);
#22=IFCSIUNIT(*,.VOLUMEUNIT.,$,.CUBIC_METRE.);
#23=IFCMEASUREWITHUNIT(IFCRATIOMEASURE(0.028316846592000001),#22);
#24=IFCDIMENSIONALEXPONENTS(3,0,0,0,0,0,0);
#25=IFCCONVERSIONBASEDUNIT(#24,.VOLUMEUNIT.,'CUBIC FOOT',#23);
#26=IFCSIUNIT(*,.MASSUNIT.,.KILO.,.GRAM.);
#27=IFCSIUNIT(*,.TIMEUNIT.,$,.SECOND.);
#28=IFCSIUNIT(*,.PLANEANGLEUNIT.,$,.RADIAN.);
#29=IFCMEASUREWITHUNIT(IFCRATIOMEASURE(0.017453292519943299),#28);
#30=IFCDIMENSIONALEXPONENTS(0,0,0,0,0,0,0);
#31=IFCCONVERSIONBASEDUNIT(#30,.PLANEANGLEUNIT.,'DEGREE',#29);
#32=IFCSIUNIT(*,.SOLIDANGLEUNIT.,$,.STERADIAN.);
#33=IFCSIUNIT(*,.THERMODYNAMICTEMPERATUREUNIT.,$,.DEGREE_CELSIUS.);
#34=IFCSIUNIT(*,.LUMINOUSINTENSITYUNIT.,$,.LUMEN.);
#35=IFCUNITASSIGNMENT((#14,#18,#22,#26,#27,#28,#32,#33,#34));
#36=IFCPROJECT('2YG0JLJLPAvRd9NM8hMiC$',#5,'SNACKS Detalj Nivelleringsbolt',$,$,$,$,(#11),#35);
#37=IFCLOCALPLACEMENT($,#10);
#38=IFCSITE('0cHbuZ7tTAAARUvYnq2GoH',#5,'SNACKS Detalj Nivelleringsbolt',$,$,#37,$,$,.ELEMENT.,$,$,$,$,$);
#39=IFCPOSTALADDRESS($,' ',$,' ',$,' ',' ',' ',' ',' ');
#40=IFCLOCALPLACEMENT(#37,#10);
#41=IFCBUILDING('2cH2Ye1ODFPROjgJsPA4pC',#5,'Bru',$,$,#40,$,$,.ELEMENT.,$,$,#39);
#42=IFCLOCALPLACEMENT(#40,#10);
#43=IFCBUILDINGSTOREY('09Zmb6wqH33AoobR5q1mOS',#5,'Nivelleringsbolt',$,$,#42,$,$,.ELEMENT.,0.);
#44=IFCOWNERHISTORY(#3,#4,$,.NOCHANGE.,$,$,$,1787914800);
#45=IFCCOLOURRGB('Unnamed',0.82352941176470595,0.82352941176470595,0.82352941176470595);
#46=IFCSURFACESTYLERENDERING(#45,0.40000000000000002,$,$,$,$,IFCNORMALISEDRATIOMEASURE(0.00390625),IFCSPECULAREXPONENT(10.),.NOTDEFINED.);
#47=IFCSURFACESTYLE('CONCRETE/B45_SV_Standard',.POSITIVE.,(#46));
#48=IFCPRESENTATIONSTYLEASSIGNMENT((#47));
#49=IFCCARTESIANPOINT((2.2737367544323201E-13,-100.,0.));
#50=IFCCARTESIANPOINT((-18.915586031171198,-100.,19.9706726128315));
#51=IFCCARTESIANPOINT((-18.915586031171198,100.,19.9706726128315));
#52=IFCCARTESIANPOINT((2.2737367544323201E-13,100.,0.));
#53=IFCPOLYLOOP((#49,#50,#51,#52));
#54=IFCFACEOUTERBOUND(#53,.T.);
#55=IFCFACE((#54));
#56=IFCCARTESIANPOINT((6.0922602112013902,-100.,480.02333012922799));
#57=IFCCARTESIANPOINT((6.0922602112013902,100.,480.02333012922799));
#58=IFCPOLYLOOP((#50,#56,#57,#51));
#59=IFCFACEOUTERBOUND(#58,.T.);
#60=IFCFACE((#59));
#61=IFCCARTESIANPOINT((76.092585901845695,-100.,550.02301873427098));
#62=IFCCARTESIANPOINT((76.092585901845695,100.,550.02301873427098));
#63=IFCPOLYLOOP((#56,#61,#62,#57));
#64=IFCFACEOUTERBOUND(#63,.T.);
#65=IFCFACE((#64));
#66=IFCCARTESIANPOINT((251.642573692648,-100.,550.02220195059601));
#67=IFCCARTESIANPOINT((251.642573692648,100.,550.02220195059601));
#68=IFCPOLYLOOP((#61,#66,#67,#62));
#69=IFCFACEOUTERBOUND(#68,.T.);
#70=IFCFACE((#69));
#71=IFCCARTESIANPOINT((251.647579469383,-100.,520.01531935349306));
#72=IFCCARTESIANPOINT((251.647579469383,100.,520.01531935349306));
#73=IFCPOLYLOOP((#66,#71,#72,#67));
#74=IFCFACEOUTERBOUND(#73,.T.);
#75=IFCFACE((#74));
#76=IFCCARTESIANPOINT((601.64232285064202,-100.,520.01056379996203));
#77=IFCCARTESIANPOINT((601.64232285064202,100.,520.01056379996203));
#78=IFCPOLYLOOP((#71,#76,#77,#72));
#79=IFCFACEOUTERBOUND(#78,.T.);
#80=IFCFACE((#79));
#81=IFCCARTESIANPOINT((737.11651251399496,-100.,19.305732415839898));
#82=IFCCARTESIANPOINT((737.11651251399496,100.,19.305732415839898));
#83=IFCPOLYLOOP((#76,#81,#82,#77));
#84=IFCFACEOUTERBOUND(#83,.T.);
#85=IFCFACE((#84));
#86=IFCCARTESIANPOINT((722.34002692860099,-100.,3.0195224098861202E-10));
#87=IFCCARTESIANPOINT((722.34002692860099,100.,3.0195224098861202E-10));
#88=IFCPOLYLOOP((#81,#86,#87,#82));
#89=IFCFACEOUTERBOUND(#88,.T.);
#90=IFCFACE((#89));
#91=IFCPOLYLOOP((#86,#49,#52,#87));
#92=IFCFACEOUTERBOUND(#91,.T.);
#93=IFCFACE((#92));
#94=IFCPOLYLOOP((#57,#62,#67,#72,#77,#82,#87,#52,#51));
#95=IFCFACEOUTERBOUND(#94,.T.);
#96=IFCFACE((#95));
#97=IFCPOLYLOOP((#86,#81,#76,#71,#66,#61,#56,#50,#49));
#98=IFCFACEOUTERBOUND(#97,.T.);
#99=IFCFACE((#98));
#100=IFCCLOSEDSHELL((#55,#60,#65,#70,#75,#80,#85,#90,#93,#96,#99));
#101=IFCFACETEDBREP(#100);
#102=IFCSTYLEDITEM(#101,(#48),$);
#103=IFCSHAPEREPRESENTATION(#12,'Body','Brep',(#101));
#104=IFCPRODUCTDEFINITIONSHAPE($,$,(#103));
#105=IFCCARTESIANPOINT((21147.917306544699,31100.,1506.16937333535));
#106=IFCDIRECTION((0.99999999998917499,0.,4.6529999983704401E-06));
#107=IFCDIRECTION((4.6529999984005902E-06,0.,-0.99999999998917499));
#108=IFCAXIS2PLACEMENT3D(#105,#106,#107);
#109=IFCLOCALPLACEMENT(#42,#108);
#110=IFCSLAB('0qNal0YErE5PwS3S2KEgJg',#44,'Kantbjelke','200X550',$,#109,#104,'ID345e4bc0-88ed-4e15-9e9c-0dc0943aa4ea',.NOTDEFINED.);
#111=IFCSLABTYPE('0BGrgaXq98OuaRZxFEK$Lo',#5,'200X550',$,$,$,$,$,$,.NOTDEFINED.);
#113=IFCPROPERTYSINGLEVALUE('Phase',$,IFCINTEGER(1),$);
#114=IFCPROPERTYSINGLEVALUE('Preliminary mark',$,IFCLABEL(''),$);
#115=IFCPROPERTYSINGLEVALUE('Initial GUID',$,$,$);
#124=IFCPROPERTYSINGLEVALUE('Gross footprint area',$,IFCAREAMEASURE(0.),$);
#132=IFCPROPERTYSINGLEVALUE('Reference',$,$,$);
#134=IFCPROPERTYSINGLEVALUE('FireRating',$,$,$);
#138=IFCPROPERTYSINGLEVALUE('IsExternal',$,IFCBOOLEAN(''),$);
#139=IFCPROPERTYSINGLEVALUE('LoadBearing',$,IFCBOOLEAN(''),$);
#143=IFCMATERIAL('CONCRETE/B45_SV_Standard');
#144=IFCCOLOURRGB('Unnamed',0.65490196078431395,0.65490196078431395,0.65490196078431395);
#145=IFCSURFACESTYLERENDERING(#144,0.40000000000000002,$,$,$,$,IFCNORMALISEDRATIOMEASURE(0.00390625),IFCSPECULAREXPONENT(10.),.NOTDEFINED.);
#146=IFCSURFACESTYLE('CONCRETE/B45_SV_Standard',.POSITIVE.,(#145));
#147=IFCPRESENTATIONSTYLEASSIGNMENT((#146));
#148=IFCCARTESIANPOINT((-0.0054134801957843601,-100.,30.006882526929999));
#149=IFCCARTESIANPOINT((-0.0054134801957843601,100.,30.006882526929999));
#150=IFCPOLYLOOP((#49,#148,#149,#52));
#151=IFCFACEOUTERBOUND(#150,.T.);
#152=IFCFACE((#151));
#153=IFCCARTESIANPOINT((-16.057365773054698,-100.,832.07605989700096));
#154=IFCCARTESIANPOINT((-16.057365773054698,100.,832.07605989700096));
#155=IFCPOLYLOOP((#148,#153,#154,#149));
#156=IFCFACEOUTERBOUND(#155,.T.);
#157=IFCFACE((#156));
#158=IFCCARTESIANPOINT((412.13728960743299,-100.,832.07988539683402));
#159=IFCCARTESIANPOINT((412.13728960743299,100.,832.07988539683402));
#160=IFCPOLYLOOP((#153,#158,#159,#154));
#161=IFCFACEOUTERBOUND(#160,.T.);
#162=IFCFACE((#161));
#163=IFCCARTESIANPOINT((349.99474341376498,-100.,1.3824319466948499E-10));
#164=IFCCARTESIANPOINT((349.99474341376498,100.,1.3824319466948499E-10));
#165=IFCPOLYLOOP((#158,#163,#164,#159));
#166=IFCFACEOUTERBOUND(#165,.T.);
#167=IFCFACE((#166));
#168=IFCPOLYLOOP((#163,#49,#52,#164));
#169=IFCFACEOUTERBOUND(#168,.T.);
#170=IFCFACE((#169));
#171=IFCPOLYLOOP((#154,#159,#164,#52,#149));
#172=IFCFACEOUTERBOUND(#171,.T.);
#173=IFCFACE((#172));
#174=IFCPOLYLOOP((#163,#158,#153,#148,#49));
#175=IFCFACEOUTERBOUND(#174,.T.);
#176=IFCFACE((#175));
#177=IFCCLOSEDSHELL((#152,#157,#162,#167,#170,#173,#176));
#178=IFCFACETEDBREP(#177);
#179=IFCSTYLEDITEM(#178,(#147),$);
#180=IFCSHAPEREPRESENTATION(#12,'Body','Brep',(#178));
#181=IFCPRODUCTDEFINITIONSHAPE($,$,(#180));
#182=IFCCARTESIANPOINT((21667.933796683301,31100.,1254.5242132414201));
#183=IFCDIRECTION((0.99999999996008304,0.,-8.9349999987007192E-06));
#184=IFCDIRECTION((-8.9349999985925497E-06,0.,-0.99999999996008304));
#185=IFCAXIS2PLACEMENT3D(#182,#183,#184);
#186=IFCLOCALPLACEMENT(#42,#185);
#187=IFCSLAB('27V9RiQE9BrvutperVOiAl',#44,'Bruplate','200X427',$,#186,#181,'ID877c96ec-68e2-4bd7-9e37-ce8d5f62c2af',.NOTDEFINED.);
#188=IFCSLABTYPE('2i8uV36xv41ACVN7jqN_3N',#5,'200X427',$,$,$,$,$,$,.NOTDEFINED.);
#202=IFCCOLOURRGB('Unnamed',1.,0.,1.);
#203=IFCSURFACESTYLERENDERING(#202,0.,$,$,$,$,IFCNORMALISEDRATIOMEASURE(0.00390625),IFCSPECULAREXPONENT(10.),.NOTDEFINED.);
#204=IFCSURFACESTYLE('STEEL/S355J2H',.POSITIVE.,(#203));
#205=IFCPRESENTATIONSTYLEASSIGNMENT((#204));
#206=IFCCARTESIANPOINT((-2.2737367544323201E-13,-8.,0.));
#207=IFCCARTESIANPOINT((-4.5474735088646402E-13,-5.6568542494933398,-5.6568542494933398));
#208=IFCCARTESIANPOINT((119.99999988090001,-5.6568542494933398,-5.6568542492786902));
#209=IFCCARTESIANPOINT((119.99999988090001,-8.,2.1464074961841101E-10));
#210=IFCPOLYLOOP((#206,#207,#208,#209));
#211=IFCFACEOUTERBOUND(#210,.T.);
#212=IFCFACE((#211));
#213=IFCCARTESIANPOINT((-4.5474735088646402E-13,0.,-8.0000000000036398));
#214=IFCCARTESIANPOINT((119.99999988090001,0.,-7.9999999997889999));
#215=IFCPOLYLOOP((#207,#213,#214,#208));
#216=IFCFACEOUTERBOUND(#215,.T.);
#217=IFCFACE((#216));
#218=IFCCARTESIANPOINT((-4.5474735088646402E-13,5.6568542494933398,-5.6568542494933398));
#219=IFCCARTESIANPOINT((119.99999988090001,5.6568542494933398,-5.6568542492786902));
#220=IFCPOLYLOOP((#213,#218,#219,#214));
#221=IFCFACEOUTERBOUND(#220,.T.);
#222=IFCFACE((#221));
#223=IFCCARTESIANPOINT((-2.2737367544323201E-13,8.,0.));
#224=IFCCARTESIANPOINT((119.99999988090001,8.,2.1464074961841101E-10));
#225=IFCPOLYLOOP((#218,#223,#224,#219));
#226=IFCFACEOUTERBOUND(#225,.T.);
#227=IFCFACE((#226));
#228=IFCCARTESIANPOINT((2.2737367544323201E-13,5.6568542494933398,5.6568542494969698));
#229=IFCCARTESIANPOINT((119.999999880901,5.6568542494933398,5.6568542497116097));
#230=IFCPOLYLOOP((#223,#228,#229,#224));
#231=IFCFACEOUTERBOUND(#230,.T.);
#232=IFCFACE((#231));
#233=IFCCARTESIANPOINT((2.2737367544323201E-13,0.,8.0000000000072795));
#234=IFCCARTESIANPOINT((119.999999880901,0.,8.0000000002219203));
#235=IFCPOLYLOOP((#228,#233,#234,#229));
#236=IFCFACEOUTERBOUND(#235,.T.);
#237=IFCFACE((#236));
#238=IFCCARTESIANPOINT((2.2737367544323201E-13,-5.6568542494933398,5.6568542494969698));
#239=IFCCARTESIANPOINT((119.999999880901,-5.6568542494933398,5.6568542497116097));
#240=IFCPOLYLOOP((#233,#238,#239,#234));
#241=IFCFACEOUTERBOUND(#240,.T.);
#242=IFCFACE((#241));
#243=IFCPOLYLOOP((#238,#206,#209,#239));
#244=IFCFACEOUTERBOUND(#243,.T.);
#245=IFCFACE((#244));
#246=IFCPOLYLOOP((#214,#219,#224,#229,#234,#239,#209,#208));
#247=IFCFACEOUTERBOUND(#246,.T.);
#248=IFCFACE((#247));
#249=IFCPOLYLOOP((#238,#233,#228,#223,#218,#213,#207,#206));
#250=IFCFACEOUTERBOUND(#249,.T.);
#251=IFCFACE((#250));
#252=IFCCLOSEDSHELL((#212,#217,#222,#227,#232,#237,#242,#245,#248,#251));
#253=IFCFACETEDBREP(#252);
#254=IFCSTYLEDITEM(#253,(#205),$);
#255=IFCSHAPEREPRESENTATION(#12,'Body','Brep',(#253));
#256=IFCPRODUCTDEFINITIONSHAPE($,$,(#255));
#257=IFCCARTESIANPOINT((21222.919999999998,31000.,1542.0999999999999));
#258=IFCDIRECTION((-0.99999999999559297,0.,2.9690000123992002E-06));
#259=IFCDIRECTION((-2.9690000124661099E-06,0.,-0.99999999999559297));
#260=IFCAXIS2PLACEMENT3D(#257,#258,#259);
#261=IFCLOCALPLACEMENT(#42,#260);
#262=IFCBEAM('1Vb8pMBIfCpwFluKsoLZBy',#44,'Nivelleringsbolt','D16',$,#261,#256,'ID5f948cd6-2d2a-4ccf-a3ef-e14db25632fc');
#263=IFCBEAMTYPE('19_AVRzsfBYQ7nMyP7pnW5',#5,'D16',$,$,$,$,$,$,.NOTDEFINED.);
#277=IFCPROPERTYSINGLEVALUE('NetVolume',$,IFCVOLUMEMEASURE(0.),$);
#280=IFCPROPERTYSINGLEVALUE('Span',$,$,$);
#283=IFCMATERIAL('STEEL/S355J2H');
#284=IFCCOLOURRGB('Unnamed',0.,0.,0.);
#285=IFCSURFACESTYLERENDERING(#284,0.,$,$,$,$,IFCNORMALISEDRATIOMEASURE(0.00390625),IFCSPECULAREXPONENT(10.),.NOTDEFINED.);
#286=IFCSURFACESTYLE('MISCELLANEOUS/Misc_Undefined',.POSITIVE.,(#285));
#287=IFCPRESENTATIONSTYLEASSIGNMENT((#286));
#288=IFCCARTESIANPOINT((7.3778210207819897E-09,10.0000000039661,-99.999999998144602));
#289=IFCCARTESIANPOINT((-1019.99999999262,10.000000003498799,-99.999999998606697));
#290=IFCCARTESIANPOINT((-1019.9999999927099,10.0000000031346,100.000000001393));
#291=IFCCARTESIANPOINT((7.2868715506047002E-09,10.000000003602301,100.000000001855));
#292=IFCCARTESIANPOINT((1020.00000000747,10.0000000042516,100.000000002299));
#293=IFCCARTESIANPOINT((1020.0000000072,10.0000000042516,-99.999999997700797));
#294=IFCPOLYLOOP((#288,#289,#290,#291,#292,#293));
#295=IFCFACEOUTERBOUND(#294,.T.);
#296=IFCFACE((#295));
#297=IFCCARTESIANPOINT((7.2977854870259803E-09,-9.9999999963977206,100.000000001819));
#298=IFCCARTESIANPOINT((-999.99999999270199,-9.9999999968562392,100.000000001364));
#299=IFCCARTESIANPOINT((-999.99999999261502,-9.9999999964920008,-99.999999998635801));
#300=IFCCARTESIANPOINT((7.3850969783961798E-09,-9.9999999960339192,-99.999999998180996));
#301=IFCCARTESIANPOINT((1000.0000000072,-9.9999999957575199,-99.999999997708102));
#302=IFCCARTESIANPOINT((1000.00000000748,-9.9999999957575199,100.000000002292));
#303=IFCPOLYLOOP((#297,#298,#299,#300,#301,#302));
#304=IFCFACEOUTERBOUND(#303,.T.);
#305=IFCFACE((#304));
#306=IFCCARTESIANPOINT((1020.00000000834,-2319.99999999593,99.9999999980719));
#307=IFCCARTESIANPOINT((1020.00000000843,-2319.9999999955699,-100.000000001928));
#308=IFCPOLYLOOP((#293,#292,#306,#307));
#309=IFCFACEOUTERBOUND(#308,.T.);
#310=IFCFACE((#309));
#311=IFCCARTESIANPOINT((1000.00000000842,-2299.9999999955699,-100.000000001899));
#312=IFCCARTESIANPOINT((1000.0000000083299,-2299.99999999594,99.999999998101003));
#313=IFCPOLYLOOP((#302,#301,#311,#312));
#314=IFCFACEOUTERBOUND(#313,.T.);
#315=IFCFACE((#314));
#316=IFCCARTESIANPOINT((52.0301245707305,-2319.9999999963702,99.999999997631704));
#317=IFCCARTESIANPOINT((52.030124570817897,-2319.99999999601,-100.000000002368));
#318=IFCPOLYLOOP((#307,#306,#316,#317));
#319=IFCFACEOUTERBOUND(#318,.T.);
#320=IFCFACE((#319));
#321=IFCCARTESIANPOINT((63.570599229133201,-2299.999999996,-100.000000002325));
#322=IFCCARTESIANPOINT((63.570599229045897,-2299.9999999963702,99.999999997675303));
#323=IFCPOLYLOOP((#312,#311,#321,#322));
#324=IFCFACEOUTERBOUND(#323,.T.);
#325=IFCFACE((#324));
#326=IFCCARTESIANPOINT((9.9998282152409992,-2247.2836795790299,99.999999997748105));
#327=IFCCARTESIANPOINT((9.9998282153283107,-2247.2836795786602,-100.00000000225199));
#328=IFCPOLYLOOP((#317,#316,#326,#327));
#329=IFCFACEOUTERBOUND(#328,.T.);
#330=IFCFACE((#329));
#331=IFCCARTESIANPOINT((-9.9998281985717803,-2172.7163204133999,-100.000000002128));
#332=IFCCARTESIANPOINT((-9.99982819865909,-2172.7163204137701,99.999999997871797));
#333=IFCPOLYLOOP((#322,#321,#331,#332));
#334=IFCFACEOUTERBOUND(#333,.T.);
#335=IFCFACE((#334));
#336=IFCCARTESIANPOINT((9.9989066512316604,-2447.28755581924,99.999999997384293));
#337=IFCCARTESIANPOINT((9.9989066513226099,-2447.2875558188898,-100.00000000261601));
#338=IFCPOLYLOOP((#327,#326,#336,#337));
#339=IFCFACEOUTERBOUND(#338,.T.);
#340=IFCFACE((#339));
#341=IFCCARTESIANPOINT((-10.000749762577501,-2372.72019665362,-100.000000002492));
#342=IFCCARTESIANPOINT((-10.0007497626684,-2372.7201966539801,99.999999997507999));
#343=IFCPOLYLOOP((#332,#331,#341,#342));
#344=IFCFACEOUTERBOUND(#343,.T.);
#345=IFCFACE((#344));
#346=IFCCARTESIANPOINT((-63.573761257343001,-2319.9999999964298,99.999999997580701));
#347=IFCCARTESIANPOINT((-63.573761257255697,-2319.9999999960601,-100.000000002419));
#348=IFCPOLYLOOP((#337,#336,#346,#347));
#349=IFCFACEOUTERBOUND(#348,.T.);
#350=IFCFACE((#349));
#351=IFCCARTESIANPOINT((-52.0332865989403,-2299.9999999960601,-100.000000002376));
#352=IFCCARTESIANPOINT((-52.033286599027598,-2299.9999999964198,99.9999999976244));
#353=IFCPOLYLOOP((#342,#341,#351,#352));
#354=IFCFACEOUTERBOUND(#353,.T.);
#355=IFCFACE((#354));
#356=IFCCARTESIANPOINT((-1019.99999999166,-2319.99999999686,99.999999997147796));
#357=IFCCARTESIANPOINT((-1019.99999999157,-2319.9999999964998,-100.000000002852));
#358=IFCPOLYLOOP((#347,#346,#356,#357));
#359=IFCFACEOUTERBOUND(#358,.T.);
#360=IFCFACE((#359));
#361=IFCCARTESIANPOINT((-999.99999999158194,-2299.9999999964898,-100.000000002809));
#362=IFCCARTESIANPOINT((-999.99999999166903,-2299.99999999686,99.999999997191495));
#363=IFCPOLYLOOP((#352,#351,#361,#362));
#364=IFCFACEOUTERBOUND(#363,.T.);
#365=IFCFACE((#364));
#366=IFCPOLYLOOP((#357,#356,#290,#289));
#367=IFCFACEOUTERBOUND(#366,.T.);
#368=IFCFACE((#367));
#369=IFCPOLYLOOP((#362,#361,#299,#298));
#370=IFCFACEOUTERBOUND(#369,.T.);
#371=IFCFACE((#370));
#372=IFCPOLYLOOP((#290,#356,#346,#336,#326,#316,#306,#292,#291));
#373=IFCFACEOUTERBOUND(#372,.T.);
#374=IFCPOLYLOOP((#302,#312,#322,#332,#342,#352,#362,#298,#297));
#375=IFCFACEBOUND(#374,.T.);
#376=IFCFACE((#373,#375));
#377=IFCPOLYLOOP((#293,#307,#317,#327,#337,#347,#357,#289,#288));
#378=IFCFACEOUTERBOUND(#377,.T.);
#379=IFCPOLYLOOP((#299,#361,#351,#341,#331,#321,#311,#301,#300));
#380=IFCFACEBOUND(#379,.T.);
#381=IFCFACE((#378,#380));
#382=IFCCLOSEDSHELL((#296,#305,#310,#315,#320,#325,#330,#335,#340,#345,#350,#355,#360,#365,#368,#371,#376,#381));
#383=IFCFACETEDBREP(#382);
#384=IFCSTYLEDITEM(#383,(#287),$);
#385=IFCSHAPEREPRESENTATION(#12,'Body','Brep',(#383));
#386=IFCPRODUCTDEFINITIONSHAPE($,$,(#385));
#387=IFCCARTESIANPOINT((21500.,31100.,-10.));
#388=IFCDIRECTION((0.,-1.,0.));
#389=IFCDIRECTION((-1.,0.,0.));
#390=IFCAXIS2PLACEMENT3D(#387,#388,#389);
#391=IFCLOCALPLACEMENT(#42,#390);
#392=IFCBEAM('2nFH54ci19lRQhC4RwYIsR',#44,'Ramme','PL200X20',$,#391,#386,'IDb13d1144-9ac0-49bd-b6ab-3046fa892d9b');
#393=IFCBEAMTYPE('2srFn204D1$9xlCAsZwpzk',#5,'PL200X20',$,$,$,$,$,$,.NOTDEFINED.);
#394=IFCPROPERTYSINGLEVALUE('Class',$,IFCLABEL('13'),$);
#395=IFCPROPERTYSINGLEVALUE('Top elevation',$,IFCLABEL(' +2.437'),$);
#396=IFCPROPERTYSINGLEVALUE('Bottom elevation',$,IFCLABEL(' -0.020'),$);
#397=IFCPROPERTYSET('0Wriaxb350kBGvyC7VkNb2',#5,'Tekla Common','Common Properties to Shared building elements',(#394,#113,#114,#115,#395,#396));
#398=IFCPROPERTYSINGLEVALUE('Length',$,IFCLENGTHMEASURE(8975.3999999999996),$);
#399=IFCPROPERTYSINGLEVALUE('Width',$,IFCLENGTHMEASURE(20.),$);
#400=IFCPROPERTYSINGLEVALUE('Height',$,IFCLENGTHMEASURE(200.),$);
#401=IFCPROPERTYSINGLEVALUE('Net surface area',$,IFCAREAMEASURE(3.9489999999999998),$);
#402=IFCPROPERTYSINGLEVALUE('Area per tons',$,IFCAREAMEASURE(0.),$);
#403=IFCPROPERTYSINGLEVALUE('Volume',$,IFCVOLUMEMEASURE(0.035999999999999997),$);
#404=IFCPROPERTYSINGLEVALUE('Weight',$,IFCMASSMEASURE(0.),$);
#405=IFCPROPERTYSET('2anpvKrYr8$eigsZI52CZB',#5,'Tekla Quantity','Quantity Properties to Shared building elements',(#398,#399,#400,#401,#402,#124,#403,#404));
#406=IFCPROPERTYSINGLEVALUE('OuterSurfaceArea',$,IFCAREAMEASURE(3.8999999999999999),$);
#407=IFCPROPERTYSINGLEVALUE('NetWeight',$,IFCMASSMEASURE(0.),$);
#408=IFCPROPERTYSET('1El5RVQuj4e83HGgQfP9KH',#5,'BeamBaseQuantities',$,(#398,#406,#277,#407));
#409=IFCPROPERTYSINGLEVALUE('Slope',$,IFCPLANEANGLEMEASURE(0.),$);
#410=IFCPROPERTYSET('1eSzHWamf78QktCmD4HdbS',#5,'Pset_BeamCommon','Definition from IAI: Properties common to the definition of all occurrences of IfcBeam.',(#132,#280,#409,#138,#139,#134));
#411=IFCMATERIAL('MISCELLANEOUS/Misc_Undefined');
#412=IFCRELAGGREGATES('3S8rYYud1DTf6grPGgclUj',#5,$,$,#36,(#38));
#413=IFCRELAGGREGATES('2x6dy55LD0ZfLsUUfXFkJC',#5,$,$,#38,(#41));
#414=IFCRELAGGREGATES('0KwTHEm2X5XepfvZqPEew$',#5,$,$,#41,(#43));
#415=IFCRELCONTAINEDINSPATIALSTRUCTURE('392XX3HQbAf9Syi_XvFbhi',#5,$,$,(#392,#262,#187,#110),#43);
#428=IFCRELDEFINESBYPROPERTIES('34UPl2bqjAjOkbx0hYZRtD',#5,$,$,(#392),#397);
#429=IFCRELDEFINESBYPROPERTIES('3jKAiqzxTCyQmrRCXxIjE7',#5,$,$,(#392),#405);
#430=IFCRELDEFINESBYPROPERTIES('0wjUB7fmD83eLvKucaA1xE',#5,$,$,(#392),#408);
#431=IFCRELDEFINESBYPROPERTIES('2CHve85pr4XBUivfyH1U3f',#5,$,$,(#392),#410);
#432=IFCRELDEFINESBYTYPE('2wUSL6_TX1JQe8LrKJmx9S',#5,$,$,(#110),#111);
#433=IFCRELDEFINESBYTYPE('3XHOfrhUP5N8TSzpsYn4RC',#5,$,$,(#187),#188);
#434=IFCRELDEFINESBYTYPE('1cZl$whnj0nBIkOXMYVUWO',#5,$,$,(#262),#263);
#435=IFCRELDEFINESBYTYPE('1qPjCVd8XBKenboHYe_xXI',#5,$,$,(#392),#393);
#436=IFCRELASSOCIATESMATERIAL('2EVaF_OGPF9uxfTxP5nN$p',#5,$,$,(#187,#110),#143);
#437=IFCRELASSOCIATESMATERIAL('1rZWhTS1j0kg2truAYr7dV',#5,$,$,(#262),#283);
#438=IFCRELASSOCIATESMATERIAL('1dcOLovxD7Vx$UltmnSkSC',#5,$,$,(#392),#411);
#439=IFCPRESENTATIONLAYERASSIGNMENT('Kantbjelke',$,(#103),$);
#440=IFCPRESENTATIONLAYERASSIGNMENT('Bruplate',$,(#180),$);
#441=IFCPRESENTATIONLAYERASSIGNMENT('Nivelleringsbolt',$,(#255),$);
#442=IFCPRESENTATIONLAYERASSIGNMENT('Ramme',$,(#385),$);
#443=IFCOWNERHISTORY(#3,#4,.READWRITE.,.ADDED.,1789551598,#3,#4,1789551598);
#444=IFCPROPERTYSET('2cNpZtDpH6EBa34FK0xKeq',#443,'BIM_Tverrfaglig',$,(#447,#448,#449,#450,#451));
#445=IFCOWNERHISTORY(#3,#4,.READWRITE.,.ADDED.,1789551598,#3,#4,1789551598);
#446=IFCRELDEFINESBYPROPERTIES('34UUmOR8HDrBxJtnFPLTsq',#445,$,$,(#262),#444);
#447=IFCPROPERTYSINGLEVALUE('BIM.04 - MMI',$,IFCTEXT('350'),$);
#448=IFCPROPERTYSINGLEVALUE('BIM.05 - Elementnavn',$,IFCTEXT('Nivelleringsbolt'),$);
#449=IFCPROPERTYSINGLEVALUE('BIM.06 - Fag',$,IFCTEXT('KON'),$);
#450=IFCPROPERTYSINGLEVALUE('BIM.07 - Revisjon',$,IFCTEXT('A'),$);
#451=IFCPROPERTYSINGLEVALUE('BIM.08 - Revisjonsdato',$,IFCTEXT('2023-01-16'),$);
#452=IFCOWNERHISTORY(#3,#4,.READWRITE.,.ADDED.,1789551598,#3,#4,1789551598);
#453=IFCPROPERTYSET('1wfK0JZ4z9VwkSmmEy30GC',#452,'KON_Felles',$,(#456,#457,#458,#459,#460,#461,#462,#463,#464,#465,#466,#467));
#454=IFCOWNERHISTORY(#3,#4,.READWRITE.,.ADDED.,1789551598,#3,#4,1789551598);
#455=IFCRELDEFINESBYPROPERTIES('2nT2M7bg1FxOHTm3QFC1Mb',#454,$,$,(#262),#453);
#456=IFCPROPERTYSINGLEVALUE('KON.01 - Konstruksjonsnummer',$,IFCTEXT('K100'),$);
#457=IFCPROPERTYSINGLEVALUE('KON.03 - Akse',$,IFCTEXT('01'),$);
#458=IFCPROPERTYSINGLEVALUE('KON.10 - Konstruksjonsinndeling',$,IFCTEXT('Bru'),$);
#459=IFCPROPERTYSINGLEVALUE('KON.11 - Konstruksjonsdel',$,IFCTEXT('Nivelleringsbolt'),$);
#460=IFCPROPERTYSINGLEVALUE('KON.13 - Elementnavn',$,IFCTEXT('Nivelleringsbolt'),$);
#461=IFCPROPERTYSINGLEVALUE('KON.20 - Produksjonsenhet',$,IFCTEXT('PLD-1002'),$);
#462=IFCPROPERTYSINGLEVALUE('KON.30 - Plasseringsprioritet',$,IFCTEXT('2 - Viker for 1'),$);
#463=IFCPROPERTYSINGLEVALUE('KON.31 - Plasseringsmerknad',$,IFCTEXT('Ikke angitt'),$);
#464=IFCPROPERTYSINGLEVALUE('KON.40 - Materialtype',$,IFCTEXT('St\X2\00E5\X0\l'),$);
#465=IFCPROPERTYSINGLEVALUE('KON.41 - Materialspesifikasjon',$,IFCTEXT('8.8'),$);
#466=IFCPROPERTYSINGLEVALUE('KON.51 - Produksjonsmerknad 1',$,IFCTEXT('Ikke aktuelt'),$);
#467=IFCPROPERTYSINGLEVALUE('KON.53 - Utf\X2\00F8\X0\relsesmerknad 1',$,IFCTEXT('Ikke angitt'),$);
#468=IFCOWNERHISTORY(#3,#4,.READWRITE.,.ADDED.,1789551598,#3,#4,1789551598);
#469=IFCPROPERTYSET('2ry1BWHRv0wwUMkJV_TFRz',#468,'KON_Festemidler',$,(#472,#473,#474,#475,#476,#477,#478,#479,#480,#481,#482,#483));
#470=IFCOWNERHISTORY(#3,#4,.READWRITE.,.ADDED.,1789551598,#3,#4,1789551598);
#471=IFCRELDEFINESBYPROPERTIES('0nw_S3WDv5Vwg2txqs5QlZ',#470,$,$,(#262),#469);
#472=IFCPROPERTYSINGLEVALUE('FMI.01 - Navn',$,IFCTEXT('Nivelleringsbolt'),$);
#473=IFCPROPERTYSINGLEVALUE('FMI.02 - Antall skruer',$,IFCINTEGER(1),$);
#474=IFCPROPERTYSINGLEVALUE('FMI.03 - Skruediameter',$,IFCLENGTHMEASURE(20.),$);
#475=IFCPROPERTYSINGLEVALUE('FMI.04 - Skruelengde',$,IFCLENGTHMEASURE(100.),$);
#476=IFCPROPERTYSINGLEVALUE('FMI.05 - Kvalitet',$,IFCTEXT('8.8'),$);
#477=IFCPROPERTYSINGLEVALUE('FMI.06 - Monteringssted',$,IFCTEXT('Byggeplass'),$);
#478=IFCPROPERTYSINGLEVALUE('FMI.10 - Hulldiameter',$,IFCLENGTHMEASURE(22.),$);
#479=IFCPROPERTYSINGLEVALUE('FMI.11 - Hullmerknad',$,IFCTEXT('Ikke angitt'),$);
#480=IFCPROPERTYSINGLEVALUE('FMI.30 - Mutternavn',$,IFCTEXT('Ikke aktuelt'),$);
#481=IFCPROPERTYSINGLEVALUE('FMI.31 - Antall muttere',$,IFCINTEGER(0),$);
#482=IFCPROPERTYSINGLEVALUE('FMI.40 - Skivenavn',$,IFCTEXT('Ikke aktuelt'),$);
#483=IFCPROPERTYSINGLEVALUE('FMI.41 - Antall skiver',$,IFCINTEGER(0),$);
#484=IFCOWNERHISTORY(#3,#4,.READWRITE.,.ADDED.,1789551598,#3,#4,1789551598);
#485=IFCPROPERTYSET('3Y4yADyYvEk9Ju6wswFHs9',#484,'BIM_Tverrfaglig',$,(#488,#489,#490,#491,#492));
#486=IFCOWNERHISTORY(#3,#4,.READWRITE.,.ADDED.,1789551598,#3,#4,1789551598);
#487=IFCRELDEFINESBYPROPERTIES('3DLdZR9MzFsBC_r0yPZbYo',#486,$,$,(#110),#485);
#488=IFCPROPERTYSINGLEVALUE('BIM.04 - MMI',$,IFCTEXT('350'),$);
#489=IFCPROPERTYSINGLEVALUE('BIM.05 - Elementnavn',$,IFCTEXT('Kantbjelke'),$);
#490=IFCPROPERTYSINGLEVALUE('BIM.06 - Fag',$,IFCTEXT('KON'),$);
#491=IFCPROPERTYSINGLEVALUE('BIM.07 - Revisjon',$,IFCTEXT('A'),$);
#492=IFCPROPERTYSINGLEVALUE('BIM.08 - Revisjonsdato',$,IFCTEXT('2023-01-16'),$);
#493=IFCOWNERHISTORY(#3,#4,.READWRITE.,.ADDED.,1789551598,#3,#4,1789551598);
#494=IFCPROPERTYSET('0rZe1rgbD7oR62hYHT7Otf',#493,'KON_Felles',$,(#497,#498,#499,#500,#501,#502,#503,#504,#505,#506,#507,#508));
#495=IFCOWNERHISTORY(#3,#4,.READWRITE.,.ADDED.,1789551598,#3,#4,1789551598);
#496=IFCRELDEFINESBYPROPERTIES('2yhj4oosbB2w3lAywnq4FT',#495,$,$,(#110),#494);
#497=IFCPROPERTYSINGLEVALUE('KON.01 - Konstruksjonsnummer',$,IFCTEXT('K100'),$);
#498=IFCPROPERTYSINGLEVALUE('KON.03 - Akse',$,IFCTEXT('01'),$);
#499=IFCPROPERTYSINGLEVALUE('KON.10 - Konstruksjonsinndeling',$,IFCTEXT('Bru'),$);
#500=IFCPROPERTYSINGLEVALUE('KON.11 - Konstruksjonsdel',$,IFCTEXT('Kantbjelke'),$);
#501=IFCPROPERTYSINGLEVALUE('KON.13 - Elementnavn',$,IFCTEXT('Kantbjelke'),$);
#502=IFCPROPERTYSINGLEVALUE('KON.20 - Produksjonsenhet',$,IFCTEXT('PLD-1002'),$);
#503=IFCPROPERTYSINGLEVALUE('KON.30 - Plasseringsprioritet',$,IFCTEXT('2 - Viker for 1'),$);
#504=IFCPROPERTYSINGLEVALUE('KON.31 - Plasseringsmerknad',$,IFCTEXT('Ikke angitt'),$);
#505=IFCPROPERTYSINGLEVALUE('KON.40 - Materialtype',$,IFCTEXT('Betong'),$);
#506=IFCPROPERTYSINGLEVALUE('KON.41 - Materialspesifikasjon',$,IFCTEXT('B45 SV-Standard'),$);
#507=IFCPROPERTYSINGLEVALUE('KON.51 - Produksjonsmerknad 1',$,IFCTEXT('Ikke angitt'),$);
#508=IFCPROPERTYSINGLEVALUE('KON.53 - Utf\X2\00F8\X0\relsesmerknad 1',$,IFCTEXT('Ikke angitt'),$);
#509=IFCOWNERHISTORY(#3,#4,.READWRITE.,.ADDED.,1789551598,#3,#4,1789551598);
#510=IFCPROPERTYSET('0n4yg_ut57qQNyird2$0G7',#509,'KON_Betong',$,(#513,#514,#515,#516,#517,#518,#519,#520));
#511=IFCOWNERHISTORY(#3,#4,.READWRITE.,.ADDED.,1789551598,#3,#4,1789551598);
#512=IFCRELDEFINESBYPROPERTIES('19xK__CIP3jAIK_vLPmqHS',#511,$,$,(#110),#510);
#513=IFCPROPERTYSINGLEVALUE('BET.01 - Utf\X2\00F8\X0\relsesklasse',$,IFCTEXT('2'),$);
#514=IFCPROPERTYSINGLEVALUE('BET.02 - N\X2\00F8\X0\yaktighetsklasse',$,IFCTEXT('B'),$);
#515=IFCPROPERTYSINGLEVALUE('BET.04 - Materialspesifikasjon (dup)',$,IFCTEXT('B45 SV-Standard'),$);
#516=IFCPROPERTYSINGLEVALUE('BET.10 - Produksjonsmetode',$,IFCTEXT('Plasst\X2\00F8\X0\pt'),$);
#517=IFCPROPERTYSINGLEVALUE('BET.11 - Forskaling',$,IFCTEXT('St\X2\00E5\X0\ende bord'),$);
#518=IFCPROPERTYSINGLEVALUE('BET.21 - Overdekning hovedarmering',$,IFCTEXT('UK, NS og FS: 75mm \X2\00B1\X0\15mm, OK: 65mm \X2\00B1\X0\15mm'),$);
#519=IFCPROPERTYSINGLEVALUE('BET.30 - Diameter monteringsstenger',$,IFCTEXT('12 mm'),$);
#520=IFCPROPERTYSINGLEVALUE('BET.31 - Overdekning monteringsstenger',$,IFCTEXT('UK, NS og FS: 60mm \X2\00B1\X0\5mm, OK: 50mm \X2\00B1\X0\5mm'),$);
#521=IFCOWNERHISTORY(#3,#4,.READWRITE.,.ADDED.,1789551598,#3,#4,1789551598);
#522=IFCPROPERTYSET('0jgxYvmgf0LuW9ycNU1f64',#521,'BIM_Tverrfaglig',$,(#525,#526,#527,#528,#529));
#523=IFCOWNERHISTORY(#3,#4,.READWRITE.,.ADDED.,1789551598,#3,#4,1789551598);
#524=IFCRELDEFINESBYPROPERTIES('269zvWvk589AtXDuWmzb8R',#523,$,$,(#187),#522);
#525=IFCPROPERTYSINGLEVALUE('BIM.04 - MMI',$,IFCTEXT('350'),$);
#526=IFCPROPERTYSINGLEVALUE('BIM.05 - Elementnavn',$,IFCTEXT('Bruplate'),$);
#527=IFCPROPERTYSINGLEVALUE('BIM.06 - Fag',$,IFCTEXT('KON'),$);
#528=IFCPROPERTYSINGLEVALUE('BIM.07 - Revisjon',$,IFCTEXT('A'),$);
#529=IFCPROPERTYSINGLEVALUE('BIM.08 - Revisjonsdato',$,IFCTEXT('2023-01-16'),$);
#530=IFCOWNERHISTORY(#3,#4,.READWRITE.,.ADDED.,1789551598,#3,#4,1789551598);
#531=IFCPROPERTYSET('2p_MTvBKP9Wh6qQgv5jeY_',#530,'KON_Felles',$,(#534,#535,#536,#537,#538,#539,#540,#541,#542,#543,#544,#545));
#532=IFCOWNERHISTORY(#3,#4,.READWRITE.,.ADDED.,1789551598,#3,#4,1789551598);
#533=IFCRELDEFINESBYPROPERTIES('3ch0OWZD15lONr7y3HE4$t',#532,$,$,(#187),#531);
#534=IFCPROPERTYSINGLEVALUE('KON.01 - Konstruksjonsnummer',$,IFCTEXT('K100'),$);
#535=IFCPROPERTYSINGLEVALUE('KON.03 - Akse',$,IFCTEXT('01'),$);
#536=IFCPROPERTYSINGLEVALUE('KON.10 - Konstruksjonsinndeling',$,IFCTEXT('Bru'),$);
#537=IFCPROPERTYSINGLEVALUE('KON.11 - Konstruksjonsdel',$,IFCTEXT('Bruplate'),$);
#538=IFCPROPERTYSINGLEVALUE('KON.13 - Elementnavn',$,IFCTEXT('Bruplate'),$);
#539=IFCPROPERTYSINGLEVALUE('KON.20 - Produksjonsenhet',$,IFCTEXT('PLD-1002'),$);
#540=IFCPROPERTYSINGLEVALUE('KON.30 - Plasseringsprioritet',$,IFCTEXT('2 - Viker for 1'),$);
#541=IFCPROPERTYSINGLEVALUE('KON.31 - Plasseringsmerknad',$,IFCTEXT('Ikke angitt'),$);
#542=IFCPROPERTYSINGLEVALUE('KON.40 - Materialtype',$,IFCTEXT('Betong'),$);
#543=IFCPROPERTYSINGLEVALUE('KON.41 - Materialspesifikasjon',$,IFCTEXT('B45 SV-Standard'),$);
#544=IFCPROPERTYSINGLEVALUE('KON.51 - Produksjonsmerknad 1',$,IFCTEXT('Ikke angitt'),$);
#545=IFCPROPERTYSINGLEVALUE('KON.53 - Utf\X2\00F8\X0\relsesmerknad 1',$,IFCTEXT('Ikke angitt'),$);
#546=IFCOWNERHISTORY(#3,#4,.READWRITE.,.ADDED.,1789551598,#3,#4,1789551598);
#547=IFCPROPERTYSET('0jLhcYPBDE7wM1oF1xsNtJ',#546,'KON_Betong',$,(#550,#551,#552,#553,#554,#555,#556,#557));
#548=IFCOWNERHISTORY(#3,#4,.READWRITE.,.ADDED.,1789551598,#3,#4,1789551598);
#549=IFCRELDEFINESBYPROPERTIES('2oo_aIw4j24vFkgokBdiUz',#548,$,$,(#187),#547);
#550=IFCPROPERTYSINGLEVALUE('BET.01 - Utf\X2\00F8\X0\relsesklasse',$,IFCTEXT('2'),$);
#551=IFCPROPERTYSINGLEVALUE('BET.02 - N\X2\00F8\X0\yaktighetsklasse',$,IFCTEXT('B'),$);
#552=IFCPROPERTYSINGLEVALUE('BET.04 - Materialspesifikasjon (dup)',$,IFCTEXT('B45 SV-Standard'),$);
#553=IFCPROPERTYSINGLEVALUE('BET.10 - Produksjonsmetode',$,IFCTEXT('Plasst\X2\00F8\X0\pt'),$);
#554=IFCPROPERTYSINGLEVALUE('BET.11 - Forskaling',$,IFCTEXT('St\X2\00E5\X0\ende bord'),$);
#555=IFCPROPERTYSINGLEVALUE('BET.21 - Overdekning hovedarmering',$,IFCTEXT('UK, NS og FS: 75mm \X2\00B1\X0\15mm, OK: 65mm \X2\00B1\X0\15mm'),$);
#556=IFCPROPERTYSINGLEVALUE('BET.30 - Diameter monteringsstenger',$,IFCTEXT('12 mm'),$);
#557=IFCPROPERTYSINGLEVALUE('BET.31 - Overdekning monteringsstenger',$,IFCTEXT('UK, NS og FS: 60mm \X2\00B1\X0\5mm, OK: 50mm \X2\00B1\X0\5mm'),$);
ENDSEC;
END-ISO-10303-21;
