ISO-10303-21;
HEADER;
FILE_DESCRIPTION(('ViewDefinition[CoordinationView_V2.0]', 'ExchangeRequirement[Structural, SurfaceGeometry]', 'Option [GridExport:Off]', 'Option [Assemblies:Off]', 'Option [Bolts:On]', 'Option [Rebars:On]', 'Option [PourObjects:Off]', 'Option [Welds:Off]', 'Option [SurfaceTreatments:Off]', 'Option [LocationBy:0]', 'Option [ViewColors:On]', 'Option [SectionedSpine:Off]', 'Option [PropertySets:On]', 'Option [Export all:Off]'),'2;1');
FILE_NAME('SNACKS_Detalj_Jodringsbolt.ifc','2026-08-28T11:53:56',('SWECO\\NOULVE'),('Structural Designer'),'IFC Parser','Tekla Structures 2025 Service Pack 7, IFC Export Version: 4.0.0.0 Feb 24 2026','');
FILE_SCHEMA(('IFC2X3'));
ENDSEC;

DATA;
#1= IFCPERSON('SWECO\\NOULVE','Undefined',$,$,$,$,$,$);
#2= IFCORGANIZATION($,'Trimble Solutions Corporation',$,$,$);
#3= IFCPERSONANDORGANIZATION(#1,#2,$);
#4= IFCAPPLICATION(#2,'2025 Service Pack 7','Tekla Structures','Multi material modeling');
#5= IFCOWNERHISTORY(#3,#4,$,.NOCHANGE.,$,$,$,1787910836);
#6= IFCCARTESIANPOINT((0.,0.,0.));
#7= IFCDIRECTION((1.,0.,0.));
#8= IFCDIRECTION((0.,1.,0.));
#9= IFCDIRECTION((0.,0.,1.));
#10= IFCAXIS2PLACEMENT3D(#6,#9,#7);
#11= IFCGEOMETRICREPRESENTATIONCONTEXT($,'Model',3,1.E-05,#10,$);
#12= IFCGEOMETRICREPRESENTATIONSUBCONTEXT('Body','Model',*,*,*,*,#11,$,.MODEL_VIEW.,$);
#13= IFCGEOMETRICREPRESENTATIONSUBCONTEXT('Axis','Model',*,*,*,*,#11,$,.GRAPH_VIEW.,$);
#14= IFCSIUNIT(*,.LENGTHUNIT.,.MILLI.,.METRE.);
#15= IFCMEASUREWITHUNIT(IFCRATIOMEASURE(304.8),#14);
#16= IFCDIMENSIONALEXPONENTS(1,0,0,0,0,0,0);
#17= IFCCONVERSIONBASEDUNIT(#16,.LENGTHUNIT.,'FOOT',#15);
#18= IFCSIUNIT(*,.AREAUNIT.,$,.SQUARE_METRE.);
#19= IFCMEASUREWITHUNIT(IFCRATIOMEASURE(0.09290304),#18);
#20= IFCDIMENSIONALEXPONENTS(2,0,0,0,0,0,0);
#21= IFCCONVERSIONBASEDUNIT(#20,.AREAUNIT.,'SQUARE FOOT',#19);
#22= IFCSIUNIT(*,.VOLUMEUNIT.,$,.CUBIC_METRE.);
#23= IFCMEASUREWITHUNIT(IFCRATIOMEASURE(0.028316846592),#22);
#24= IFCDIMENSIONALEXPONENTS(3,0,0,0,0,0,0);
#25= IFCCONVERSIONBASEDUNIT(#24,.VOLUMEUNIT.,'CUBIC FOOT',#23);
#26= IFCSIUNIT(*,.MASSUNIT.,.KILO.,.GRAM.);
#27= IFCSIUNIT(*,.TIMEUNIT.,$,.SECOND.);
#28= IFCSIUNIT(*,.PLANEANGLEUNIT.,$,.RADIAN.);
#29= IFCMEASUREWITHUNIT(IFCRATIOMEASURE(0.0174532925199433),#28);
#30= IFCDIMENSIONALEXPONENTS(0,0,0,0,0,0,0);
#31= IFCCONVERSIONBASEDUNIT(#30,.PLANEANGLEUNIT.,'DEGREE',#29);
#32= IFCSIUNIT(*,.SOLIDANGLEUNIT.,$,.STERADIAN.);
#33= IFCSIUNIT(*,.THERMODYNAMICTEMPERATUREUNIT.,$,.DEGREE_CELSIUS.);
#34= IFCSIUNIT(*,.LUMINOUSINTENSITYUNIT.,$,.LUMEN.);
#35= IFCUNITASSIGNMENT((#14,#18,#22,#26,#27,#28,#32,#33,#34));
#36= IFCPROJECT('2YG0JLJLPAvRd9NM8hMiC$',#5,'Trimble',$,$,$,$,(#11),#35);
#37= IFCLOCALPLACEMENT($,#10);
#38= IFCSITE('0cHbuZ7tTAAARUvYnq2GoH',#5,'Undefined',$,$,#37,$,$,.ELEMENT.,$,$,$,$,$);
#39= IFCPOSTALADDRESS($,' ',$,' ',$,' ',' ',' ',' ',' ');
#40= IFCLOCALPLACEMENT(#37,#10);
#41= IFCBUILDING('2cH2Ye1ODFPROjgJsPA4pC',#5,'Undefined',$,$,#40,$,$,.ELEMENT.,$,$,#39);
#42= IFCLOCALPLACEMENT(#40,#10);
#43= IFCBUILDINGSTOREY('09Zmb6wqH33AoobR5q1mOS',#5,'Undefined',$,$,#42,$,$,.ELEMENT.,0.);
#44= IFCOWNERHISTORY(#3,#4,$,.NOCHANGE.,$,$,$,1787914800);
#45= IFCCOLOURRGB('Unnamed',0.615686274509804,0.615686274509804,0.662745098039216);
#46= IFCSURFACESTYLERENDERING(#45,0.4,$,$,$,$,IFCNORMALISEDRATIOMEASURE(0.00390625),IFCSPECULAREXPONENT(10.),.NOTDEFINED.);
#47= IFCSURFACESTYLE('CONCRETE/B45_SV_Standard',.POSITIVE.,(#46));
#48= IFCPRESENTATIONSTYLEASSIGNMENT((#47));
#49= IFCCARTESIANPOINT((0.,-100.,0.));
#50= IFCCARTESIANPOINT((-1.78384652826935E-07,-100.,698.000000006939));
#51= IFCCARTESIANPOINT((-1.78384652826935E-07,100.,698.000000006939));
#52= IFCCARTESIANPOINT((0.,100.,0.));
#53= IFCPOLYLOOP((#49,#50,#51,#52));
#54= IFCFACEOUTERBOUND(#53,.T.);
#55= IFCFACE((#54));
#56= IFCCARTESIANPOINT((370.580194022983,-100.,698.000000000285));
#57= IFCCARTESIANPOINT((370.580194022983,100.,698.000000000285));
#58= IFCPOLYLOOP((#50,#56,#57,#51));
#59= IFCFACEOUTERBOUND(#58,.T.);
#60= IFCFACE((#59));
#61= IFCCARTESIANPOINT((432.322861926772,-100.,591.172444174369));
#62= IFCCARTESIANPOINT((432.322861926772,100.,591.172444174369));
#63= IFCPOLYLOOP((#56,#61,#62,#57));
#64= IFCFACEOUTERBOUND(#63,.T.);
#65= IFCFACE((#64));
#66= IFCCARTESIANPOINT((432.323783490036,-100.,791.176320414774));
#67= IFCCARTESIANPOINT((432.323783490036,100.,791.176320414774));
#68= IFCPOLYLOOP((#61,#66,#67,#62));
#69= IFCFACEOUTERBOUND(#68,.T.);
#70= IFCFACE((#69));
#71= IFCCARTESIANPOINT((486.179999821743,-100.,698.000000000242));
#72= IFCCARTESIANPOINT((486.179999821743,100.,698.000000000242));
#73= IFCPOLYLOOP((#66,#71,#72,#67));
#74= IFCFACEOUTERBOUND(#73,.T.);
#75= IFCFACE((#74));
#76= IFCCARTESIANPOINT((999.999999821863,-100.,698.00000000656));
#77= IFCCARTESIANPOINT((999.999999821863,100.,698.00000000656));
#78= IFCPOLYLOOP((#71,#76,#77,#72));
#79= IFCFACEOUTERBOUND(#78,.T.);
#80= IFCFACE((#79));
#81= IFCCARTESIANPOINT((1000.00000000024,-100.,-3.77440301235765E-10));
#82= IFCCARTESIANPOINT((1000.00000000024,100.,-3.77440301235765E-10));
#83= IFCPOLYLOOP((#76,#81,#82,#77));
#84= IFCFACEOUTERBOUND(#83,.T.);
#85= IFCFACE((#84));
#86= IFCPOLYLOOP((#81,#49,#52,#82));
#87= IFCFACEOUTERBOUND(#86,.T.);
#88= IFCFACE((#87));
#89= IFCPOLYLOOP((#57,#62,#67,#72,#77,#82,#52,#51));
#90= IFCFACEOUTERBOUND(#89,.T.);
#91= IFCFACE((#90));
#92= IFCPOLYLOOP((#81,#76,#71,#66,#61,#56,#50,#49));
#93= IFCFACEOUTERBOUND(#92,.T.);
#94= IFCFACE((#93));
#95= IFCCLOSEDSHELL((#55,#60,#65,#70,#75,#80,#85,#88,#91,#94));
#96= IFCFACETEDBREP(#95);
#97= IFCSTYLEDITEM(#96,(#48),$);
#98= IFCSHAPEREPRESENTATION(#12,'Body','Brep',(#96));
#99= IFCPRODUCTDEFINITIONSHAPE($,$,(#98));
#100= IFCCARTESIANPOINT((19835.8239554668,31100.,1198.00000000694));
#101= IFCDIRECTION((0.,0.,-1.));
#102= IFCDIRECTION((-1.,0.,0.));
#103= IFCAXIS2PLACEMENT3D(#100,#101,#102);
#104= IFCLOCALPLACEMENT(#42,#103);
#105= IFCSLAB('1zR2W4xGr17PevDWBfDC1s',#44,'Fundament','200X791',$,#104,#99,'ID7d6c2804-ed0d-411d-9a39-3602e934c076',.NOTDEFINED.);
#106= IFCSLABTYPE('2RepA8AMT7wgV8snfZJprQ',#5,'200X791',$,$,$,$,$,$,.NOTDEFINED.);
#107= IFCPROPERTYSINGLEVALUE('Class',$,IFCLABEL('1'),$);
#108= IFCPROPERTYSINGLEVALUE('Phase',$,IFCINTEGER(1),$);
#109= IFCPROPERTYSINGLEVALUE('Preliminary mark',$,IFCLABEL(''),$);
#110= IFCPROPERTYSINGLEVALUE('Initial GUID',$,$,$);
#111= IFCPROPERTYSINGLEVALUE('Top elevation',$,IFCLABEL(' +1.198'),$);
#112= IFCPROPERTYSINGLEVALUE('Bottom elevation',$,IFCLABEL(' +0.407'),$);
#113= IFCPROPERTYSET('3jt_Mm9lD0iATqYn0Z2rQX',#5,'Tekla Common','Common Properties to Shared building elements',(#107,#108,#109,#110,#111,#112));
#114= IFCPROPERTYSINGLEVALUE('Length',$,IFCLENGTHMEASURE(1000.),$);
#115= IFCPROPERTYSINGLEVALUE('Width',$,IFCLENGTHMEASURE(200.),$);
#116= IFCPROPERTYSINGLEVALUE('Height',$,IFCLENGTHMEASURE(791.2),$);
#117= IFCPROPERTYSINGLEVALUE('Net surface area',$,IFCAREAMEASURE(2.137),$);
#118= IFCPROPERTYSINGLEVALUE('Area per tons',$,IFCAREAMEASURE(6.385),$);
#119= IFCPROPERTYSINGLEVALUE('Gross footprint area',$,IFCAREAMEASURE(0.2),$);
#120= IFCPROPERTYSINGLEVALUE('Volume',$,IFCVOLUMEMEASURE(0.139),$);
#121= IFCPROPERTYSINGLEVALUE('Weight',$,IFCMASSMEASURE(334.66),$);
#122= IFCPROPERTYSET('0nQnbalxv8fQ06NJrRxDvh',#5,'Tekla Quantity','Quantity Properties to Shared building elements',(#114,#115,#116,#117,#118,#119,#120,#121));
#123= IFCPROPERTYSINGLEVALUE('NetArea',$,IFCAREAMEASURE(0.2),$);
#124= IFCPROPERTYSINGLEVALUE('NetVolume',$,IFCVOLUMEMEASURE(0.1),$);
#125= IFCPROPERTYSINGLEVALUE('NetWeight',$,IFCMASSMEASURE(334.7),$);
#126= IFCPROPERTYSET('3hZCza9UDAqRWM5Lj8AXji',#5,'SlabBaseQuantities',$,(#115,#123,#124,#125));
#127= IFCPROPERTYSINGLEVALUE('Reference',$,$,$);
#128= IFCPROPERTYSINGLEVALUE('AcousticRating',$,$,$);
#129= IFCPROPERTYSINGLEVALUE('FireRating',$,$,$);
#130= IFCPROPERTYSINGLEVALUE('Combustible',$,IFCBOOLEAN(''),$);
#131= IFCPROPERTYSINGLEVALUE('SurfaceSpreadOfFlame',$,$,$);
#132= IFCPROPERTYSINGLEVALUE('ThermalTransmittance',$,$,$);
#133= IFCPROPERTYSINGLEVALUE('IsExternal',$,IFCBOOLEAN(''),$);
#134= IFCPROPERTYSINGLEVALUE('LoadBearing',$,IFCBOOLEAN(''),$);
#135= IFCPROPERTYSINGLEVALUE('Compartmentation',$,IFCBOOLEAN(''),$);
#136= IFCPROPERTYSINGLEVALUE('PitchAngle',$,$,$);
#137= IFCPROPERTYSET('0Ytm33SgTE1OedSUHQnzYe',#5,'Pset_SlabCommon','Definition from IAI: Properties common to the definition of all occurrences of IfcSlab. Note: Properties for PitchAngle added in IFC 2x3',(#127,#128,#129,#130,#131,#132,#133,#134,#135,#136));
#138= IFCMATERIAL('CONCRETE/B45_SV_Standard');
#139= IFCCOLOURRGB('Unnamed',0.823529411764706,0.823529411764706,0.823529411764706);
#140= IFCSURFACESTYLERENDERING(#139,0.4,$,$,$,$,IFCNORMALISEDRATIOMEASURE(0.00390625),IFCSPECULAREXPONENT(10.),.NOTDEFINED.);
#141= IFCSURFACESTYLE('CONCRETE/B45_SV_Standard',.POSITIVE.,(#140));
#142= IFCPRESENTATIONSTYLEASSIGNMENT((#141));
#143= IFCCARTESIANPOINT((-2.25045369006693E-07,-100.,874.999999997881));
#144= IFCCARTESIANPOINT((-2.25045369006693E-07,100.,874.999999997881));
#145= IFCPOLYLOOP((#49,#143,#144,#52));
#146= IFCFACEOUTERBOUND(#145,.T.);
#147= IFCFACE((#146));
#148= IFCCARTESIANPOINT((800.605445087291,-100.,875.00000020595));
#149= IFCCARTESIANPOINT((800.605445087291,100.,875.00000020595));
#150= IFCPOLYLOOP((#143,#148,#149,#144));
#151= IFCFACEOUTERBOUND(#150,.T.);
#152= IFCFACE((#151));
#153= IFCCARTESIANPOINT((862.34587254241,-100.,768.176320639358));
#154= IFCCARTESIANPOINT((862.34587254241,100.,768.176320639358));
#155= IFCPOLYLOOP((#148,#153,#154,#149));
#156= IFCFACEOUTERBOUND(#155,.T.);
#157= IFCFACE((#156));
#158= IFCCARTESIANPOINT((862.346794055069,-100.,968.180196879572));
#159= IFCCARTESIANPOINT((862.346794055069,100.,968.180196879572));
#160= IFCPOLYLOOP((#153,#158,#159,#154));
#161= IFCFACEOUTERBOUND(#160,.T.);
#162= IFCFACE((#161));
#163= IFCCARTESIANPOINT((916.209330915357,-100.,875.000000235992));
#164= IFCCARTESIANPOINT((916.209330915357,100.,875.000000235992));
#165= IFCPOLYLOOP((#158,#163,#164,#159));
#166= IFCFACEOUTERBOUND(#165,.T.);
#167= IFCFACE((#166));
#168= IFCCARTESIANPOINT((1699.99999978317,-100.,875.00000043969));
#169= IFCCARTESIANPOINT((1699.99999978317,100.,875.00000043969));
#170= IFCPOLYLOOP((#163,#168,#169,#164));
#171= IFCFACEOUTERBOUND(#170,.T.);
#172= IFCFACE((#171));
#173= IFCCARTESIANPOINT((1699.99999988989,-100.,460.011438148584));
#174= IFCCARTESIANPOINT((1699.99999988989,100.,460.011438148584));
#175= IFCPOLYLOOP((#168,#173,#174,#169));
#176= IFCFACEOUTERBOUND(#175,.T.);
#177= IFCFACE((#176));
#178= IFCCARTESIANPOINT((499.999999999669,-100.,460.011438145248));
#179= IFCCARTESIANPOINT((499.999999999669,100.,460.011438145248));
#180= IFCPOLYLOOP((#173,#178,#179,#174));
#181= IFCFACEOUTERBOUND(#180,.T.);
#182= IFCFACE((#181));
#183= IFCCARTESIANPOINT((499.999999999687,-100.,-2.53749021794647E-10));
#184= IFCCARTESIANPOINT((499.999999999687,100.,-2.53749021794647E-10));
#185= IFCPOLYLOOP((#178,#183,#184,#179));
#186= IFCFACEOUTERBOUND(#185,.T.);
#187= IFCFACE((#186));
#188= IFCPOLYLOOP((#183,#49,#52,#184));
#189= IFCFACEOUTERBOUND(#188,.T.);
#190= IFCFACE((#189));
#191= IFCPOLYLOOP((#149,#154,#159,#164,#169,#174,#179,#184,#52,#144));
#192= IFCFACEOUTERBOUND(#191,.T.);
#193= IFCFACE((#192));
#194= IFCPOLYLOOP((#183,#178,#173,#168,#163,#158,#153,#148,#143,#49));
#195= IFCFACEOUTERBOUND(#194,.T.);
#196= IFCFACE((#195));
#197= IFCCLOSEDSHELL((#147,#152,#157,#162,#167,#172,#177,#182,#187,#190,#193,#196));
#198= IFCFACETEDBREP(#197);
#199= IFCSTYLEDITEM(#198,(#142),$);
#200= IFCSHAPEREPRESENTATION(#12,'Body','Brep',(#198));
#201= IFCPRODUCTDEFINITIONSHAPE($,$,(#200));
#202= IFCCARTESIANPOINT((18135.823955467,31100.,915.00000000212));
#203= IFCAXIS2PLACEMENT3D(#202,#9,#7);
#204= IFCLOCALPLACEMENT(#42,#203);
#205= IFCSLAB('2gG5DBy8r2aeG21Zjc1Jce',#44,'Landkar','200X968',$,#204,#201,'IDaa40534b-f08d-4292-8402-063b660539a8',.NOTDEFINED.);
#206= IFCSLABTYPE('3hRzhHi7z5z9LqB7bmzopv',#5,'200X968',$,$,$,$,$,$,.NOTDEFINED.);
#207= IFCPROPERTYSINGLEVALUE('Top elevation',$,IFCLABEL(' +1.883'),$);
#208= IFCPROPERTYSINGLEVALUE('Bottom elevation',$,IFCLABEL(' +0.915'),$);
#209= IFCPROPERTYSET('3LuErRFwr1NRhZ$ndtwbYy',#5,'Tekla Common','Common Properties to Shared building elements',(#107,#108,#109,#110,#207,#208));
#210= IFCPROPERTYSINGLEVALUE('Length',$,IFCLENGTHMEASURE(1700.),$);
#211= IFCPROPERTYSINGLEVALUE('Height',$,IFCLENGTHMEASURE(968.2),$);
#212= IFCPROPERTYSINGLEVALUE('Net surface area',$,IFCAREAMEASURE(2.962),$);
#213= IFCPROPERTYSINGLEVALUE('Area per tons',$,IFCAREAMEASURE(6.603),$);
#214= IFCPROPERTYSINGLEVALUE('Gross footprint area',$,IFCAREAMEASURE(0.),$);
#215= IFCPROPERTYSINGLEVALUE('Volume',$,IFCVOLUMEMEASURE(0.187),$);
#216= IFCPROPERTYSINGLEVALUE('Weight',$,IFCMASSMEASURE(448.66),$);
#217= IFCPROPERTYSET('0oDqE01C171RgQsFoZwALw',#5,'Tekla Quantity','Quantity Properties to Shared building elements',(#210,#115,#211,#212,#213,#214,#215,#216));
#218= IFCPROPERTYSINGLEVALUE('NetArea',$,IFCAREAMEASURE(0.),$);
#219= IFCPROPERTYSINGLEVALUE('NetVolume',$,IFCVOLUMEMEASURE(0.2),$);
#220= IFCPROPERTYSINGLEVALUE('NetWeight',$,IFCMASSMEASURE(448.7),$);
#221= IFCPROPERTYSET('28sU9l8WzD78wOI88Rw2AS',#5,'SlabBaseQuantities',$,(#115,#218,#219,#220));
#222= IFCPROPERTYSET('3ufy0WzY12SgcFtxlte0mQ',#5,'Pset_SlabCommon','Definition from IAI: Properties common to the definition of all occurrences of IfcSlab. Note: Properties for PitchAngle added in IFC 2x3',(#127,#128,#129,#130,#131,#132,#133,#134,#135,#136));
#223= IFCCOLOURRGB('Unnamed',0.933333333333333,0.576470588235294,0.0431372549019608);
#224= IFCSURFACESTYLERENDERING(#223,0.,$,$,$,$,IFCNORMALISEDRATIOMEASURE(0.00390625),IFCSPECULAREXPONENT(10.),.NOTDEFINED.);
#225= IFCSURFACESTYLE('STEEL/S355J2H',.POSITIVE.,(#224));
#226= IFCPRESENTATIONSTYLEASSIGNMENT((#225));
#227= IFCCARTESIANPOINT((2.27373675443232E-13,-2.5,0.));
#228= IFCCARTESIANPOINT((-1.76776695296621,-1.76776695296576,0.));
#229= IFCCARTESIANPOINT((-0.779475987487785,-1.76776695296576,-12.5574273462444));
#230= IFCCARTESIANPOINT((0.966526820846411,-2.5,-12.2808876686468));
#231= IFCPOLYLOOP((#227,#228,#229,#230));
#232= IFCFACEOUTERBOUND(#231,.T.);
#233= IFCFACE((#232));
#234= IFCCARTESIANPOINT((-2.5,0.,0.));
#235= IFCCARTESIANPOINT((-1.50269403064158,0.,-12.6719738312422));
#236= IFCPOLYLOOP((#228,#234,#235,#229));
#237= IFCFACEOUTERBOUND(#236,.T.);
#238= IFCFACE((#237));
#239= IFCCARTESIANPOINT((-1.76776695296621,1.76776695296576,0.));
#240= IFCCARTESIANPOINT((-0.779475987487785,1.76776695296576,-12.5574273462444));
#241= IFCPOLYLOOP((#234,#239,#240,#235));
#242= IFCFACEOUTERBOUND(#241,.T.);
#243= IFCFACE((#242));
#244= IFCCARTESIANPOINT((2.27373675443232E-13,2.5,0.));
#245= IFCCARTESIANPOINT((0.966526820846411,2.5,-12.2808876686468));
#246= IFCPOLYLOOP((#239,#244,#245,#240));
#247= IFCFACEOUTERBOUND(#246,.T.);
#248= IFCFACE((#247));
#249= IFCCARTESIANPOINT((1.76776695296667,1.76776695296576,3.63797880709171E-12));
#250= IFCCARTESIANPOINT((2.71252962918061,1.76776695296576,-12.0043479910419));
#251= IFCPOLYLOOP((#244,#249,#250,#245));
#252= IFCFACEOUTERBOUND(#251,.T.);
#253= IFCFACE((#252));
#254= IFCCARTESIANPOINT((2.50000000000068,0.,0.));
#255= IFCCARTESIANPOINT((3.4357476723344,0.,-11.8898015060404));
#256= IFCPOLYLOOP((#249,#254,#255,#250));
#257= IFCFACEOUTERBOUND(#256,.T.);
#258= IFCFACE((#257));
#259= IFCCARTESIANPOINT((1.76776695296667,-1.76776695296576,3.63797880709171E-12));
#260= IFCCARTESIANPOINT((2.71252962918061,-1.76776695296576,-12.0043479910419));
#261= IFCPOLYLOOP((#254,#259,#260,#255));
#262= IFCFACEOUTERBOUND(#261,.T.);
#263= IFCFACE((#262));
#264= IFCPOLYLOOP((#259,#227,#230,#260));
#265= IFCFACEOUTERBOUND(#264,.T.);
#266= IFCFACE((#265));
#267= IFCPOLYLOOP((#259,#254,#249,#244,#239,#234,#228,#227));
#268= IFCFACEOUTERBOUND(#267,.T.);
#269= IFCFACE((#268));
#270= IFCCARTESIANPOINT((2.16106190542428,-1.76776695296576,-24.805649155518));
#271= IFCCARTESIANPOINT((3.8423081853341,-2.5,-24.2593791249565));
#272= IFCPOLYLOOP((#230,#229,#270,#271));
#273= IFCFACEOUTERBOUND(#272,.T.);
#274= IFCFACE((#273));
#275= IFCCARTESIANPOINT((1.46466689459612,0.,-25.0319216108946));
#276= IFCPOLYLOOP((#229,#235,#275,#270));
#277= IFCFACEOUTERBOUND(#276,.T.);
#278= IFCFACE((#277));
#279= IFCCARTESIANPOINT((2.16106190542428,1.76776695296576,-24.805649155518));
#280= IFCPOLYLOOP((#235,#240,#279,#275));
#281= IFCFACEOUTERBOUND(#280,.T.);
#282= IFCFACE((#281));
#283= IFCCARTESIANPOINT((3.8423081853341,2.5,-24.2593791249565));
#284= IFCPOLYLOOP((#240,#245,#283,#279));
#285= IFCFACEOUTERBOUND(#284,.T.);
#286= IFCFACE((#285));
#287= IFCCARTESIANPOINT((5.52355446524416,1.76776695296576,-23.7131090943949));
#288= IFCPOLYLOOP((#245,#250,#287,#283));
#289= IFCFACEOUTERBOUND(#288,.T.);
#290= IFCFACE((#289));
#291= IFCCARTESIANPOINT((6.21994947607232,0.,-23.4868366390183));
#292= IFCPOLYLOOP((#250,#255,#291,#287));
#293= IFCFACEOUTERBOUND(#292,.T.);
#294= IFCFACE((#293));
#295= IFCCARTESIANPOINT((5.52355446524416,-1.76776695296576,-23.7131090943949));
#296= IFCPOLYLOOP((#255,#260,#295,#291));
#297= IFCFACEOUTERBOUND(#296,.T.);
#298= IFCFACE((#297));
#299= IFCPOLYLOOP((#260,#230,#271,#295));
#300= IFCFACEOUTERBOUND(#299,.T.);
#301= IFCFACE((#300));
#302= IFCCARTESIANPOINT((6.98144092376106,-1.76776695296576,-36.4430735573478));
#303= IFCCARTESIANPOINT((8.55653281209879,-2.5,-35.6405241549437));
#304= IFCPOLYLOOP((#271,#270,#302,#303));
#305= IFCFACEOUTERBOUND(#304,.T.);
#306= IFCFACE((#305));
#307= IFCCARTESIANPOINT((6.32901650162762,0.,-36.775500404292));
#308= IFCPOLYLOOP((#270,#275,#307,#302));
#309= IFCFACEOUTERBOUND(#308,.T.);
#310= IFCFACE((#309));
#311= IFCCARTESIANPOINT((6.98144092376106,1.76776695296576,-36.4430735573478));
#312= IFCPOLYLOOP((#275,#279,#311,#307));
#313= IFCFACEOUTERBOUND(#312,.T.);
#314= IFCFACE((#313));
#315= IFCCARTESIANPOINT((8.55653281209879,2.5,-35.6405241549437));
#316= IFCPOLYLOOP((#279,#283,#315,#311));
#317= IFCFACEOUTERBOUND(#316,.T.);
#318= IFCFACE((#317));
#319= IFCCARTESIANPOINT((10.1316247004363,1.76776695296576,-34.8379747525505));
#320= IFCPOLYLOOP((#283,#287,#319,#315));
#321= IFCFACEOUTERBOUND(#320,.T.);
#322= IFCFACE((#321));
#323= IFCCARTESIANPOINT((10.7840491225697,0.,-34.5055479055991));
#324= IFCPOLYLOOP((#287,#291,#323,#319));
#325= IFCFACEOUTERBOUND(#324,.T.);
#326= IFCFACE((#325));
#327= IFCCARTESIANPOINT((10.1316247004363,-1.76776695296576,-34.8379747525505));
#328= IFCPOLYLOOP((#291,#295,#327,#323));
#329= IFCFACEOUTERBOUND(#328,.T.);
#330= IFCFACE((#329));
#331= IFCPOLYLOOP((#295,#271,#303,#327));
#332= IFCFACEOUTERBOUND(#331,.T.);
#333= IFCFACE((#332));
#334= IFCCARTESIANPOINT((13.5629673381702,-1.76776695296576,-47.1831485405673));
#335= IFCCARTESIANPOINT((14.9931208452144,-2.5,-46.1440811961256));
#336= IFCPOLYLOOP((#303,#302,#334,#335));
#337= IFCFACEOUTERBOUND(#336,.T.);
#338= IFCFACE((#337));
#339= IFCCARTESIANPOINT((12.9705783592772,0.,-47.613544326854));
#340= IFCPOLYLOOP((#302,#307,#339,#334));
#341= IFCFACEOUTERBOUND(#340,.T.);
#342= IFCFACE((#341));
#343= IFCCARTESIANPOINT((13.5629673381702,1.76776695296576,-47.1831485405673));
#344= IFCPOLYLOOP((#307,#311,#343,#339));
#345= IFCFACEOUTERBOUND(#344,.T.);
#346= IFCFACE((#345));
#347= IFCCARTESIANPOINT((14.9931208452144,2.5,-46.1440811961256));
#348= IFCPOLYLOOP((#311,#315,#347,#343));
#349= IFCFACEOUTERBOUND(#348,.T.);
#350= IFCFACE((#349));
#351= IFCCARTESIANPOINT((16.4232743522589,1.76776695296576,-45.1050138516803));
#352= IFCPOLYLOOP((#315,#319,#351,#347));
#353= IFCFACEOUTERBOUND(#352,.T.);
#354= IFCFACE((#353));
#355= IFCCARTESIANPOINT((17.0156633311519,0.,-44.6746180653972));
#356= IFCPOLYLOOP((#319,#323,#355,#351));
#357= IFCFACEOUTERBOUND(#356,.T.);
#358= IFCFACE((#357));
#359= IFCCARTESIANPOINT((16.4232743522589,-1.76776695296576,-45.1050138516803));
#360= IFCPOLYLOOP((#323,#327,#359,#355));
#361= IFCFACEOUTERBOUND(#360,.T.);
#362= IFCFACE((#361));
#363= IFCPOLYLOOP((#327,#303,#335,#359));
#364= IFCFACEOUTERBOUND(#363,.T.);
#365= IFCFACE((#364));
#366= IFCCARTESIANPOINT((21.7435821254955,-1.76776695296576,-56.7614178148287));
#367= IFCCARTESIANPOINT((22.9935821254955,-2.5,-55.5114178148287));
#368= IFCPOLYLOOP((#335,#334,#366,#367));
#369= IFCFACEOUTERBOUND(#368,.T.);
#370= IFCFACE((#369));
#371= IFCCARTESIANPOINT((21.2258151725293,0.,-57.2791847677945));
#372= IFCPOLYLOOP((#334,#339,#371,#366));
#373= IFCFACEOUTERBOUND(#372,.T.);
#374= IFCFACE((#373));
#375= IFCCARTESIANPOINT((21.7435821254955,1.76776695296576,-56.7614178148287));
#376= IFCPOLYLOOP((#339,#343,#375,#371));
#377= IFCFACEOUTERBOUND(#376,.T.);
#378= IFCFACE((#377));
#379= IFCCARTESIANPOINT((22.9935821254955,2.5,-55.5114178148287));
#380= IFCPOLYLOOP((#343,#347,#379,#375));
#381= IFCFACEOUTERBOUND(#380,.T.);
#382= IFCFACE((#381));
#383= IFCCARTESIANPOINT((24.2435821254955,1.76776695296576,-54.2614178148287));
#384= IFCPOLYLOOP((#347,#351,#383,#379));
#385= IFCFACEOUTERBOUND(#384,.T.);
#386= IFCFACE((#385));
#387= IFCCARTESIANPOINT((24.7613490784618,0.,-53.743650861863));
#388= IFCPOLYLOOP((#351,#355,#387,#383));
#389= IFCFACEOUTERBOUND(#388,.T.);
#390= IFCFACE((#389));
#391= IFCCARTESIANPOINT((24.2435821254955,-1.76776695296576,-54.2614178148287));
#392= IFCPOLYLOOP((#355,#359,#391,#387));
#393= IFCFACEOUTERBOUND(#392,.T.);
#394= IFCFACE((#393));
#395= IFCPOLYLOOP((#359,#335,#367,#391));
#396= IFCFACEOUTERBOUND(#395,.T.);
#397= IFCFACE((#396));
#398= IFCCARTESIANPOINT((31.3218513997685,-1.76776695296576,-64.9420326021427));
#399= IFCCARTESIANPOINT((32.3609187442121,-2.5,-63.5118790950983));
#400= IFCPOLYLOOP((#367,#366,#398,#399));
#401= IFCFACEOUTERBOUND(#400,.T.);
#402= IFCFACE((#401));
#403= IFCCARTESIANPOINT((30.8914556134812,0.,-65.5344215810364));
#404= IFCPOLYLOOP((#366,#371,#403,#398));
#405= IFCFACEOUTERBOUND(#404,.T.);
#406= IFCFACE((#405));
#407= IFCCARTESIANPOINT((31.3218513997685,1.76776695296576,-64.9420326021427));
#408= IFCPOLYLOOP((#371,#375,#407,#403));
#409= IFCFACEOUTERBOUND(#408,.T.);
#410= IFCFACE((#409));
#411= IFCCARTESIANPOINT((32.3609187442121,2.5,-63.5118790950983));
#412= IFCPOLYLOOP((#375,#379,#411,#407));
#413= IFCFACEOUTERBOUND(#412,.T.);
#414= IFCFACE((#413));
#415= IFCCARTESIANPOINT((33.3999860886556,1.76776695296576,-62.0817255880538));
#416= IFCPOLYLOOP((#379,#383,#415,#411));
#417= IFCFACEOUTERBOUND(#416,.T.);
#418= IFCFACE((#417));
#419= IFCCARTESIANPOINT((33.8303818749432,0.,-61.4893366091637));
#420= IFCPOLYLOOP((#383,#387,#419,#415));
#421= IFCFACEOUTERBOUND(#420,.T.);
#422= IFCFACE((#421));
#423= IFCCARTESIANPOINT((33.3999860886556,-1.76776695296576,-62.0817255880538));
#424= IFCPOLYLOOP((#387,#391,#423,#419));
#425= IFCFACEOUTERBOUND(#424,.T.);
#426= IFCFACE((#425));
#427= IFCPOLYLOOP((#391,#367,#399,#423));
#428= IFCFACEOUTERBOUND(#427,.T.);
#429= IFCFACE((#428));
#430= IFCCARTESIANPOINT((42.061926383004,-1.76776695296576,-71.523559016543));
#431= IFCCARTESIANPOINT((42.864475785404,-2.5,-69.9484671282044));
#432= IFCPOLYLOOP((#399,#398,#430,#431));
#433= IFCFACEOUTERBOUND(#432,.T.);
#434= IFCFACE((#433));
#435= IFCCARTESIANPOINT((41.7294995360555,0.,-72.1759834386721));
#436= IFCPOLYLOOP((#398,#403,#435,#430));
#437= IFCFACEOUTERBOUND(#436,.T.);
#438= IFCFACE((#437));
#439= IFCCARTESIANPOINT((42.061926383004,1.76776695296576,-71.523559016543));
#440= IFCPOLYLOOP((#403,#407,#439,#435));
#441= IFCFACEOUTERBOUND(#440,.T.);
#442= IFCFACE((#441));
#443= IFCCARTESIANPOINT((42.864475785404,2.5,-69.9484671282044));
#444= IFCPOLYLOOP((#407,#411,#443,#439));
#445= IFCFACEOUTERBOUND(#444,.T.);
#446= IFCFACE((#445));
#447= IFCCARTESIANPOINT((43.6670251878043,1.76776695296576,-68.3733752398693));
#448= IFCPOLYLOOP((#411,#415,#447,#443));
#449= IFCFACEOUTERBOUND(#448,.T.);
#450= IFCFACE((#449));
#451= IFCCARTESIANPOINT((43.9994520347527,0.,-67.720950817733));
#452= IFCPOLYLOOP((#415,#419,#451,#447));
#453= IFCFACEOUTERBOUND(#452,.T.);
#454= IFCFACE((#453));
#455= IFCCARTESIANPOINT((43.6670251878043,-1.76776695296576,-68.3733752398693));
#456= IFCPOLYLOOP((#419,#423,#455,#451));
#457= IFCFACEOUTERBOUND(#456,.T.);
#458= IFCFACE((#457));
#459= IFCPOLYLOOP((#423,#399,#431,#455));
#460= IFCFACEOUTERBOUND(#459,.T.);
#461= IFCFACE((#460));
#462= IFCCARTESIANPOINT((53.6993507848488,-1.76776695296576,-76.3439380348682));
#463= IFCCARTESIANPOINT((54.2456208154097,-2.5,-74.662691754962));
#464= IFCPOLYLOOP((#431,#430,#462,#463));
#465= IFCFACEOUTERBOUND(#464,.T.);
#466= IFCFACE((#465));
#467= IFCCARTESIANPOINT((53.4730783294724,0.,-77.0403330456975));
#468= IFCPOLYLOOP((#430,#435,#467,#462));
#469= IFCFACEOUTERBOUND(#468,.T.);
#470= IFCFACE((#469));
#471= IFCCARTESIANPOINT((53.6993507848488,1.76776695296576,-76.3439380348682));
#472= IFCPOLYLOOP((#435,#439,#471,#467));
#473= IFCFACEOUTERBOUND(#472,.T.);
#474= IFCFACE((#473));
#475= IFCCARTESIANPOINT((54.2456208154097,2.5,-74.662691754962));
#476= IFCPOLYLOOP((#439,#443,#475,#471));
#477= IFCFACEOUTERBOUND(#476,.T.);
#478= IFCFACE((#477));
#479= IFCCARTESIANPOINT((54.7918908459706,1.76776695296576,-72.9814454750558));
#480= IFCPOLYLOOP((#443,#447,#479,#475));
#481= IFCFACEOUTERBOUND(#480,.T.);
#482= IFCFACE((#481));
#483= IFCCARTESIANPOINT((55.0181633013469,0.,-72.2850504642265));
#484= IFCPOLYLOOP((#447,#451,#483,#479));
#485= IFCFACEOUTERBOUND(#484,.T.);
#486= IFCFACE((#485));
#487= IFCCARTESIANPOINT((54.7918908459706,-1.76776695296576,-72.9814454750558));
#488= IFCPOLYLOOP((#451,#455,#487,#483));
#489= IFCFACEOUTERBOUND(#488,.T.);
#490= IFCFACE((#489));
#491= IFCPOLYLOOP((#455,#431,#463,#487));
#492= IFCFACEOUTERBOUND(#491,.T.);
#493= IFCFACE((#492));
#494= IFCCARTESIANPOINT((65.9475725941325,-1.76776695296576,-79.2844759277759));
#495= IFCCARTESIANPOINT((66.2241122717355,-2.5,-77.5384731194426));
#496= IFCPOLYLOOP((#463,#462,#494,#495));
#497= IFCFACEOUTERBOUND(#496,.T.);
#498= IFCFACE((#497));
#499= IFCCARTESIANPOINT((65.8330261091351,0.,-80.0076939709325));
#500= IFCPOLYLOOP((#462,#467,#499,#494));
#501= IFCFACEOUTERBOUND(#500,.T.);
#502= IFCFACE((#501));
#503= IFCCARTESIANPOINT((65.9475725941325,1.76776695296576,-79.2844759277759));
#504= IFCPOLYLOOP((#467,#471,#503,#499));
#505= IFCFACEOUTERBOUND(#504,.T.);
#506= IFCFACE((#505));
#507= IFCCARTESIANPOINT((66.2241122717355,2.5,-77.5384731194426));
#508= IFCPOLYLOOP((#471,#475,#507,#503));
#509= IFCFACEOUTERBOUND(#508,.T.);
#510= IFCFACE((#509));
#511= IFCCARTESIANPOINT((66.5006519493381,1.76776695296576,-75.7924703111094));
#512= IFCPOLYLOOP((#475,#479,#511,#507));
#513= IFCFACEOUTERBOUND(#512,.T.);
#514= IFCFACE((#513));
#515= IFCCARTESIANPOINT((66.6151984343358,0.,-75.0692522679565));
#516= IFCPOLYLOOP((#479,#483,#515,#511));
#517= IFCFACEOUTERBOUND(#516,.T.);
#518= IFCFACE((#517));
#519= IFCCARTESIANPOINT((66.5006519493381,-1.76776695296576,-75.7924703111094));
#520= IFCPOLYLOOP((#483,#487,#519,#515));
#521= IFCFACEOUTERBOUND(#520,.T.);
#522= IFCFACE((#521));
#523= IFCPOLYLOOP((#487,#463,#495,#519));
#524= IFCFACEOUTERBOUND(#523,.T.);
#525= IFCFACE((#524));
#526= IFCCARTESIANPOINT((78.504999940393,-1.76776695296576,-80.2727668932494));
#527= IFCCARTESIANPOINT((78.5049999403927,-2.5,-78.5049999402872));
#528= IFCPOLYLOOP((#495,#494,#526,#527));
#529= IFCFACEOUTERBOUND(#528,.T.);
#530= IFCFACE((#529));
#531= IFCCARTESIANPOINT((78.504999940393,0.,-81.00499994028));
#532= IFCPOLYLOOP((#494,#499,#531,#526));
#533= IFCFACEOUTERBOUND(#532,.T.);
#534= IFCFACE((#533));
#535= IFCCARTESIANPOINT((78.504999940393,1.76776695296576,-80.2727668932494));
#536= IFCPOLYLOOP((#499,#503,#535,#531));
#537= IFCFACEOUTERBOUND(#536,.T.);
#538= IFCFACE((#537));
#539= IFCCARTESIANPOINT((78.5049999403927,2.5,-78.5049999402872));
#540= IFCPOLYLOOP((#503,#507,#539,#535));
#541= IFCFACEOUTERBOUND(#540,.T.);
#542= IFCFACE((#541));
#543= IFCCARTESIANPOINT((78.5049999403925,1.76776695296576,-76.7372329873215));
#544= IFCPOLYLOOP((#507,#511,#543,#539));
#545= IFCFACEOUTERBOUND(#544,.T.);
#546= IFCFACE((#545));
#547= IFCCARTESIANPOINT((78.5049999403923,0.,-76.0049999402872));
#548= IFCPOLYLOOP((#511,#515,#547,#543));
#549= IFCFACEOUTERBOUND(#548,.T.);
#550= IFCFACE((#549));
#551= IFCCARTESIANPOINT((78.5049999403925,-1.76776695296576,-76.7372329873215));
#552= IFCPOLYLOOP((#515,#519,#551,#547));
#553= IFCFACEOUTERBOUND(#552,.T.);
#554= IFCFACE((#553));
#555= IFCPOLYLOOP((#519,#495,#527,#551));
#556= IFCFACEOUTERBOUND(#555,.T.);
#557= IFCFACE((#556));
#558= IFCCARTESIANPOINT((91.0624272866535,-1.76776695296576,-79.2844759277723));
#559= IFCCARTESIANPOINT((90.78588760905,-2.5,-77.538473119439));
#560= IFCPOLYLOOP((#527,#526,#558,#559));
#561= IFCFACEOUTERBOUND(#560,.T.);
#562= IFCFACE((#561));
#563= IFCCARTESIANPOINT((91.1769737716509,0.,-80.0076939709252));
#564= IFCPOLYLOOP((#526,#531,#563,#558));
#565= IFCFACEOUTERBOUND(#564,.T.);
#566= IFCFACE((#565));
#567= IFCCARTESIANPOINT((91.0624272866535,1.76776695296576,-79.2844759277723));
#568= IFCPOLYLOOP((#531,#535,#567,#563));
#569= IFCFACEOUTERBOUND(#568,.T.);
#570= IFCFACE((#569));
#571= IFCCARTESIANPOINT((90.78588760905,2.5,-77.538473119439));
#572= IFCPOLYLOOP((#535,#539,#571,#567));
#573= IFCFACEOUTERBOUND(#572,.T.);
#574= IFCFACE((#573));
#575= IFCCARTESIANPOINT((90.5093479314467,1.76776695296576,-75.7924703111094));
#576= IFCPOLYLOOP((#539,#543,#575,#571));
#577= IFCFACEOUTERBOUND(#576,.T.);
#578= IFCFACE((#577));
#579= IFCCARTESIANPOINT((90.394801446449,0.,-75.0692522679565));
#580= IFCPOLYLOOP((#543,#547,#579,#575));
#581= IFCFACEOUTERBOUND(#580,.T.);
#582= IFCFACE((#581));
#583= IFCCARTESIANPOINT((90.5093479314467,-1.76776695296576,-75.7924703111094));
#584= IFCPOLYLOOP((#547,#551,#583,#579));
#585= IFCFACEOUTERBOUND(#584,.T.);
#586= IFCFACE((#585));
#587= IFCPOLYLOOP((#551,#527,#559,#583));
#588= IFCFACEOUTERBOUND(#587,.T.);
#589= IFCFACE((#588));
#590= IFCCARTESIANPOINT((103.310649095936,-1.76776695296576,-76.3439380348645));
#591= IFCCARTESIANPOINT((102.764379065375,-2.5,-74.6626917549584));
#592= IFCPOLYLOOP((#559,#558,#590,#591));
#593= IFCFACEOUTERBOUND(#592,.T.);
#594= IFCFACE((#593));
#595= IFCCARTESIANPOINT((103.536921551313,0.,-77.0403330456902));
#596= IFCPOLYLOOP((#558,#563,#595,#590));
#597= IFCFACEOUTERBOUND(#596,.T.);
#598= IFCFACE((#597));
#599= IFCCARTESIANPOINT((103.310649095936,1.76776695296576,-76.3439380348645));
#600= IFCPOLYLOOP((#563,#567,#599,#595));
#601= IFCFACEOUTERBOUND(#600,.T.);
#602= IFCFACE((#601));
#603= IFCCARTESIANPOINT((102.764379065375,2.5,-74.6626917549584));
#604= IFCPOLYLOOP((#567,#571,#603,#599));
#605= IFCFACEOUTERBOUND(#604,.T.);
#606= IFCFACE((#605));
#607= IFCCARTESIANPOINT((102.218109034814,1.76776695296576,-72.9814454750485));
#608= IFCPOLYLOOP((#571,#575,#607,#603));
#609= IFCFACEOUTERBOUND(#608,.T.);
#610= IFCFACE((#609));
#611= IFCCARTESIANPOINT((101.991836579437,0.,-72.2850504642192));
#612= IFCPOLYLOOP((#575,#579,#611,#607));
#613= IFCFACEOUTERBOUND(#612,.T.);
#614= IFCFACE((#613));
#615= IFCCARTESIANPOINT((102.218109034814,-1.76776695296576,-72.9814454750485));
#616= IFCPOLYLOOP((#579,#583,#615,#611));
#617= IFCFACEOUTERBOUND(#616,.T.);
#618= IFCFACE((#617));
#619= IFCPOLYLOOP((#583,#559,#591,#615));
#620= IFCFACEOUTERBOUND(#619,.T.);
#621= IFCFACE((#620));
#622= IFCCARTESIANPOINT((114.94807349778,-1.76776695296576,-71.5235590165357));
#623= IFCCARTESIANPOINT((114.14552409538,-2.5,-69.9484671281971));
#624= IFCPOLYLOOP((#591,#590,#622,#623));
#625= IFCFACEOUTERBOUND(#624,.T.);
#626= IFCFACE((#625));
#627= IFCCARTESIANPOINT((115.280500344729,0.,-72.1759834386648));
#628= IFCPOLYLOOP((#590,#595,#627,#622));
#629= IFCFACEOUTERBOUND(#628,.T.);
#630= IFCFACE((#629));
#631= IFCCARTESIANPOINT((114.94807349778,1.76776695296576,-71.5235590165357));
#632= IFCPOLYLOOP((#595,#599,#631,#627));
#633= IFCFACEOUTERBOUND(#632,.T.);
#634= IFCFACE((#633));
#635= IFCCARTESIANPOINT((114.14552409538,2.5,-69.9484671281971));
#636= IFCPOLYLOOP((#599,#603,#635,#631));
#637= IFCFACEOUTERBOUND(#636,.T.);
#638= IFCFACE((#637));
#639= IFCCARTESIANPOINT((113.342974692979,1.76776695296576,-68.3733752398621));
#640= IFCPOLYLOOP((#603,#607,#639,#635));
#641= IFCFACEOUTERBOUND(#640,.T.);
#642= IFCFACE((#641));
#643= IFCCARTESIANPOINT((113.01054784603,0.,-67.7209508177293));
#644= IFCPOLYLOOP((#607,#611,#643,#639));
#645= IFCFACEOUTERBOUND(#644,.T.);
#646= IFCFACE((#645));
#647= IFCCARTESIANPOINT((113.342974692979,-1.76776695296576,-68.3733752398621));
#648= IFCPOLYLOOP((#611,#615,#647,#643));
#649= IFCFACEOUTERBOUND(#648,.T.);
#650= IFCFACE((#649));
#651= IFCPOLYLOOP((#615,#591,#623,#647));
#652= IFCFACEOUTERBOUND(#651,.T.);
#653= IFCFACE((#652));
#654= IFCCARTESIANPOINT((125.688148481014,-1.76776695296576,-64.9420326021282));
#655= IFCCARTESIANPOINT((124.64908113657,-2.5,-63.5118790950874));
#656= IFCPOLYLOOP((#623,#622,#654,#655));
#657= IFCFACEOUTERBOUND(#656,.T.);
#658= IFCFACE((#657));
#659= IFCCARTESIANPOINT((126.118544267302,0.,-65.5344215810219));
#660= IFCPOLYLOOP((#622,#627,#659,#654));
#661= IFCFACEOUTERBOUND(#660,.T.);
#662= IFCFACE((#661));
#663= IFCCARTESIANPOINT((125.688148481014,1.76776695296576,-64.9420326021282));
#664= IFCPOLYLOOP((#627,#631,#663,#659));
#665= IFCFACEOUTERBOUND(#664,.T.);
#666= IFCFACE((#665));
#667= IFCCARTESIANPOINT((124.64908113657,2.5,-63.5118790950874));
#668= IFCPOLYLOOP((#631,#635,#667,#663));
#669= IFCFACEOUTERBOUND(#668,.T.);
#670= IFCFACE((#669));
#671= IFCCARTESIANPOINT((123.610013792126,1.76776695296576,-62.0817255880429));
#672= IFCPOLYLOOP((#635,#639,#671,#667));
#673= IFCFACEOUTERBOUND(#672,.T.);
#674= IFCFACE((#673));
#675= IFCCARTESIANPOINT((123.179618005839,0.,-61.4893366091528));
#676= IFCPOLYLOOP((#639,#643,#675,#671));
#677= IFCFACEOUTERBOUND(#676,.T.);
#678= IFCFACE((#677));
#679= IFCCARTESIANPOINT((123.610013792126,-1.76776695296576,-62.0817255880429));
#680= IFCPOLYLOOP((#643,#647,#679,#675));
#681= IFCFACEOUTERBOUND(#680,.T.);
#682= IFCFACE((#681));
#683= IFCPOLYLOOP((#647,#623,#655,#679));
#684= IFCFACEOUTERBOUND(#683,.T.);
#685= IFCFACE((#684));
#686= IFCCARTESIANPOINT((135.266417755285,-1.76776695296576,-56.7614178148142));
#687= IFCCARTESIANPOINT((134.016417755285,-2.5,-55.5114178148178));
#688= IFCPOLYLOOP((#655,#654,#686,#687));
#689= IFCFACEOUTERBOUND(#688,.T.);
#690= IFCFACE((#689));
#691= IFCCARTESIANPOINT((135.784184708252,0.,-57.27918476778));
#692= IFCPOLYLOOP((#654,#659,#691,#686));
#693= IFCFACEOUTERBOUND(#692,.T.);
#694= IFCFACE((#693));
#695= IFCCARTESIANPOINT((135.266417755285,1.76776695296576,-56.7614178148142));
#696= IFCPOLYLOOP((#659,#663,#695,#691));
#697= IFCFACEOUTERBOUND(#696,.T.);
#698= IFCFACE((#697));
#699= IFCCARTESIANPOINT((134.016417755285,2.5,-55.5114178148178));
#700= IFCPOLYLOOP((#663,#667,#699,#695));
#701= IFCFACEOUTERBOUND(#700,.T.);
#702= IFCFACE((#701));
#703= IFCCARTESIANPOINT((132.766417755285,1.76776695296576,-54.2614178148215));
#704= IFCPOLYLOOP((#667,#671,#703,#699));
#705= IFCFACEOUTERBOUND(#704,.T.);
#706= IFCFACE((#705));
#707= IFCCARTESIANPOINT((132.248650802318,0.,-53.7436508618521));
#708= IFCPOLYLOOP((#671,#675,#707,#703));
#709= IFCFACEOUTERBOUND(#708,.T.);
#710= IFCFACE((#709));
#711= IFCCARTESIANPOINT((132.766417755285,-1.76776695296576,-54.2614178148215));
#712= IFCPOLYLOOP((#675,#679,#711,#707));
#713= IFCFACEOUTERBOUND(#712,.T.);
#714= IFCFACE((#713));
#715= IFCPOLYLOOP((#679,#655,#687,#711));
#716= IFCFACEOUTERBOUND(#715,.T.);
#717= IFCFACE((#716));
#718= IFCCARTESIANPOINT((143.447032542608,-1.76776695296576,-47.1831485405528));
#719= IFCCARTESIANPOINT((142.016879035564,-2.5,-46.1440811961111));
#720= IFCPOLYLOOP((#687,#686,#718,#719));
#721= IFCFACEOUTERBOUND(#720,.T.);
#722= IFCFACE((#721));
#723= IFCCARTESIANPOINT((144.039421521501,0.,-47.6135443268431));
#724= IFCPOLYLOOP((#686,#691,#723,#718));
#725= IFCFACEOUTERBOUND(#724,.T.);
#726= IFCFACE((#725));
#727= IFCCARTESIANPOINT((143.447032542608,1.76776695296576,-47.1831485405528));
#728= IFCPOLYLOOP((#691,#695,#727,#723));
#729= IFCFACEOUTERBOUND(#728,.T.);
#730= IFCFACE((#729));
#731= IFCCARTESIANPOINT((142.016879035564,2.5,-46.1440811961111));
#732= IFCPOLYLOOP((#695,#699,#731,#727));
#733= IFCFACEOUTERBOUND(#732,.T.);
#734= IFCFACE((#733));
#735= IFCCARTESIANPOINT((140.586725528519,1.76776695296576,-45.1050138516694));
#736= IFCPOLYLOOP((#699,#703,#735,#731));
#737= IFCFACEOUTERBOUND(#736,.T.);
#738= IFCFACE((#737));
#739= IFCCARTESIANPOINT((139.994336549626,0.,-44.6746180653827));
#740= IFCPOLYLOOP((#703,#707,#739,#735));
#741= IFCFACEOUTERBOUND(#740,.T.);
#742= IFCFACE((#741));
#743= IFCCARTESIANPOINT((140.586725528519,-1.76776695296576,-45.1050138516694));
#744= IFCPOLYLOOP((#707,#711,#743,#739));
#745= IFCFACEOUTERBOUND(#744,.T.);
#746= IFCFACE((#745));
#747= IFCPOLYLOOP((#711,#687,#719,#743));
#748= IFCFACEOUTERBOUND(#747,.T.);
#749= IFCFACE((#748));
#750= IFCCARTESIANPOINT((150.028558957015,-1.76776695296576,-36.4430735573333));
#751= IFCCARTESIANPOINT((148.453467068677,-2.5,-35.6405241549292));
#752= IFCPOLYLOOP((#719,#718,#750,#751));
#753= IFCFACEOUTERBOUND(#752,.T.);
#754= IFCFACE((#753));
#755= IFCCARTESIANPOINT((150.680983379149,0.,-36.7755004042774));
#756= IFCPOLYLOOP((#718,#723,#755,#750));
#757= IFCFACEOUTERBOUND(#756,.T.);
#758= IFCFACE((#757));
#759= IFCCARTESIANPOINT((150.028558957015,1.76776695296576,-36.4430735573333));
#760= IFCPOLYLOOP((#723,#727,#759,#755));
#761= IFCFACEOUTERBOUND(#760,.T.);
#762= IFCFACE((#761));
#763= IFCCARTESIANPOINT((148.453467068677,2.5,-35.6405241549292));
#764= IFCPOLYLOOP((#727,#731,#763,#759));
#765= IFCFACEOUTERBOUND(#764,.T.);
#766= IFCFACE((#765));
#767= IFCCARTESIANPOINT((146.878375180339,1.76776695296576,-34.8379747525323));
#768= IFCPOLYLOOP((#731,#735,#767,#763));
#769= IFCFACEOUTERBOUND(#768,.T.);
#770= IFCFACE((#769));
#771= IFCCARTESIANPOINT((146.225950758206,0.,-34.5055479055845));
#772= IFCPOLYLOOP((#735,#739,#771,#767));
#773= IFCFACEOUTERBOUND(#772,.T.);
#774= IFCFACE((#773));
#775= IFCCARTESIANPOINT((146.878375180339,-1.76776695296576,-34.8379747525323));
#776= IFCPOLYLOOP((#739,#743,#775,#771));
#777= IFCFACEOUTERBOUND(#776,.T.);
#778= IFCFACE((#777));
#779= IFCPOLYLOOP((#743,#719,#751,#775));
#780= IFCFACEOUTERBOUND(#779,.T.);
#781= IFCFACE((#780));
#782= IFCCARTESIANPOINT((154.848937975349,-1.76776695296576,-24.8056491554999));
#783= IFCCARTESIANPOINT((153.167691695439,-2.5,-24.2593791249383));
#784= IFCPOLYLOOP((#751,#750,#782,#783));
#785= IFCFACEOUTERBOUND(#784,.T.);
#786= IFCFACE((#785));
#787= IFCCARTESIANPOINT((155.545332986177,0.,-25.0319216108728));
#788= IFCPOLYLOOP((#750,#755,#787,#782));
#789= IFCFACEOUTERBOUND(#788,.T.);
#790= IFCFACE((#789));
#791= IFCCARTESIANPOINT((154.848937975349,1.76776695296576,-24.8056491554999));
#792= IFCPOLYLOOP((#755,#759,#791,#787));
#793= IFCFACEOUTERBOUND(#792,.T.);
#794= IFCFACE((#793));
#795= IFCCARTESIANPOINT((153.167691695439,2.5,-24.2593791249383));
#796= IFCPOLYLOOP((#759,#763,#795,#791));
#797= IFCFACEOUTERBOUND(#796,.T.);
#798= IFCFACE((#797));
#799= IFCCARTESIANPOINT((151.486445415529,1.76776695296576,-23.7131090943803));
#800= IFCPOLYLOOP((#763,#767,#799,#795));
#801= IFCFACEOUTERBOUND(#800,.T.);
#802= IFCFACE((#801));
#803= IFCCARTESIANPOINT((150.790050404701,0.,-23.4868366390037));
#804= IFCPOLYLOOP((#767,#771,#803,#799));
#805= IFCFACEOUTERBOUND(#804,.T.);
#806= IFCFACE((#805));
#807= IFCCARTESIANPOINT((151.486445415529,-1.76776695296576,-23.7131090943803));
#808= IFCPOLYLOOP((#771,#775,#807,#803));
#809= IFCFACEOUTERBOUND(#808,.T.);
#810= IFCFACE((#809));
#811= IFCPOLYLOOP((#775,#751,#783,#807));
#812= IFCFACEOUTERBOUND(#811,.T.);
#813= IFCFACE((#812));
#814= IFCCARTESIANPOINT((157.789475868258,-1.76776695296576,-12.5574273462262));
#815= IFCCARTESIANPOINT((156.043473059924,-2.5,-12.2808876686249));
#816= IFCPOLYLOOP((#783,#782,#814,#815));
#817= IFCFACEOUTERBOUND(#816,.T.);
#818= IFCFACE((#817));
#819= IFCCARTESIANPOINT((158.512693911412,0.,-12.671973831224));
#820= IFCPOLYLOOP((#782,#787,#819,#814));
#821= IFCFACEOUTERBOUND(#820,.T.);
#822= IFCFACE((#821));
#823= IFCCARTESIANPOINT((157.789475868258,1.76776695296576,-12.5574273462262));
#824= IFCPOLYLOOP((#787,#791,#823,#819));
#825= IFCFACEOUTERBOUND(#824,.T.);
#826= IFCFACE((#825));
#827= IFCCARTESIANPOINT((156.043473059924,2.5,-12.2808876686249));
#828= IFCPOLYLOOP((#791,#795,#827,#823));
#829= IFCFACEOUTERBOUND(#828,.T.);
#830= IFCFACE((#829));
#831= IFCCARTESIANPOINT((154.29747025159,1.76776695296576,-12.0043479910237));
#832= IFCPOLYLOOP((#795,#799,#831,#827));
#833= IFCFACEOUTERBOUND(#832,.T.);
#834= IFCFACE((#833));
#835= IFCCARTESIANPOINT((153.574252208436,0.,-11.8898015060258));
#836= IFCPOLYLOOP((#799,#803,#835,#831));
#837= IFCFACEOUTERBOUND(#836,.T.);
#838= IFCFACE((#837));
#839= IFCCARTESIANPOINT((154.29747025159,-1.76776695296576,-12.0043479910237));
#840= IFCPOLYLOOP((#803,#807,#839,#835));
#841= IFCFACEOUTERBOUND(#840,.T.);
#842= IFCFACE((#841));
#843= IFCPOLYLOOP((#807,#783,#815,#839));
#844= IFCFACEOUTERBOUND(#843,.T.);
#845= IFCFACE((#844));
#846= IFCCARTESIANPOINT((158.777766833734,-1.76776695296576,2.18278728425503E-11));
#847= IFCCARTESIANPOINT((157.009999880767,-2.5,1.81898940354586E-11));
#848= IFCPOLYLOOP((#815,#814,#846,#847));
#849= IFCFACEOUTERBOUND(#848,.T.);
#850= IFCFACE((#849));
#851= IFCCARTESIANPOINT((159.509999880768,0.,1.81898940354586E-11));
#852= IFCPOLYLOOP((#814,#819,#851,#846));
#853= IFCFACEOUTERBOUND(#852,.T.);
#854= IFCFACE((#853));
#855= IFCCARTESIANPOINT((158.777766833734,1.76776695296576,2.18278728425503E-11));
#856= IFCPOLYLOOP((#819,#823,#855,#851));
#857= IFCFACEOUTERBOUND(#856,.T.);
#858= IFCFACE((#857));
#859= IFCCARTESIANPOINT((157.009999880767,2.5,1.81898940354586E-11));
#860= IFCPOLYLOOP((#823,#827,#859,#855));
#861= IFCFACEOUTERBOUND(#860,.T.);
#862= IFCFACE((#861));
#863= IFCCARTESIANPOINT((155.242232927801,1.76776695296576,1.81898940354586E-11));
#864= IFCPOLYLOOP((#827,#831,#863,#859));
#865= IFCFACEOUTERBOUND(#864,.T.);
#866= IFCFACE((#865));
#867= IFCCARTESIANPOINT((154.509999880768,0.,1.81898940354586E-11));
#868= IFCPOLYLOOP((#831,#835,#867,#863));
#869= IFCFACEOUTERBOUND(#868,.T.);
#870= IFCFACE((#869));
#871= IFCCARTESIANPOINT((155.242232927801,-1.76776695296576,1.81898940354586E-11));
#872= IFCPOLYLOOP((#835,#839,#871,#867));
#873= IFCFACEOUTERBOUND(#872,.T.);
#874= IFCFACE((#873));
#875= IFCPOLYLOOP((#839,#815,#847,#871));
#876= IFCFACEOUTERBOUND(#875,.T.);
#877= IFCFACE((#876));
#878= IFCPOLYLOOP((#851,#855,#859,#863,#867,#871,#847,#846));
#879= IFCFACEOUTERBOUND(#878,.T.);
#880= IFCFACE((#879));
#881= IFCCLOSEDSHELL((#233,#238,#243,#248,#253,#258,#263,#266,#269,#274,#278,#282,#286,#290,#294,#298,#301,#306,#310,#314,#318,#322,#326,#330,#333,#338,#342,#346,#350,#354,#358,#362,#365,#370,#374,#378,#382,#386,#390,#394,#397,#402,#406,#410,#414,#418,#422,#426,#429,#434,#438,#442,#446,#450,#454,#458,#461,#466,#470,#474,#478,#482,#486,#490,#493,#498,#502,#506,#510,#514,#518,#522,#525,#530,#534,#538,#542,#546,#550,#554,#557,#562,#566,#570,#574,#578,#582,#586,#589,#594,#598,#602,#606,#610,#614,#618,#621,#626,#630,#634,#638,#642,#646,#650,#653,#658,#662,#666,#670,#674,#678,#682,#685,#690,#694,#698,#702,#706,#710,#714,#717,#722,#726,#730,#734,#738,#742,#746,#749,#754,#758,#762,#766,#770,#774,#778,#781,#786,#790,#794,#798,#802,#806,#810,#813,#818,#822,#826,#830,#834,#838,#842,#845,#850,#854,#858,#862,#866,#870,#874,#877,#880));
#882= IFCFACETEDBREP(#881);
#883= IFCSTYLEDITEM(#882,(#226),$);
#884= IFCSHAPEREPRESENTATION(#12,'Body','Brep',(#882));
#885= IFCPRODUCTDEFINITIONSHAPE($,$,(#884));
#886= IFCCARTESIANPOINT((19335.82,31000.,1365.01));
#887= IFCDIRECTION((-0.999999999997426,0.,2.26899999233865E-06));
#888= IFCDIRECTION((-2.26899999236031E-06,0.,-0.999999999997426));
#889= IFCAXIS2PLACEMENT3D(#886,#887,#888);
#890= IFCLOCALPLACEMENT(#42,#889);
#891= IFCBEAM('1gAgr9buT4YPhRun7W7CLM',#44,'Jordingsledning','D5',$,#890,#885,'ID6a2aad49-9787-4489-9adb-e311e01cc556');
#892= IFCBEAMTYPE('2jza5K7cT3cOZd9uiTG$f4',#5,'D5',$,$,$,$,$,$,.NOTDEFINED.);
#893= IFCPROPERTYSINGLEVALUE('Class',$,IFCLABEL('2888'),$);
#894= IFCPROPERTYSINGLEVALUE('Top elevation',$,IFCLABEL(' +1.368'),$);
#895= IFCPROPERTYSINGLEVALUE('Bottom elevation',$,IFCLABEL(' +1.206'),$);
#896= IFCPROPERTYSET('0a_HgOUmv6dOIWrJO2Ly3p',#5,'Tekla Common','Common Properties to Shared building elements',(#893,#108,#109,#110,#894,#895));
#897= IFCPROPERTYSINGLEVALUE('Length',$,IFCLENGTHMEASURE(246.6),$);
#898= IFCPROPERTYSINGLEVALUE('Width',$,IFCLENGTHMEASURE(0.),$);
#899= IFCPROPERTYSINGLEVALUE('Height',$,IFCLENGTHMEASURE(5.),$);
#900= IFCPROPERTYSINGLEVALUE('Net surface area',$,IFCAREAMEASURE(0.004),$);
#901= IFCPROPERTYSINGLEVALUE('Area per tons',$,IFCAREAMEASURE(111.515),$);
#902= IFCPROPERTYSINGLEVALUE('Volume',$,IFCVOLUMEMEASURE(0.),$);
#903= IFCPROPERTYSINGLEVALUE('Weight',$,IFCMASSMEASURE(0.03),$);
#904= IFCPROPERTYSET('2hgb76_O5ALu1Kysod3UWF',#5,'Tekla Quantity','Quantity Properties to Shared building elements',(#897,#898,#899,#900,#901,#214,#902,#903));
#905= IFCPROPERTYSINGLEVALUE('OuterSurfaceArea',$,IFCAREAMEASURE(0.),$);
#906= IFCPROPERTYSINGLEVALUE('NetVolume',$,IFCVOLUMEMEASURE(0.),$);
#907= IFCPROPERTYSINGLEVALUE('NetWeight',$,IFCMASSMEASURE(0.),$);
#908= IFCPROPERTYSET('2HsMlveBfArQhc7wv2anz0',#5,'BeamBaseQuantities',$,(#897,#905,#906,#907));
#909= IFCPROPERTYSINGLEVALUE('Span',$,$,$);
#910= IFCPROPERTYSINGLEVALUE('Slope',$,IFCPLANEANGLEMEASURE(1.57079),$);
#911= IFCPROPERTYSET('125S$pfmL2We4KaNHZNQA_',#5,'Pset_BeamCommon','Definition from IAI: Properties common to the definition of all occurrences of IfcBeam.',(#127,#909,#910,#133,#134,#129));
#912= IFCMATERIAL('STEEL/S355J2H');
#913= IFCCOLOURRGB('Unnamed',1.,0.,0.);
#914= IFCSURFACESTYLERENDERING(#913,0.,$,$,$,$,IFCNORMALISEDRATIOMEASURE(0.00390625),IFCSPECULAREXPONENT(10.),.NOTDEFINED.);
#915= IFCSURFACESTYLE('MISCELLANEOUS/Misc_Undefined',.POSITIVE.,(#914));
#916= IFCPRESENTATIONSTYLEASSIGNMENT((#915));
#917= IFCCARTESIANPOINT((-350.,-8.,3.31370849898303));
#918= IFCCARTESIANPOINT((-30.,-8.,3.31370849898303));
#919= IFCCARTESIANPOINT((-30.,-3.31370849898303,8.));
#920= IFCCARTESIANPOINT((-350.,-3.31370849898303,8.));
#921= IFCPOLYLOOP((#917,#918,#919,#920));
#922= IFCFACEOUTERBOUND(#921,.T.);
#923= IFCFACE((#922));
#924= IFCCARTESIANPOINT((-350.,-8.,-3.31370849898303));
#925= IFCCARTESIANPOINT((-30.,-8.,-3.31370849898303));
#926= IFCPOLYLOOP((#924,#925,#918,#917));
#927= IFCFACEOUTERBOUND(#926,.T.);
#928= IFCFACE((#927));
#929= IFCCARTESIANPOINT((-350.,-3.31370849898303,-8.));
#930= IFCCARTESIANPOINT((-30.,-3.31370849898303,-8.));
#931= IFCPOLYLOOP((#929,#930,#925,#924));
#932= IFCFACEOUTERBOUND(#931,.T.);
#933= IFCFACE((#932));
#934= IFCCARTESIANPOINT((-350.,3.31370849898303,-8.));
#935= IFCCARTESIANPOINT((-30.,3.31370849898303,-8.));
#936= IFCPOLYLOOP((#934,#935,#930,#929));
#937= IFCFACEOUTERBOUND(#936,.T.);
#938= IFCFACE((#937));
#939= IFCCARTESIANPOINT((-350.,8.,-3.31370849898303));
#940= IFCCARTESIANPOINT((-30.,8.,-3.31370849898303));
#941= IFCPOLYLOOP((#939,#940,#935,#934));
#942= IFCFACEOUTERBOUND(#941,.T.);
#943= IFCFACE((#942));
#944= IFCCARTESIANPOINT((-350.,8.,3.31370849898303));
#945= IFCCARTESIANPOINT((-30.,8.,3.31370849898303));
#946= IFCPOLYLOOP((#944,#945,#940,#939));
#947= IFCFACEOUTERBOUND(#946,.T.);
#948= IFCFACE((#947));
#949= IFCCARTESIANPOINT((-350.,3.31370849898303,8.));
#950= IFCCARTESIANPOINT((-30.,3.31370849898303,8.));
#951= IFCPOLYLOOP((#949,#950,#945,#944));
#952= IFCFACEOUTERBOUND(#951,.T.);
#953= IFCFACE((#952));
#954= IFCPOLYLOOP((#920,#919,#950,#949));
#955= IFCFACEOUTERBOUND(#954,.T.);
#956= IFCFACE((#955));
#957= IFCPOLYLOOP((#917,#920,#949,#944,#939,#934,#929,#924));
#958= IFCFACEOUTERBOUND(#957,.T.);
#959= IFCFACE((#958));
#960= IFCCARTESIANPOINT((-10.,-10.3553390593261,25.));
#961= IFCCARTESIANPOINT((-10.,10.3553390593261,25.));
#962= IFCPOLYLOOP((#960,#961,#950,#919));
#963= IFCFACEOUTERBOUND(#962,.T.);
#964= IFCFACE((#963));
#965= IFCCARTESIANPOINT((-10.,25.,10.3553390593261));
#966= IFCPOLYLOOP((#961,#965,#945,#950));
#967= IFCFACEOUTERBOUND(#966,.T.);
#968= IFCFACE((#967));
#969= IFCCARTESIANPOINT((-10.,25.,-10.3553390593261));
#970= IFCPOLYLOOP((#965,#969,#940,#945));
#971= IFCFACEOUTERBOUND(#970,.T.);
#972= IFCFACE((#971));
#973= IFCCARTESIANPOINT((-10.,10.3553390593261,-25.));
#974= IFCPOLYLOOP((#969,#973,#935,#940));
#975= IFCFACEOUTERBOUND(#974,.T.);
#976= IFCFACE((#975));
#977= IFCCARTESIANPOINT((-10.,-10.3553390593261,-25.));
#978= IFCPOLYLOOP((#973,#977,#930,#935));
#979= IFCFACEOUTERBOUND(#978,.T.);
#980= IFCFACE((#979));
#981= IFCCARTESIANPOINT((-10.,-25.,-10.3553390593261));
#982= IFCPOLYLOOP((#977,#981,#925,#930));
#983= IFCFACEOUTERBOUND(#982,.T.);
#984= IFCFACE((#983));
#985= IFCCARTESIANPOINT((-10.,-25.,10.3553390593261));
#986= IFCPOLYLOOP((#981,#985,#918,#925));
#987= IFCFACEOUTERBOUND(#986,.T.);
#988= IFCFACE((#987));
#989= IFCPOLYLOOP((#985,#960,#919,#918));
#990= IFCFACEOUTERBOUND(#989,.T.);
#991= IFCFACE((#990));
#992= IFCCARTESIANPOINT((0.,-25.,10.3553390593261));
#993= IFCCARTESIANPOINT((0.,-10.3553390593261,25.));
#994= IFCPOLYLOOP((#992,#993,#960,#985));
#995= IFCFACEOUTERBOUND(#994,.T.);
#996= IFCFACE((#995));
#997= IFCCARTESIANPOINT((0.,10.3553390593261,25.));
#998= IFCPOLYLOOP((#993,#997,#961,#960));
#999= IFCFACEOUTERBOUND(#998,.T.);
#1000= IFCFACE((#999));
#1001= IFCCARTESIANPOINT((0.,25.,10.3553390593261));
#1002= IFCPOLYLOOP((#997,#1001,#965,#961));
#1003= IFCFACEOUTERBOUND(#1002,.T.);
#1004= IFCFACE((#1003));
#1005= IFCCARTESIANPOINT((0.,25.,-10.3553390593261));
#1006= IFCPOLYLOOP((#1001,#1005,#969,#965));
#1007= IFCFACEOUTERBOUND(#1006,.T.);
#1008= IFCFACE((#1007));
#1009= IFCCARTESIANPOINT((0.,10.3553390593261,-25.));
#1010= IFCPOLYLOOP((#1005,#1009,#973,#969));
#1011= IFCFACEOUTERBOUND(#1010,.T.);
#1012= IFCFACE((#1011));
#1013= IFCCARTESIANPOINT((0.,-10.3553390593261,-25.));
#1014= IFCPOLYLOOP((#1009,#1013,#977,#973));
#1015= IFCFACEOUTERBOUND(#1014,.T.);
#1016= IFCFACE((#1015));
#1017= IFCCARTESIANPOINT((0.,-25.,-10.3553390593261));
#1018= IFCPOLYLOOP((#1013,#1017,#981,#977));
#1019= IFCFACEOUTERBOUND(#1018,.T.);
#1020= IFCFACE((#1019));
#1021= IFCPOLYLOOP((#1017,#992,#985,#981));
#1022= IFCFACEOUTERBOUND(#1021,.T.);
#1023= IFCFACE((#1022));
#1024= IFCPOLYLOOP((#1001,#997,#993,#992,#1017,#1013,#1009,#1005));
#1025= IFCFACEOUTERBOUND(#1024,.T.);
#1026= IFCCARTESIANPOINT((0.,5.,-2.07106781186667));
#1027= IFCCARTESIANPOINT((0.,2.07106781186667,-5.));
#1028= IFCCARTESIANPOINT((0.,-2.07106781186667,-5.));
#1029= IFCCARTESIANPOINT((0.,-5.,-2.07106781186667));
#1030= IFCCARTESIANPOINT((0.,-5.,2.07106781186667));
#1031= IFCCARTESIANPOINT((0.,-2.07106781186667,5.));
#1032= IFCCARTESIANPOINT((0.,2.07106781186667,5.));
#1033= IFCCARTESIANPOINT((0.,5.,2.07106781186667));
#1034= IFCPOLYLOOP((#1026,#1027,#1028,#1029,#1030,#1031,#1032,#1033));
#1035= IFCFACEBOUND(#1034,.T.);
#1036= IFCFACE((#1025,#1035));
#1037= IFCCARTESIANPOINT((20.,-2.07106781186667,5.));
#1038= IFCCARTESIANPOINT((20.,2.07106781186667,5.));
#1039= IFCPOLYLOOP((#1037,#1038,#1032,#1031));
#1040= IFCFACEOUTERBOUND(#1039,.T.);
#1041= IFCFACE((#1040));
#1042= IFCCARTESIANPOINT((20.,5.,2.07106781186667));
#1043= IFCPOLYLOOP((#1038,#1042,#1033,#1032));
#1044= IFCFACEOUTERBOUND(#1043,.T.);
#1045= IFCFACE((#1044));
#1046= IFCCARTESIANPOINT((20.,5.,-2.07106781186667));
#1047= IFCPOLYLOOP((#1042,#1046,#1026,#1033));
#1048= IFCFACEOUTERBOUND(#1047,.T.);
#1049= IFCFACE((#1048));
#1050= IFCCARTESIANPOINT((20.,2.07106781186667,-5.));
#1051= IFCPOLYLOOP((#1046,#1050,#1027,#1026));
#1052= IFCFACEOUTERBOUND(#1051,.T.);
#1053= IFCFACE((#1052));
#1054= IFCCARTESIANPOINT((20.,-2.07106781186667,-5.));
#1055= IFCPOLYLOOP((#1050,#1054,#1028,#1027));
#1056= IFCFACEOUTERBOUND(#1055,.T.);
#1057= IFCFACE((#1056));
#1058= IFCCARTESIANPOINT((20.,-5.,-2.07106781186667));
#1059= IFCPOLYLOOP((#1054,#1058,#1029,#1028));
#1060= IFCFACEOUTERBOUND(#1059,.T.);
#1061= IFCFACE((#1060));
#1062= IFCCARTESIANPOINT((20.,-5.,2.07106781186667));
#1063= IFCPOLYLOOP((#1058,#1062,#1030,#1029));
#1064= IFCFACEOUTERBOUND(#1063,.T.);
#1065= IFCFACE((#1064));
#1066= IFCPOLYLOOP((#1062,#1037,#1031,#1030));
#1067= IFCFACEOUTERBOUND(#1066,.T.);
#1068= IFCFACE((#1067));
#1069= IFCPOLYLOOP((#1042,#1038,#1037,#1062,#1058,#1054,#1050,#1046));
#1070= IFCFACEOUTERBOUND(#1069,.T.);
#1071= IFCFACE((#1070));
#1072= IFCCLOSEDSHELL((#923,#928,#933,#938,#943,#948,#953,#956,#959,#964,#968,#972,#976,#980,#984,#988,#991,#996,#1000,#1004,#1008,#1012,#1016,#1020,#1023,#1036,#1041,#1045,#1049,#1053,#1057,#1061,#1065,#1068,#1071));
#1073= IFCFACETEDBREP(#1072);
#1074= IFCSTYLEDITEM(#1073,(#916),$);
#1075= IFCSHAPEREPRESENTATION(#12,'Body','Brep',(#1073));
#1076= IFCPRODUCTDEFINITIONSHAPE($,$,(#1075));
#1077= IFCCARTESIANPOINT((19335.82,31000.,1198.));
#1078= IFCAXIS2PLACEMENT3D(#1077,#7,#9);
#1079= IFCLOCALPLACEMENT(#42,#1078);
#1080= IFCBUILDINGELEMENTPROXY('0I5$fcm1r58g6BVZw8NzIx',#44,'Jordingsbolt','__Jordingsbolt__1',$,#1079,#1076,'ID1217fa66-c01d-4522-a18b-7e3e885fd4bb',.ELEMENT.);
#1081= IFCBUILDINGELEMENTPROXYTYPE('3hOAQXS$z7jhvyuQCaD1KF',#5,'__Jordingsbolt__1',$,$,$,$,$,$,.NOTDEFINED.);
#1082= IFCPROPERTYSINGLEVALUE('Top elevation',$,IFCLABEL(' +1.218'),$);
#1083= IFCPROPERTYSINGLEVALUE('Bottom elevation',$,IFCLABEL(' +0.848'),$);
#1084= IFCPROPERTYSET('399N6BkV55QPk4EUi2DN64',#5,'Tekla Common','Common Properties to Shared building elements',(#893,#108,#109,#110,#1082,#1083));
#1085= IFCPROPERTYSINGLEVALUE('Length',$,IFCLENGTHMEASURE(370.),$);
#1086= IFCPROPERTYSINGLEVALUE('Width',$,IFCLENGTHMEASURE(50.),$);
#1087= IFCPROPERTYSINGLEVALUE('Height',$,IFCLENGTHMEASURE(50.),$);
#1088= IFCPROPERTYSINGLEVALUE('Net surface area',$,IFCAREAMEASURE(0.024),$);
#1089= IFCPROPERTYSINGLEVALUE('Area per tons',$,IFCAREAMEASURE(0.),$);
#1090= IFCPROPERTYSINGLEVALUE('Weight',$,IFCMASSMEASURE(0.),$);
#1091= IFCPROPERTYSET('0WvDglhfb9T84fGwgB3GKm',#5,'Tekla Quantity','Quantity Properties to Shared building elements',(#1085,#1086,#1087,#1088,#1089,#214,#902,#1090));
#1092= IFCPROPERTYSINGLEVALUE('Pour Concrete Mixture',$,$,$);
#1093= IFCPROPERTYSINGLEVALUE('Pour Comment',$,IFCLABEL(''),$);
#1094= IFCPROPERTYSINGLEVALUE('Pour Number',$,$,$);
#1095= IFCPROPERTYSINGLEVALUE('Pour Type',$,$,$);
#1096= IFCPROPERTYSINGLEVALUE('Pour User Field1',$,$,$);
#1097= IFCPROPERTYSINGLEVALUE('Pour User Field2',$,$,$);
#1098= IFCPROPERTYSINGLEVALUE('Pour User Field3',$,$,$);
#1099= IFCPROPERTYSINGLEVALUE('Pour User Field4',$,$,$);
#1100= IFCPROPERTYSINGLEVALUE('Pour Formwork Checked By',$,$,$);
#1101= IFCPROPERTYSINGLEVALUE('Pour Formwork Comment',$,$,$);
#1102= IFCPROPERTYSINGLEVALUE('Pour Formwork Status',$,$,$);
#1103= IFCPROPERTYSINGLEVALUE('Pour Formwork Check Date',$,$,$);
#1104= IFCPROPERTYSINGLEVALUE('Pour Planned Start Form',$,$,$);
#1105= IFCPROPERTYSINGLEVALUE('Pour Planned End Form',$,$,$);
#1106= IFCPROPERTYSINGLEVALUE('Pour Actual Start Form',$,$,$);
#1107= IFCPROPERTYSINGLEVALUE('Pour Actual End Form',$,$,$);
#1108= IFCPROPERTYSINGLEVALUE('Pour Rebar CheckedBy',$,$,$);
#1109= IFCPROPERTYSINGLEVALUE('Pour Rebar Comment',$,$,$);
#1110= IFCPROPERTYSINGLEVALUE('Pour Rebar Release Number',$,$,$);
#1111= IFCPROPERTYSINGLEVALUE('Pour Rebar Shipment Number',$,$,$);
#1112= IFCPROPERTYSINGLEVALUE('Pour Rebar Status',$,$,$);
#1113= IFCPROPERTYSINGLEVALUE('Pour Rebar Check Date',$,$,$);
#1114= IFCPROPERTYSINGLEVALUE('Pour Planned Start Rebar',$,$,$);
#1115= IFCPROPERTYSINGLEVALUE('Pour Planned End Rebar',$,$,$);
#1116= IFCPROPERTYSINGLEVALUE('Pour Actual Start Rebar',$,$,$);
#1117= IFCPROPERTYSINGLEVALUE('Pour Actual End Rebar',$,$,$);
#1118= IFCPROPERTYSINGLEVALUE('Pour Checked By',$,$,$);
#1119= IFCPROPERTYSINGLEVALUE('Pour Comment',$,$,$);
#1120= IFCPROPERTYSINGLEVALUE('Pour Status',$,$,$);
#1121= IFCPROPERTYSINGLEVALUE('Pour Check Date',$,$,$);
#1122= IFCPROPERTYSINGLEVALUE('Pour Planned Start Date',$,$,$);
#1123= IFCPROPERTYSINGLEVALUE('Pour Planned End Date',$,$,$);
#1124= IFCPROPERTYSINGLEVALUE('Pour Actual Start Date',$,$,$);
#1125= IFCPROPERTYSINGLEVALUE('Pour Actual End Date',$,$,$);
#1126= IFCPROPERTYSINGLEVALUE('Pour Area',$,IFCAREAMEASURE(0.),$);
#1127= IFCPROPERTYSINGLEVALUE('Pour Area PGZ',$,IFCAREAMEASURE(0.),$);
#1128= IFCPROPERTYSINGLEVALUE('Pour Area NGZ',$,IFCAREAMEASURE(0.),$);
#1129= IFCPROPERTYSINGLEVALUE('Pour Area PGX',$,IFCAREAMEASURE(0.),$);
#1130= IFCPROPERTYSINGLEVALUE('Pour Area NXG',$,IFCAREAMEASURE(0.),$);
#1131= IFCPROPERTYSINGLEVALUE('Pour Area PGY',$,IFCAREAMEASURE(0.),$);
#1132= IFCPROPERTYSINGLEVALUE('Pour Area NGY',$,IFCAREAMEASURE(0.),$);
#1133= IFCPROPERTYSINGLEVALUE('Pour Content Type',$,IFCLABEL('PART'),$);
#1134= IFCPROPERTYSINGLEVALUE('Pour GUID',$,IFCLABEL('1217fa66-c01d-4522-a18b-7e3e885fd4bb'),$);
#1135= IFCPROPERTYSINGLEVALUE('Pour ID',$,$,$);
#1136= IFCPROPERTYSINGLEVALUE('Pour Material',$,IFCLABEL('Misc_Undefined'),$);
#1137= IFCPROPERTYSINGLEVALUE('Pour Top Level',$,IFCLABEL(' +1.218'),$);
#1138= IFCPROPERTYSINGLEVALUE('Pour Bottom Level',$,IFCLABEL(' +0.848'),$);
#1139= IFCPROPERTYSINGLEVALUE('Pour Volume',$,IFCVOLUMEMEASURE(0.),$);
#1140= IFCPROPERTYSINGLEVALUE('Pour Weight',$,IFCMASSMEASURE(0.),$);
#1141= IFCPROPERTYSINGLEVALUE('Pour Weight Net',$,IFCMASSMEASURE(0.),$);
#1142= IFCPROPERTYSINGLEVALUE('Pour Break GUID',$,IFCLABEL('1217fa66-c01d-4522-a18b-7e3e885fd4bb'),$);
#1143= IFCPROPERTYSINGLEVALUE('Pour Break ID',$,$,$);
#1144= IFCPROPERTYSINGLEVALUE('Pour Break Type',$,$,$);
#1145= IFCPROPERTYSINGLEVALUE('Pour Break Comment',$,IFCLABEL(''),$);
#1146= IFCPROPERTYSET('0jC2418of5swma0P1Vm8XY',#5,'Pours',$,(#1092,#1093,#1094,#1095,#1096,#1097,#1098,#1099,#1100,#1101,#1102,#1103,#1104,#1105,#1106,#1107,#1108,#1109,#1110,#1111,#1112,#1113,#1114,#1115,#1116,#1117,#1118,#1119,#1120,#1121,#1122,#1123,#1124,#1125,#1126,#1127,#1128,#1129,#1130,#1131,#1132,#1133,#1134,#1135,#1136,#1137,#1138,#1139,#1140,#1141,#1142,#1143,#1144,#1145));
#1147= IFCMATERIAL('MISCELLANEOUS/Misc_Undefined');
#1148= IFCSHAPEREPRESENTATION(#12,'Body','Brep',(#1073));
#1149= IFCPRODUCTDEFINITIONSHAPE($,$,(#1148));
#1150= IFCCARTESIANPOINT((19335.82,31000.,1375.01));
#1151= IFCAXIS2PLACEMENT3D(#1150,#102,#101);
#1152= IFCLOCALPLACEMENT(#42,#1151);
#1153= IFCBUILDINGELEMENTPROXY('2$ip2fJMv25ga$oWUo4dG7',#44,'Jordingsbolt','__Jordingsbolt',$,#1152,#1149,'IDbfb330a9-4d6e-4216-a93f-ca07b2127407',.ELEMENT.);
#1154= IFCBUILDINGELEMENTPROXYTYPE('2eNDV9WuLDDRZEjBKpA9wB',#5,'__Jordingsbolt',$,$,$,$,$,$,.NOTDEFINED.);
#1155= IFCPROPERTYSINGLEVALUE('Top elevation',$,IFCLABEL(' +1.725'),$);
#1156= IFCPROPERTYSINGLEVALUE('Bottom elevation',$,IFCLABEL(' +1.355'),$);
#1157= IFCPROPERTYSET('1SKg7Rq4911wT0_gJ03p4D',#5,'Tekla Common','Common Properties to Shared building elements',(#893,#108,#109,#110,#1155,#1156));
#1158= IFCPROPERTYSET('2Y3a7722rCo90paZQrg04c',#5,'Tekla Quantity','Quantity Properties to Shared building elements',(#1085,#1086,#1087,#1088,#1089,#214,#902,#1090));
#1159= IFCPROPERTYSINGLEVALUE('Pour GUID',$,IFCLABEL('bfb330a9-4d6e-4216-a93f-ca07b2127407'),$);
#1160= IFCPROPERTYSINGLEVALUE('Pour Top Level',$,IFCLABEL(' +1.725'),$);
#1161= IFCPROPERTYSINGLEVALUE('Pour Bottom Level',$,IFCLABEL(' +1.355'),$);
#1162= IFCPROPERTYSINGLEVALUE('Pour Break GUID',$,IFCLABEL('bfb330a9-4d6e-4216-a93f-ca07b2127407'),$);
#1163= IFCPROPERTYSET('3veo4EaG91Bu2Fjixmu8WH',#5,'Pours',$,(#1092,#1093,#1094,#1095,#1096,#1097,#1098,#1099,#1100,#1101,#1102,#1103,#1104,#1105,#1106,#1107,#1108,#1109,#1110,#1111,#1112,#1113,#1114,#1115,#1116,#1117,#1118,#1119,#1120,#1121,#1122,#1123,#1124,#1125,#1126,#1127,#1128,#1129,#1130,#1131,#1132,#1133,#1159,#1135,#1136,#1160,#1161,#1139,#1140,#1141,#1162,#1143,#1144,#1145));
#1164= IFCCOLOURRGB('Unnamed',0.,0.,0.);
#1165= IFCSURFACESTYLERENDERING(#1164,0.,$,$,$,$,IFCNORMALISEDRATIOMEASURE(0.00390625),IFCSPECULAREXPONENT(10.),.NOTDEFINED.);
#1166= IFCSURFACESTYLE('MISCELLANEOUS/Misc_Undefined',.POSITIVE.,(#1165));
#1167= IFCPRESENTATIONSTYLEASSIGNMENT((#1166));
#1168= IFCCARTESIANPOINT((0.,-2.5,-100.));
#1169= IFCCARTESIANPOINT((0.,-2.5,100.));
#1170= IFCCARTESIANPOINT((0.,2.5,100.));
#1171= IFCCARTESIANPOINT((0.,2.5,-100.));
#1172= IFCPOLYLOOP((#1168,#1169,#1170,#1171));
#1173= IFCFACEOUTERBOUND(#1172,.T.);
#1174= IFCFACE((#1173));
#1175= IFCCARTESIANPOINT((520.937078776162,2.50000000000273,100.));
#1176= IFCCARTESIANPOINT((520.937078776162,2.50000000000273,-100.));
#1177= IFCPOLYLOOP((#1171,#1170,#1175,#1176));
#1178= IFCFACEOUTERBOUND(#1177,.T.);
#1179= IFCFACE((#1178));
#1180= IFCCARTESIANPOINT((523.822197440746,-2.49999999999727,-100.));
#1181= IFCCARTESIANPOINT((523.822197440746,-2.49999999999727,100.));
#1182= IFCPOLYLOOP((#1169,#1168,#1180,#1181));
#1183= IFCFACEOUTERBOUND(#1182,.T.);
#1184= IFCFACE((#1183));
#1185= IFCCARTESIANPOINT((582.679957051736,109.320919895661,100.));
#1186= IFCCARTESIANPOINT((582.679957051736,109.320919895661,-100.));
#1187= IFCPOLYLOOP((#1176,#1175,#1185,#1186));
#1188= IFCFACEOUTERBOUND(#1187,.T.);
#1189= IFCFACE((#1188));
#1190= IFCCARTESIANPOINT((577.680042948272,90.6790801043425,-100.));
#1191= IFCCARTESIANPOINT((577.680042948272,90.6790801043425,100.));
#1192= IFCPOLYLOOP((#1181,#1180,#1190,#1191));
#1193= IFCFACEOUTERBOUND(#1192,.T.);
#1194= IFCFACE((#1193));
#1195= IFCCARTESIANPOINT((582.680878615833,-90.682956344554,100.));
#1196= IFCCARTESIANPOINT((582.680878615833,-90.682956344554,-100.));
#1197= IFCPOLYLOOP((#1186,#1185,#1195,#1196));
#1198= IFCFACEOUTERBOUND(#1197,.T.);
#1199= IFCFACE((#1198));
#1200= IFCCARTESIANPOINT((577.680964512365,-109.324796135873,-100.));
#1201= IFCCARTESIANPOINT((577.680964512365,-109.324796135873,100.));
#1202= IFCPOLYLOOP((#1191,#1190,#1200,#1201));
#1203= IFCFACEOUTERBOUND(#1202,.T.);
#1204= IFCFACE((#1203));
#1205= IFCCARTESIANPOINT((636.540964604232,2.50000000000369,100.));
#1206= IFCCARTESIANPOINT((636.540964604232,2.50000000000369,-100.));
#1207= IFCPOLYLOOP((#1196,#1195,#1205,#1206));
#1208= IFCFACEOUTERBOUND(#1207,.T.);
#1209= IFCFACE((#1208));
#1210= IFCCARTESIANPOINT((639.426083268812,-2.49999999999642,-100.));
#1211= IFCCARTESIANPOINT((639.426083268812,-2.49999999999642,100.));
#1212= IFCPOLYLOOP((#1201,#1200,#1210,#1211));
#1213= IFCFACEOUTERBOUND(#1212,.T.);
#1214= IFCFACE((#1213));
#1215= IFCCARTESIANPOINT((1020.,2.50000000000546,100.));
#1216= IFCCARTESIANPOINT((1020.,2.50000000000546,-100.));
#1217= IFCPOLYLOOP((#1206,#1205,#1215,#1216));
#1218= IFCFACEOUTERBOUND(#1217,.T.);
#1219= IFCFACE((#1218));
#1220= IFCCARTESIANPOINT((1020.,-2.49999999999454,100.));
#1221= IFCPOLYLOOP((#1205,#1195,#1185,#1175,#1170,#1169,#1181,#1191,#1201,#1211,#1220,#1215));
#1222= IFCFACEOUTERBOUND(#1221,.T.);
#1223= IFCFACE((#1222));
#1224= IFCCARTESIANPOINT((1020.,-2.49999999999454,-100.));
#1225= IFCPOLYLOOP((#1211,#1210,#1224,#1220));
#1226= IFCFACEOUTERBOUND(#1225,.T.);
#1227= IFCFACE((#1226));
#1228= IFCPOLYLOOP((#1210,#1200,#1190,#1180,#1168,#1171,#1176,#1186,#1196,#1206,#1216,#1224));
#1229= IFCFACEOUTERBOUND(#1228,.T.);
#1230= IFCFACE((#1229));
#1231= IFCPOLYLOOP((#1220,#1224,#1216,#1215));
#1232= IFCFACEOUTERBOUND(#1231,.T.);
#1233= IFCFACE((#1232));
#1234= IFCCLOSEDSHELL((#1174,#1179,#1184,#1189,#1194,#1199,#1204,#1209,#1214,#1219,#1223,#1227,#1230,#1233));
#1235= IFCFACETEDBREP(#1234);
#1236= IFCSTYLEDITEM(#1235,(#1167),$);
#1237= IFCSHAPEREPRESENTATION(#12,'Body','Brep',(#1235));
#1238= IFCPRODUCTDEFINITIONSHAPE($,$,(#1237));
#1239= IFCCARTESIANPOINT((18825.82,31100.,497.500000000004));
#1240= IFCAXIS2PLACEMENT3D(#1239,#8,#7);
#1241= IFCLOCALPLACEMENT(#42,#1240);
#1242= IFCBEAM('3Qo5jM8oH8UwJCSUasxV2Y',#44,'Ramme','PL200X5',$,#1241,#1238,'IDdac85b56-2324-487b-a4cc-71e936edf0a2');
#1243= IFCBEAMTYPE('1Y9ZYrk0j31R5Yxx2jt_zx',#5,'PL200X5',$,$,$,$,$,$,.NOTDEFINED.);
#1244= IFCPROPERTYSINGLEVALUE('Class',$,IFCLABEL('13'),$);
#1245= IFCPROPERTYSINGLEVALUE('Top elevation',$,IFCLABEL(' +0.607'),$);
#1246= IFCPROPERTYSINGLEVALUE('Bottom elevation',$,IFCLABEL(' +0.388'),$);
#1247= IFCPROPERTYSET('06Ma4FFnvCT9YzEb3kOudI',#5,'Tekla Common','Common Properties to Shared building elements',(#1244,#108,#109,#110,#1245,#1246));
#1248= IFCPROPERTYSINGLEVALUE('Length',$,IFCLENGTHMEASURE(1335.4),$);
#1249= IFCPROPERTYSINGLEVALUE('Width',$,IFCLENGTHMEASURE(5.),$);
#1250= IFCPROPERTYSINGLEVALUE('Height',$,IFCLENGTHMEASURE(200.),$);
#1251= IFCPROPERTYSINGLEVALUE('Net surface area',$,IFCAREAMEASURE(0.55),$);
#1252= IFCPROPERTYSINGLEVALUE('Volume',$,IFCVOLUMEMEASURE(0.001),$);
#1253= IFCPROPERTYSET('0Vg4tUHErBuwlqKcxG7OP6',#5,'Tekla Quantity','Quantity Properties to Shared building elements',(#1248,#1249,#1250,#1251,#1089,#214,#1252,#1090));
#1254= IFCPROPERTYSINGLEVALUE('OuterSurfaceArea',$,IFCAREAMEASURE(0.5),$);
#1255= IFCPROPERTYSET('0ZpB0LOab1X9V76ti1B20Z',#5,'BeamBaseQuantities',$,(#1248,#1254,#906,#907));
#1256= IFCPROPERTYSINGLEVALUE('Slope',$,IFCPLANEANGLEMEASURE(0.),$);
#1257= IFCPROPERTYSET('1AZIt02NL2sPSGu$zX9YRe',#5,'Pset_BeamCommon','Definition from IAI: Properties common to the definition of all occurrences of IfcBeam.',(#127,#909,#1256,#133,#134,#129));
#1258= IFCCARTESIANPOINT((810.607078776164,2.50000000000273,100.));
#1259= IFCCARTESIANPOINT((810.607078776164,2.50000000000273,-100.));
#1260= IFCPOLYLOOP((#1171,#1170,#1258,#1259));
#1261= IFCFACEOUTERBOUND(#1260,.T.);
#1262= IFCFACE((#1261));
#1263= IFCCARTESIANPOINT((813.492197440744,-2.49999999999727,-100.));
#1264= IFCCARTESIANPOINT((813.492197440744,-2.49999999999727,100.));
#1265= IFCPOLYLOOP((#1169,#1168,#1263,#1264));
#1266= IFCFACEOUTERBOUND(#1265,.T.);
#1267= IFCFACE((#1266));
#1268= IFCCARTESIANPOINT((872.349957051738,109.320919895661,100.));
#1269= IFCCARTESIANPOINT((872.349957051738,109.320919895661,-100.));
#1270= IFCPOLYLOOP((#1259,#1258,#1268,#1269));
#1271= IFCFACEOUTERBOUND(#1270,.T.);
#1272= IFCFACE((#1271));
#1273= IFCCARTESIANPOINT((867.35004294827,90.6790801043426,-100.));
#1274= IFCCARTESIANPOINT((867.35004294827,90.6790801043426,100.));
#1275= IFCPOLYLOOP((#1264,#1263,#1273,#1274));
#1276= IFCFACEOUTERBOUND(#1275,.T.);
#1277= IFCFACE((#1276));
#1278= IFCCARTESIANPOINT((872.350878615831,-90.682956344554,100.));
#1279= IFCCARTESIANPOINT((872.350878615831,-90.682956344554,-100.));
#1280= IFCPOLYLOOP((#1269,#1268,#1278,#1279));
#1281= IFCFACEOUTERBOUND(#1280,.T.);
#1282= IFCFACE((#1281));
#1283= IFCCARTESIANPOINT((867.350964512367,-109.324796135873,-100.));
#1284= IFCCARTESIANPOINT((867.350964512367,-109.324796135873,100.));
#1285= IFCPOLYLOOP((#1274,#1273,#1283,#1284));
#1286= IFCFACEOUTERBOUND(#1285,.T.);
#1287= IFCFACE((#1286));
#1288= IFCCARTESIANPOINT((926.21096460423,2.50000000000364,100.));
#1289= IFCCARTESIANPOINT((926.21096460423,2.50000000000364,-100.));
#1290= IFCPOLYLOOP((#1279,#1278,#1288,#1289));
#1291= IFCFACEOUTERBOUND(#1290,.T.);
#1292= IFCFACE((#1291));
#1293= IFCCARTESIANPOINT((929.096083268814,-2.49999999999636,-100.));
#1294= IFCCARTESIANPOINT((929.096083268814,-2.49999999999636,100.));
#1295= IFCPOLYLOOP((#1284,#1283,#1293,#1294));
#1296= IFCFACEOUTERBOUND(#1295,.T.);
#1297= IFCFACE((#1296));
#1298= IFCCARTESIANPOINT((1720.,2.50000000000546,100.));
#1299= IFCCARTESIANPOINT((1720.,2.50000000000546,-100.));
#1300= IFCPOLYLOOP((#1289,#1288,#1298,#1299));
#1301= IFCFACEOUTERBOUND(#1300,.T.);
#1302= IFCFACE((#1301));
#1303= IFCCARTESIANPOINT((1720.,-2.49999999999454,100.));
#1304= IFCPOLYLOOP((#1288,#1278,#1268,#1258,#1170,#1169,#1264,#1274,#1284,#1294,#1303,#1298));
#1305= IFCFACEOUTERBOUND(#1304,.T.);
#1306= IFCFACE((#1305));
#1307= IFCCARTESIANPOINT((1720.,-2.49999999999454,-100.));
#1308= IFCPOLYLOOP((#1294,#1293,#1307,#1303));
#1309= IFCFACEOUTERBOUND(#1308,.T.);
#1310= IFCFACE((#1309));
#1311= IFCPOLYLOOP((#1293,#1283,#1273,#1263,#1168,#1171,#1259,#1269,#1279,#1289,#1299,#1307));
#1312= IFCFACEOUTERBOUND(#1311,.T.);
#1313= IFCFACE((#1312));
#1314= IFCPOLYLOOP((#1303,#1307,#1299,#1298));
#1315= IFCFACEOUTERBOUND(#1314,.T.);
#1316= IFCFACE((#1315));
#1317= IFCCLOSEDSHELL((#1174,#1262,#1267,#1272,#1277,#1282,#1287,#1292,#1297,#1302,#1306,#1310,#1313,#1316));
#1318= IFCFACETEDBREP(#1317);
#1319= IFCSTYLEDITEM(#1318,(#1167),$);
#1320= IFCSHAPEREPRESENTATION(#12,'Body','Brep',(#1318));
#1321= IFCPRODUCTDEFINITIONSHAPE($,$,(#1320));
#1322= IFCCARTESIANPOINT((18125.82,31100.,1792.5));
#1323= IFCAXIS2PLACEMENT3D(#1322,#8,#7);
#1324= IFCLOCALPLACEMENT(#42,#1323);
#1325= IFCBEAM('0hhl37_Ln1RwoYmK0Xs86p',#44,'Ramme','PL200X5',$,#1324,#1321,'ID2baef0c7-f95c-416f-aca2-c14021d881b3');
#1326= IFCPROPERTYSINGLEVALUE('Top elevation',$,IFCLABEL(' +1.902'),$);
#1327= IFCPROPERTYSINGLEVALUE('Bottom elevation',$,IFCLABEL(' +1.683'),$);
#1328= IFCPROPERTYSET('3EzpG2toL2Mf$4pATYQIx8',#5,'Tekla Common','Common Properties to Shared building elements',(#1244,#108,#109,#110,#1326,#1327));
#1329= IFCPROPERTYSINGLEVALUE('Length',$,IFCLENGTHMEASURE(2035.4),$);
#1330= IFCPROPERTYSINGLEVALUE('Net surface area',$,IFCAREAMEASURE(0.837),$);
#1331= IFCPROPERTYSINGLEVALUE('Volume',$,IFCVOLUMEMEASURE(0.002),$);
#1332= IFCPROPERTYSET('3$$$DKI4rBfAsoHYBs8e8Q',#5,'Tekla Quantity','Quantity Properties to Shared building elements',(#1329,#1249,#1250,#1330,#1089,#214,#1331,#1090));
#1333= IFCPROPERTYSINGLEVALUE('OuterSurfaceArea',$,IFCAREAMEASURE(0.8),$);
#1334= IFCPROPERTYSET('1wI4BH3PLDiQU0oAlYKNPC',#5,'BeamBaseQuantities',$,(#1329,#1333,#906,#907));
#1335= IFCPROPERTYSET('3Llj4w9KH3MxS9HY9PX2Gt',#5,'Pset_BeamCommon','Definition from IAI: Properties common to the definition of all occurrences of IfcBeam.',(#127,#909,#1256,#133,#134,#129));
#1336= IFCCARTESIANPOINT((7.37782102078199E-09,10.0000000039661,-99.9999999981446));
#1337= IFCCARTESIANPOINT((-1019.99999999262,10.0000000034988,-99.9999999986067));
#1338= IFCCARTESIANPOINT((-1019.99999999271,10.0000000031346,100.000000001393));
#1339= IFCCARTESIANPOINT((7.2868715506047E-09,10.0000000036023,100.000000001855));
#1340= IFCCARTESIANPOINT((1020.00000000747,10.0000000042516,100.000000002299));
#1341= IFCCARTESIANPOINT((1020.0000000072,10.0000000042516,-99.9999999977008));
#1342= IFCPOLYLOOP((#1336,#1337,#1338,#1339,#1340,#1341));
#1343= IFCFACEOUTERBOUND(#1342,.T.);
#1344= IFCFACE((#1343));
#1345= IFCCARTESIANPOINT((7.29778548702598E-09,-9.99999999639772,100.000000001819));
#1346= IFCCARTESIANPOINT((-999.999999992702,-9.99999999685624,100.000000001364));
#1347= IFCCARTESIANPOINT((-999.999999992615,-9.999999996492,-99.9999999986358));
#1348= IFCCARTESIANPOINT((7.38509697839618E-09,-9.99999999603392,-99.999999998181));
#1349= IFCCARTESIANPOINT((1000.0000000072,-9.99999999575752,-99.9999999977081));
#1350= IFCCARTESIANPOINT((1000.00000000748,-9.99999999575752,100.000000002292));
#1351= IFCPOLYLOOP((#1345,#1346,#1347,#1348,#1349,#1350));
#1352= IFCFACEOUTERBOUND(#1351,.T.);
#1353= IFCFACE((#1352));
#1354= IFCCARTESIANPOINT((1020.00000000834,-2319.99999999593,99.9999999980719));
#1355= IFCCARTESIANPOINT((1020.00000000843,-2319.99999999557,-100.000000001928));
#1356= IFCPOLYLOOP((#1341,#1340,#1354,#1355));
#1357= IFCFACEOUTERBOUND(#1356,.T.);
#1358= IFCFACE((#1357));
#1359= IFCCARTESIANPOINT((1000.00000000842,-2299.99999999557,-100.000000001899));
#1360= IFCCARTESIANPOINT((1000.00000000833,-2299.99999999594,99.999999998101));
#1361= IFCPOLYLOOP((#1350,#1349,#1359,#1360));
#1362= IFCFACEOUTERBOUND(#1361,.T.);
#1363= IFCFACE((#1362));
#1364= IFCCARTESIANPOINT((52.0301245707305,-2319.99999999637,99.9999999976317));
#1365= IFCCARTESIANPOINT((52.0301245708179,-2319.99999999601,-100.000000002368));
#1366= IFCPOLYLOOP((#1355,#1354,#1364,#1365));
#1367= IFCFACEOUTERBOUND(#1366,.T.);
#1368= IFCFACE((#1367));
#1369= IFCCARTESIANPOINT((63.5705992291332,-2299.999999996,-100.000000002325));
#1370= IFCCARTESIANPOINT((63.5705992290459,-2299.99999999637,99.9999999976753));
#1371= IFCPOLYLOOP((#1360,#1359,#1369,#1370));
#1372= IFCFACEOUTERBOUND(#1371,.T.);
#1373= IFCFACE((#1372));
#1374= IFCCARTESIANPOINT((9.999828215241,-2247.28367957903,99.9999999977481));
#1375= IFCCARTESIANPOINT((9.99982821532831,-2247.28367957866,-100.000000002252));
#1376= IFCPOLYLOOP((#1365,#1364,#1374,#1375));
#1377= IFCFACEOUTERBOUND(#1376,.T.);
#1378= IFCFACE((#1377));
#1379= IFCCARTESIANPOINT((-9.99982819857178,-2172.7163204134,-100.000000002128));
#1380= IFCCARTESIANPOINT((-9.99982819865909,-2172.71632041377,99.9999999978718));
#1381= IFCPOLYLOOP((#1370,#1369,#1379,#1380));
#1382= IFCFACEOUTERBOUND(#1381,.T.);
#1383= IFCFACE((#1382));
#1384= IFCCARTESIANPOINT((9.99890665123166,-2447.28755581924,99.9999999973843));
#1385= IFCCARTESIANPOINT((9.99890665132261,-2447.28755581889,-100.000000002616));
#1386= IFCPOLYLOOP((#1375,#1374,#1384,#1385));
#1387= IFCFACEOUTERBOUND(#1386,.T.);
#1388= IFCFACE((#1387));
#1389= IFCCARTESIANPOINT((-10.0007497625775,-2372.72019665362,-100.000000002492));
#1390= IFCCARTESIANPOINT((-10.0007497626684,-2372.72019665398,99.999999997508));
#1391= IFCPOLYLOOP((#1380,#1379,#1389,#1390));
#1392= IFCFACEOUTERBOUND(#1391,.T.);
#1393= IFCFACE((#1392));
#1394= IFCCARTESIANPOINT((-63.573761257343,-2319.99999999643,99.9999999975807));
#1395= IFCCARTESIANPOINT((-63.5737612572557,-2319.99999999606,-100.000000002419));
#1396= IFCPOLYLOOP((#1385,#1384,#1394,#1395));
#1397= IFCFACEOUTERBOUND(#1396,.T.);
#1398= IFCFACE((#1397));
#1399= IFCCARTESIANPOINT((-52.0332865989403,-2299.99999999606,-100.000000002376));
#1400= IFCCARTESIANPOINT((-52.0332865990276,-2299.99999999642,99.9999999976244));
#1401= IFCPOLYLOOP((#1390,#1389,#1399,#1400));
#1402= IFCFACEOUTERBOUND(#1401,.T.);
#1403= IFCFACE((#1402));
#1404= IFCCARTESIANPOINT((-1019.99999999166,-2319.99999999686,99.9999999971478));
#1405= IFCCARTESIANPOINT((-1019.99999999157,-2319.9999999965,-100.000000002852));
#1406= IFCPOLYLOOP((#1395,#1394,#1404,#1405));
#1407= IFCFACEOUTERBOUND(#1406,.T.);
#1408= IFCFACE((#1407));
#1409= IFCCARTESIANPOINT((-999.999999991582,-2299.99999999649,-100.000000002809));
#1410= IFCCARTESIANPOINT((-999.999999991669,-2299.99999999686,99.9999999971915));
#1411= IFCPOLYLOOP((#1400,#1399,#1409,#1410));
#1412= IFCFACEOUTERBOUND(#1411,.T.);
#1413= IFCFACE((#1412));
#1414= IFCPOLYLOOP((#1405,#1404,#1338,#1337));
#1415= IFCFACEOUTERBOUND(#1414,.T.);
#1416= IFCFACE((#1415));
#1417= IFCPOLYLOOP((#1410,#1409,#1347,#1346));
#1418= IFCFACEOUTERBOUND(#1417,.T.);
#1419= IFCFACE((#1418));
#1420= IFCPOLYLOOP((#1338,#1404,#1394,#1384,#1374,#1364,#1354,#1340,#1339));
#1421= IFCFACEOUTERBOUND(#1420,.T.);
#1422= IFCPOLYLOOP((#1350,#1360,#1370,#1380,#1390,#1400,#1410,#1346,#1345));
#1423= IFCFACEBOUND(#1422,.T.);
#1424= IFCFACE((#1421,#1423));
#1425= IFCPOLYLOOP((#1341,#1355,#1365,#1375,#1385,#1395,#1405,#1337,#1336));
#1426= IFCFACEOUTERBOUND(#1425,.T.);
#1427= IFCPOLYLOOP((#1347,#1409,#1399,#1389,#1379,#1369,#1359,#1349,#1348));
#1428= IFCFACEBOUND(#1427,.T.);
#1429= IFCFACE((#1426,#1428));
#1430= IFCCLOSEDSHELL((#1344,#1353,#1358,#1363,#1368,#1373,#1378,#1383,#1388,#1393,#1398,#1403,#1408,#1413,#1416,#1419,#1424,#1429));
#1431= IFCFACETEDBREP(#1430);
#1432= IFCSTYLEDITEM(#1431,(#1167),$);
#1433= IFCSHAPEREPRESENTATION(#12,'Body','Brep',(#1431));
#1434= IFCPRODUCTDEFINITIONSHAPE($,$,(#1433));
#1435= IFCCARTESIANPOINT((19000.,31100.,-10.));
#1436= IFCDIRECTION((0.,-1.,0.));
#1437= IFCAXIS2PLACEMENT3D(#1435,#1436,#102);
#1438= IFCLOCALPLACEMENT(#42,#1437);
#1439= IFCBEAM('1_SPwyN0XCQgJdu_CAsj6E',#44,'Ramme','PL200X20',$,#1438,#1434,'ID7e719ebc-5c08-4c6a-a4e7-e3e30adad18e');
#1440= IFCBEAMTYPE('0e66tZ_1zCEQy11yDkxCcd',#5,'PL200X20',$,$,$,$,$,$,.NOTDEFINED.);
#1441= IFCPROPERTYSINGLEVALUE('Top elevation',$,IFCLABEL(' +2.437'),$);
#1442= IFCPROPERTYSINGLEVALUE('Bottom elevation',$,IFCLABEL(' -0.020'),$);
#1443= IFCPROPERTYSET('1GDPQLAEr1Zfxggu$kgjgc',#5,'Tekla Common','Common Properties to Shared building elements',(#1244,#108,#109,#110,#1441,#1442));
#1444= IFCPROPERTYSINGLEVALUE('Length',$,IFCLENGTHMEASURE(8975.4),$);
#1445= IFCPROPERTYSINGLEVALUE('Width',$,IFCLENGTHMEASURE(20.),$);
#1446= IFCPROPERTYSINGLEVALUE('Net surface area',$,IFCAREAMEASURE(3.949),$);
#1447= IFCPROPERTYSINGLEVALUE('Volume',$,IFCVOLUMEMEASURE(0.036),$);
#1448= IFCPROPERTYSET('2joJEO8yH8belcH$VH_xQz',#5,'Tekla Quantity','Quantity Properties to Shared building elements',(#1444,#1445,#1250,#1446,#1089,#214,#1447,#1090));
#1449= IFCPROPERTYSINGLEVALUE('OuterSurfaceArea',$,IFCAREAMEASURE(3.9),$);
#1450= IFCPROPERTYSET('2flI34TvP6_f11P8kCjiCi',#5,'BeamBaseQuantities',$,(#1444,#1449,#906,#907));
#1451= IFCPROPERTYSET('1yfsSqaMv3VhPf7042VPoZ',#5,'Pset_BeamCommon','Definition from IAI: Properties common to the definition of all occurrences of IfcBeam.',(#127,#909,#1256,#133,#134,#129));
#1452= IFCRELAGGREGATES('0EjNbHDEf2PhQKV$tt9B_z',#5,$,$,#36,(#38));
#1453= IFCRELAGGREGATES('2u8PaOH$9BcRq6s6LNhQwQ',#5,$,$,#38,(#41));
#1454= IFCRELAGGREGATES('1K5QSvTJvBu8sWBQRg2A5s',#5,$,$,#41,(#43));
#1455= IFCRELCONTAINEDINSPATIALSTRUCTURE('1D4pjceEP0TgIIjscM06BD',#5,$,$,(#1439,#1325,#1242,#1153,#1080,#891,#205,#105),#43);
#1456= IFCRELDEFINESBYPROPERTIES('0Jx$O2WIfCd8DD$3DNvYyX',#5,$,$,(#105),#113);
#1457= IFCRELDEFINESBYPROPERTIES('1h0VWMjif5tBdUHuyJ1qZt',#5,$,$,(#105),#122);
#1458= IFCRELDEFINESBYPROPERTIES('04zqYlxfn2MRo7ka1y3w0R',#5,$,$,(#105),#126);
#1459= IFCRELDEFINESBYPROPERTIES('3gXL7k60f7uA4QJpB9_Mrj',#5,$,$,(#105),#137);
#1460= IFCRELDEFINESBYPROPERTIES('06R0URNfn8av_efPSRlZ$u',#5,$,$,(#205),#209);
#1461= IFCRELDEFINESBYPROPERTIES('3LHJrZ9QH4JODg0pthGzir',#5,$,$,(#205),#217);
#1462= IFCRELDEFINESBYPROPERTIES('2u70PDpMX2yRUn8Q_R4EyF',#5,$,$,(#205),#221);
#1463= IFCRELDEFINESBYPROPERTIES('0_A8XsT0n3HREKx4JOuCqz',#5,$,$,(#205),#222);
#1464= IFCRELDEFINESBYPROPERTIES('1JpxJcsFf6_f0_aqZSFzbK',#5,$,$,(#891),#896);
#1465= IFCRELDEFINESBYPROPERTIES('0qK_VHVFLEYfPQn4APnsko',#5,$,$,(#891),#904);
#1466= IFCRELDEFINESBYPROPERTIES('0$NGHMLF9DDOzDBIwr8$lN',#5,$,$,(#891),#908);
#1467= IFCRELDEFINESBYPROPERTIES('389_EyN5PEWBwYwHGWyLpc',#5,$,$,(#891),#911);
#1468= IFCRELDEFINESBYPROPERTIES('0CzCNVVir3ixMygM7qv2b$',#5,$,$,(#1080),#1084);
#1469= IFCRELDEFINESBYPROPERTIES('172xg9TBHAaQaW5rmm6MfC',#5,$,$,(#1080),#1091);
#1470= IFCRELDEFINESBYPROPERTIES('1Zr5TmSLPCEx4B4ExzSi0u',#5,$,$,(#1080),#1146);
#1471= IFCRELDEFINESBYPROPERTIES('0tWD_7_HbCcw7ttfvschzD',#5,$,$,(#1153),#1157);
#1472= IFCRELDEFINESBYPROPERTIES('3XHf_ZMj93Iu0NhTYeulWp',#5,$,$,(#1153),#1158);
#1473= IFCRELDEFINESBYPROPERTIES('3UBk5T1Jv5a9t$yAUCddfy',#5,$,$,(#1153),#1163);
#1474= IFCRELDEFINESBYPROPERTIES('1Rq1yqxt5BvxFNTX1jI7DT',#5,$,$,(#1242),#1247);
#1475= IFCRELDEFINESBYPROPERTIES('2xxkoTGcH5SAAjCWj3WOmm',#5,$,$,(#1242),#1253);
#1476= IFCRELDEFINESBYPROPERTIES('2_J_bGHqr9EwFnQu2RosR_',#5,$,$,(#1242),#1255);
#1477= IFCRELDEFINESBYPROPERTIES('1EWAl_mjrFThNqzx9JwRqk',#5,$,$,(#1242),#1257);
#1478= IFCRELDEFINESBYPROPERTIES('3vZbpDCgv9fAwVwM$6OD_h',#5,$,$,(#1325),#1328);
#1479= IFCRELDEFINESBYPROPERTIES('3_2Go8tBT9CO4oHjGZs0N4',#5,$,$,(#1325),#1332);
#1480= IFCRELDEFINESBYPROPERTIES('26byXjJFH2o9o2$9iqGx35',#5,$,$,(#1325),#1334);
#1481= IFCRELDEFINESBYPROPERTIES('3NcCLFlIf7bvc9ic_kcBTb',#5,$,$,(#1325),#1335);
#1482= IFCRELDEFINESBYPROPERTIES('0$OsziqVLBDQBtfpAyp6pi',#5,$,$,(#1439),#1443);
#1483= IFCRELDEFINESBYPROPERTIES('1kOj8Rv1TCfPSnuR4KZ3yu',#5,$,$,(#1439),#1448);
#1484= IFCRELDEFINESBYPROPERTIES('1CY8QmcXjCxgmyHF$H3CN4',#5,$,$,(#1439),#1450);
#1485= IFCRELDEFINESBYPROPERTIES('1Y8PhRji53meTSdt1DYqwr',#5,$,$,(#1439),#1451);
#1486= IFCRELDEFINESBYTYPE('3SkYdN6ET3XxCwR$XBC0_u',#5,$,$,(#105),#106);
#1487= IFCRELDEFINESBYTYPE('22JtZraQ93Ig3aUnDdQegH',#5,$,$,(#205),#206);
#1488= IFCRELDEFINESBYTYPE('1fwGr368DAcAJ3kCoNRkgX',#5,$,$,(#891),#892);
#1489= IFCRELDEFINESBYTYPE('2ubKJSnJz2nh_VVti0lOgi',#5,$,$,(#1080),#1081);
#1490= IFCRELDEFINESBYTYPE('1mQ43pHqb0qwnAU2O8zOrt',#5,$,$,(#1153),#1154);
#1491= IFCRELDEFINESBYTYPE('1KkXvP8ef5hg7yszdv56zO',#5,$,$,(#1325,#1242),#1243);
#1492= IFCRELDEFINESBYTYPE('2CT9YBVUDFTOF3aaREoxz7',#5,$,$,(#1439),#1440);
#1493= IFCRELASSOCIATESMATERIAL('3bsalhX2f3a9FACIVubsBF',#5,$,$,(#205,#105),#138);
#1494= IFCRELASSOCIATESMATERIAL('0OvwXjEHHAQRELl7rRiNJX',#5,$,$,(#891),#912);
#1495= IFCRELASSOCIATESMATERIAL('30SoUoWez7eObOYO_D4Gqp',#5,$,$,(#1439,#1325,#1242,#1153,#1080),#1147);
#1496= IFCPRESENTATIONLAYERASSIGNMENT('Fundament',$,(#98),$);
#1497= IFCPRESENTATIONLAYERASSIGNMENT('Landkar',$,(#200),$);
#1498= IFCPRESENTATIONLAYERASSIGNMENT('Jordingsledning',$,(#884),$);
#1499= IFCPRESENTATIONLAYERASSIGNMENT('Jordingsbolt',$,(#1075,#1148),$);
#1500= IFCPRESENTATIONLAYERASSIGNMENT('Ramme',$,(#1237,#1320,#1433),$);
ENDSEC;

END-ISO-10303-21;
