ISO-10303-21;
HEADER;
FILE_DESCRIPTION(('ViewDefinition[CoordinationView_V2.0]', 'ExchangeRequirement[Structural, SurfaceGeometry]', 'Option [GridExport:Off]', 'Option [Assemblies:Off]', 'Option [Bolts:On]', 'Option [Rebars:On]', 'Option [PourObjects:Off]', 'Option [Welds:Off]', 'Option [SurfaceTreatments:Off]', 'Option [LocationBy:0]', 'Option [ViewColors:On]', 'Option [SectionedSpine:Off]', 'Option [PropertySets:On]', 'Option [Export all:Off]'),'2;1');
FILE_NAME('SNACKS_Detalj_Nivelleringsbolt.ifc','2026-08-28T11:48:54',('SWECO\\NOULVE'),('Structural Designer'),'IFC Parser','Tekla Structures 2025 Service Pack 7, IFC Export Version: 4.0.0.0 Feb 24 2026','');
FILE_SCHEMA(('IFC2X3'));
ENDSEC;

DATA;
#1= IFCPERSON('SWECO\\NOULVE','Undefined',$,$,$,$,$,$);
#2= IFCORGANIZATION($,'Trimble Solutions Corporation',$,$,$);
#3= IFCPERSONANDORGANIZATION(#1,#2,$);
#4= IFCAPPLICATION(#2,'2025 Service Pack 7','Tekla Structures','Multi material modeling');
#5= IFCOWNERHISTORY(#3,#4,$,.NOCHANGE.,$,$,$,1787910534);
#6= IFCCARTESIANPOINT((0.,0.,0.));
#7= IFCDIRECTION((1.,0.,0.));
#8= IFCDIRECTION((0.,1.,0.));
#9= IFCDIRECTION((0.,0.,1.));
#10= IFCAXIS2PLACEMENT3D(#6,#9,#7);
#11= IFCGEOMETRICREPRESENTATIONCONTEXT($,'Model',3,1.E-05,#10,$);
#12= IFCGEOMETRICREPRESENTATIONSUBCONTEXT('Body','Model',*,*,*,*,#11,$,.MODEL_VIEW.,$);
#13= IFCGEOMETRICREPRESENTATIONSUBCONTEXT('Axis','Model',*,*,*,*,#11,$,.GRAPH_VIEW.,$);
#14= IFCSIUNIT(*,.LENGTHUNIT.,.MILLI.,.METRE.);
#15= IFCMEASUREWITHUNIT(IFCRATIOMEASURE(304.8),#14);
#16= IFCDIMENSIONALEXPONENTS(1,0,0,0,0,0,0);
#17= IFCCONVERSIONBASEDUNIT(#16,.LENGTHUNIT.,'FOOT',#15);
#18= IFCSIUNIT(*,.AREAUNIT.,$,.SQUARE_METRE.);
#19= IFCMEASUREWITHUNIT(IFCRATIOMEASURE(0.09290304),#18);
#20= IFCDIMENSIONALEXPONENTS(2,0,0,0,0,0,0);
#21= IFCCONVERSIONBASEDUNIT(#20,.AREAUNIT.,'SQUARE FOOT',#19);
#22= IFCSIUNIT(*,.VOLUMEUNIT.,$,.CUBIC_METRE.);
#23= IFCMEASUREWITHUNIT(IFCRATIOMEASURE(0.028316846592),#22);
#24= IFCDIMENSIONALEXPONENTS(3,0,0,0,0,0,0);
#25= IFCCONVERSIONBASEDUNIT(#24,.VOLUMEUNIT.,'CUBIC FOOT',#23);
#26= IFCSIUNIT(*,.MASSUNIT.,.KILO.,.GRAM.);
#27= IFCSIUNIT(*,.TIMEUNIT.,$,.SECOND.);
#28= IFCSIUNIT(*,.PLANEANGLEUNIT.,$,.RADIAN.);
#29= IFCMEASUREWITHUNIT(IFCRATIOMEASURE(0.0174532925199433),#28);
#30= IFCDIMENSIONALEXPONENTS(0,0,0,0,0,0,0);
#31= IFCCONVERSIONBASEDUNIT(#30,.PLANEANGLEUNIT.,'DEGREE',#29);
#32= IFCSIUNIT(*,.SOLIDANGLEUNIT.,$,.STERADIAN.);
#33= IFCSIUNIT(*,.THERMODYNAMICTEMPERATUREUNIT.,$,.DEGREE_CELSIUS.);
#34= IFCSIUNIT(*,.LUMINOUSINTENSITYUNIT.,$,.LUMEN.);
#35= IFCUNITASSIGNMENT((#14,#18,#22,#26,#27,#28,#32,#33,#34));
#36= IFCPROJECT('2YG0JLJLPAvRd9NM8hMiC$',#5,'Trimble',$,$,$,$,(#11),#35);
#37= IFCLOCALPLACEMENT($,#10);
#38= IFCSITE('0cHbuZ7tTAAARUvYnq2GoH',#5,'Undefined',$,$,#37,$,$,.ELEMENT.,$,$,$,$,$);
#39= IFCPOSTALADDRESS($,' ',$,' ',$,' ',' ',' ',' ',' ');
#40= IFCLOCALPLACEMENT(#37,#10);
#41= IFCBUILDING('2cH2Ye1ODFPROjgJsPA4pC',#5,'Undefined',$,$,#40,$,$,.ELEMENT.,$,$,#39);
#42= IFCLOCALPLACEMENT(#40,#10);
#43= IFCBUILDINGSTOREY('09Zmb6wqH33AoobR5q1mOS',#5,'Undefined',$,$,#42,$,$,.ELEMENT.,0.);
#44= IFCOWNERHISTORY(#3,#4,$,.NOCHANGE.,$,$,$,1787914800);
#45= IFCCOLOURRGB('Unnamed',0.823529411764706,0.823529411764706,0.823529411764706);
#46= IFCSURFACESTYLERENDERING(#45,0.4,$,$,$,$,IFCNORMALISEDRATIOMEASURE(0.00390625),IFCSPECULAREXPONENT(10.),.NOTDEFINED.);
#47= IFCSURFACESTYLE('CONCRETE/B45_SV_Standard',.POSITIVE.,(#46));
#48= IFCPRESENTATIONSTYLEASSIGNMENT((#47));
#49= IFCCARTESIANPOINT((2.27373675443232E-13,-100.,0.));
#50= IFCCARTESIANPOINT((-18.9155860311712,-100.,19.9706726128315));
#51= IFCCARTESIANPOINT((-18.9155860311712,100.,19.9706726128315));
#52= IFCCARTESIANPOINT((2.27373675443232E-13,100.,0.));
#53= IFCPOLYLOOP((#49,#50,#51,#52));
#54= IFCFACEOUTERBOUND(#53,.T.);
#55= IFCFACE((#54));
#56= IFCCARTESIANPOINT((6.09226021120139,-100.,480.023330129228));
#57= IFCCARTESIANPOINT((6.09226021120139,100.,480.023330129228));
#58= IFCPOLYLOOP((#50,#56,#57,#51));
#59= IFCFACEOUTERBOUND(#58,.T.);
#60= IFCFACE((#59));
#61= IFCCARTESIANPOINT((76.0925859018457,-100.,550.023018734271));
#62= IFCCARTESIANPOINT((76.0925859018457,100.,550.023018734271));
#63= IFCPOLYLOOP((#56,#61,#62,#57));
#64= IFCFACEOUTERBOUND(#63,.T.);
#65= IFCFACE((#64));
#66= IFCCARTESIANPOINT((251.642573692648,-100.,550.022201950596));
#67= IFCCARTESIANPOINT((251.642573692648,100.,550.022201950596));
#68= IFCPOLYLOOP((#61,#66,#67,#62));
#69= IFCFACEOUTERBOUND(#68,.T.);
#70= IFCFACE((#69));
#71= IFCCARTESIANPOINT((251.647579469383,-100.,520.015319353493));
#72= IFCCARTESIANPOINT((251.647579469383,100.,520.015319353493));
#73= IFCPOLYLOOP((#66,#71,#72,#67));
#74= IFCFACEOUTERBOUND(#73,.T.);
#75= IFCFACE((#74));
#76= IFCCARTESIANPOINT((601.642322850642,-100.,520.010563799962));
#77= IFCCARTESIANPOINT((601.642322850642,100.,520.010563799962));
#78= IFCPOLYLOOP((#71,#76,#77,#72));
#79= IFCFACEOUTERBOUND(#78,.T.);
#80= IFCFACE((#79));
#81= IFCCARTESIANPOINT((737.116512513995,-100.,19.3057324158399));
#82= IFCCARTESIANPOINT((737.116512513995,100.,19.3057324158399));
#83= IFCPOLYLOOP((#76,#81,#82,#77));
#84= IFCFACEOUTERBOUND(#83,.T.);
#85= IFCFACE((#84));
#86= IFCCARTESIANPOINT((722.340026928601,-100.,3.01952240988612E-10));
#87= IFCCARTESIANPOINT((722.340026928601,100.,3.01952240988612E-10));
#88= IFCPOLYLOOP((#81,#86,#87,#82));
#89= IFCFACEOUTERBOUND(#88,.T.);
#90= IFCFACE((#89));
#91= IFCPOLYLOOP((#86,#49,#52,#87));
#92= IFCFACEOUTERBOUND(#91,.T.);
#93= IFCFACE((#92));
#94= IFCPOLYLOOP((#57,#62,#67,#72,#77,#82,#87,#52,#51));
#95= IFCFACEOUTERBOUND(#94,.T.);
#96= IFCFACE((#95));
#97= IFCPOLYLOOP((#86,#81,#76,#71,#66,#61,#56,#50,#49));
#98= IFCFACEOUTERBOUND(#97,.T.);
#99= IFCFACE((#98));
#100= IFCCLOSEDSHELL((#55,#60,#65,#70,#75,#80,#85,#90,#93,#96,#99));
#101= IFCFACETEDBREP(#100);
#102= IFCSTYLEDITEM(#101,(#48),$);
#103= IFCSHAPEREPRESENTATION(#12,'Body','Brep',(#101));
#104= IFCPRODUCTDEFINITIONSHAPE($,$,(#103));
#105= IFCCARTESIANPOINT((21147.9173065447,31100.,1506.16937333535));
#106= IFCDIRECTION((0.999999999989175,0.,4.65299999837044E-06));
#107= IFCDIRECTION((4.65299999840059E-06,0.,-0.999999999989175));
#108= IFCAXIS2PLACEMENT3D(#105,#106,#107);
#109= IFCLOCALPLACEMENT(#42,#108);
#110= IFCSLAB('0qNal0YErE5PwS3S2KEgJg',#44,'Kantbjelke','200X550',$,#109,#104,'ID345e4bc0-88ed-4e15-9e9c-0dc0943aa4ea',.NOTDEFINED.);
#111= IFCSLABTYPE('0BGrgaXq98OuaRZxFEK$Lo',#5,'200X550',$,$,$,$,$,$,.NOTDEFINED.);
#112= IFCPROPERTYSINGLEVALUE('Class',$,IFCLABEL('11'),$);
#113= IFCPROPERTYSINGLEVALUE('Phase',$,IFCINTEGER(1),$);
#114= IFCPROPERTYSINGLEVALUE('Preliminary mark',$,IFCLABEL(''),$);
#115= IFCPROPERTYSINGLEVALUE('Initial GUID',$,$,$);
#116= IFCPROPERTYSINGLEVALUE('Top elevation',$,IFCLABEL(' +1.525'),$);
#117= IFCPROPERTYSINGLEVALUE('Bottom elevation',$,IFCLABEL(' +0.769'),$);
#118= IFCPROPERTYSET('11q3GZpBz5sAFufS7YR3hs',#5,'Tekla Common','Common Properties to Shared building elements',(#112,#113,#114,#115,#116,#117));
#119= IFCPROPERTYSINGLEVALUE('Length',$,IFCLENGTHMEASURE(756.),$);
#120= IFCPROPERTYSINGLEVALUE('Width',$,IFCLENGTHMEASURE(200.),$);
#121= IFCPROPERTYSINGLEVALUE('Height',$,IFCLENGTHMEASURE(550.),$);
#122= IFCPROPERTYSINGLEVALUE('Net surface area',$,IFCAREAMEASURE(1.196),$);
#123= IFCPROPERTYSINGLEVALUE('Area per tons',$,IFCAREAMEASURE(6.977),$);
#124= IFCPROPERTYSINGLEVALUE('Gross footprint area',$,IFCAREAMEASURE(0.),$);
#125= IFCPROPERTYSINGLEVALUE('Volume',$,IFCVOLUMEMEASURE(0.071),$);
#126= IFCPROPERTYSINGLEVALUE('Weight',$,IFCMASSMEASURE(171.39),$);
#127= IFCPROPERTYSET('3uAQjI2ST95PdyEBnFQif2',#5,'Tekla Quantity','Quantity Properties to Shared building elements',(#119,#120,#121,#122,#123,#124,#125,#126));
#128= IFCPROPERTYSINGLEVALUE('NetArea',$,IFCAREAMEASURE(0.),$);
#129= IFCPROPERTYSINGLEVALUE('NetVolume',$,IFCVOLUMEMEASURE(0.1),$);
#130= IFCPROPERTYSINGLEVALUE('NetWeight',$,IFCMASSMEASURE(171.4),$);
#131= IFCPROPERTYSET('1LbYHEw6rFK8m$Tz7Eth3M',#5,'SlabBaseQuantities',$,(#120,#128,#129,#130));
#132= IFCPROPERTYSINGLEVALUE('Reference',$,$,$);
#133= IFCPROPERTYSINGLEVALUE('AcousticRating',$,$,$);
#134= IFCPROPERTYSINGLEVALUE('FireRating',$,$,$);
#135= IFCPROPERTYSINGLEVALUE('Combustible',$,IFCBOOLEAN(''),$);
#136= IFCPROPERTYSINGLEVALUE('SurfaceSpreadOfFlame',$,$,$);
#137= IFCPROPERTYSINGLEVALUE('ThermalTransmittance',$,$,$);
#138= IFCPROPERTYSINGLEVALUE('IsExternal',$,IFCBOOLEAN(''),$);
#139= IFCPROPERTYSINGLEVALUE('LoadBearing',$,IFCBOOLEAN(''),$);
#140= IFCPROPERTYSINGLEVALUE('Compartmentation',$,IFCBOOLEAN(''),$);
#141= IFCPROPERTYSINGLEVALUE('PitchAngle',$,$,$);
#142= IFCPROPERTYSET('2h9I7BpCPAKwujoSkkoYW0',#5,'Pset_SlabCommon','Definition from IAI: Properties common to the definition of all occurrences of IfcSlab. Note: Properties for PitchAngle added in IFC 2x3',(#132,#133,#134,#135,#136,#137,#138,#139,#140,#141));
#143= IFCMATERIAL('CONCRETE/B45_SV_Standard');
#144= IFCCOLOURRGB('Unnamed',0.654901960784314,0.654901960784314,0.654901960784314);
#145= IFCSURFACESTYLERENDERING(#144,0.4,$,$,$,$,IFCNORMALISEDRATIOMEASURE(0.00390625),IFCSPECULAREXPONENT(10.),.NOTDEFINED.);
#146= IFCSURFACESTYLE('CONCRETE/B45_SV_Standard',.POSITIVE.,(#145));
#147= IFCPRESENTATIONSTYLEASSIGNMENT((#146));
#148= IFCCARTESIANPOINT((-0.00541348019578436,-100.,30.00688252693));
#149= IFCCARTESIANPOINT((-0.00541348019578436,100.,30.00688252693));
#150= IFCPOLYLOOP((#49,#148,#149,#52));
#151= IFCFACEOUTERBOUND(#150,.T.);
#152= IFCFACE((#151));
#153= IFCCARTESIANPOINT((-16.0573657730547,-100.,832.076059897001));
#154= IFCCARTESIANPOINT((-16.0573657730547,100.,832.076059897001));
#155= IFCPOLYLOOP((#148,#153,#154,#149));
#156= IFCFACEOUTERBOUND(#155,.T.);
#157= IFCFACE((#156));
#158= IFCCARTESIANPOINT((412.137289607433,-100.,832.079885396834));
#159= IFCCARTESIANPOINT((412.137289607433,100.,832.079885396834));
#160= IFCPOLYLOOP((#153,#158,#159,#154));
#161= IFCFACEOUTERBOUND(#160,.T.);
#162= IFCFACE((#161));
#163= IFCCARTESIANPOINT((349.994743413765,-100.,1.38243194669485E-10));
#164= IFCCARTESIANPOINT((349.994743413765,100.,1.38243194669485E-10));
#165= IFCPOLYLOOP((#158,#163,#164,#159));
#166= IFCFACEOUTERBOUND(#165,.T.);
#167= IFCFACE((#166));
#168= IFCPOLYLOOP((#163,#49,#52,#164));
#169= IFCFACEOUTERBOUND(#168,.T.);
#170= IFCFACE((#169));
#171= IFCPOLYLOOP((#154,#159,#164,#52,#149));
#172= IFCFACEOUTERBOUND(#171,.T.);
#173= IFCFACE((#172));
#174= IFCPOLYLOOP((#163,#158,#153,#148,#49));
#175= IFCFACEOUTERBOUND(#174,.T.);
#176= IFCFACE((#175));
#177= IFCCLOSEDSHELL((#152,#157,#162,#167,#170,#173,#176));
#178= IFCFACETEDBREP(#177);
#179= IFCSTYLEDITEM(#178,(#147),$);
#180= IFCSHAPEREPRESENTATION(#12,'Body','Brep',(#178));
#181= IFCPRODUCTDEFINITIONSHAPE($,$,(#180));
#182= IFCCARTESIANPOINT((21667.9337966833,31100.,1254.52421324142));
#183= IFCDIRECTION((0.999999999960083,0.,-8.93499999870072E-06));
#184= IFCDIRECTION((-8.93499999859255E-06,0.,-0.999999999960083));
#185= IFCAXIS2PLACEMENT3D(#182,#183,#184);
#186= IFCLOCALPLACEMENT(#42,#185);
#187= IFCSLAB('27V9RiQE9BrvutperVOiAl',#44,'Bruplate','200X427',$,#186,#181,'ID877c96ec-68e2-4bd7-9e37-ce8d5f62c2af',.NOTDEFINED.);
#188= IFCSLABTYPE('2i8uV36xv41ACVN7jqN_3N',#5,'200X427',$,$,$,$,$,$,.NOTDEFINED.);
#189= IFCPROPERTYSINGLEVALUE('Top elevation',$,IFCLABEL(' +1.271'),$);
#190= IFCPROPERTYSINGLEVALUE('Bottom elevation',$,IFCLABEL(' +0.842'),$);
#191= IFCPROPERTYSET('17nXPtBSP5txsWb439Nrdp',#5,'Tekla Common','Common Properties to Shared building elements',(#112,#113,#114,#115,#189,#190));
#192= IFCPROPERTYSINGLEVALUE('Length',$,IFCLENGTHMEASURE(860.5),$);
#193= IFCPROPERTYSINGLEVALUE('Height',$,IFCLENGTHMEASURE(427.),$);
#194= IFCPROPERTYSINGLEVALUE('Net surface area',$,IFCAREAMEASURE(1.136),$);
#195= IFCPROPERTYSINGLEVALUE('Area per tons',$,IFCAREAMEASURE(7.315),$);
#196= IFCPROPERTYSINGLEVALUE('Volume',$,IFCVOLUMEMEASURE(0.065),$);
#197= IFCPROPERTYSINGLEVALUE('Weight',$,IFCMASSMEASURE(155.29),$);
#198= IFCPROPERTYSET('25bUGI17j5WBgVWNWo2gaN',#5,'Tekla Quantity','Quantity Properties to Shared building elements',(#192,#120,#193,#194,#195,#124,#196,#197));
#199= IFCPROPERTYSINGLEVALUE('NetWeight',$,IFCMASSMEASURE(155.3),$);
#200= IFCPROPERTYSET('2_PoT8iILDdf1sgVL59qFe',#5,'SlabBaseQuantities',$,(#120,#128,#129,#199));
#201= IFCPROPERTYSET('0Os_D7Gdr63fC89NM5E7Sh',#5,'Pset_SlabCommon','Definition from IAI: Properties common to the definition of all occurrences of IfcSlab. Note: Properties for PitchAngle added in IFC 2x3',(#132,#133,#134,#135,#136,#137,#138,#139,#140,#141));
#202= IFCCOLOURRGB('Unnamed',1.,0.,1.);
#203= IFCSURFACESTYLERENDERING(#202,0.,$,$,$,$,IFCNORMALISEDRATIOMEASURE(0.00390625),IFCSPECULAREXPONENT(10.),.NOTDEFINED.);
#204= IFCSURFACESTYLE('STEEL/S355J2H',.POSITIVE.,(#203));
#205= IFCPRESENTATIONSTYLEASSIGNMENT((#204));
#206= IFCCARTESIANPOINT((-2.27373675443232E-13,-8.,0.));
#207= IFCCARTESIANPOINT((-4.54747350886464E-13,-5.65685424949334,-5.65685424949334));
#208= IFCCARTESIANPOINT((119.9999998809,-5.65685424949334,-5.65685424927869));
#209= IFCCARTESIANPOINT((119.9999998809,-8.,2.14640749618411E-10));
#210= IFCPOLYLOOP((#206,#207,#208,#209));
#211= IFCFACEOUTERBOUND(#210,.T.);
#212= IFCFACE((#211));
#213= IFCCARTESIANPOINT((-4.54747350886464E-13,0.,-8.00000000000364));
#214= IFCCARTESIANPOINT((119.9999998809,0.,-7.999999999789));
#215= IFCPOLYLOOP((#207,#213,#214,#208));
#216= IFCFACEOUTERBOUND(#215,.T.);
#217= IFCFACE((#216));
#218= IFCCARTESIANPOINT((-4.54747350886464E-13,5.65685424949334,-5.65685424949334));
#219= IFCCARTESIANPOINT((119.9999998809,5.65685424949334,-5.65685424927869));
#220= IFCPOLYLOOP((#213,#218,#219,#214));
#221= IFCFACEOUTERBOUND(#220,.T.);
#222= IFCFACE((#221));
#223= IFCCARTESIANPOINT((-2.27373675443232E-13,8.,0.));
#224= IFCCARTESIANPOINT((119.9999998809,8.,2.14640749618411E-10));
#225= IFCPOLYLOOP((#218,#223,#224,#219));
#226= IFCFACEOUTERBOUND(#225,.T.);
#227= IFCFACE((#226));
#228= IFCCARTESIANPOINT((2.27373675443232E-13,5.65685424949334,5.65685424949697));
#229= IFCCARTESIANPOINT((119.999999880901,5.65685424949334,5.65685424971161));
#230= IFCPOLYLOOP((#223,#228,#229,#224));
#231= IFCFACEOUTERBOUND(#230,.T.);
#232= IFCFACE((#231));
#233= IFCCARTESIANPOINT((2.27373675443232E-13,0.,8.00000000000728));
#234= IFCCARTESIANPOINT((119.999999880901,0.,8.00000000022192));
#235= IFCPOLYLOOP((#228,#233,#234,#229));
#236= IFCFACEOUTERBOUND(#235,.T.);
#237= IFCFACE((#236));
#238= IFCCARTESIANPOINT((2.27373675443232E-13,-5.65685424949334,5.65685424949697));
#239= IFCCARTESIANPOINT((119.999999880901,-5.65685424949334,5.65685424971161));
#240= IFCPOLYLOOP((#233,#238,#239,#234));
#241= IFCFACEOUTERBOUND(#240,.T.);
#242= IFCFACE((#241));
#243= IFCPOLYLOOP((#238,#206,#209,#239));
#244= IFCFACEOUTERBOUND(#243,.T.);
#245= IFCFACE((#244));
#246= IFCPOLYLOOP((#214,#219,#224,#229,#234,#239,#209,#208));
#247= IFCFACEOUTERBOUND(#246,.T.);
#248= IFCFACE((#247));
#249= IFCPOLYLOOP((#238,#233,#228,#223,#218,#213,#207,#206));
#250= IFCFACEOUTERBOUND(#249,.T.);
#251= IFCFACE((#250));
#252= IFCCLOSEDSHELL((#212,#217,#222,#227,#232,#237,#242,#245,#248,#251));
#253= IFCFACETEDBREP(#252);
#254= IFCSTYLEDITEM(#253,(#205),$);
#255= IFCSHAPEREPRESENTATION(#12,'Body','Brep',(#253));
#256= IFCPRODUCTDEFINITIONSHAPE($,$,(#255));
#257= IFCCARTESIANPOINT((21222.92,31000.,1542.1));
#258= IFCDIRECTION((-0.999999999995593,0.,2.9690000123992E-06));
#259= IFCDIRECTION((-2.96900001246611E-06,0.,-0.999999999995593));
#260= IFCAXIS2PLACEMENT3D(#257,#258,#259);
#261= IFCLOCALPLACEMENT(#42,#260);
#262= IFCBEAM('1Vb8pMBIfCpwFluKsoLZBy',#44,'Nivelleringsbolt','D16',$,#261,#256,'ID5f948cd6-2d2a-4ccf-a3ef-e14db25632fc');
#263= IFCBEAMTYPE('19_AVRzsfBYQ7nMyP7pnW5',#5,'D16',$,$,$,$,$,$,.NOTDEFINED.);
#264= IFCPROPERTYSINGLEVALUE('Class',$,IFCLABEL('2888'),$);
#265= IFCPROPERTYSINGLEVALUE('Top elevation',$,IFCLABEL(' +1.542'),$);
#266= IFCPROPERTYSINGLEVALUE('Bottom elevation',$,IFCLABEL(' +1.422'),$);
#267= IFCPROPERTYSET('29LmybfrL3bAhCtnqqCPI$',#5,'Tekla Common','Common Properties to Shared building elements',(#264,#113,#114,#115,#265,#266));
#268= IFCPROPERTYSINGLEVALUE('Length',$,IFCLENGTHMEASURE(120.),$);
#269= IFCPROPERTYSINGLEVALUE('Width',$,IFCLENGTHMEASURE(16.),$);
#270= IFCPROPERTYSINGLEVALUE('Height',$,IFCLENGTHMEASURE(16.),$);
#271= IFCPROPERTYSINGLEVALUE('Net surface area',$,IFCAREAMEASURE(0.006),$);
#272= IFCPROPERTYSINGLEVALUE('Area per tons',$,IFCAREAMEASURE(36.594),$);
#273= IFCPROPERTYSINGLEVALUE('Volume',$,IFCVOLUMEMEASURE(0.),$);
#274= IFCPROPERTYSINGLEVALUE('Weight',$,IFCMASSMEASURE(0.17),$);
#275= IFCPROPERTYSET('0$dYOs46HD0O1wNyx07UxT',#5,'Tekla Quantity','Quantity Properties to Shared building elements',(#268,#269,#270,#271,#272,#124,#273,#274));
#276= IFCPROPERTYSINGLEVALUE('OuterSurfaceArea',$,IFCAREAMEASURE(0.),$);
#277= IFCPROPERTYSINGLEVALUE('NetVolume',$,IFCVOLUMEMEASURE(0.),$);
#278= IFCPROPERTYSINGLEVALUE('NetWeight',$,IFCMASSMEASURE(0.2),$);
#279= IFCPROPERTYSET('3GKZOtFKvFcOs89ryNOBMC',#5,'BeamBaseQuantities',$,(#268,#276,#277,#278));
#280= IFCPROPERTYSINGLEVALUE('Span',$,$,$);
#281= IFCPROPERTYSINGLEVALUE('Slope',$,IFCPLANEANGLEMEASURE(1.57079),$);
#282= IFCPROPERTYSET('3A5jPFLFDFCQVpUjlnGuJw',#5,'Pset_BeamCommon','Definition from IAI: Properties common to the definition of all occurrences of IfcBeam.',(#132,#280,#281,#138,#139,#134));
#283= IFCMATERIAL('STEEL/S355J2H');
#284= IFCCOLOURRGB('Unnamed',0.,0.,0.);
#285= IFCSURFACESTYLERENDERING(#284,0.,$,$,$,$,IFCNORMALISEDRATIOMEASURE(0.00390625),IFCSPECULAREXPONENT(10.),.NOTDEFINED.);
#286= IFCSURFACESTYLE('MISCELLANEOUS/Misc_Undefined',.POSITIVE.,(#285));
#287= IFCPRESENTATIONSTYLEASSIGNMENT((#286));
#288= IFCCARTESIANPOINT((7.37782102078199E-09,10.0000000039661,-99.9999999981446));
#289= IFCCARTESIANPOINT((-1019.99999999262,10.0000000034988,-99.9999999986067));
#290= IFCCARTESIANPOINT((-1019.99999999271,10.0000000031346,100.000000001393));
#291= IFCCARTESIANPOINT((7.2868715506047E-09,10.0000000036023,100.000000001855));
#292= IFCCARTESIANPOINT((1020.00000000747,10.0000000042516,100.000000002299));
#293= IFCCARTESIANPOINT((1020.0000000072,10.0000000042516,-99.9999999977008));
#294= IFCPOLYLOOP((#288,#289,#290,#291,#292,#293));
#295= IFCFACEOUTERBOUND(#294,.T.);
#296= IFCFACE((#295));
#297= IFCCARTESIANPOINT((7.29778548702598E-09,-9.99999999639772,100.000000001819));
#298= IFCCARTESIANPOINT((-999.999999992702,-9.99999999685624,100.000000001364));
#299= IFCCARTESIANPOINT((-999.999999992615,-9.999999996492,-99.9999999986358));
#300= IFCCARTESIANPOINT((7.38509697839618E-09,-9.99999999603392,-99.999999998181));
#301= IFCCARTESIANPOINT((1000.0000000072,-9.99999999575752,-99.9999999977081));
#302= IFCCARTESIANPOINT((1000.00000000748,-9.99999999575752,100.000000002292));
#303= IFCPOLYLOOP((#297,#298,#299,#300,#301,#302));
#304= IFCFACEOUTERBOUND(#303,.T.);
#305= IFCFACE((#304));
#306= IFCCARTESIANPOINT((1020.00000000834,-2319.99999999593,99.9999999980719));
#307= IFCCARTESIANPOINT((1020.00000000843,-2319.99999999557,-100.000000001928));
#308= IFCPOLYLOOP((#293,#292,#306,#307));
#309= IFCFACEOUTERBOUND(#308,.T.);
#310= IFCFACE((#309));
#311= IFCCARTESIANPOINT((1000.00000000842,-2299.99999999557,-100.000000001899));
#312= IFCCARTESIANPOINT((1000.00000000833,-2299.99999999594,99.999999998101));
#313= IFCPOLYLOOP((#302,#301,#311,#312));
#314= IFCFACEOUTERBOUND(#313,.T.);
#315= IFCFACE((#314));
#316= IFCCARTESIANPOINT((52.0301245707305,-2319.99999999637,99.9999999976317));
#317= IFCCARTESIANPOINT((52.0301245708179,-2319.99999999601,-100.000000002368));
#318= IFCPOLYLOOP((#307,#306,#316,#317));
#319= IFCFACEOUTERBOUND(#318,.T.);
#320= IFCFACE((#319));
#321= IFCCARTESIANPOINT((63.5705992291332,-2299.999999996,-100.000000002325));
#322= IFCCARTESIANPOINT((63.5705992290459,-2299.99999999637,99.9999999976753));
#323= IFCPOLYLOOP((#312,#311,#321,#322));
#324= IFCFACEOUTERBOUND(#323,.T.);
#325= IFCFACE((#324));
#326= IFCCARTESIANPOINT((9.999828215241,-2247.28367957903,99.9999999977481));
#327= IFCCARTESIANPOINT((9.99982821532831,-2247.28367957866,-100.000000002252));
#328= IFCPOLYLOOP((#317,#316,#326,#327));
#329= IFCFACEOUTERBOUND(#328,.T.);
#330= IFCFACE((#329));
#331= IFCCARTESIANPOINT((-9.99982819857178,-2172.7163204134,-100.000000002128));
#332= IFCCARTESIANPOINT((-9.99982819865909,-2172.71632041377,99.9999999978718));
#333= IFCPOLYLOOP((#322,#321,#331,#332));
#334= IFCFACEOUTERBOUND(#333,.T.);
#335= IFCFACE((#334));
#336= IFCCARTESIANPOINT((9.99890665123166,-2447.28755581924,99.9999999973843));
#337= IFCCARTESIANPOINT((9.99890665132261,-2447.28755581889,-100.000000002616));
#338= IFCPOLYLOOP((#327,#326,#336,#337));
#339= IFCFACEOUTERBOUND(#338,.T.);
#340= IFCFACE((#339));
#341= IFCCARTESIANPOINT((-10.0007497625775,-2372.72019665362,-100.000000002492));
#342= IFCCARTESIANPOINT((-10.0007497626684,-2372.72019665398,99.999999997508));
#343= IFCPOLYLOOP((#332,#331,#341,#342));
#344= IFCFACEOUTERBOUND(#343,.T.);
#345= IFCFACE((#344));
#346= IFCCARTESIANPOINT((-63.573761257343,-2319.99999999643,99.9999999975807));
#347= IFCCARTESIANPOINT((-63.5737612572557,-2319.99999999606,-100.000000002419));
#348= IFCPOLYLOOP((#337,#336,#346,#347));
#349= IFCFACEOUTERBOUND(#348,.T.);
#350= IFCFACE((#349));
#351= IFCCARTESIANPOINT((-52.0332865989403,-2299.99999999606,-100.000000002376));
#352= IFCCARTESIANPOINT((-52.0332865990276,-2299.99999999642,99.9999999976244));
#353= IFCPOLYLOOP((#342,#341,#351,#352));
#354= IFCFACEOUTERBOUND(#353,.T.);
#355= IFCFACE((#354));
#356= IFCCARTESIANPOINT((-1019.99999999166,-2319.99999999686,99.9999999971478));
#357= IFCCARTESIANPOINT((-1019.99999999157,-2319.9999999965,-100.000000002852));
#358= IFCPOLYLOOP((#347,#346,#356,#357));
#359= IFCFACEOUTERBOUND(#358,.T.);
#360= IFCFACE((#359));
#361= IFCCARTESIANPOINT((-999.999999991582,-2299.99999999649,-100.000000002809));
#362= IFCCARTESIANPOINT((-999.999999991669,-2299.99999999686,99.9999999971915));
#363= IFCPOLYLOOP((#352,#351,#361,#362));
#364= IFCFACEOUTERBOUND(#363,.T.);
#365= IFCFACE((#364));
#366= IFCPOLYLOOP((#357,#356,#290,#289));
#367= IFCFACEOUTERBOUND(#366,.T.);
#368= IFCFACE((#367));
#369= IFCPOLYLOOP((#362,#361,#299,#298));
#370= IFCFACEOUTERBOUND(#369,.T.);
#371= IFCFACE((#370));
#372= IFCPOLYLOOP((#290,#356,#346,#336,#326,#316,#306,#292,#291));
#373= IFCFACEOUTERBOUND(#372,.T.);
#374= IFCPOLYLOOP((#302,#312,#322,#332,#342,#352,#362,#298,#297));
#375= IFCFACEBOUND(#374,.T.);
#376= IFCFACE((#373,#375));
#377= IFCPOLYLOOP((#293,#307,#317,#327,#337,#347,#357,#289,#288));
#378= IFCFACEOUTERBOUND(#377,.T.);
#379= IFCPOLYLOOP((#299,#361,#351,#341,#331,#321,#311,#301,#300));
#380= IFCFACEBOUND(#379,.T.);
#381= IFCFACE((#378,#380));
#382= IFCCLOSEDSHELL((#296,#305,#310,#315,#320,#325,#330,#335,#340,#345,#350,#355,#360,#365,#368,#371,#376,#381));
#383= IFCFACETEDBREP(#382);
#384= IFCSTYLEDITEM(#383,(#287),$);
#385= IFCSHAPEREPRESENTATION(#12,'Body','Brep',(#383));
#386= IFCPRODUCTDEFINITIONSHAPE($,$,(#385));
#387= IFCCARTESIANPOINT((21500.,31100.,-10.));
#388= IFCDIRECTION((0.,-1.,0.));
#389= IFCDIRECTION((-1.,0.,0.));
#390= IFCAXIS2PLACEMENT3D(#387,#388,#389);
#391= IFCLOCALPLACEMENT(#42,#390);
#392= IFCBEAM('2nFH54ci19lRQhC4RwYIsR',#44,'Ramme','PL200X20',$,#391,#386,'IDb13d1144-9ac0-49bd-b6ab-3046fa892d9b');
#393= IFCBEAMTYPE('2srFn204D1$9xlCAsZwpzk',#5,'PL200X20',$,$,$,$,$,$,.NOTDEFINED.);
#394= IFCPROPERTYSINGLEVALUE('Class',$,IFCLABEL('13'),$);
#395= IFCPROPERTYSINGLEVALUE('Top elevation',$,IFCLABEL(' +2.437'),$);
#396= IFCPROPERTYSINGLEVALUE('Bottom elevation',$,IFCLABEL(' -0.020'),$);
#397= IFCPROPERTYSET('0Wriaxb350kBGvyC7VkNb2',#5,'Tekla Common','Common Properties to Shared building elements',(#394,#113,#114,#115,#395,#396));
#398= IFCPROPERTYSINGLEVALUE('Length',$,IFCLENGTHMEASURE(8975.4),$);
#399= IFCPROPERTYSINGLEVALUE('Width',$,IFCLENGTHMEASURE(20.),$);
#400= IFCPROPERTYSINGLEVALUE('Height',$,IFCLENGTHMEASURE(200.),$);
#401= IFCPROPERTYSINGLEVALUE('Net surface area',$,IFCAREAMEASURE(3.949),$);
#402= IFCPROPERTYSINGLEVALUE('Area per tons',$,IFCAREAMEASURE(0.),$);
#403= IFCPROPERTYSINGLEVALUE('Volume',$,IFCVOLUMEMEASURE(0.036),$);
#404= IFCPROPERTYSINGLEVALUE('Weight',$,IFCMASSMEASURE(0.),$);
#405= IFCPROPERTYSET('2anpvKrYr8$eigsZI52CZB',#5,'Tekla Quantity','Quantity Properties to Shared building elements',(#398,#399,#400,#401,#402,#124,#403,#404));
#406= IFCPROPERTYSINGLEVALUE('OuterSurfaceArea',$,IFCAREAMEASURE(3.9),$);
#407= IFCPROPERTYSINGLEVALUE('NetWeight',$,IFCMASSMEASURE(0.),$);
#408= IFCPROPERTYSET('1El5RVQuj4e83HGgQfP9KH',#5,'BeamBaseQuantities',$,(#398,#406,#277,#407));
#409= IFCPROPERTYSINGLEVALUE('Slope',$,IFCPLANEANGLEMEASURE(0.),$);
#410= IFCPROPERTYSET('1eSzHWamf78QktCmD4HdbS',#5,'Pset_BeamCommon','Definition from IAI: Properties common to the definition of all occurrences of IfcBeam.',(#132,#280,#409,#138,#139,#134));
#411= IFCMATERIAL('MISCELLANEOUS/Misc_Undefined');
#412= IFCRELAGGREGATES('3S8rYYud1DTf6grPGgclUj',#5,$,$,#36,(#38));
#413= IFCRELAGGREGATES('2x6dy55LD0ZfLsUUfXFkJC',#5,$,$,#38,(#41));
#414= IFCRELAGGREGATES('0KwTHEm2X5XepfvZqPEew$',#5,$,$,#41,(#43));
#415= IFCRELCONTAINEDINSPATIALSTRUCTURE('392XX3HQbAf9Syi_XvFbhi',#5,$,$,(#392,#262,#187,#110),#43);
#416= IFCRELDEFINESBYPROPERTIES('1GCMgDKHT75QlihdKE0Hyu',#5,$,$,(#110),#118);
#417= IFCRELDEFINESBYPROPERTIES('3yuIeELIn0rfa1tdrRZjKR',#5,$,$,(#110),#127);
#418= IFCRELDEFINESBYPROPERTIES('1i$cwJGRfAExNoP1tyv4IW',#5,$,$,(#110),#131);
#419= IFCRELDEFINESBYPROPERTIES('1VfoCBMPfDmfZXJBe_8rnA',#5,$,$,(#110),#142);
#420= IFCRELDEFINESBYPROPERTIES('3JV4H47rbAo8$xe1VExpuM',#5,$,$,(#187),#191);
#421= IFCRELDEFINESBYPROPERTIES('0iJkH_JRjAFRDiRTDhp2z_',#5,$,$,(#187),#198);
#422= IFCRELDEFINESBYPROPERTIES('3lkUMCRgf5NxHgFIo8qUUI',#5,$,$,(#187),#200);
#423= IFCRELDEFINESBYPROPERTIES('26ZEASuT95BfCJ1Elh86U$',#5,$,$,(#187),#201);
#424= IFCRELDEFINESBYPROPERTIES('1PXf_4MH17wwH_3OzTrsTX',#5,$,$,(#262),#267);
#425= IFCRELDEFINESBYPROPERTIES('0Cywn53Uz1YBeTarpVzu75',#5,$,$,(#262),#275);
#426= IFCRELDEFINESBYPROPERTIES('0Z1o$FJCT8DRc2LROsgRZZ',#5,$,$,(#262),#279);
#427= IFCRELDEFINESBYPROPERTIES('0fL4_VTSfC9RIJRixTQKr1',#5,$,$,(#262),#282);
#428= IFCRELDEFINESBYPROPERTIES('34UPl2bqjAjOkbx0hYZRtD',#5,$,$,(#392),#397);
#429= IFCRELDEFINESBYPROPERTIES('3jKAiqzxTCyQmrRCXxIjE7',#5,$,$,(#392),#405);
#430= IFCRELDEFINESBYPROPERTIES('0wjUB7fmD83eLvKucaA1xE',#5,$,$,(#392),#408);
#431= IFCRELDEFINESBYPROPERTIES('2CHve85pr4XBUivfyH1U3f',#5,$,$,(#392),#410);
#432= IFCRELDEFINESBYTYPE('2wUSL6_TX1JQe8LrKJmx9S',#5,$,$,(#110),#111);
#433= IFCRELDEFINESBYTYPE('3XHOfrhUP5N8TSzpsYn4RC',#5,$,$,(#187),#188);
#434= IFCRELDEFINESBYTYPE('1cZl$whnj0nBIkOXMYVUWO',#5,$,$,(#262),#263);
#435= IFCRELDEFINESBYTYPE('1qPjCVd8XBKenboHYe_xXI',#5,$,$,(#392),#393);
#436= IFCRELASSOCIATESMATERIAL('2EVaF_OGPF9uxfTxP5nN$p',#5,$,$,(#187,#110),#143);
#437= IFCRELASSOCIATESMATERIAL('1rZWhTS1j0kg2truAYr7dV',#5,$,$,(#262),#283);
#438= IFCRELASSOCIATESMATERIAL('1dcOLovxD7Vx$UltmnSkSC',#5,$,$,(#392),#411);
#439= IFCPRESENTATIONLAYERASSIGNMENT('Kantbjelke',$,(#103),$);
#440= IFCPRESENTATIONLAYERASSIGNMENT('Bruplate',$,(#180),$);
#441= IFCPRESENTATIONLAYERASSIGNMENT('Nivelleringsbolt',$,(#255),$);
#442= IFCPRESENTATIONLAYERASSIGNMENT('Ramme',$,(#385),$);
ENDSEC;

END-ISO-10303-21;
