ISO-10303-21;
HEADER;
FILE_DESCRIPTION(('ViewDefinition[CoordinationView_V2.0]', 'ExchangeRequirement[Structural, SurfaceGeometry]', 'Option [GridExport:Off]', 'Option [Assemblies:Off]', 'Option [Bolts:On]', 'Option [Rebars:On]', 'Option [PourObjects:Off]', 'Option [Welds:Off]', 'Option [SurfaceTreatments:Off]', 'Option [LocationBy:0]', 'Option [ViewColors:On]', 'Option [SectionedSpine:Off]', 'Option [PropertySets:On]', 'Option [Export all:Off]'),'2;1');
FILE_NAME('SNACKS_Detalj_Tilslutning_Kantbjelke.ifc','2026-08-26T15:52:38',('SWECO\\NOULVE'),('Structural Designer'),'IFC Parser','Tekla Structures 2025 Service Pack 7, IFC Export Version: 4.0.0.0 Feb 24 2026','');
FILE_SCHEMA(('IFC2X3'));
ENDSEC;

DATA;
#1= IFCPERSON('SWECO\\NOULVE','Undefined',$,$,$,$,$,$);
#2= IFCORGANIZATION($,'Trimble Solutions Corporation',$,$,$);
#3= IFCPERSONANDORGANIZATION(#1,#2,$);
#4= IFCAPPLICATION(#2,'2025 Service Pack 7','Tekla Structures','Multi material modeling');
#5= IFCOWNERHISTORY(#3,#4,$,.NOCHANGE.,$,$,$,1787752358);
#6= IFCCARTESIANPOINT((0.,0.,0.));
#7= IFCDIRECTION((1.,0.,0.));
#8= IFCDIRECTION((0.,1.,0.));
#9= IFCDIRECTION((0.,0.,1.));
#10= IFCAXIS2PLACEMENT3D(#6,#9,#7);
#11= IFCGEOMETRICREPRESENTATIONCONTEXT($,'Model',3,1.E-05,#10,$);
#12= IFCGEOMETRICREPRESENTATIONSUBCONTEXT('Body','Model',*,*,*,*,#11,$,.MODEL_VIEW.,$);
#13= IFCGEOMETRICREPRESENTATIONSUBCONTEXT('Axis','Model',*,*,*,*,#11,$,.GRAPH_VIEW.,$);
#14= IFCSIUNIT(*,.LENGTHUNIT.,.MILLI.,.METRE.);
#15= IFCMEASUREWITHUNIT(IFCRATIOMEASURE(304.8),#14);
#16= IFCDIMENSIONALEXPONENTS(1,0,0,0,0,0,0);
#17= IFCCONVERSIONBASEDUNIT(#16,.LENGTHUNIT.,'FOOT',#15);
#18= IFCSIUNIT(*,.AREAUNIT.,$,.SQUARE_METRE.);
#19= IFCMEASUREWITHUNIT(IFCRATIOMEASURE(0.09290304),#18);
#20= IFCDIMENSIONALEXPONENTS(2,0,0,0,0,0,0);
#21= IFCCONVERSIONBASEDUNIT(#20,.AREAUNIT.,'SQUARE FOOT',#19);
#22= IFCSIUNIT(*,.VOLUMEUNIT.,$,.CUBIC_METRE.);
#23= IFCMEASUREWITHUNIT(IFCRATIOMEASURE(0.028316846592),#22);
#24= IFCDIMENSIONALEXPONENTS(3,0,0,0,0,0,0);
#25= IFCCONVERSIONBASEDUNIT(#24,.VOLUMEUNIT.,'CUBIC FOOT',#23);
#26= IFCSIUNIT(*,.MASSUNIT.,.KILO.,.GRAM.);
#27= IFCSIUNIT(*,.TIMEUNIT.,$,.SECOND.);
#28= IFCSIUNIT(*,.PLANEANGLEUNIT.,$,.RADIAN.);
#29= IFCMEASUREWITHUNIT(IFCRATIOMEASURE(0.0174532925199433),#28);
#30= IFCDIMENSIONALEXPONENTS(0,0,0,0,0,0,0);
#31= IFCCONVERSIONBASEDUNIT(#30,.PLANEANGLEUNIT.,'DEGREE',#29);
#32= IFCSIUNIT(*,.SOLIDANGLEUNIT.,$,.STERADIAN.);
#33= IFCSIUNIT(*,.THERMODYNAMICTEMPERATUREUNIT.,$,.DEGREE_CELSIUS.);
#34= IFCSIUNIT(*,.LUMINOUSINTENSITYUNIT.,$,.LUMEN.);
#35= IFCUNITASSIGNMENT((#14,#18,#22,#26,#27,#28,#32,#33,#34));
#36= IFCPROJECT('2YG0JLJLPAvRd9NM8hMiC$',#5,'Trimble',$,$,$,$,(#11),#35);
#37= IFCLOCALPLACEMENT($,#10);
#38= IFCSITE('0cHbuZ7tTAAARUvYnq2GoH',#5,'Undefined',$,$,#37,$,$,.ELEMENT.,$,$,$,$,$);
#39= IFCPOSTALADDRESS($,' ',$,' ',$,' ',' ',' ',' ',' ');
#40= IFCLOCALPLACEMENT(#37,#10);
#41= IFCBUILDING('2cH2Ye1ODFPROjgJsPA4pC',#5,'Undefined',$,$,#40,$,$,.ELEMENT.,$,$,#39);
#42= IFCLOCALPLACEMENT(#40,#10);
#43= IFCBUILDINGSTOREY('09Zmb6wqH33AoobR5q1mOS',#5,'Undefined',$,$,#42,$,$,.ELEMENT.,0.);
#44= IFCOWNERHISTORY(#3,#4,$,.NOCHANGE.,$,$,$,1787756400);
#45= IFCCOLOURRGB('Unnamed',0.63921568627451,0.733333333333333,0.76078431372549);
#46= IFCSURFACESTYLERENDERING(#45,0.,$,$,$,$,IFCNORMALISEDRATIOMEASURE(0.00390625),IFCSPECULAREXPONENT(10.),.NOTDEFINED.);
#47= IFCSURFACESTYLE('MISCELLANEOUS/Misc_Undefined',.POSITIVE.,(#46));
#48= IFCPRESENTATIONSTYLEASSIGNMENT((#47));
#49= IFCCARTESIANPOINT((-1.00044417195022E-11,-99.9999999998254,-5.82076609134674E-11));
#50= IFCCARTESIANPOINT((-15.5893511253676,-100.000000000618,779.059416677244));
#51= IFCCARTESIANPOINT((-15.5893511253482,99.9999999990359,779.059416677361));
#52= IFCCARTESIANPOINT((9.32232069317251E-12,99.999999999829,6.00266503170133E-11));
#53= IFCPOLYLOOP((#49,#50,#51,#52));
#54= IFCFACEOUTERBOUND(#53,.T.);
#55= IFCFACE((#54));
#56= IFCCARTESIANPOINT((24.4106431571347,-100.000000000651,779.059360629879));
#57= IFCCARTESIANPOINT((24.410643157154,99.9999999989996,779.059360629997));
#58= IFCPOLYLOOP((#50,#56,#57,#51));
#59= IFCFACEOUTERBOUND(#58,.T.);
#60= IFCFACE((#59));
#61= IFCCARTESIANPOINT((40.0042941365875,-99.9999999998618,-4.18367562815547E-11));
#62= IFCCARTESIANPOINT((40.0042941366066,99.999999999789,7.6397554948926E-11));
#63= IFCPOLYLOOP((#56,#61,#62,#57));
#64= IFCFACEOUTERBOUND(#63,.T.);
#65= IFCFACE((#64));
#66= IFCPOLYLOOP((#61,#49,#52,#62));
#67= IFCFACEOUTERBOUND(#66,.T.);
#68= IFCFACE((#67));
#69= IFCPOLYLOOP((#57,#62,#52,#51));
#70= IFCFACEOUTERBOUND(#69,.T.);
#71= IFCFACE((#70));
#72= IFCPOLYLOOP((#61,#56,#50,#49));
#73= IFCFACEOUTERBOUND(#72,.T.);
#74= IFCFACE((#73));
#75= IFCCLOSEDSHELL((#55,#60,#65,#68,#71,#74));
#76= IFCFACETEDBREP(#75);
#77= IFCSTYLEDITEM(#76,(#48),$);
#78= IFCSHAPEREPRESENTATION(#12,'Body','Brep',(#76));
#79= IFCPRODUCTDEFINITIONSHAPE($,$,(#78));
#80= IFCCARTESIANPOINT((9220.93677519907,31099.978565276,1350.04768179616));
#81= IFCDIRECTION((0.999999999270435,3.81729997934599E-05,1.39741023508577E-06));
#82= IFCDIRECTION((1.37700000229968E-06,0.000534672000031092,-0.999999857061968));
#83= IFCAXIS2PLACEMENT3D(#80,#81,#82);
#84= IFCLOCALPLACEMENT(#42,#83);
#85= IFCPLATE('2GwN0GufPDyRzvS$9frmkE',#44,'Asfaltdekker_slitelag','PL200X40',$,#84,#79,'ID90e97010-e296-4df1-bf79-73f269d70b8e');
#86= IFCPLATETYPE('31y$FHfNP6mPsbYLVUf2JQ',#5,'PL200X40',$,$,$,$,$,$,.NOTDEFINED.);
#87= IFCMATERIAL('MISCELLANEOUS/Misc_Undefined');
#88= IFCCOLOURRGB('Unnamed',0.490196078431373,0.623529411764706,0.666666666666667);
#89= IFCSURFACESTYLERENDERING(#88,0.,$,$,$,$,IFCNORMALISEDRATIOMEASURE(0.00390625),IFCSPECULAREXPONENT(10.),.NOTDEFINED.);
#90= IFCSURFACESTYLE('MISCELLANEOUS/Misc_Undefined',.POSITIVE.,(#89));
#91= IFCPRESENTATIONSTYLEASSIGNMENT((#90));
#92= IFCFACETEDBREP(#75);
#93= IFCSTYLEDITEM(#92,(#91),$);
#94= IFCSHAPEREPRESENTATION(#12,'Body','Brep',(#92));
#95= IFCPRODUCTDEFINITIONSHAPE($,$,(#94));
#96= IFCCARTESIANPOINT((9220.93677519907,31099.978565276,1310.04768179615));
#97= IFCAXIS2PLACEMENT3D(#96,#81,#82);
#98= IFCLOCALPLACEMENT(#42,#97);
#99= IFCPLATE('1QHlFi85XAnxkvuvugD$RW',#44,'Asfaltdekker_bindlag','PL200X40',$,#98,#95,'ID5a46f3ec-2058-4ac7-bbb9-e39e2a37f6e0');
#100= IFCCOLOURRGB('Unnamed',0.333333333333333,1.,0.333333333333333);
#101= IFCSURFACESTYLERENDERING(#100,0.,$,$,$,$,IFCNORMALISEDRATIOMEASURE(0.00390625),IFCSPECULAREXPONENT(10.),.NOTDEFINED.);
#102= IFCSURFACESTYLE('MISCELLANEOUS/Misc_Undefined',.POSITIVE.,(#101));
#103= IFCPRESENTATIONSTYLEASSIGNMENT((#102));
#104= IFCCARTESIANPOINT((9.59538006414141,-99.9999999999673,20.0007235534467));
#105= IFCCARTESIANPOINT((9.59538006413527,99.9999999999491,20.0007235535286));
#106= IFCPOLYLOOP((#49,#104,#105,#52));
#107= IFCFACEOUTERBOUND(#106,.T.);
#108= IFCFACE((#107));
#109= IFCCARTESIANPOINT((89.5956676274313,-99.9999999999673,20.0000135409755));
#110= IFCCARTESIANPOINT((89.5956676274252,99.9999999999527,20.0000135410573));
#111= IFCPOLYLOOP((#104,#109,#110,#105));
#112= IFCFACEOUTERBOUND(#111,.T.);
#113= IFCFACE((#112));
#114= IFCCARTESIANPOINT((89.9999853375543,-99.9999999999563,-4.72937244921923E-11));
#115= IFCCARTESIANPOINT((89.9999853375482,99.9999999999636,3.45607986673713E-11));
#116= IFCPOLYLOOP((#109,#114,#115,#110));
#117= IFCFACEOUTERBOUND(#116,.T.);
#118= IFCFACE((#117));
#119= IFCPOLYLOOP((#114,#49,#52,#115));
#120= IFCFACEOUTERBOUND(#119,.T.);
#121= IFCFACE((#120));
#122= IFCPOLYLOOP((#110,#115,#52,#105));
#123= IFCFACEOUTERBOUND(#122,.T.);
#124= IFCFACE((#123));
#125= IFCPOLYLOOP((#114,#109,#104,#49));
#126= IFCFACEOUTERBOUND(#125,.T.);
#127= IFCFACE((#126));
#128= IFCCLOSEDSHELL((#108,#113,#118,#121,#124,#127));
#129= IFCFACETEDBREP(#128);
#130= IFCSTYLEDITEM(#129,(#103),$);
#131= IFCSHAPEREPRESENTATION(#12,'Body','Brep',(#129));
#132= IFCPRODUCTDEFINITIONSHAPE($,$,(#131));
#133= IFCCARTESIANPOINT((9201.04677325827,31099.9999111181,1359.58957654999));
#134= IFCDIRECTION((0.999999428142477,-0.00106941500015455,8.14099535182322E-06));
#135= IFCDIRECTION((8.14100000697367E-06,0.,-0.999999999966862));
#136= IFCAXIS2PLACEMENT3D(#133,#134,#135);
#137= IFCLOCALPLACEMENT(#42,#136);
#138= IFCPLATE('21N4bR7RjA4w9rGHFdOIyp',#44,'Topeka','PL200X20',$,#137,#132,'ID815c495b-1dbb-4a13-a275-4113e7612f33');
#139= IFCPLATETYPE('3y0fRjehb9vw0XVLvUZz6n',#5,'PL200X20',$,$,$,$,$,$,.NOTDEFINED.);
#140= IFCCARTESIANPOINT((-15.9874147246931,-100.000000001157,799.059575867002));
#141= IFCCARTESIANPOINT((-15.9874147246721,99.9999999988941,799.059575866999));
#142= IFCPOLYLOOP((#49,#140,#141,#52));
#143= IFCFACEOUTERBOUND(#142,.T.);
#144= IFCFACE((#143));
#145= IFCCARTESIANPOINT((-3.98741472526444,-100.000000001153,799.059461028908));
#146= IFCCARTESIANPOINT((-3.98741472524353,99.9999999988977,799.059461028906));
#147= IFCPOLYLOOP((#140,#145,#146,#141));
#148= IFCFACEOUTERBOUND(#147,.T.);
#149= IFCFACE((#148));
#150= IFCCARTESIANPOINT((11.9997069576373,-100.000000000015,-3.63797880709171E-12));
#151= IFCCARTESIANPOINT((11.9997069576582,100.00000000004,-7.27595761418343E-12));
#152= IFCPOLYLOOP((#145,#150,#151,#146));
#153= IFCFACEOUTERBOUND(#152,.T.);
#154= IFCFACE((#153));
#155= IFCPOLYLOOP((#150,#49,#52,#151));
#156= IFCFACEOUTERBOUND(#155,.T.);
#157= IFCFACE((#156));
#158= IFCPOLYLOOP((#146,#151,#52,#141));
#159= IFCFACEOUTERBOUND(#158,.T.);
#160= IFCFACE((#159));
#161= IFCPOLYLOOP((#150,#145,#140,#49));
#162= IFCFACEOUTERBOUND(#161,.T.);
#163= IFCFACE((#162));
#164= IFCCLOSEDSHELL((#144,#149,#154,#157,#160,#163));
#165= IFCFACETEDBREP(#164);
#166= IFCSTYLEDITEM(#165,(#103),$);
#167= IFCSHAPEREPRESENTATION(#12,'Body','Brep',(#165));
#168= IFCPRODUCTDEFINITIONSHAPE($,$,(#167));
#169= IFCCARTESIANPOINT((9200.94056388171,31099.9999683006,1269.58951833233));
#170= IFCDIRECTION((0.999999999954208,5.00000169267878E-09,9.57000000812514E-06));
#171= IFCDIRECTION((9.5700000116246E-06,-7.19999963809626E-07,-0.999999999953948));
#172= IFCAXIS2PLACEMENT3D(#169,#170,#171);
#173= IFCLOCALPLACEMENT(#42,#172);
#174= IFCPLATE('2xp039zhz6UhOm$SkCj7Ri',#44,'Topeka','PL200X12',$,#173,#168,'IDbbcc00c9-f6bf-467a-b630-fdcb8cb476ec');
#175= IFCPLATETYPE('34RXRS2RLFuvxP9IApCIXz',#5,'PL200X12',$,$,$,$,$,$,.NOTDEFINED.);
#176= IFCCOLOURRGB('Unnamed',0.945098039215686,0.741176470588235,0.0392156862745098);
#177= IFCSURFACESTYLERENDERING(#176,0.,$,$,$,$,IFCNORMALISEDRATIOMEASURE(0.00390625),IFCSPECULAREXPONENT(10.),.NOTDEFINED.);
#178= IFCSURFACESTYLE('MISCELLANEOUS/Misc_Undefined',.POSITIVE.,(#177));
#179= IFCPRESENTATIONSTYLEASSIGNMENT((#178));
#180= IFCCARTESIANPOINT((2.34649633057415E-10,-1.49999999999841,-100.000000000116));
#181= IFCCARTESIANPOINT((2.89219315163791E-10,-1.50000000000182,100.000000000106));
#182= IFCCARTESIANPOINT((-2.38287611864507E-10,1.49999999999841,100.000000000109));
#183= IFCCARTESIANPOINT((-2.92857293970883E-10,1.50000000000159,-100.000000000109));
#184= IFCPOLYLOOP((#180,#181,#182,#183));
#185= IFCFACEOUTERBOUND(#184,.T.);
#186= IFCFACE((#185));
#187= IFCCARTESIANPOINT((802.229786563124,1.5000001413141,100.000000000153));
#188= IFCCARTESIANPOINT((802.229786563121,1.50000014131729,-100.000000000065));
#189= IFCPOLYLOOP((#183,#182,#187,#188));
#190= IFCFACEOUTERBOUND(#189,.T.);
#191= IFCFACE((#190));
#192= IFCCARTESIANPOINT((799.169173653047,-1.49999985922182,-100.000000000069));
#193= IFCCARTESIANPOINT((799.16917365305,-1.49999985922477,100.000000000149));
#194= IFCPOLYLOOP((#181,#180,#192,#193));
#195= IFCFACEOUTERBOUND(#194,.T.);
#196= IFCFACE((#195));
#197= IFCCARTESIANPOINT((798.718745163473,-174.014873087586,100.000000000018));
#198= IFCCARTESIANPOINT((798.718745163407,-174.014873087634,-100.0000000002));
#199= IFCPOLYLOOP((#188,#187,#197,#198));
#200= IFCFACEOUTERBOUND(#199,.T.);
#201= IFCFACE((#200));
#202= IFCCARTESIANPOINT((795.719345237723,-173.954872375854,100.000000000018));
#203= IFCPOLYLOOP((#187,#182,#181,#193,#202,#197));
#204= IFCFACEOUTERBOUND(#203,.T.);
#205= IFCFACE((#204));
#206= IFCCARTESIANPOINT((795.719345237658,-173.954872375902,-100.0000000002));
#207= IFCPOLYLOOP((#193,#192,#206,#202));
#208= IFCFACEOUTERBOUND(#207,.T.);
#209= IFCFACE((#208));
#210= IFCPOLYLOOP((#192,#180,#183,#188,#198,#206));
#211= IFCFACEOUTERBOUND(#210,.T.);
#212= IFCFACE((#211));
#213= IFCPOLYLOOP((#202,#206,#198,#197));
#214= IFCFACEOUTERBOUND(#213,.T.);
#215= IFCFACE((#214));
#216= IFCCLOSEDSHELL((#186,#191,#196,#201,#205,#209,#212,#215));
#217= IFCFACETEDBREP(#216);
#218= IFCSTYLEDITEM(#217,(#179),$);
#219= IFCSHAPEREPRESENTATION(#12,'Body','Brep',(#217));
#220= IFCPRODUCTDEFINITIONSHAPE($,$,(#219));
#221= IFCCARTESIANPOINT((9999.97996759545,31099.9999759458,1272.07544719132));
#222= IFCDIRECTION((3.20548095260165E-07,-0.999999999871564,-1.6024009037892E-05));
#223= IFCDIRECTION((-0.999799975254921,0.,-0.0200002370050996));
#224= IFCAXIS2PLACEMENT3D(#221,#222,#223);
#225= IFCLOCALPLACEMENT(#42,#224);
#226= IFCBEAM('1gxH3Ps1T878O1UZhRc3cx',#44,'C60BP2','PL3X200',$,#225,#220,'ID6aed10d9-d817-481c-8601-7a3adb9839bb');
#227= IFCBEAMTYPE('1IXke3SpDAxf7dxczMhkDC',#5,'PL3X200',$,$,$,$,$,$,.NOTDEFINED.);
#228= IFCCOLOURRGB('Unnamed',0.654901960784314,0.654901960784314,0.654901960784314);
#229= IFCSURFACESTYLERENDERING(#228,0.,$,$,$,$,IFCNORMALISEDRATIOMEASURE(0.00390625),IFCSPECULAREXPONENT(10.),.NOTDEFINED.);
#230= IFCSURFACESTYLE('CONCRETE/B45_SV_Standard',.POSITIVE.,(#229));
#231= IFCPRESENTATIONSTYLEASSIGNMENT((#230));
#232= IFCCARTESIANPOINT((-802.072060209961,-100.,-15.9072527353221));
#233= IFCCARTESIANPOINT((-802.072060209961,100.,-15.9072527353221));
#234= IFCPOLYLOOP((#49,#232,#233,#52));
#235= IFCFACEOUTERBOUND(#234,.T.);
#236= IFCFACE((#235));
#237= IFCCARTESIANPOINT((-801.998636180724,-100.,412.287396367323));
#238= IFCCARTESIANPOINT((-801.998636180724,100.,412.287396367323));
#239= IFCPOLYLOOP((#232,#237,#238,#233));
#240= IFCFACEOUTERBOUND(#239,.T.);
#241= IFCFACE((#240));
#242= IFCCARTESIANPOINT((30.0700246931683,-100.,349.99473773172));
#243= IFCCARTESIANPOINT((30.0700246931683,100.,349.99473773172));
#244= IFCPOLYLOOP((#237,#242,#243,#238));
#245= IFCFACEOUTERBOUND(#244,.T.);
#246= IFCFACE((#245));
#247= IFCCARTESIANPOINT((30.0068830148466,-100.,2.95585778076202E-12));
#248= IFCCARTESIANPOINT((30.0068830148466,100.,2.95585778076202E-12));
#249= IFCPOLYLOOP((#242,#247,#248,#243));
#250= IFCFACEOUTERBOUND(#249,.T.);
#251= IFCFACE((#250));
#252= IFCPOLYLOOP((#247,#49,#52,#248));
#253= IFCFACEOUTERBOUND(#252,.T.);
#254= IFCFACE((#253));
#255= IFCPOLYLOOP((#238,#243,#248,#52,#233));
#256= IFCFACEOUTERBOUND(#255,.T.);
#257= IFCFACE((#256));
#258= IFCPOLYLOOP((#247,#242,#237,#232,#49));
#259= IFCFACEOUTERBOUND(#258,.T.);
#260= IFCFACE((#259));
#261= IFCCLOSEDSHELL((#236,#241,#246,#251,#254,#257,#260));
#262= IFCFACETEDBREP(#261);
#263= IFCSTYLEDITEM(#262,(#231),$);
#264= IFCSHAPEREPRESENTATION(#12,'Body','Brep',(#262));
#265= IFCPRODUCTDEFINITIONSHAPE($,$,(#264));
#266= IFCCARTESIANPOINT((9197.94067925729,31100.,1254.52935862478));
#267= IFCDIRECTION((0.000171473000049446,0.,-0.999999985298505));
#268= IFCDIRECTION((-0.999999985298505,0.,-0.000171473000048789));
#269= IFCAXIS2PLACEMENT3D(#266,#267,#268);
#270= IFCLOCALPLACEMENT(#42,#269);
#271= IFCSLAB('0GMrnoYH53rQWv0VQaG2Dh',#44,'Bruplate','200X427',$,#270,#265,'ID105b5c72-8911-43d5-a839-01f6a440236b',.NOTDEFINED.);
#272= IFCSLABTYPE('0B3awUVwf49BZVsYDc6N1b',#5,'200X427',$,$,$,$,$,$,.NOTDEFINED.);
#273= IFCMATERIAL('CONCRETE/B45_SV_Standard');
#274= IFCCOLOURRGB('Unnamed',0.,0.,0.);
#275= IFCSURFACESTYLERENDERING(#274,0.,$,$,$,$,IFCNORMALISEDRATIOMEASURE(0.00390625),IFCSPECULAREXPONENT(10.),.NOTDEFINED.);
#276= IFCSURFACESTYLE('MISCELLANEOUS/Misc_Undefined',.POSITIVE.,(#275));
#277= IFCPRESENTATIONSTYLEASSIGNMENT((#276));
#278= IFCCARTESIANPOINT((0.,10.,-100.));
#279= IFCCARTESIANPOINT((-1020.,10.,-100.));
#280= IFCCARTESIANPOINT((-1020.,10.,100.));
#281= IFCCARTESIANPOINT((0.,10.,100.));
#282= IFCCARTESIANPOINT((1020.,10.,100.));
#283= IFCCARTESIANPOINT((1020.,10.,-100.));
#284= IFCPOLYLOOP((#278,#279,#280,#281,#282,#283));
#285= IFCFACEOUTERBOUND(#284,.T.);
#286= IFCFACE((#285));
#287= IFCCARTESIANPOINT((0.,-10.,100.));
#288= IFCCARTESIANPOINT((-1000.,-10.,100.));
#289= IFCCARTESIANPOINT((-1000.,-10.,-100.));
#290= IFCCARTESIANPOINT((0.,-10.,-100.));
#291= IFCCARTESIANPOINT((1000.,-10.,-100.));
#292= IFCCARTESIANPOINT((1000.,-10.,100.));
#293= IFCPOLYLOOP((#287,#288,#289,#290,#291,#292));
#294= IFCFACEOUTERBOUND(#293,.T.);
#295= IFCFACE((#294));
#296= IFCCARTESIANPOINT((1020.,-2320.,100.));
#297= IFCCARTESIANPOINT((1020.,-2320.,-100.));
#298= IFCPOLYLOOP((#283,#282,#296,#297));
#299= IFCFACEOUTERBOUND(#298,.T.);
#300= IFCFACE((#299));
#301= IFCCARTESIANPOINT((1000.,-2300.,-100.));
#302= IFCCARTESIANPOINT((1000.,-2300.,100.));
#303= IFCPOLYLOOP((#292,#291,#301,#302));
#304= IFCFACEOUTERBOUND(#303,.T.);
#305= IFCFACE((#304));
#306= IFCCARTESIANPOINT((52.0301245623905,-2320.,100.));
#307= IFCCARTESIANPOINT((52.0301245623905,-2320.,-100.));
#308= IFCPOLYLOOP((#297,#296,#306,#307));
#309= IFCFACEOUTERBOUND(#308,.T.);
#310= IFCFACE((#309));
#311= IFCCARTESIANPOINT((63.5705992207149,-2300.,-100.));
#312= IFCCARTESIANPOINT((63.5705992207149,-2300.,100.));
#313= IFCPOLYLOOP((#302,#301,#311,#312));
#314= IFCFACEOUTERBOUND(#313,.T.);
#315= IFCFACE((#314));
#316= IFCCARTESIANPOINT((9.99982820693185,-2247.28367958263,100.));
#317= IFCCARTESIANPOINT((9.99982820693185,-2247.28367958263,-100.));
#318= IFCPOLYLOOP((#307,#306,#316,#317));
#319= IFCFACEOUTERBOUND(#318,.T.);
#320= IFCFACE((#319));
#321= IFCCARTESIANPOINT((-9.99982820693185,-2172.71632041737,-100.));
#322= IFCCARTESIANPOINT((-9.99982820693185,-2172.71632041737,100.));
#323= IFCPOLYLOOP((#312,#311,#321,#322));
#324= IFCFACEOUTERBOUND(#323,.T.);
#325= IFCFACE((#324));
#326= IFCCARTESIANPOINT((9.99890664283703,-2447.28755582285,100.));
#327= IFCCARTESIANPOINT((9.99890664283703,-2447.28755582285,-100.));
#328= IFCPOLYLOOP((#317,#316,#326,#327));
#329= IFCFACEOUTERBOUND(#328,.T.);
#330= IFCFACE((#329));
#331= IFCCARTESIANPOINT((-10.0007497710285,-2372.72019665758,-100.));
#332= IFCCARTESIANPOINT((-10.0007497710285,-2372.72019665758,100.));
#333= IFCPOLYLOOP((#322,#321,#331,#332));
#334= IFCFACEOUTERBOUND(#333,.T.);
#335= IFCFACE((#334));
#336= IFCCARTESIANPOINT((-63.5737612656831,-2320.,100.));
#337= IFCCARTESIANPOINT((-63.5737612656831,-2320.,-100.));
#338= IFCPOLYLOOP((#327,#326,#336,#337));
#339= IFCFACEOUTERBOUND(#338,.T.);
#340= IFCFACE((#339));
#341= IFCCARTESIANPOINT((-52.0332866073586,-2300.,-100.));
#342= IFCCARTESIANPOINT((-52.0332866073586,-2300.,100.));
#343= IFCPOLYLOOP((#332,#331,#341,#342));
#344= IFCFACEOUTERBOUND(#343,.T.);
#345= IFCFACE((#344));
#346= IFCCARTESIANPOINT((-1020.,-2320.,100.));
#347= IFCCARTESIANPOINT((-1020.,-2320.,-100.));
#348= IFCPOLYLOOP((#337,#336,#346,#347));
#349= IFCFACEOUTERBOUND(#348,.T.);
#350= IFCFACE((#349));
#351= IFCCARTESIANPOINT((-1000.,-2300.,-100.));
#352= IFCCARTESIANPOINT((-1000.,-2300.,100.));
#353= IFCPOLYLOOP((#342,#341,#351,#352));
#354= IFCFACEOUTERBOUND(#353,.T.);
#355= IFCFACE((#354));
#356= IFCPOLYLOOP((#347,#346,#280,#279));
#357= IFCFACEOUTERBOUND(#356,.T.);
#358= IFCFACE((#357));
#359= IFCPOLYLOOP((#352,#351,#289,#288));
#360= IFCFACEOUTERBOUND(#359,.T.);
#361= IFCFACE((#360));
#362= IFCPOLYLOOP((#280,#346,#336,#326,#316,#306,#296,#282,#281));
#363= IFCFACEOUTERBOUND(#362,.T.);
#364= IFCPOLYLOOP((#292,#302,#312,#322,#332,#342,#352,#288,#287));
#365= IFCFACEBOUND(#364,.T.);
#366= IFCFACE((#363,#365));
#367= IFCPOLYLOOP((#283,#297,#307,#317,#327,#337,#347,#279,#278));
#368= IFCFACEOUTERBOUND(#367,.T.);
#369= IFCPOLYLOOP((#289,#351,#341,#331,#321,#311,#301,#291,#290));
#370= IFCFACEBOUND(#369,.T.);
#371= IFCFACE((#368,#370));
#372= IFCCLOSEDSHELL((#286,#295,#300,#305,#310,#315,#320,#325,#330,#335,#340,#345,#350,#355,#358,#361,#366,#371));
#373= IFCFACETEDBREP(#372);
#374= IFCSTYLEDITEM(#373,(#277),$);
#375= IFCSHAPEREPRESENTATION(#12,'Body','Brep',(#373));
#376= IFCPRODUCTDEFINITIONSHAPE($,$,(#375));
#377= IFCCARTESIANPOINT((9000.,31100.,-10.));
#378= IFCDIRECTION((0.,-1.,0.));
#379= IFCDIRECTION((-1.,0.,0.));
#380= IFCAXIS2PLACEMENT3D(#377,#378,#379);
#381= IFCLOCALPLACEMENT(#42,#380);
#382= IFCBEAM('3Acv9Q48D2kPxt5dsm76cK',#44,'Ramme','PL200X20',$,#381,#376,'IDca9b925a-1083-42b9-9ef7-167db01c6994');
#383= IFCBEAMTYPE('134RsYU9fBAxJ_bJX_e0VN',#5,'PL200X20',$,$,$,$,$,$,.NOTDEFINED.);
#384= IFCCOLOURRGB('Unnamed',0.823529411764706,0.823529411764706,0.823529411764706);
#385= IFCSURFACESTYLERENDERING(#384,0.,$,$,$,$,IFCNORMALISEDRATIOMEASURE(0.00390625),IFCSPECULAREXPONENT(10.),.NOTDEFINED.);
#386= IFCSURFACESTYLE('CONCRETE/B45_SV_Standard',.POSITIVE.,(#385));
#387= IFCPRESENTATIONSTYLEASSIGNMENT((#386));
#388= IFCCARTESIANPOINT((-135.480881269506,-100.,500.702991068458));
#389= IFCCARTESIANPOINT((-135.480881269506,100.,500.702991068458));
#390= IFCPOLYLOOP((#49,#388,#389,#52));
#391= IFCFACEOUTERBOUND(#390,.T.);
#392= IFCFACE((#391));
#393= IFCCARTESIANPOINT((-120.704657982863,-100.,520.008924242944));
#394= IFCCARTESIANPOINT((-120.704657982863,100.,520.008924242944));
#395= IFCPOLYLOOP((#388,#393,#394,#389));
#396= IFCFACEOUTERBOUND(#395,.T.);
#397= IFCFACE((#396));
#398= IFCCARTESIANPOINT((601.635368879325,-100.,520.018738315939));
#399= IFCCARTESIANPOINT((601.635368879325,100.,520.018738315939));
#400= IFCPOLYLOOP((#393,#398,#399,#394));
#401= IFCFACEOUTERBOUND(#400,.T.);
#402= IFCFACE((#401));
#403= IFCCARTESIANPOINT((620.55122624036,-100.,500.048322701552));
#404= IFCCARTESIANPOINT((620.55122624036,100.,500.048322701552));
#405= IFCPOLYLOOP((#398,#403,#404,#399));
#406= IFCFACEOUTERBOUND(#405,.T.);
#407= IFCFACE((#406));
#408= IFCCARTESIANPOINT((595.54963050708,-100.,39.9953254582506));
#409= IFCCARTESIANPOINT((595.54963050708,100.,39.9953254582506));
#410= IFCPOLYLOOP((#403,#408,#409,#404));
#411= IFCFACEOUTERBOUND(#410,.T.);
#412= IFCFACE((#411));
#413= IFCCARTESIANPOINT((525.550255873847,-100.,-30.0053141997942));
#414= IFCCARTESIANPOINT((525.550255873847,100.,-30.0053141997942));
#415= IFCPOLYLOOP((#408,#413,#414,#409));
#416= IFCFACEOUTERBOUND(#415,.T.);
#417= IFCFACE((#416));
#418= IFCCARTESIANPOINT((350.000268088088,-100.,-30.0068825260096));
#419= IFCCARTESIANPOINT((350.000268088088,100.,-30.0068825260096));
#420= IFCPOLYLOOP((#413,#418,#419,#414));
#421= IFCFACEOUTERBOUND(#420,.T.);
#422= IFCFACE((#421));
#423= IFCCARTESIANPOINT((349.994854622754,-100.,3.36513039655983E-10));
#424= IFCCARTESIANPOINT((349.994854622754,100.,3.36513039655983E-10));
#425= IFCPOLYLOOP((#418,#423,#424,#419));
#426= IFCFACEOUTERBOUND(#425,.T.);
#427= IFCFACE((#426));
#428= IFCPOLYLOOP((#423,#49,#52,#424));
#429= IFCFACEOUTERBOUND(#428,.T.);
#430= IFCFACE((#429));
#431= IFCPOLYLOOP((#394,#399,#404,#409,#414,#419,#424,#52,#389));
#432= IFCFACEOUTERBOUND(#431,.T.);
#433= IFCFACE((#432));
#434= IFCPOLYLOOP((#423,#418,#413,#408,#403,#398,#393,#388,#49));
#435= IFCFACEOUTERBOUND(#434,.T.);
#436= IFCFACE((#435));
#437= IFCCLOSEDSHELL((#392,#397,#402,#407,#412,#417,#422,#427,#430,#433,#436));
#438= IFCFACETEDBREP(#437);
#439= IFCSTYLEDITEM(#438,(#387),$);
#440= IFCSHAPEREPRESENTATION(#12,'Body','Brep',(#438));
#441= IFCPRODUCTDEFINITIONSHAPE($,$,(#440));
#442= IFCCARTESIANPOINT((9167.93066982984,31100.,904.529358632627));
#443= IFCDIRECTION((-0.999999999960092,0.,8.93400000086331E-06));
#444= IFCDIRECTION((8.93400000086671E-06,0.,0.999999999960092));
#445= IFCAXIS2PLACEMENT3D(#442,#443,#444);
#446= IFCLOCALPLACEMENT(#42,#445);
#447= IFCSLAB('1n3Cu$KqvBFgZIHVav2gUG',#44,'Kantbjelke','200X550',$,#446,#441,'ID710cce3f-534e-4b3e-a8d2-45f9390aa790',.NOTDEFINED.);
#448= IFCSLABTYPE('1J2VAXu3b5RgFzbZNlbOaD',#5,'200X550',$,$,$,$,$,$,.NOTDEFINED.);
#449= IFCRELAGGREGATES('0F7Y_sHIn36xDnUHtugTlc',#5,$,$,#36,(#38));
#450= IFCRELAGGREGATES('3h0AO1k$D42gMvBY904pWe',#5,$,$,#38,(#41));
#451= IFCRELAGGREGATES('0r7kvqsc13TvOWXrZ8jfnF',#5,$,$,#41,(#43));
#452= IFCRELCONTAINEDINSPATIALSTRUCTURE('249CB4hXT6WBSa2U9oyoyf',#5,$,$,(#447,#382,#271,#226,#174,#138,#99,#85),#43);
#453= IFCRELDEFINESBYTYPE('2LrYkJxdz7ogi6yLQLVzAU',#5,$,$,(#99,#85),#86);
#454= IFCRELDEFINESBYTYPE('3GBa6uNc9FQvpdkv_2tsgO',#5,$,$,(#138),#139);
#455= IFCRELDEFINESBYTYPE('0jv5mQY6D2qfJ6NVWt3CjK',#5,$,$,(#174),#175);
#456= IFCRELDEFINESBYTYPE('2WpYwGmOL0jvieJWke0F20',#5,$,$,(#226),#227);
#457= IFCRELDEFINESBYTYPE('3etoqvLL1E4OU6$S3Wc7Z_',#5,$,$,(#271),#272);
#458= IFCRELDEFINESBYTYPE('0sM5QtXcXA_u5T1VCwEv88',#5,$,$,(#382),#383);
#459= IFCRELDEFINESBYTYPE('07DifCFy9FjvDMHChAufLW',#5,$,$,(#447),#448);
#460= IFCRELASSOCIATESMATERIAL('2BLYRy7qL9iRpYGWvktOkO',#5,$,$,(#382,#226,#174,#138,#99,#85),#87);
#461= IFCRELASSOCIATESMATERIAL('2zDyThomb0$PYAIbuNbQey',#5,$,$,(#447,#271),#273);
#462= IFCPRESENTATIONLAYERASSIGNMENT('Asfaltdekker_slitelag',$,(#78),$);
#463= IFCPRESENTATIONLAYERASSIGNMENT('Asfaltdekker_bindlag',$,(#94),$);
#464= IFCPRESENTATIONLAYERASSIGNMENT('Topeka',$,(#131,#167),$);
#465= IFCPRESENTATIONLAYERASSIGNMENT('C60BP2',$,(#219),$);
#466= IFCPRESENTATIONLAYERASSIGNMENT('Bruplate',$,(#264),$);
#467= IFCPRESENTATIONLAYERASSIGNMENT('Ramme',$,(#375),$);
#468= IFCPRESENTATIONLAYERASSIGNMENT('Kantbjelke',$,(#440),$);
ENDSEC;

END-ISO-10303-21;
