ISO-10303-21;
HEADER;
FILE_DESCRIPTION(('ViewDefinition[CoordinationView_V2.0]', 'ExchangeRequirement[Structural, SurfaceGeometry]', 'Option [GridExport:On]', 'Option [Assemblies:Off]', 'Option [Bolts:On]', 'Option [Rebars:On]', 'Option [PourObjects:Off]', 'Option [Welds:Off]', 'Option [SurfaceTreatments:On]', 'Option [LocationBy:0]', 'Option [ViewColors:On]', 'Option [SectionedSpine:Off]', 'Option [PropertySets:On]', 'Option [Export all:Off]'),'2;1');
FILE_NAME('SNACKS_Test5.ifc','2026-08-14T11:31:06',('SWECO\\NOULVE'),('Structural Designer'),'IFC Parser','Tekla Structures 2025 Service Pack 7, IFC Export Version: 4.0.0.0 Feb 24 2026','');
FILE_SCHEMA(('IFC2X3'));
ENDSEC;

DATA;
#1= IFCPERSON('SWECO\\NOULVE','Undefined',$,$,$,$,$,$);
#2= IFCORGANIZATION($,'Trimble Solutions Corporation',$,$,$);
#3= IFCPERSONANDORGANIZATION(#1,#2,$);
#4= IFCAPPLICATION(#2,'2025 Service Pack 7','Tekla Structures','Multi material modeling');
#5= IFCOWNERHISTORY(#3,#4,$,.NOCHANGE.,$,$,$,1786699866);
#6= IFCCARTESIANPOINT((0.,0.,0.));
#7= IFCDIRECTION((1.,0.,0.));
#8= IFCDIRECTION((0.,1.,0.));
#9= IFCDIRECTION((0.,0.,1.));
#10= IFCAXIS2PLACEMENT3D(#6,#9,#7);
#11= IFCGEOMETRICREPRESENTATIONCONTEXT($,'Model',3,1.E-05,#10,$);
#12= IFCGEOMETRICREPRESENTATIONSUBCONTEXT('Body','Model',*,*,*,*,#11,$,.MODEL_VIEW.,$);
#13= IFCGEOMETRICREPRESENTATIONSUBCONTEXT('Axis','Model',*,*,*,*,#11,$,.GRAPH_VIEW.,$);
#14= IFCGEOMETRICREPRESENTATIONSUBCONTEXT('FootPrint','Model',*,*,*,*,#11,$,.MODEL_VIEW.,$);
#15= IFCSIUNIT(*,.LENGTHUNIT.,.MILLI.,.METRE.);
#16= IFCMEASUREWITHUNIT(IFCRATIOMEASURE(304.8),#15);
#17= IFCDIMENSIONALEXPONENTS(1,0,0,0,0,0,0);
#18= IFCCONVERSIONBASEDUNIT(#17,.LENGTHUNIT.,'FOOT',#16);
#19= IFCSIUNIT(*,.AREAUNIT.,$,.SQUARE_METRE.);
#20= IFCMEASUREWITHUNIT(IFCRATIOMEASURE(0.09290304),#19);
#21= IFCDIMENSIONALEXPONENTS(2,0,0,0,0,0,0);
#22= IFCCONVERSIONBASEDUNIT(#21,.AREAUNIT.,'SQUARE FOOT',#20);
#23= IFCSIUNIT(*,.VOLUMEUNIT.,$,.CUBIC_METRE.);
#24= IFCMEASUREWITHUNIT(IFCRATIOMEASURE(0.028316846592),#23);
#25= IFCDIMENSIONALEXPONENTS(3,0,0,0,0,0,0);
#26= IFCCONVERSIONBASEDUNIT(#25,.VOLUMEUNIT.,'CUBIC FOOT',#24);
#27= IFCSIUNIT(*,.MASSUNIT.,.KILO.,.GRAM.);
#28= IFCSIUNIT(*,.TIMEUNIT.,$,.SECOND.);
#29= IFCSIUNIT(*,.PLANEANGLEUNIT.,$,.RADIAN.);
#30= IFCMEASUREWITHUNIT(IFCRATIOMEASURE(0.0174532925199433),#29);
#31= IFCDIMENSIONALEXPONENTS(0,0,0,0,0,0,0);
#32= IFCCONVERSIONBASEDUNIT(#31,.PLANEANGLEUNIT.,'DEGREE',#30);
#33= IFCSIUNIT(*,.SOLIDANGLEUNIT.,$,.STERADIAN.);
#34= IFCSIUNIT(*,.THERMODYNAMICTEMPERATUREUNIT.,$,.DEGREE_CELSIUS.);
#35= IFCSIUNIT(*,.LUMINOUSINTENSITYUNIT.,$,.LUMEN.);
#36= IFCUNITASSIGNMENT((#15,#19,#23,#27,#28,#29,#33,#34,#35));
#37= IFCPROJECT('2YG0JLJLPAvRd9NM8hMiC$',#5,'Trimble',$,$,$,$,(#11),#36);
#38= IFCLOCALPLACEMENT($,#10);
#39= IFCSITE('1KBIp_15H1JuZFkZMfSxIb',#5,'HERMAN TEST-MODELL',$,$,#38,$,$,.ELEMENT.,$,$,$,$,$);
#40= IFCLOCALPLACEMENT(#38,#10);
#41= IFCBUILDING('2qnXj5QlnDpvgGoZzseUs_',#5,'Undefined',$,$,#40,$,$,.ELEMENT.,$,$,$);
#42= IFCLOCALPLACEMENT(#40,#10);
#43= IFCBUILDINGSTOREY('09Zmb6wqH33AoobR5q1mOS',#5,'Undefined',$,$,#42,$,$,.ELEMENT.,0.);
#44= IFCOWNERHISTORY(#3,#4,$,.NOCHANGE.,$,$,$,1786705200);
#45= IFCCOLOURRGB('Unnamed',0.67843137254902,0.517647058823529,0.372549019607843);
#46= IFCSURFACESTYLERENDERING(#45,0.5,$,$,$,$,IFCNORMALISEDRATIOMEASURE(0.00390625),IFCSPECULAREXPONENT(10.),.NOTDEFINED.);
#47= IFCSURFACESTYLE('MISCELLANEOUS/Misc_Undefined',.POSITIVE.,(#46));
#48= IFCPRESENTATIONSTYLEASSIGNMENT((#47));
#49= IFCCARTESIANPOINT((0.,-50.,0.));
#50= IFCCARTESIANPOINT((0.,-50.,577.));
#51= IFCCARTESIANPOINT((0.,50.,577.));
#52= IFCCARTESIANPOINT((0.,50.,0.));
#53= IFCPOLYLOOP((#49,#50,#51,#52));
#54= IFCFACEOUTERBOUND(#53,.T.);
#55= IFCFACE((#54));
#56= IFCCARTESIANPOINT((12.,-50.,577.));
#57= IFCCARTESIANPOINT((12.,50.,577.));
#58= IFCPOLYLOOP((#50,#56,#57,#51));
#59= IFCFACEOUTERBOUND(#58,.T.);
#60= IFCFACE((#59));
#61= IFCCARTESIANPOINT((165.750000000009,-50.,495.000000000132));
#62= IFCCARTESIANPOINT((165.750000000009,50.,495.000000000132));
#63= IFCPOLYLOOP((#56,#61,#62,#57));
#64= IFCFACEOUTERBOUND(#63,.T.);
#65= IFCFACE((#64));
#66= IFCCARTESIANPOINT((757.508750768117,-50.,495.000000000004));
#67= IFCCARTESIANPOINT((757.508750768117,50.,495.000000000004));
#68= IFCPOLYLOOP((#61,#66,#67,#62));
#69= IFCFACEOUTERBOUND(#68,.T.);
#70= IFCFACE((#69));
#71= IFCCARTESIANPOINT((782.748818208586,-50.,472.560395234394));
#72= IFCCARTESIANPOINT((782.748818208586,50.,472.560395234394));
#73= IFCPOLYLOOP((#66,#71,#72,#67));
#74= IFCFACEOUTERBOUND(#73,.T.);
#75= IFCFACE((#74));
#76= IFCCARTESIANPOINT((829.945112853705,-50.,0.));
#77= IFCCARTESIANPOINT((829.945112853705,50.,0.));
#78= IFCPOLYLOOP((#71,#76,#77,#72));
#79= IFCFACEOUTERBOUND(#78,.T.);
#80= IFCFACE((#79));
#81= IFCPOLYLOOP((#76,#49,#52,#77));
#82= IFCFACEOUTERBOUND(#81,.T.);
#83= IFCFACE((#82));
#84= IFCPOLYLOOP((#57,#62,#67,#72,#77,#52,#51));
#85= IFCFACEOUTERBOUND(#84,.T.);
#86= IFCFACE((#85));
#87= IFCPOLYLOOP((#76,#71,#66,#61,#56,#50,#49));
#88= IFCFACEOUTERBOUND(#87,.T.);
#89= IFCFACE((#88));
#90= IFCCLOSEDSHELL((#55,#60,#65,#70,#75,#80,#83,#86,#89));
#91= IFCFACETEDBREP(#90);
#92= IFCSTYLEDITEM(#91,(#48),$);
#93= IFCSHAPEREPRESENTATION(#12,'Body','Brep',(#91));
#94= IFCPRODUCTDEFINITIONSHAPE($,$,(#93));
#95= IFCCARTESIANPOINT((3550.,31150.,1917.00000000001));
#96= IFCDIRECTION((0.,0.,-1.));
#97= IFCAXIS2PLACEMENT3D(#95,#7,#96);
#98= IFCLOCALPLACEMENT(#42,#97);
#99= IFCSLAB('3_DVwwmiTDOPC_EGQ7Pe6G',#44,'L\S\xsmasser_2','100X577',$,#98,#94,'IDfe35feba-c2c7-4d61-933e-390687668190',.NOTDEFINED.);
#100= IFCSLABTYPE('2DkJzNaZHE7vaKy_H$yqbn',#5,'100X577',$,$,$,$,$,$,.NOTDEFINED.);
#101= IFCPROPERTYSINGLEVALUE('Class',$,IFCLABEL('1'),$);
#102= IFCPROPERTYSINGLEVALUE('Phase',$,IFCINTEGER(1),$);
#103= IFCPROPERTYSINGLEVALUE('Preliminary mark',$,IFCLABEL(''),$);
#104= IFCPROPERTYSINGLEVALUE('Initial GUID',$,$,$);
#105= IFCPROPERTYSINGLEVALUE('Top elevation',$,IFCLABEL(' +1.917'),$);
#106= IFCPROPERTYSINGLEVALUE('Bottom elevation',$,IFCLABEL(' +1.087'),$);
#107= IFCPROPERTYSET('14Lk$nnzn7uxjim78D0Akk',#5,'Tekla Common','Common Properties to Shared building elements',(#101,#102,#103,#104,#105,#106));
#108= IFCPROPERTYSINGLEVALUE('Length',$,IFCLENGTHMEASURE(829.9),$);
#109= IFCPROPERTYSINGLEVALUE('Width',$,IFCLENGTHMEASURE(100.),$);
#110= IFCPROPERTYSINGLEVALUE('Height',$,IFCLENGTHMEASURE(577.),$);
#111= IFCPROPERTYSINGLEVALUE('Net surface area',$,IFCAREAMEASURE(1.081),$);
#112= IFCPROPERTYSINGLEVALUE('Area per tons',$,IFCAREAMEASURE(0.),$);
#113= IFCPROPERTYSINGLEVALUE('Gross footprint area',$,IFCAREAMEASURE(0.058),$);
#114= IFCPROPERTYSINGLEVALUE('Volume',$,IFCVOLUMEMEASURE(0.041),$);
#115= IFCPROPERTYSINGLEVALUE('Weight',$,IFCMASSMEASURE(0.),$);
#116= IFCPROPERTYSET('0_TnYqq$XDo8xg5ALpoHYZ',#5,'Tekla Quantity','Quantity Properties to Shared building elements',(#108,#109,#110,#111,#112,#113,#114,#115));
#117= IFCPROPERTYSINGLEVALUE('NetArea',$,IFCAREAMEASURE(0.1),$);
#118= IFCPROPERTYSINGLEVALUE('NetVolume',$,IFCVOLUMEMEASURE(0.),$);
#119= IFCPROPERTYSINGLEVALUE('NetWeight',$,IFCMASSMEASURE(0.),$);
#120= IFCPROPERTYSET('2rwqaCjo5EZhSchdxVxOan',#5,'SlabBaseQuantities',$,(#109,#117,#118,#119));
#121= IFCPROPERTYSINGLEVALUE('Reference',$,$,$);
#122= IFCPROPERTYSINGLEVALUE('AcousticRating',$,$,$);
#123= IFCPROPERTYSINGLEVALUE('FireRating',$,$,$);
#124= IFCPROPERTYSINGLEVALUE('Combustible',$,IFCBOOLEAN(''),$);
#125= IFCPROPERTYSINGLEVALUE('SurfaceSpreadOfFlame',$,$,$);
#126= IFCPROPERTYSINGLEVALUE('ThermalTransmittance',$,$,$);
#127= IFCPROPERTYSINGLEVALUE('IsExternal',$,IFCBOOLEAN(''),$);
#128= IFCPROPERTYSINGLEVALUE('LoadBearing',$,IFCBOOLEAN(''),$);
#129= IFCPROPERTYSINGLEVALUE('Compartmentation',$,IFCBOOLEAN(''),$);
#130= IFCPROPERTYSINGLEVALUE('PitchAngle',$,$,$);
#131= IFCPROPERTYSET('2GFCnNbXv9NelhqlAnewQY',#5,'Pset_SlabCommon','Definition from IAI: Properties common to the definition of all occurrences of IfcSlab. Note: Properties for PitchAngle added in IFC 2x3',(#121,#122,#123,#124,#125,#126,#127,#128,#129,#130));
#132= IFCMATERIAL('MISCELLANEOUS/Misc_Undefined');
#133= IFCCOLOURRGB('Unnamed',0.780392156862745,0.670588235294118,0.572549019607843);
#134= IFCSURFACESTYLERENDERING(#133,0.8,$,$,$,$,IFCNORMALISEDRATIOMEASURE(0.00390625),IFCSPECULAREXPONENT(10.),.NOTDEFINED.);
#135= IFCSURFACESTYLE('MISCELLANEOUS/Misc_Undefined',.POSITIVE.,(#134));
#136= IFCPRESENTATIONSTYLEASSIGNMENT((#135));
#137= IFCCARTESIANPOINT((-79.9463658028246,-50.,799.502387526231));
#138= IFCCARTESIANPOINT((-79.9463658028246,50.,799.502387526231));
#139= IFCPOLYLOOP((#49,#137,#138,#52));
#140= IFCFACEOUTERBOUND(#139,.T.);
#141= IFCFACE((#140));
#142= IFCCARTESIANPOINT((-74.97,-50.,800.));
#143= IFCCARTESIANPOINT((-74.97,50.,800.));
#144= IFCPOLYLOOP((#137,#142,#143,#138));
#145= IFCFACEOUTERBOUND(#144,.T.);
#146= IFCFACE((#145));
#147= IFCCARTESIANPOINT((175.03,-50.,800.));
#148= IFCCARTESIANPOINT((175.03,50.,800.));
#149= IFCPOLYLOOP((#142,#147,#148,#143));
#150= IFCFACEOUTERBOUND(#149,.T.);
#151= IFCFACE((#150));
#152= IFCCARTESIANPOINT((425.03,-50.,1050.));
#153= IFCCARTESIANPOINT((425.03,50.,1050.));
#154= IFCPOLYLOOP((#147,#152,#153,#148));
#155= IFCFACEOUTERBOUND(#154,.T.);
#156= IFCFACE((#155));
#157= IFCCARTESIANPOINT((625.03,-50.,1050.));
#158= IFCCARTESIANPOINT((625.03,50.,1050.));
#159= IFCPOLYLOOP((#152,#157,#158,#153));
#160= IFCFACEOUTERBOUND(#159,.T.);
#161= IFCFACE((#160));
#162= IFCCARTESIANPOINT((625.03,-50.,0.));
#163= IFCCARTESIANPOINT((625.03,50.,0.));
#164= IFCPOLYLOOP((#157,#162,#163,#158));
#165= IFCFACEOUTERBOUND(#164,.T.);
#166= IFCFACE((#165));
#167= IFCPOLYLOOP((#162,#49,#52,#163));
#168= IFCFACEOUTERBOUND(#167,.T.);
#169= IFCFACE((#168));
#170= IFCPOLYLOOP((#143,#148,#153,#158,#163,#52,#138));
#171= IFCFACEOUTERBOUND(#170,.T.);
#172= IFCFACE((#171));
#173= IFCPOLYLOOP((#162,#157,#152,#147,#142,#137,#49));
#174= IFCFACEOUTERBOUND(#173,.T.);
#175= IFCFACE((#174));
#176= IFCCLOSEDSHELL((#141,#146,#151,#156,#161,#166,#169,#172,#175));
#177= IFCFACETEDBREP(#176);
#178= IFCSTYLEDITEM(#177,(#136),$);
#179= IFCSHAPEREPRESENTATION(#12,'Body','Brep',(#177));
#180= IFCPRODUCTDEFINITIONSHAPE($,$,(#179));
#181= IFCCARTESIANPOINT((3000.,31150.,625.030000000006));
#182= IFCAXIS2PLACEMENT3D(#181,#7,#96);
#183= IFCLOCALPLACEMENT(#42,#182);
#184= IFCWALL('0rT9MthBf5IeMCUfw6bdoE',#44,'L\S\xsmasser_1','100X705',$,#183,#180,'ID357495b7-acba-454a-858c-7a9e86967c8e');
#185= IFCWALLTYPE('0fpBsmZ4rDHfhxuV_iXN56',#5,'100X705',$,$,$,$,$,$,.NOTDEFINED.);
#186= IFCPROPERTYSINGLEVALUE('Top elevation',$,IFCLABEL(' +0.705'),$);
#187= IFCPROPERTYSINGLEVALUE('Bottom elevation',$,IFCLABEL(' +0.000'),$);
#188= IFCPROPERTYSET('2M$5SM5kbB3A4EjiCnlfmM',#5,'Tekla Common','Common Properties to Shared building elements',(#101,#102,#103,#104,#186,#187));
#189= IFCPROPERTYSINGLEVALUE('Length',$,IFCLENGTHMEASURE(1050.),$);
#190= IFCPROPERTYSINGLEVALUE('Height',$,IFCLENGTHMEASURE(705.),$);
#191= IFCPROPERTYSINGLEVALUE('Net surface area',$,IFCAREAMEASURE(1.555),$);
#192= IFCPROPERTYSINGLEVALUE('Gross footprint area',$,IFCAREAMEASURE(0.),$);
#193= IFCPROPERTYSINGLEVALUE('Volume',$,IFCVOLUMEMEASURE(0.061),$);
#194= IFCPROPERTYSET('1bHXhM7d90R8EWwQ_AIPGo',#5,'Tekla Quantity','Quantity Properties to Shared building elements',(#189,#109,#190,#191,#112,#192,#193,#115));
#195= IFCPROPERTYSINGLEVALUE('OuterSurfaceArea',$,IFCAREAMEASURE(1.6),$);
#196= IFCPROPERTYSINGLEVALUE('NetVolume',$,IFCVOLUMEMEASURE(0.1),$);
#197= IFCPROPERTYSET('2a0mjhlir7GAylqSreozTy',#5,'WallBaseQuantities',$,(#189,#195,#196,#119));
#198= IFCPROPERTYSINGLEVALUE('ExtendToStructure',$,IFCBOOLEAN(''),$);
#199= IFCPROPERTYSET('3tQZHtgyL2JwG9edwLPpbO',#5,'Pset_WallCommon','Definition from IAI: Properties common to the definition of all occurrences of IfcWall and IfcWallStandardCase.',(#121,#122,#123,#124,#125,#126,#127,#198,#128,#129));
#200= IFCCARTESIANPOINT((-9.09494701772928E-13,-50.,829.945112853704));
#201= IFCCARTESIANPOINT((-9.09494701772928E-13,50.,829.945112853704));
#202= IFCPOLYLOOP((#49,#200,#201,#52));
#203= IFCFACEOUTERBOUND(#202,.T.);
#204= IFCFACE((#203));
#205= IFCCARTESIANPOINT((0.497000068405214,-50.,830.004762223569));
#206= IFCCARTESIANPOINT((0.497000068405214,50.,830.004762223569));
#207= IFCPOLYLOOP((#200,#205,#206,#201));
#208= IFCFACEOUTERBOUND(#207,.T.);
#209= IFCFACE((#208));
#210= IFCCARTESIANPOINT((-0.00572623762127478,-50.,835.037322715931));
#211= IFCCARTESIANPOINT((-0.00572623762127478,50.,835.037322715931));
#212= IFCPOLYLOOP((#205,#210,#211,#206));
#213= IFCFACEOUTERBOUND(#212,.T.);
#214= IFCFACE((#213));
#215= IFCCARTESIANPOINT((549.999999999998,-50.,889.98));
#216= IFCCARTESIANPOINT((549.999999999998,50.,889.98));
#217= IFCPOLYLOOP((#210,#215,#216,#211));
#218= IFCFACEOUTERBOUND(#217,.T.);
#219= IFCFACE((#218));
#220= IFCCARTESIANPOINT((550.,-50.,0.));
#221= IFCCARTESIANPOINT((550.,50.,0.));
#222= IFCPOLYLOOP((#215,#220,#221,#216));
#223= IFCFACEOUTERBOUND(#222,.T.);
#224= IFCFACE((#223));
#225= IFCPOLYLOOP((#220,#49,#52,#221));
#226= IFCFACEOUTERBOUND(#225,.T.);
#227= IFCFACE((#226));
#228= IFCPOLYLOOP((#206,#211,#216,#221,#52,#201));
#229= IFCFACEOUTERBOUND(#228,.T.);
#230= IFCFACE((#229));
#231= IFCPOLYLOOP((#220,#215,#210,#205,#200,#49));
#232= IFCFACEOUTERBOUND(#231,.T.);
#233= IFCFACE((#232));
#234= IFCCLOSEDSHELL((#204,#209,#214,#219,#224,#227,#230,#233));
#235= IFCFACETEDBREP(#234);
#236= IFCSTYLEDITEM(#235,(#136),$);
#237= IFCSHAPEREPRESENTATION(#12,'Body','Brep',(#235));
#238= IFCPRODUCTDEFINITIONSHAPE($,$,(#237));
#239= IFCDIRECTION((-1.,0.,0.));
#240= IFCAXIS2PLACEMENT3D(#95,#96,#239);
#241= IFCLOCALPLACEMENT(#42,#240);
#242= IFCWALL('35w9YbAC91EBy1$N0lPMO0',#44,'L\S\xsmasser_1','100X550',$,#241,#238,'IDc5e898a5-28c2-4138-bf01-fd702f656600');
#243= IFCWALLTYPE('2hSpIwZh5CChlUnIau4tNi',#5,'100X550',$,$,$,$,$,$,.NOTDEFINED.);
#244= IFCPROPERTYSINGLEVALUE('Bottom elevation',$,IFCLABEL(' +1.027'),$);
#245= IFCPROPERTYSET('0yUPTiusj8igoccZxDOv$y',#5,'Tekla Common','Common Properties to Shared building elements',(#101,#102,#103,#104,#105,#244));
#246= IFCPROPERTYSINGLEVALUE('Length',$,IFCLENGTHMEASURE(890.),$);
#247= IFCPROPERTYSINGLEVALUE('Height',$,IFCLENGTHMEASURE(550.),$);
#248= IFCPROPERTYSINGLEVALUE('Net surface area',$,IFCAREAMEASURE(1.232),$);
#249= IFCPROPERTYSINGLEVALUE('Gross footprint area',$,IFCAREAMEASURE(0.055),$);
#250= IFCPROPERTYSINGLEVALUE('Volume',$,IFCVOLUMEMEASURE(0.047),$);
#251= IFCPROPERTYSET('3CmXOhi_v9U9fcfycih1hi',#5,'Tekla Quantity','Quantity Properties to Shared building elements',(#246,#109,#247,#248,#112,#249,#250,#115));
#252= IFCPROPERTYSINGLEVALUE('OuterSurfaceArea',$,IFCAREAMEASURE(1.2),$);
#253= IFCPROPERTYSET('032b0pahLFCgT_Zj0ybNMu',#5,'WallBaseQuantities',$,(#246,#252,#118,#119));
#254= IFCPROPERTYSET('23wtM7P0r4$BmxOtlir2X0',#5,'Pset_WallCommon','Definition from IAI: Properties common to the definition of all occurrences of IfcWall and IfcWallStandardCase.',(#121,#122,#123,#124,#125,#126,#127,#198,#128,#129));
#255= IFCCOLOURRGB('Unnamed',1.,1.,1.);
#256= IFCSURFACESTYLERENDERING(#255,0.8,$,$,$,$,IFCNORMALISEDRATIOMEASURE(0.00390625),IFCSPECULAREXPONENT(10.),.NOTDEFINED.);
#257= IFCSURFACESTYLE('MISCELLANEOUS/Misc_Undefined',.POSITIVE.,(#256));
#258= IFCPRESENTATIONSTYLEASSIGNMENT((#257));
#259= IFCCARTESIANPOINT((0.,-50.,40.));
#260= IFCCARTESIANPOINT((0.,50.,40.));
#261= IFCPOLYLOOP((#49,#259,#260,#52));
#262= IFCFACEOUTERBOUND(#261,.T.);
#263= IFCFACE((#262));
#264= IFCCARTESIANPOINT((1050.,-50.,40.));
#265= IFCCARTESIANPOINT((1050.,50.,40.));
#266= IFCPOLYLOOP((#259,#264,#265,#260));
#267= IFCFACEOUTERBOUND(#266,.T.);
#268= IFCFACE((#267));
#269= IFCCARTESIANPOINT((1050.,-50.,0.));
#270= IFCCARTESIANPOINT((1050.,50.,0.));
#271= IFCPOLYLOOP((#264,#269,#270,#265));
#272= IFCFACEOUTERBOUND(#271,.T.);
#273= IFCFACE((#272));
#274= IFCPOLYLOOP((#269,#49,#52,#270));
#275= IFCFACEOUTERBOUND(#274,.T.);
#276= IFCFACE((#275));
#277= IFCPOLYLOOP((#265,#270,#52,#260));
#278= IFCFACEOUTERBOUND(#277,.T.);
#279= IFCFACE((#278));
#280= IFCPOLYLOOP((#269,#264,#259,#49));
#281= IFCFACEOUTERBOUND(#280,.T.);
#282= IFCFACE((#281));
#283= IFCCLOSEDSHELL((#263,#268,#273,#276,#279,#282));
#284= IFCFACETEDBREP(#283);
#285= IFCSTYLEDITEM(#284,(#258),$);
#286= IFCSHAPEREPRESENTATION(#12,'Body','Brep',(#284));
#287= IFCPRODUCTDEFINITIONSHAPE($,$,(#286));
#288= IFCCARTESIANPOINT((4050.,31150.,1957.00000000001));
#289= IFCAXIS2PLACEMENT3D(#288,#96,#239);
#290= IFCLOCALPLACEMENT(#42,#289);
#291= IFCSLAB('2LVk1BhML7D80Urvy2_TN$',#44,'Gjennomsiktig','100X40',$,#290,#287,'ID957ee04b-ad65-4734-801e-d79f02f9d5ff',.NOTDEFINED.);
#292= IFCSLABTYPE('0bk6SeYtHFkv0Kmmfdxv0r',#5,'100X40',$,$,$,$,$,$,.NOTDEFINED.);
#293= IFCPROPERTYSINGLEVALUE('Top elevation',$,IFCLABEL(' +1.957'),$);
#294= IFCPROPERTYSINGLEVALUE('Bottom elevation',$,IFCLABEL(' +1.917'),$);
#295= IFCPROPERTYSET('3jJSjajyP6CguFn6c1Ztbp',#5,'Tekla Common','Common Properties to Shared building elements',(#101,#102,#103,#104,#293,#294));
#296= IFCPROPERTYSINGLEVALUE('Height',$,IFCLENGTHMEASURE(40.),$);
#297= IFCPROPERTYSINGLEVALUE('Net surface area',$,IFCAREAMEASURE(0.302),$);
#298= IFCPROPERTYSINGLEVALUE('Gross footprint area',$,IFCAREAMEASURE(0.105),$);
#299= IFCPROPERTYSINGLEVALUE('Volume',$,IFCVOLUMEMEASURE(0.004),$);
#300= IFCPROPERTYSET('1PODiMZUn8_wYTTdF8rs5Z',#5,'Tekla Quantity','Quantity Properties to Shared building elements',(#189,#109,#296,#297,#112,#298,#299,#115));
#301= IFCPROPERTYSET('3WOSPK9rzDJApcNEWTRw7n',#5,'SlabBaseQuantities',$,(#109,#117,#118,#119));
#302= IFCPROPERTYSET('1ZN$euC$97IArfLWoMTup7',#5,'Pset_SlabCommon','Definition from IAI: Properties common to the definition of all occurrences of IfcSlab. Note: Properties for PitchAngle added in IFC 2x3',(#121,#122,#123,#124,#125,#126,#127,#128,#129,#130));
#303= IFCCARTESIANPOINT((1030.,-50.,40.));
#304= IFCCARTESIANPOINT((1030.,50.,40.));
#305= IFCPOLYLOOP((#259,#303,#304,#260));
#306= IFCFACEOUTERBOUND(#305,.T.);
#307= IFCFACE((#306));
#308= IFCCARTESIANPOINT((1030.,-50.,0.));
#309= IFCCARTESIANPOINT((1030.,50.,0.));
#310= IFCPOLYLOOP((#303,#308,#309,#304));
#311= IFCFACEOUTERBOUND(#310,.T.);
#312= IFCFACE((#311));
#313= IFCPOLYLOOP((#308,#49,#52,#309));
#314= IFCFACEOUTERBOUND(#313,.T.);
#315= IFCFACE((#314));
#316= IFCPOLYLOOP((#304,#309,#52,#260));
#317= IFCFACEOUTERBOUND(#316,.T.);
#318= IFCFACE((#317));
#319= IFCPOLYLOOP((#308,#303,#259,#49));
#320= IFCFACEOUTERBOUND(#319,.T.);
#321= IFCFACE((#320));
#322= IFCCLOSEDSHELL((#263,#307,#312,#315,#318,#321));
#323= IFCFACETEDBREP(#322);
#324= IFCSTYLEDITEM(#323,(#258),$);
#325= IFCSHAPEREPRESENTATION(#12,'Body','Brep',(#323));
#326= IFCPRODUCTDEFINITIONSHAPE($,$,(#325));
#327= IFCCARTESIANPOINT((4030.,31150.,1997.00000000001));
#328= IFCAXIS2PLACEMENT3D(#327,#96,#239);
#329= IFCLOCALPLACEMENT(#42,#328);
#330= IFCSLAB('03eaw4B4j5XRO5AK2zpnxk',#44,'Gjennomsiktig','100X40',$,#329,#326,'ID03a24e84-2c4b-4585-b605-2940bdcf1eee',.NOTDEFINED.);
#331= IFCPROPERTYSINGLEVALUE('Top elevation',$,IFCLABEL(' +1.997'),$);
#332= IFCPROPERTYSINGLEVALUE('Bottom elevation',$,IFCLABEL(' +1.957'),$);
#333= IFCPROPERTYSET('104c7$s2559BpBLGq2MUvC',#5,'Tekla Common','Common Properties to Shared building elements',(#101,#102,#103,#104,#331,#332));
#334= IFCPROPERTYSINGLEVALUE('Length',$,IFCLENGTHMEASURE(1030.),$);
#335= IFCPROPERTYSINGLEVALUE('Net surface area',$,IFCAREAMEASURE(0.296),$);
#336= IFCPROPERTYSINGLEVALUE('Gross footprint area',$,IFCAREAMEASURE(0.103),$);
#337= IFCPROPERTYSET('3GXHpMdzz4jAmTDVSylJeO',#5,'Tekla Quantity','Quantity Properties to Shared building elements',(#334,#109,#296,#335,#112,#336,#299,#115));
#338= IFCPROPERTYSET('0kzYyN6c150vudSa3odoCJ',#5,'SlabBaseQuantities',$,(#109,#117,#118,#119));
#339= IFCPROPERTYSET('3FHhwLDmHCIeMy_hjLnn3M',#5,'Pset_SlabCommon','Definition from IAI: Properties common to the definition of all occurrences of IfcSlab. Note: Properties for PitchAngle added in IFC 2x3',(#121,#122,#123,#124,#125,#126,#127,#128,#129,#130));
#340= IFCCOLOURRGB('Unnamed',0.0470588235294118,0.541176470588235,0.811764705882353);
#341= IFCSURFACESTYLERENDERING(#340,0.,$,$,$,$,IFCNORMALISEDRATIOMEASURE(0.00390625),IFCSPECULAREXPONENT(10.),.NOTDEFINED.);
#342= IFCSURFACESTYLE('Undefined',.POSITIVE.,(#341));
#343= IFCPRESENTATIONSTYLEASSIGNMENT((#342));
#344= IFCCARTESIANPOINT((4.69025483661682,-3.5,3.84076939786711));
#345= IFCCARTESIANPOINT((4.69025483661682,3.5,3.84076939786711));
#346= IFCCARTESIANPOINT((-5.82867087928207E-16,7.,-1.55431223447522E-15));
#347= IFCCARTESIANPOINT((-4.69025483661682,3.5,-3.84076939786711));
#348= IFCCARTESIANPOINT((-4.69025483661682,-3.5,-3.84076939786711));
#349= IFCCARTESIANPOINT((0.,-7.,0.));
#350= IFCPOLYLOOP((#344,#345,#346,#347,#348,#349));
#351= IFCFACEOUTERBOUND(#350,.T.);
#352= IFCFACE((#351));
#353= IFCCARTESIANPOINT((205.954106375151,-3.5,-261.074576386698));
#354= IFCCARTESIANPOINT((210.644361211768,-7.,-257.233806988831));
#355= IFCPOLYLOOP((#349,#348,#353,#354));
#356= IFCFACEOUTERBOUND(#355,.T.);
#357= IFCFACE((#356));
#358= IFCCARTESIANPOINT((205.954106375151,3.5,-261.074576386698));
#359= IFCPOLYLOOP((#348,#347,#358,#353));
#360= IFCFACEOUTERBOUND(#359,.T.);
#361= IFCFACE((#360));
#362= IFCCARTESIANPOINT((210.644361211768,7.,-257.233806988831));
#363= IFCPOLYLOOP((#347,#346,#362,#358));
#364= IFCFACEOUTERBOUND(#363,.T.);
#365= IFCFACE((#364));
#366= IFCCARTESIANPOINT((215.334616048385,3.5,-253.393037590964));
#367= IFCPOLYLOOP((#346,#345,#366,#362));
#368= IFCFACEOUTERBOUND(#367,.T.);
#369= IFCFACE((#368));
#370= IFCCARTESIANPOINT((215.334616048385,-3.5,-253.393037590964));
#371= IFCPOLYLOOP((#345,#344,#370,#366));
#372= IFCFACEOUTERBOUND(#371,.T.);
#373= IFCFACE((#372));
#374= IFCPOLYLOOP((#344,#349,#354,#370));
#375= IFCFACEOUTERBOUND(#374,.T.);
#376= IFCFACE((#375));
#377= IFCCARTESIANPOINT((220.838586324658,-3.5,-272.70984362163));
#378= IFCCARTESIANPOINT((223.433444020138,-7.,-267.231092528524));
#379= IFCPOLYLOOP((#354,#353,#377,#378));
#380= IFCFACEOUTERBOUND(#379,.T.);
#381= IFCFACE((#380));
#382= IFCCARTESIANPOINT((220.838586324658,3.5,-272.70984362163));
#383= IFCPOLYLOOP((#353,#358,#382,#377));
#384= IFCFACEOUTERBOUND(#383,.T.);
#385= IFCFACE((#384));
#386= IFCCARTESIANPOINT((223.433444020138,7.,-267.231092528524));
#387= IFCPOLYLOOP((#358,#362,#386,#382));
#388= IFCFACEOUTERBOUND(#387,.T.);
#389= IFCFACE((#388));
#390= IFCCARTESIANPOINT((226.028301715618,3.5,-261.752341435419));
#391= IFCPOLYLOOP((#362,#366,#390,#386));
#392= IFCFACEOUTERBOUND(#391,.T.);
#393= IFCFACE((#392));
#394= IFCCARTESIANPOINT((226.028301715618,-3.5,-261.752341435419));
#395= IFCPOLYLOOP((#366,#370,#394,#390));
#396= IFCFACEOUTERBOUND(#395,.T.);
#397= IFCFACE((#396));
#398= IFCPOLYLOOP((#370,#354,#378,#394));
#399= IFCFACEOUTERBOUND(#398,.T.);
#400= IFCFACE((#399));
#401= IFCCARTESIANPOINT((239.270942932362,-3.5,-276.854167074495));
#402= IFCCARTESIANPOINT((239.270942932362,-7.,-270.791989248004));
#403= IFCPOLYLOOP((#378,#377,#401,#402));
#404= IFCFACEOUTERBOUND(#403,.T.);
#405= IFCFACE((#404));
#406= IFCCARTESIANPOINT((239.270942932362,3.5,-276.854167074495));
#407= IFCPOLYLOOP((#377,#382,#406,#401));
#408= IFCFACEOUTERBOUND(#407,.T.);
#409= IFCFACE((#408));
#410= IFCCARTESIANPOINT((239.270942932362,7.,-270.791989248004));
#411= IFCPOLYLOOP((#382,#386,#410,#406));
#412= IFCFACEOUTERBOUND(#411,.T.);
#413= IFCFACE((#412));
#414= IFCCARTESIANPOINT((239.270942932362,3.5,-264.729811421513));
#415= IFCPOLYLOOP((#386,#390,#414,#410));
#416= IFCFACEOUTERBOUND(#415,.T.);
#417= IFCFACE((#416));
#418= IFCCARTESIANPOINT((239.270942932362,-3.5,-264.729811421513));
#419= IFCPOLYLOOP((#390,#394,#418,#414));
#420= IFCFACEOUTERBOUND(#419,.T.);
#421= IFCFACE((#420));
#422= IFCPOLYLOOP((#394,#378,#402,#418));
#423= IFCFACEOUTERBOUND(#422,.T.);
#424= IFCFACE((#423));
#425= IFCCARTESIANPOINT((1235.28286732009,-3.5,-276.854167074518));
#426= IFCCARTESIANPOINT((1235.28286732009,-7.,-270.791989248027));
#427= IFCPOLYLOOP((#402,#401,#425,#426));
#428= IFCFACEOUTERBOUND(#427,.T.);
#429= IFCFACE((#428));
#430= IFCCARTESIANPOINT((1235.28286732009,3.5,-276.854167074518));
#431= IFCPOLYLOOP((#401,#406,#430,#425));
#432= IFCFACEOUTERBOUND(#431,.T.);
#433= IFCFACE((#432));
#434= IFCCARTESIANPOINT((1235.28286732009,7.,-270.791989248027));
#435= IFCPOLYLOOP((#406,#410,#434,#430));
#436= IFCFACEOUTERBOUND(#435,.T.);
#437= IFCFACE((#436));
#438= IFCCARTESIANPOINT((1235.28286732009,3.5,-264.729811421536));
#439= IFCPOLYLOOP((#410,#414,#438,#434));
#440= IFCFACEOUTERBOUND(#439,.T.);
#441= IFCFACE((#440));
#442= IFCCARTESIANPOINT((1235.28286732009,-3.5,-264.729811421536));
#443= IFCPOLYLOOP((#414,#418,#442,#438));
#444= IFCFACEOUTERBOUND(#443,.T.);
#445= IFCFACE((#444));
#446= IFCPOLYLOOP((#418,#402,#426,#442));
#447= IFCFACEOUTERBOUND(#446,.T.);
#448= IFCFACE((#447));
#449= IFCPOLYLOOP((#426,#425,#430,#434,#438,#442));
#450= IFCFACEOUTERBOUND(#449,.T.);
#451= IFCFACE((#450));
#452= IFCCLOSEDSHELL((#352,#357,#361,#365,#369,#373,#376,#381,#385,#389,#393,#397,#400,#405,#409,#413,#417,#421,#424,#429,#433,#437,#441,#445,#448,#451));
#453= IFCFACETEDBREP(#452);
#454= IFCSTYLEDITEM(#453,(#343),$);
#455= IFCCARTESIANPOINT((-221.746924574679,0.,270.791989248004));
#456= IFCCARTESIANTRANSFORMATIONOPERATOR3D($,$,#455,$,$);
#457= IFCSHAPEREPRESENTATION(#12,'Body','Brep',(#453));
#458= IFCREPRESENTATIONMAP(#10,#457);
#459= IFCMAPPEDITEM(#458,#456);
#460= IFCSHAPEREPRESENTATION(#12,'Body','MappedRepresentation',(#459));
#461= IFCPRODUCTDEFINITIONSHAPE($,$,(#460));
#462= IFCCARTESIANPOINT((3631.48236511047,31000.,1006.95074516754));
#463= IFCDIRECTION((-0.706819085183757,0.,-0.707394360183906));
#464= IFCDIRECTION((0.707394360183906,0.,-0.706819085183756));
#465= IFCAXIS2PLACEMENT3D(#462,#463,#464);
#466= IFCLOCALPLACEMENT(#42,#465);
#467= IFCREINFORCINGBAR('1JhAg_Pi133wpdPC5wWcqh',#44,'Armering_Rustfritt',$,$,#466,#461,'ID53acaabe-66c0-430f-ace7-64c17a826d2b',$,12.,0.,$,.NOTDEFINED.,$);
#468= IFCPROPERTYSINGLEVALUE('Rebar set GUID',$,$,$);
#469= IFCPROPERTYSINGLEVALUE('Rebar set group GUID',$,$,$);
#470= IFCPROPERTYSINGLEVALUE('Cast unit mark',$,IFCLABEL('S-0(?)'),$);
#471= IFCPROPERTYSINGLEVALUE('Spacing exact',$,IFCLABEL(''),$);
#472= IFCPROPERTYSINGLEVALUE('Spacing target',$,IFCLENGTHMEASURE(0.),$);
#473= IFCPROPERTYSINGLEVALUE('Group type',$,IFCINTEGER(0),$);
#474= IFCPROPERTYSINGLEVALUE('Layer',$,IFCIDENTIFIER(''),$);
#475= IFCPROPERTYSINGLEVALUE('Name',$,IFCLABEL('Armering_Rustfritt'),$);
#476= IFCPROPERTYSET('2ny$VrRdDB7RqLEgKZ$z4L',#5,'Tekla Reinforcement - General','Reinforcement Properties',(#468,#469,#102,#470,#471,#472,#473,#474,#475));
#477= IFCPROPERTYSINGLEVALUE('TD',$,$,$);
#478= IFCPROPERTYSINGLEVALUE('v',$,$,$);
#479= IFCPROPERTYSINGLEVALUE('u',$,$,$);
#480= IFCPROPERTYSINGLEVALUE('t',$,$,$);
#481= IFCPROPERTYSINGLEVALUE('s',$,$,$);
#482= IFCPROPERTYSINGLEVALUE('y',$,$,$);
#483= IFCPROPERTYSINGLEVALUE('x',$,$,$);
#484= IFCPROPERTYSINGLEVALUE('r',$,IFCLENGTHMEASURE(30.),$);
#485= IFCPROPERTYSINGLEVALUE('o',$,$,$);
#486= IFCPROPERTYSINGLEVALUE('k2',$,$,$);
#487= IFCPROPERTYSINGLEVALUE('k1',$,$,$);
#488= IFCPROPERTYSINGLEVALUE('j',$,$,$);
#489= IFCPROPERTYSINGLEVALUE('i',$,$,$);
#490= IFCPROPERTYSINGLEVALUE('h2',$,$,$);
#491= IFCPROPERTYSINGLEVALUE('h1',$,$,$);
#492= IFCPROPERTYSINGLEVALUE('g',$,$,$);
#493= IFCPROPERTYSINGLEVALUE('f',$,$,$);
#494= IFCPROPERTYSINGLEVALUE('e',$,$,$);
#495= IFCPROPERTYSINGLEVALUE('d',$,$,$);
#496= IFCPROPERTYSINGLEVALUE('c',$,IFCLENGTHMEASURE(280.),$);
#497= IFCPROPERTYSINGLEVALUE('b',$,IFCLENGTHMEASURE(1015.),$);
#498= IFCPROPERTYSINGLEVALUE('a',$,IFCLENGTHMEASURE(355.),$);
#499= IFCPROPERTYSINGLEVALUE('Weight total in group',$,IFCMASSMEASURE(1.2),$);
#500= IFCPROPERTYSINGLEVALUE('Weight',$,IFCMASSMEASURE(1.21),$);
#501= IFCPROPERTYSINGLEVALUE('Length',$,IFCLENGTHMEASURE(1360.),$);
#502= IFCPROPERTYSINGLEVALUE('Shape',$,IFCIDENTIFIER('15'),$);
#503= IFCPROPERTYSINGLEVALUE('Size',$,IFCIDENTIFIER('12'),$);
#504= IFCPROPERTYSINGLEVALUE('Grade',$,IFCLABEL('Undefined'),$);
#505= IFCPROPERTYSINGLEVALUE('Number of bars in group',$,IFCINTEGER(1),$);
#506= IFCPROPERTYSINGLEVALUE('Group position number',$,IFCIDENTIFIER('0(?)'),$);
#507= IFCPROPERTYSET('2j4WYX1Nr2qRePOIAN7_il',#5,'Tekla Reinforcement - Bending List','Reinforcement Properties 1',(#477,#478,#479,#480,#481,#482,#483,#484,#485,#486,#487,#488,#489,#490,#491,#492,#493,#494,#495,#496,#497,#498,#499,#500,#501,#502,#503,#504,#505,#506));
#508= IFCPROPERTYSINGLEVALUE('Lap length - End',$,$,$);
#509= IFCPROPERTYSINGLEVALUE('Lap length - Start',$,$,$);
#510= IFCPROPERTYSINGLEVALUE('Thread length - End',$,$,$);
#511= IFCPROPERTYSINGLEVALUE('Thread length - Start',$,$,$);
#512= IFCPROPERTYSINGLEVALUE('Thread type - End',$,$,$);
#513= IFCPROPERTYSINGLEVALUE('Thread type - Start',$,$,$);
#514= IFCPROPERTYSINGLEVALUE('Anchor / Coupler - End',$,$,$);
#515= IFCPROPERTYSINGLEVALUE('Anchor / Coupler - Start',$,$,$);
#516= IFCPROPERTYSET('0IMlu9JTv0UATdrT3MTT6K',#5,'Tekla Reinforcement - End Conditions','Reinforcement Properties 2',(#508,#509,#510,#511,#512,#513,#514,#515));
#517= IFCMATERIAL('Undefined');
#518= IFCCOLOURRGB('Unnamed',1.,0.,0.);
#519= IFCSURFACESTYLERENDERING(#518,0.,$,$,$,$,IFCNORMALISEDRATIOMEASURE(0.00390625),IFCSPECULAREXPONENT(10.),.NOTDEFINED.);
#520= IFCSURFACESTYLE('MISCELLANEOUS/Misc_Undefined',.POSITIVE.,(#519));
#521= IFCPRESENTATIONSTYLEASSIGNMENT((#520));
#522= IFCCARTESIANPOINT((0.,-9.99999999999955,0.));
#523= IFCCARTESIANPOINT((-4.54747350886464E-13,-7.0710678118653,-7.07106781186667));
#524= IFCCARTESIANPOINT((169.999999999987,-7.07106781188713,-7.07106781186667));
#525= IFCCARTESIANPOINT((169.999999999987,-10.0000000000214,0.));
#526= IFCPOLYLOOP((#522,#523,#524,#525));
#527= IFCFACEOUTERBOUND(#526,.T.);
#528= IFCFACE((#527));
#529= IFCCARTESIANPOINT((-4.54747350886464E-13,-4.54747350886464E-13,-10.));
#530= IFCCARTESIANPOINT((169.999999999986,-2.18278728425503E-11,-10.));
#531= IFCPOLYLOOP((#523,#529,#530,#524));
#532= IFCFACEOUTERBOUND(#531,.T.);
#533= IFCFACE((#532));
#534= IFCCARTESIANPOINT((-4.54747350886464E-13,7.07106781186485,-7.07106781186667));
#535= IFCCARTESIANPOINT((169.999999999986,7.07106781184302,-7.07106781186667));
#536= IFCPOLYLOOP((#529,#534,#535,#530));
#537= IFCFACEOUTERBOUND(#536,.T.);
#538= IFCFACE((#537));
#539= IFCCARTESIANPOINT((-4.54747350886464E-13,9.99999999999909,0.));
#540= IFCCARTESIANPOINT((169.999999999986,9.99999999997772,0.));
#541= IFCPOLYLOOP((#534,#539,#540,#535));
#542= IFCFACEOUTERBOUND(#541,.T.);
#543= IFCFACE((#542));
#544= IFCCARTESIANPOINT((-4.54747350886464E-13,7.07106781186485,7.07106781186667));
#545= IFCCARTESIANPOINT((169.999999999986,7.07106781184302,7.07106781186667));
#546= IFCPOLYLOOP((#539,#544,#545,#540));
#547= IFCFACEOUTERBOUND(#546,.T.);
#548= IFCFACE((#547));
#549= IFCCARTESIANPOINT((-4.54747350886464E-13,-4.54747350886464E-13,10.));
#550= IFCCARTESIANPOINT((169.999999999986,-2.18278728425503E-11,10.));
#551= IFCPOLYLOOP((#544,#549,#550,#545));
#552= IFCFACEOUTERBOUND(#551,.T.);
#553= IFCFACE((#552));
#554= IFCCARTESIANPOINT((-4.54747350886464E-13,-7.0710678118653,7.07106781186667));
#555= IFCCARTESIANPOINT((169.999999999987,-7.07106781188713,7.07106781186667));
#556= IFCPOLYLOOP((#549,#554,#555,#550));
#557= IFCFACEOUTERBOUND(#556,.T.);
#558= IFCFACE((#557));
#559= IFCPOLYLOOP((#554,#522,#525,#555));
#560= IFCFACEOUTERBOUND(#559,.T.);
#561= IFCFACE((#560));
#562= IFCPOLYLOOP((#530,#535,#540,#545,#550,#555,#525,#524));
#563= IFCFACEOUTERBOUND(#562,.T.);
#564= IFCFACE((#563));
#565= IFCPOLYLOOP((#554,#549,#544,#539,#534,#529,#523,#522));
#566= IFCFACEOUTERBOUND(#565,.T.);
#567= IFCFACE((#566));
#568= IFCCLOSEDSHELL((#528,#533,#538,#543,#548,#553,#558,#561,#564,#567));
#569= IFCFACETEDBREP(#568);
#570= IFCSTYLEDITEM(#569,(#521),$);
#571= IFCSHAPEREPRESENTATION(#12,'Body','Brep',(#569));
#572= IFCPRODUCTDEFINITIONSHAPE($,$,(#571));
#573= IFCCARTESIANPOINT((3988.68197488316,31000.,652.044197345007));
#574= IFCDIRECTION((0.,-1.,0.));
#575= IFCDIRECTION((-0.705421573826371,0.,0.708787981825542));
#576= IFCAXIS2PLACEMENT3D(#573,#574,#575);
#577= IFCLOCALPLACEMENT(#42,#576);
#578= IFCBEAM('3TINzEmW53HP_XgPtaGnsv',#44,'Krympeplast','D20',$,#577,#572,'IDdd497f4e-c201-4345-9fa1-a99de4431db9');
#579= IFCBEAMTYPE('1t96I4Yrb8sfAUwR$Gb_Wf',#5,'D20',$,$,$,$,$,$,.NOTDEFINED.);
#580= IFCPROPERTYSINGLEVALUE('Class',$,IFCLABEL('13'),$);
#581= IFCPROPERTYSINGLEVALUE('Top elevation',$,IFCLABEL(' +0.780'),$);
#582= IFCPROPERTYSINGLEVALUE('Bottom elevation',$,IFCLABEL(' +0.645'),$);
#583= IFCPROPERTYSET('3iLLbcionEG97uJOIK5sSC',#5,'Tekla Common','Common Properties to Shared building elements',(#580,#102,#103,#104,#581,#582));
#584= IFCPROPERTYSINGLEVALUE('Length',$,IFCLENGTHMEASURE(170.),$);
#585= IFCPROPERTYSINGLEVALUE('Width',$,IFCLENGTHMEASURE(20.),$);
#586= IFCPROPERTYSINGLEVALUE('Height',$,IFCLENGTHMEASURE(20.),$);
#587= IFCPROPERTYSINGLEVALUE('Net surface area',$,IFCAREAMEASURE(0.011),$);
#588= IFCPROPERTYSINGLEVALUE('Volume',$,IFCVOLUMEMEASURE(0.),$);
#589= IFCPROPERTYSET('0B4uZ8oeTF2OElPyVqGjwX',#5,'Tekla Quantity','Quantity Properties to Shared building elements',(#584,#585,#586,#587,#112,#192,#588,#115));
#590= IFCPROPERTYSINGLEVALUE('OuterSurfaceArea',$,IFCAREAMEASURE(0.),$);
#591= IFCPROPERTYSET('3YNYDr4u57kR4az2AC9rkf',#5,'BeamBaseQuantities',$,(#584,#590,#118,#119));
#592= IFCPROPERTYSINGLEVALUE('Span',$,$,$);
#593= IFCPROPERTYSINGLEVALUE('Slope',$,IFCPLANEANGLEMEASURE(0.78778),$);
#594= IFCPROPERTYSET('13er1l4VvD9OCIIMA$kNkK',#5,'Pset_BeamCommon','Definition from IAI: Properties common to the definition of all occurrences of IfcBeam.',(#121,#592,#593,#127,#128,#123));
#595= IFCCARTESIANPOINT((0.,20.,-100.));
#596= IFCCARTESIANPOINT((0.,20.,100.));
#597= IFCCARTESIANPOINT((20.,20.,100.));
#598= IFCCARTESIANPOINT((20.,20.,-100.));
#599= IFCPOLYLOOP((#595,#596,#597,#598));
#600= IFCFACEOUTERBOUND(#599,.T.);
#601= IFCFACE((#600));
#602= IFCCARTESIANPOINT((0.,-20.,100.));
#603= IFCCARTESIANPOINT((20.,-20.,100.));
#604= IFCPOLYLOOP((#596,#602,#603,#597));
#605= IFCFACEOUTERBOUND(#604,.T.);
#606= IFCFACE((#605));
#607= IFCCARTESIANPOINT((0.,-20.,-100.));
#608= IFCCARTESIANPOINT((20.,-20.,-100.));
#609= IFCPOLYLOOP((#602,#607,#608,#603));
#610= IFCFACEOUTERBOUND(#609,.T.);
#611= IFCFACE((#610));
#612= IFCPOLYLOOP((#607,#595,#598,#608));
#613= IFCFACEOUTERBOUND(#612,.T.);
#614= IFCFACE((#613));
#615= IFCPOLYLOOP((#603,#608,#598,#597));
#616= IFCFACEOUTERBOUND(#615,.T.);
#617= IFCFACE((#616));
#618= IFCPOLYLOOP((#607,#602,#596,#595));
#619= IFCFACEOUTERBOUND(#618,.T.);
#620= IFCFACE((#619));
#621= IFCCLOSEDSHELL((#601,#606,#611,#614,#617,#620));
#622= IFCFACETEDBREP(#621);
#623= IFCSTYLEDITEM(#622,(#521),$);
#624= IFCSHAPEREPRESENTATION(#12,'Body','Brep',(#622));
#625= IFCPRODUCTDEFINITIONSHAPE($,$,(#624));
#626= IFCCARTESIANPOINT((4030.,31100.,1977.));
#627= IFCAXIS2PLACEMENT3D(#626,#8,#7);
#628= IFCLOCALPLACEMENT(#42,#627);
#629= IFCBEAM('1sbnoJdwfB$gq4TcaGGWPG',#44,'Rissanvisende_fuge','PL200X40',$,#628,#625,'ID76971c93-9faa-4bfe-ad04-766910420650');
#630= IFCBEAMTYPE('0fb6pK7SjBL80Uc5kmcAOy',#5,'PL200X40',$,$,$,$,$,$,.NOTDEFINED.);
#631= IFCPROPERTYSINGLEVALUE('Class',$,IFCLABEL('10'),$);
#632= IFCPROPERTYSET('2djKOtjirFA9okirTmYf9I',#5,'Tekla Common','Common Properties to Shared building elements',(#631,#102,#103,#104,#331,#332));
#633= IFCPROPERTYSINGLEVALUE('Length',$,IFCLENGTHMEASURE(20.),$);
#634= IFCPROPERTYSINGLEVALUE('Width',$,IFCLENGTHMEASURE(40.),$);
#635= IFCPROPERTYSINGLEVALUE('Height',$,IFCLENGTHMEASURE(200.),$);
#636= IFCPROPERTYSINGLEVALUE('Net surface area',$,IFCAREAMEASURE(0.026),$);
#637= IFCPROPERTYSINGLEVALUE('Gross footprint area',$,IFCAREAMEASURE(0.004),$);
#638= IFCPROPERTYSET('1IU0ZqfYfBWBsQbhUhOPay',#5,'Tekla Quantity','Quantity Properties to Shared building elements',(#633,#634,#635,#636,#112,#637,#588,#115));
#639= IFCPROPERTYSET('1lpGLabDL0nhhOLY_efCcI',#5,'BeamBaseQuantities',$,(#633,#590,#118,#119));
#640= IFCPROPERTYSINGLEVALUE('Slope',$,IFCPLANEANGLEMEASURE(0.),$);
#641= IFCPROPERTYSET('2RdQ0s$x5Eoe9aQwIxfiVI',#5,'Pset_BeamCommon','Definition from IAI: Properties common to the definition of all occurrences of IfcBeam.',(#121,#592,#640,#127,#128,#123));
#642= IFCCOLOURRGB('Unnamed',0.63921568627451,0.733333333333333,0.76078431372549);
#643= IFCSURFACESTYLERENDERING(#642,0.,$,$,$,$,IFCNORMALISEDRATIOMEASURE(0.00390625),IFCSPECULAREXPONENT(10.),.NOTDEFINED.);
#644= IFCSURFACESTYLE('MISCELLANEOUS/Misc_Undefined',.POSITIVE.,(#643));
#645= IFCPRESENTATIONSTYLEASSIGNMENT((#644));
#646= IFCCARTESIANPOINT((950.,20.,100.));
#647= IFCCARTESIANPOINT((950.,20.,-100.));
#648= IFCPOLYLOOP((#595,#596,#646,#647));
#649= IFCFACEOUTERBOUND(#648,.T.);
#650= IFCFACE((#649));
#651= IFCCARTESIANPOINT((950.,-20.,100.));
#652= IFCPOLYLOOP((#596,#602,#651,#646));
#653= IFCFACEOUTERBOUND(#652,.T.);
#654= IFCFACE((#653));
#655= IFCCARTESIANPOINT((950.,-20.,-100.));
#656= IFCPOLYLOOP((#602,#607,#655,#651));
#657= IFCFACEOUTERBOUND(#656,.T.);
#658= IFCFACE((#657));
#659= IFCPOLYLOOP((#607,#595,#647,#655));
#660= IFCFACEOUTERBOUND(#659,.T.);
#661= IFCFACE((#660));
#662= IFCPOLYLOOP((#651,#655,#647,#646));
#663= IFCFACEOUTERBOUND(#662,.T.);
#664= IFCFACE((#663));
#665= IFCCLOSEDSHELL((#650,#654,#658,#661,#664,#620));
#666= IFCFACETEDBREP(#665);
#667= IFCSTYLEDITEM(#666,(#645),$);
#668= IFCSHAPEREPRESENTATION(#12,'Body','Brep',(#666));
#669= IFCPRODUCTDEFINITIONSHAPE($,$,(#668));
#670= IFCCARTESIANPOINT((4050.,31100.,1977.));
#671= IFCAXIS2PLACEMENT3D(#670,#8,#7);
#672= IFCLOCALPLACEMENT(#42,#671);
#673= IFCBEAM('3Qg0mvmEfFGvY8yX_yz6Zp',#44,'Asfaltdekker_slitelag','PL200X40',$,#672,#669,'IDdaa80c39-c0ea-4f43-9888-f21fbcf468f3');
#674= IFCPROPERTYSET('3sj95Pdvj32eoYlD4wR8mx',#5,'Tekla Common','Common Properties to Shared building elements',(#631,#102,#103,#104,#331,#332));
#675= IFCPROPERTYSINGLEVALUE('Length',$,IFCLENGTHMEASURE(950.),$);
#676= IFCPROPERTYSINGLEVALUE('Net surface area',$,IFCAREAMEASURE(0.472),$);
#677= IFCPROPERTYSINGLEVALUE('Gross footprint area',$,IFCAREAMEASURE(0.19),$);
#678= IFCPROPERTYSINGLEVALUE('Volume',$,IFCVOLUMEMEASURE(0.008),$);
#679= IFCPROPERTYSET('0T5kzqfaj4qvlkQowzohDc',#5,'Tekla Quantity','Quantity Properties to Shared building elements',(#675,#634,#635,#676,#112,#677,#678,#115));
#680= IFCPROPERTYSINGLEVALUE('OuterSurfaceArea',$,IFCAREAMEASURE(0.5),$);
#681= IFCPROPERTYSET('09bw0yX0X03hUxW6l1R9cO',#5,'BeamBaseQuantities',$,(#675,#680,#118,#119));
#682= IFCPROPERTYSET('0dDcoqpbH0_hIxOc8HHerJ',#5,'Pset_BeamCommon','Definition from IAI: Properties common to the definition of all occurrences of IfcBeam.',(#121,#592,#640,#127,#128,#123));
#683= IFCCOLOURRGB('Unnamed',0.490196078431373,0.623529411764706,0.666666666666667);
#684= IFCSURFACESTYLERENDERING(#683,0.,$,$,$,$,IFCNORMALISEDRATIOMEASURE(0.00390625),IFCSPECULAREXPONENT(10.),.NOTDEFINED.);
#685= IFCSURFACESTYLE('MISCELLANEOUS/Misc_Undefined',.POSITIVE.,(#684));
#686= IFCPRESENTATIONSTYLEASSIGNMENT((#685));
#687= IFCFACETEDBREP(#665);
#688= IFCSTYLEDITEM(#687,(#686),$);
#689= IFCSHAPEREPRESENTATION(#12,'Body','Brep',(#687));
#690= IFCPRODUCTDEFINITIONSHAPE($,$,(#689));
#691= IFCCARTESIANPOINT((4050.,31100.,1937.));
#692= IFCAXIS2PLACEMENT3D(#691,#8,#7);
#693= IFCLOCALPLACEMENT(#42,#692);
#694= IFCBEAM('3vOHvLUKD86ANVuQ6w5XDr',#44,'Asfaltdekker_bindlag','PL200X40',$,#693,#690,'IDf9611e55-7943-4818-a5df-e1a1ba161375');
#695= IFCPROPERTYSET('16EaBMPon34gMZX8h4bcfp',#5,'Tekla Common','Common Properties to Shared building elements',(#631,#102,#103,#104,#293,#294));
#696= IFCPROPERTYSET('2ey8jAs1rFQO2elgbHqixF',#5,'Tekla Quantity','Quantity Properties to Shared building elements',(#675,#634,#635,#676,#112,#677,#678,#115));
#697= IFCPROPERTYSET('3PUtQ7gzPBVOGvUfNbykb9',#5,'BeamBaseQuantities',$,(#675,#680,#118,#119));
#698= IFCPROPERTYSET('2Gq2kVlej64eNB35DYt9K8',#5,'Pset_BeamCommon','Definition from IAI: Properties common to the definition of all occurrences of IfcBeam.',(#121,#592,#640,#127,#128,#123));
#699= IFCCOLOURRGB('Unnamed',0.0117647058823529,0.647058823529412,0.988235294117647);
#700= IFCSURFACESTYLERENDERING(#699,0.,$,$,$,$,IFCNORMALISEDRATIOMEASURE(0.00390625),IFCSPECULAREXPONENT(10.),.NOTDEFINED.);
#701= IFCSURFACESTYLE('MISCELLANEOUS/Misc_Undefined',.POSITIVE.,(#700));
#702= IFCPRESENTATIONSTYLEASSIGNMENT((#701));
#703= IFCCARTESIANPOINT((0.,6.,-100.));
#704= IFCCARTESIANPOINT((0.,6.,100.));
#705= IFCCARTESIANPOINT((873.,6.,100.));
#706= IFCCARTESIANPOINT((873.,6.,-100.));
#707= IFCPOLYLOOP((#703,#704,#705,#706));
#708= IFCFACEOUTERBOUND(#707,.T.);
#709= IFCFACE((#708));
#710= IFCCARTESIANPOINT((0.,-6.,100.));
#711= IFCCARTESIANPOINT((873.,-6.,100.));
#712= IFCPOLYLOOP((#704,#710,#711,#705));
#713= IFCFACEOUTERBOUND(#712,.T.);
#714= IFCFACE((#713));
#715= IFCCARTESIANPOINT((0.,-6.,-100.));
#716= IFCCARTESIANPOINT((873.,-6.,-100.));
#717= IFCPOLYLOOP((#710,#715,#716,#711));
#718= IFCFACEOUTERBOUND(#717,.T.);
#719= IFCFACE((#718));
#720= IFCPOLYLOOP((#715,#703,#706,#716));
#721= IFCFACEOUTERBOUND(#720,.T.);
#722= IFCFACE((#721));
#723= IFCPOLYLOOP((#711,#716,#706,#705));
#724= IFCFACEOUTERBOUND(#723,.T.);
#725= IFCFACE((#724));
#726= IFCPOLYLOOP((#715,#710,#704,#703));
#727= IFCFACEOUTERBOUND(#726,.T.);
#728= IFCFACE((#727));
#729= IFCCLOSEDSHELL((#709,#714,#719,#722,#725,#728));
#730= IFCFACETEDBREP(#729);
#731= IFCSTYLEDITEM(#730,(#702),$);
#732= IFCSHAPEREPRESENTATION(#12,'Body','Brep',(#730));
#733= IFCPRODUCTDEFINITIONSHAPE($,$,(#732));
#734= IFCCARTESIANPOINT((4127.,31100.,1911.));
#735= IFCAXIS2PLACEMENT3D(#734,#8,#7);
#736= IFCLOCALPLACEMENT(#42,#735);
#737= IFCBEAM('0gGRIgymD40uyw1wp$i6NG',#44,'Fuktisolering_(A3-4)','PL200X12',$,#736,#733,'ID2a41b4aa-f303-4403-8f3a-07acffb065d0');
#738= IFCBEAMTYPE('1v86HRhU190BT1DjkwELQ1',#5,'PL200X12',$,$,$,$,$,$,.NOTDEFINED.);
#739= IFCPROPERTYSINGLEVALUE('Bottom elevation',$,IFCLABEL(' +1.905'),$);
#740= IFCPROPERTYSET('2Jxjr7IAfAbQHpKsUtIvoy',#5,'Tekla Common','Common Properties to Shared building elements',(#631,#102,#103,#104,#105,#739));
#741= IFCPROPERTYSINGLEVALUE('Length',$,IFCLENGTHMEASURE(873.),$);
#742= IFCPROPERTYSINGLEVALUE('Width',$,IFCLENGTHMEASURE(12.),$);
#743= IFCPROPERTYSINGLEVALUE('Net surface area',$,IFCAREAMEASURE(0.375),$);
#744= IFCPROPERTYSINGLEVALUE('Gross footprint area',$,IFCAREAMEASURE(0.175),$);
#745= IFCPROPERTYSINGLEVALUE('Volume',$,IFCVOLUMEMEASURE(0.002),$);
#746= IFCPROPERTYSET('1JwuuitCbDzPk7cmEQhJX_',#5,'Tekla Quantity','Quantity Properties to Shared building elements',(#741,#742,#635,#743,#112,#744,#745,#115));
#747= IFCPROPERTYSET('3yQ2AOzGPEkvJUc2D3Hcsv',#5,'BeamBaseQuantities',$,(#741,#680,#118,#119));
#748= IFCPROPERTYSET('1cG_b9ftX7lgKoQrV9qVuM',#5,'Pset_BeamCommon','Definition from IAI: Properties common to the definition of all occurrences of IfcBeam.',(#121,#592,#640,#127,#128,#123));
#749= IFCCOLOURRGB('Unnamed',1.,1.,0.0352941176470588);
#750= IFCSURFACESTYLERENDERING(#749,0.,$,$,$,$,IFCNORMALISEDRATIOMEASURE(0.00390625),IFCSPECULAREXPONENT(10.),.NOTDEFINED.);
#751= IFCSURFACESTYLE('MISCELLANEOUS/Misc_Undefined',.POSITIVE.,(#750));
#752= IFCPRESENTATIONSTYLEASSIGNMENT((#751));
#753= IFCCARTESIANPOINT((0.,2.5,-100.));
#754= IFCCARTESIANPOINT((0.,2.5,100.));
#755= IFCCARTESIANPOINT((670.,2.5,100.));
#756= IFCCARTESIANPOINT((670.,2.5,-100.));
#757= IFCPOLYLOOP((#753,#754,#755,#756));
#758= IFCFACEOUTERBOUND(#757,.T.);
#759= IFCFACE((#758));
#760= IFCCARTESIANPOINT((0.,-2.5,100.));
#761= IFCCARTESIANPOINT((670.,-2.5,100.));
#762= IFCPOLYLOOP((#754,#760,#761,#755));
#763= IFCFACEOUTERBOUND(#762,.T.);
#764= IFCFACE((#763));
#765= IFCCARTESIANPOINT((0.,-2.5,-100.));
#766= IFCCARTESIANPOINT((670.,-2.5,-100.));
#767= IFCPOLYLOOP((#760,#765,#766,#761));
#768= IFCFACEOUTERBOUND(#767,.T.);
#769= IFCFACE((#768));
#770= IFCPOLYLOOP((#765,#753,#756,#766));
#771= IFCFACEOUTERBOUND(#770,.T.);
#772= IFCFACE((#771));
#773= IFCPOLYLOOP((#761,#766,#756,#755));
#774= IFCFACEOUTERBOUND(#773,.T.);
#775= IFCFACE((#774));
#776= IFCPOLYLOOP((#765,#760,#754,#753));
#777= IFCFACEOUTERBOUND(#776,.T.);
#778= IFCFACE((#777));
#779= IFCCLOSEDSHELL((#759,#764,#769,#772,#775,#778));
#780= IFCFACETEDBREP(#779);
#781= IFCSTYLEDITEM(#780,(#752),$);
#782= IFCSHAPEREPRESENTATION(#12,'Body','Brep',(#780));
#783= IFCPRODUCTDEFINITIONSHAPE($,$,(#782));
#784= IFCCARTESIANPOINT((4330.,31100.,1902.5));
#785= IFCAXIS2PLACEMENT3D(#784,#8,#7);
#786= IFCLOCALPLACEMENT(#42,#785);
#787= IFCBEAM('0K6ltnwTb1ygGE7rPeVIsM',#44,'Kleber','PL200X5',$,#786,#783,'ID141afdf1-e9d9-41f2-a40e-1f56687d2d96');
#788= IFCBEAMTYPE('1JZape_jj7Wfdd4SCvbIVn',#5,'PL200X5',$,$,$,$,$,$,.NOTDEFINED.);
#789= IFCPROPERTYSINGLEVALUE('Class',$,IFCLABEL('6'),$);
#790= IFCPROPERTYSINGLEVALUE('Top elevation',$,IFCLABEL(' +1.905'),$);
#791= IFCPROPERTYSINGLEVALUE('Bottom elevation',$,IFCLABEL(' +1.900'),$);
#792= IFCPROPERTYSET('0dVNLrNTD7efsJuraBo5TV',#5,'Tekla Common','Common Properties to Shared building elements',(#789,#102,#103,#104,#790,#791));
#793= IFCPROPERTYSINGLEVALUE('Length',$,IFCLENGTHMEASURE(670.),$);
#794= IFCPROPERTYSINGLEVALUE('Width',$,IFCLENGTHMEASURE(5.),$);
#795= IFCPROPERTYSINGLEVALUE('Net surface area',$,IFCAREAMEASURE(0.277),$);
#796= IFCPROPERTYSINGLEVALUE('Gross footprint area',$,IFCAREAMEASURE(0.134),$);
#797= IFCPROPERTYSINGLEVALUE('Volume',$,IFCVOLUMEMEASURE(0.001),$);
#798= IFCPROPERTYSET('1_WSCp$ub1euZes$4d3_jV',#5,'Tekla Quantity','Quantity Properties to Shared building elements',(#793,#794,#635,#795,#112,#796,#797,#115));
#799= IFCPROPERTYSINGLEVALUE('OuterSurfaceArea',$,IFCAREAMEASURE(0.3),$);
#800= IFCPROPERTYSET('1$sSwG3199lgwFMnHhv5TR',#5,'BeamBaseQuantities',$,(#793,#799,#118,#119));
#801= IFCPROPERTYSET('3CLcixDkH5Mf7JYve2BalK',#5,'Pset_BeamCommon','Definition from IAI: Properties common to the definition of all occurrences of IfcBeam.',(#121,#592,#640,#127,#128,#123));
#802= IFCCOLOURRGB('Unnamed',1.,0.501960784313725,1.);
#803= IFCSURFACESTYLERENDERING(#802,0.,$,$,$,$,IFCNORMALISEDRATIOMEASURE(0.00390625),IFCSPECULAREXPONENT(10.),.NOTDEFINED.);
#804= IFCSURFACESTYLE('MISCELLANEOUS/Misc_Undefined',.POSITIVE.,(#803));
#805= IFCPRESENTATIONSTYLEASSIGNMENT((#804));
#806= IFCCARTESIANPOINT((477.364119409037,2.50000016524984,100.));
#807= IFCCARTESIANPOINT((477.364119409037,2.50000016524984,-100.));
#808= IFCPOLYLOOP((#753,#754,#806,#807));
#809= IFCFACEOUTERBOUND(#808,.T.);
#810= IFCFACE((#809));
#811= IFCCARTESIANPOINT((475.411846188373,-2.4999998354258,-100.));
#812= IFCCARTESIANPOINT((475.411846188373,-2.4999998354258,100.));
#813= IFCPOLYLOOP((#760,#765,#811,#812));
#814= IFCFACEOUTERBOUND(#813,.T.);
#815= IFCFACE((#814));
#816= IFCCARTESIANPOINT((505.035436684735,-22.9957367379275,100.));
#817= IFCCARTESIANPOINT((505.035436684735,-22.9957367379275,-100.));
#818= IFCPOLYLOOP((#807,#806,#816,#817));
#819= IFCFACEOUTERBOUND(#818,.T.);
#820= IFCFACE((#819));
#821= IFCCARTESIANPOINT((500.249183108779,-25.3845702080259,-100.));
#822= IFCCARTESIANPOINT((500.249183108779,-25.3845702080259,100.));
#823= IFCPOLYLOOP((#812,#811,#821,#822));
#824= IFCFACEOUTERBOUND(#823,.T.);
#825= IFCFACE((#824));
#826= IFCCARTESIANPOINT((563.920998993466,-612.471858944257,100.));
#827= IFCCARTESIANPOINT((563.920998993466,-612.471858944257,-100.));
#828= IFCPOLYLOOP((#817,#816,#826,#827));
#829= IFCFACEOUTERBOUND(#828,.T.);
#830= IFCFACE((#829));
#831= IFCCARTESIANPOINT((559.070011234741,-614.212668458447,-100.));
#832= IFCCARTESIANPOINT((559.070011234741,-614.212668458447,100.));
#833= IFCPOLYLOOP((#822,#821,#831,#832));
#834= IFCFACEOUTERBOUND(#833,.T.);
#835= IFCFACE((#834));
#836= IFCCARTESIANPOINT((658.434805517375,-753.776991109953,100.));
#837= IFCCARTESIANPOINT((658.434805517375,-753.776991109953,-100.));
#838= IFCPOLYLOOP((#827,#826,#836,#837));
#839= IFCFACEOUTERBOUND(#838,.T.);
#840= IFCFACE((#839));
#841= IFCCARTESIANPOINT((655.946662921747,-759.050428928285,-100.));
#842= IFCCARTESIANPOINT((655.946662921747,-759.050428928285,100.));
#843= IFCPOLYLOOP((#832,#831,#841,#842));
#844= IFCFACEOUTERBOUND(#843,.T.);
#845= IFCFACE((#844));
#846= IFCCARTESIANPOINT((857.444316568512,-733.896988304845,100.));
#847= IFCCARTESIANPOINT((857.444316568512,-733.896988304845,-100.));
#848= IFCPOLYLOOP((#837,#836,#846,#847));
#849= IFCFACEOUTERBOUND(#848,.T.);
#850= IFCFACE((#849));
#851= IFCCARTESIANPOINT((857.941316638638,-738.872226081102,100.));
#852= IFCPOLYLOOP((#836,#826,#816,#806,#754,#760,#812,#822,#832,#842,#851,#846));
#853= IFCFACEOUTERBOUND(#852,.T.);
#854= IFCFACE((#853));
#855= IFCCARTESIANPOINT((857.941316638638,-738.872226081102,-100.));
#856= IFCPOLYLOOP((#842,#841,#855,#851));
#857= IFCFACEOUTERBOUND(#856,.T.);
#858= IFCFACE((#857));
#859= IFCPOLYLOOP((#841,#831,#821,#811,#765,#753,#807,#817,#827,#837,#847,#855));
#860= IFCFACEOUTERBOUND(#859,.T.);
#861= IFCFACE((#860));
#862= IFCPOLYLOOP((#851,#855,#847,#846));
#863= IFCFACEOUTERBOUND(#862,.T.);
#864= IFCFACE((#863));
#865= IFCCLOSEDSHELL((#778,#810,#815,#820,#825,#830,#835,#840,#845,#850,#854,#858,#861,#864));
#866= IFCFACETEDBREP(#865);
#867= IFCSTYLEDITEM(#866,(#805),$);
#868= IFCSHAPEREPRESENTATION(#12,'Body','Brep',(#866));
#869= IFCPRODUCTDEFINITIONSHAPE($,$,(#868));
#870= IFCCARTESIANPOINT((3549.7514999658,31100.,1084.50761888821));
#871= IFCDIRECTION((0.99504755525141,0.,0.0994000140251147));
#872= IFCAXIS2PLACEMENT3D(#870,#8,#871);
#873= IFCLOCALPLACEMENT(#42,#872);
#874= IFCBEAM('3b9VXYdaH9kQwF4hTLkE6M',#44,'Fuktisolering_(A3-2)','PL200X5',$,#873,#869,'IDe525f862-9e44-49b9-ae8f-12b755b8e196');
#875= IFCPROPERTYSINGLEVALUE('Class',$,IFCLABEL('12'),$);
#876= IFCPROPERTYSINGLEVALUE('Bottom elevation',$,IFCLABEL(' +1.082'),$);
#877= IFCPROPERTYSET('1$gtMVIXfDOxOOxHVkrg8d',#5,'Tekla Common','Common Properties to Shared building elements',(#875,#102,#103,#104,#790,#876));
#878= IFCPROPERTYSINGLEVALUE('Length',$,IFCLENGTHMEASURE(1477.8),$);
#879= IFCPROPERTYSINGLEVALUE('Net surface area',$,IFCAREAMEASURE(0.608),$);
#880= IFCPROPERTYSINGLEVALUE('Gross footprint area',$,IFCAREAMEASURE(0.041),$);
#881= IFCPROPERTYSET('2OR0od1Xb2PhvgbATJGTIy',#5,'Tekla Quantity','Quantity Properties to Shared building elements',(#878,#794,#635,#879,#112,#880,#797,#115));
#882= IFCPROPERTYSINGLEVALUE('OuterSurfaceArea',$,IFCAREAMEASURE(0.6),$);
#883= IFCPROPERTYSET('0z6yi8I2P6cvXMDGiigr2m',#5,'BeamBaseQuantities',$,(#878,#882,#118,#119));
#884= IFCPROPERTYSINGLEVALUE('Slope',$,IFCPLANEANGLEMEASURE(0.09956),$);
#885= IFCPROPERTYSET('0X7ROY629EBR6VzhSMZTZl',#5,'Pset_BeamCommon','Definition from IAI: Properties common to the definition of all occurrences of IfcBeam.',(#121,#592,#884,#127,#128,#123));
#886= IFCCOLOURRGB('Unnamed',0.654901960784314,0.654901960784314,0.654901960784314);
#887= IFCSURFACESTYLERENDERING(#886,0.,$,$,$,$,IFCNORMALISEDRATIOMEASURE(0.00390625),IFCSPECULAREXPONENT(10.),.NOTDEFINED.);
#888= IFCSURFACESTYLE('CONCRETE/B45_SV_Standard',.POSITIVE.,(#887));
#889= IFCPRESENTATIONSTYLEASSIGNMENT((#888));
#890= IFCCARTESIANPOINT((0.,-100.,0.));
#891= IFCCARTESIANPOINT((-104.494937810574,-100.,1045.00000000009));
#892= IFCCARTESIANPOINT((-104.494937810574,100.,1045.00000000009));
#893= IFCCARTESIANPOINT((0.,100.,0.));
#894= IFCPOLYLOOP((#890,#891,#892,#893));
#895= IFCFACEOUTERBOUND(#894,.T.);
#896= IFCFACE((#895));
#897= IFCCARTESIANPOINT((297.495062189426,-100.,1045.00000000009));
#898= IFCCARTESIANPOINT((297.495062189426,100.,1045.00000000009));
#899= IFCPOLYLOOP((#891,#897,#898,#892));
#900= IFCFACEOUTERBOUND(#899,.T.);
#901= IFCFACE((#900));
#902= IFCCARTESIANPOINT((401.945062189433,-100.,1.81898940354586E-11));
#903= IFCCARTESIANPOINT((401.945062189433,100.,1.81898940354586E-11));
#904= IFCPOLYLOOP((#897,#902,#903,#898));
#905= IFCFACEOUTERBOUND(#904,.T.);
#906= IFCFACE((#905));
#907= IFCPOLYLOOP((#902,#890,#893,#903));
#908= IFCFACEOUTERBOUND(#907,.T.);
#909= IFCFACE((#908));
#910= IFCPOLYLOOP((#898,#903,#893,#892));
#911= IFCFACEOUTERBOUND(#910,.T.);
#912= IFCFACE((#911));
#913= IFCPOLYLOOP((#902,#897,#891,#890));
#914= IFCFACEOUTERBOUND(#913,.T.);
#915= IFCFACE((#914));
#916= IFCCLOSEDSHELL((#896,#901,#906,#909,#912,#915));
#917= IFCFACETEDBREP(#916);
#918= IFCSTYLEDITEM(#917,(#889),$);
#919= IFCSHAPEREPRESENTATION(#12,'Body','Brep',(#917));
#920= IFCPRODUCTDEFINITIONSHAPE($,$,(#919));
#921= IFCCARTESIANPOINT((4045.00000000009,31100.,729.524937810574));
#922= IFCAXIS2PLACEMENT3D(#921,#239,#9);
#923= IFCLOCALPLACEMENT(#42,#922);
#924= IFCPLATE('32GwJFRST5zfSzg0zjwYkt',#44,'Overgangsplate','PL200X400',$,#923,#920,'IDc243a4cf-6dc7-45f6-973d-a80f6dea2bb7');
#925= IFCPLATETYPE('1j_VFVq31B$w_iRwlELe$M',#5,'PL200X400',$,$,$,$,$,$,.NOTDEFINED.);
#926= IFCPROPERTYSINGLEVALUE('Top elevation',$,IFCLABEL(' +1.131'),$);
#927= IFCPROPERTYSINGLEVALUE('Bottom elevation',$,IFCLABEL(' +0.625'),$);
#928= IFCPROPERTYSET('2cjA0ER6f5veJyfb$mQo7N',#5,'Tekla Common','Common Properties to Shared building elements',(#101,#102,#103,#104,#926,#927));
#929= IFCPROPERTYSINGLEVALUE('Length',$,IFCLENGTHMEASURE(1090.2),$);
#930= IFCPROPERTYSINGLEVALUE('Width',$,IFCLENGTHMEASURE(200.),$);
#931= IFCPROPERTYSINGLEVALUE('Height',$,IFCLENGTHMEASURE(400.),$);
#932= IFCPROPERTYSINGLEVALUE('Net surface area',$,IFCAREAMEASURE(1.421),$);
#933= IFCPROPERTYSINGLEVALUE('Area per tons',$,IFCAREAMEASURE(7.048),$);
#934= IFCPROPERTYSINGLEVALUE('Volume',$,IFCVOLUMEMEASURE(0.084),$);
#935= IFCPROPERTYSINGLEVALUE('Weight',$,IFCMASSMEASURE(201.63),$);
#936= IFCPROPERTYSET('1ygGBrh8H20vp9RexWuKCd',#5,'Tekla Quantity','Quantity Properties to Shared building elements',(#929,#930,#931,#932,#933,#192,#934,#935));
#937= IFCPROPERTYSINGLEVALUE('Width',$,IFCLENGTHMEASURE(400.),$);
#938= IFCPROPERTYSINGLEVALUE('NetArea',$,IFCAREAMEASURE(1.4),$);
#939= IFCPROPERTYSINGLEVALUE('GrossArea',$,IFCAREAMEASURE(0.4),$);
#940= IFCPROPERTYSINGLEVALUE('CrossSectionArea',$,IFCAREAMEASURE(0.),$);
#941= IFCPROPERTYSINGLEVALUE('GrossVolume',$,IFCVOLUMEMEASURE(0.1),$);
#942= IFCPROPERTYSET('0iDwHPTVTAAwnfb3UYcq_l',#5,'PlateBaseQuantities',$,(#937,#938,#939,#940,#196,#941));
#943= IFCPROPERTYSET('1y0FxEsJn4owg2rI8sIXX$',#5,'Pset_PlateCommon','Definition from IAI: Properties common to the definition of all occurrences of IfcPlate.',(#121,#127,#128,#122,#123,#126));
#944= IFCMATERIAL('CONCRETE/B45_SV_Standard');
#945= IFCCARTESIANPOINT((22.1395774821958,-100.,20.3982623994441));
#946= IFCCARTESIANPOINT((22.1395774821958,100.,20.3982623994441));
#947= IFCPOLYLOOP((#890,#945,#946,#893));
#948= IFCFACEOUTERBOUND(#947,.T.);
#949= IFCFACE((#948));
#950= IFCCARTESIANPOINT((20.0997512423219,-100.,2.27373675443232E-13));
#951= IFCCARTESIANPOINT((20.0997512423219,100.,2.27373675443232E-13));
#952= IFCPOLYLOOP((#945,#950,#951,#946));
#953= IFCFACEOUTERBOUND(#952,.T.);
#954= IFCFACE((#953));
#955= IFCPOLYLOOP((#950,#890,#893,#951));
#956= IFCFACEOUTERBOUND(#955,.T.);
#957= IFCFACE((#956));
#958= IFCPOLYLOOP((#951,#893,#946));
#959= IFCFACEOUTERBOUND(#958,.T.);
#960= IFCFACE((#959));
#961= IFCPOLYLOOP((#950,#945,#890));
#962= IFCFACEOUTERBOUND(#961,.T.);
#963= IFCFACE((#962));
#964= IFCCLOSEDSHELL((#949,#954,#957,#960,#963));
#965= IFCFACETEDBREP(#964);
#966= IFCSTYLEDITEM(#965,(#521),$);
#967= IFCSHAPEREPRESENTATION(#12,'Body','Brep',(#965));
#968= IFCPRODUCTDEFINITIONSHAPE($,$,(#967));
#969= IFCCARTESIANPOINT((4025.,31100.,1129.47));
#970= IFCDIRECTION((-0.099503719021001,0.,0.995037190209989));
#971= IFCDIRECTION((0.995037190209989,0.,0.0995037190210012));
#972= IFCAXIS2PLACEMENT3D(#969,#970,#971);
#973= IFCLOCALPLACEMENT(#42,#972);
#974= IFCPLATE('2mkWgO3aH97upiLD8UG6b7',#44,'Bitumenbasert_hulkil','PL200X14',$,#973,#968,'IDb0ba0a98-0e44-491f-8cec-54d21e406947');
#975= IFCPLATETYPE('1I24qKu4j8sAn8YMsJcuxy',#5,'PL200X14',$,$,$,$,$,$,.NOTDEFINED.);
#976= IFCPROPERTYSINGLEVALUE('Top elevation',$,IFCLABEL(' +1.152'),$);
#977= IFCPROPERTYSINGLEVALUE('Bottom elevation',$,IFCLABEL(' +1.129'),$);
#978= IFCPROPERTYSET('2ovcUzzaz4xecT9pJ$xGde',#5,'Tekla Common','Common Properties to Shared building elements',(#580,#102,#103,#104,#976,#977));
#979= IFCPROPERTYSINGLEVALUE('Length',$,IFCLENGTHMEASURE(30.1),$);
#980= IFCPROPERTYSINGLEVALUE('Height',$,IFCLENGTHMEASURE(13.6),$);
#981= IFCPROPERTYSINGLEVALUE('Net surface area',$,IFCAREAMEASURE(0.015),$);
#982= IFCPROPERTYSET('1s0AROWBf7P8BuvNfQWf0$',#5,'Tekla Quantity','Quantity Properties to Shared building elements',(#979,#930,#980,#981,#112,#192,#588,#115));
#983= IFCPROPERTYSINGLEVALUE('Width',$,IFCLENGTHMEASURE(13.6),$);
#984= IFCPROPERTYSINGLEVALUE('NetArea',$,IFCAREAMEASURE(0.),$);
#985= IFCPROPERTYSINGLEVALUE('GrossArea',$,IFCAREAMEASURE(0.),$);
#986= IFCPROPERTYSINGLEVALUE('GrossVolume',$,IFCVOLUMEMEASURE(0.),$);
#987= IFCPROPERTYSET('2qftCxCMT7HOee_1oNHR5N',#5,'PlateBaseQuantities',$,(#983,#984,#985,#940,#118,#986));
#988= IFCPROPERTYSET('1vf4nJxzz5dxK$nvPM0nYc',#5,'Pset_PlateCommon','Definition from IAI: Properties common to the definition of all occurrences of IfcPlate.',(#121,#127,#128,#122,#123,#126));
#989= IFCCARTESIANPOINT((251.246890528118,2.5000000000004,100.));
#990= IFCCARTESIANPOINT((251.246890528118,2.5000000000004,-100.));
#991= IFCPOLYLOOP((#753,#754,#989,#990));
#992= IFCFACEOUTERBOUND(#991,.T.);
#993= IFCFACE((#992));
#994= IFCCARTESIANPOINT((246.721952717557,-2.49999999999972,-100.));
#995= IFCCARTESIANPOINT((246.721952717557,-2.49999999999972,100.));
#996= IFCPOLYLOOP((#760,#765,#994,#995));
#997= IFCFACEOUTERBOUND(#996,.T.);
#998= IFCFACE((#997));
#999= IFCCARTESIANPOINT((293.731993438529,-422.351029104118,100.));
#1000= IFCCARTESIANPOINT((293.731993438529,-422.351029104118,-100.));
#1001= IFCPOLYLOOP((#990,#989,#999,#1000));
#1002= IFCFACEOUTERBOUND(#1001,.T.);
#1003= IFCFACE((#1002));
#1004= IFCCARTESIANPOINT((288.756807487479,-422.848547699223,100.));
#1005= IFCPOLYLOOP((#989,#754,#760,#995,#1004,#999));
#1006= IFCFACEOUTERBOUND(#1005,.T.);
#1007= IFCFACE((#1006));
#1008= IFCCARTESIANPOINT((288.756807487479,-422.848547699223,-100.));
#1009= IFCPOLYLOOP((#995,#994,#1008,#1004));
#1010= IFCFACEOUTERBOUND(#1009,.T.);
#1011= IFCFACE((#1010));
#1012= IFCPOLYLOOP((#994,#765,#753,#990,#1000,#1008));
#1013= IFCFACEOUTERBOUND(#1012,.T.);
#1014= IFCFACE((#1013));
#1015= IFCPOLYLOOP((#1004,#1008,#1000,#999));
#1016= IFCFACEOUTERBOUND(#1015,.T.);
#1017= IFCFACE((#1016));
#1018= IFCCLOSEDSHELL((#778,#993,#998,#1003,#1007,#1011,#1014,#1017));
#1019= IFCFACETEDBREP(#1018);
#1020= IFCSTYLEDITEM(#1019,(#702),$);
#1021= IFCSHAPEREPRESENTATION(#12,'Body','Brep',(#1019));
#1022= IFCPRODUCTDEFINITIONSHAPE($,$,(#1021));
#1023= IFCCARTESIANPOINT((3799.75124070245,31100.,702.48759297553));
#1024= IFCAXIS2PLACEMENT3D(#1023,#8,#971);
#1025= IFCLOCALPLACEMENT(#42,#1024);
#1026= IFCBEAM('1ltYPAgp59fPhuYedP7Pm_',#44,'Asfaltmembran','PL200X5',$,#1025,#1022,'ID6fde264a-ab31-49a5-9af8-8a89d91d9c3e');
#1027= IFCPROPERTYSINGLEVALUE('Bottom elevation',$,IFCLABEL(' +0.700'),$);
#1028= IFCPROPERTYSET('2Wh142ngvAvvRiG1RA039t',#5,'Tekla Common','Common Properties to Shared building elements',(#789,#102,#103,#104,#976,#1027));
#1029= IFCPROPERTYSINGLEVALUE('Length',$,IFCLENGTHMEASURE(673.7),$);
#1030= IFCPROPERTYSINGLEVALUE('Net surface area',$,IFCAREAMEASURE(0.278),$);
#1031= IFCPROPERTYSINGLEVALUE('Gross footprint area',$,IFCAREAMEASURE(0.001),$);
#1032= IFCPROPERTYSET('3DIhwO3WjFKuX0Reaigcvt',#5,'Tekla Quantity','Quantity Properties to Shared building elements',(#1029,#794,#635,#1030,#112,#1031,#797,#115));
#1033= IFCPROPERTYSET('1lX5nu1ajFN9MRqhQNtmB7',#5,'BeamBaseQuantities',$,(#1029,#799,#118,#119));
#1034= IFCPROPERTYSINGLEVALUE('Slope',$,IFCPLANEANGLEMEASURE(0.09967),$);
#1035= IFCPROPERTYSET('1QCYu3NY9BCQ4AWpkKzIZt',#5,'Pset_BeamCommon','Definition from IAI: Properties common to the definition of all occurrences of IfcBeam.',(#121,#592,#1034,#127,#128,#123));
#1036= IFCCOLOURRGB('Unnamed',0.96078431372549,0.682352941176471,0.0392156862745098);
#1037= IFCSURFACESTYLERENDERING(#1036,0.,$,$,$,$,IFCNORMALISEDRATIOMEASURE(0.00390625),IFCSPECULAREXPONENT(10.),.NOTDEFINED.);
#1038= IFCSURFACESTYLE('MISCELLANEOUS/Misc_Undefined',.POSITIVE.,(#1037));
#1039= IFCPRESENTATIONSTYLEASSIGNMENT((#1038));
#1040= IFCCARTESIANPOINT((0.,10.,-100.));
#1041= IFCCARTESIANPOINT((-1020.,10.,-100.));
#1042= IFCCARTESIANPOINT((-1020.,10.,100.));
#1043= IFCCARTESIANPOINT((0.,10.,100.));
#1044= IFCCARTESIANPOINT((1020.,10.,100.));
#1045= IFCCARTESIANPOINT((1020.,10.,-100.));
#1046= IFCPOLYLOOP((#1040,#1041,#1042,#1043,#1044,#1045));
#1047= IFCFACEOUTERBOUND(#1046,.T.);
#1048= IFCFACE((#1047));
#1049= IFCCARTESIANPOINT((0.,-10.,100.));
#1050= IFCCARTESIANPOINT((-1000.,-10.,100.));
#1051= IFCCARTESIANPOINT((-1000.,-10.,-100.));
#1052= IFCCARTESIANPOINT((0.,-10.,-100.));
#1053= IFCCARTESIANPOINT((1000.,-10.,-100.));
#1054= IFCCARTESIANPOINT((1000.,-10.,100.));
#1055= IFCPOLYLOOP((#1049,#1050,#1051,#1052,#1053,#1054));
#1056= IFCFACEOUTERBOUND(#1055,.T.);
#1057= IFCFACE((#1056));
#1058= IFCCARTESIANPOINT((1020.,-2320.,100.));
#1059= IFCCARTESIANPOINT((1020.,-2320.,-100.));
#1060= IFCPOLYLOOP((#1045,#1044,#1058,#1059));
#1061= IFCFACEOUTERBOUND(#1060,.T.);
#1062= IFCFACE((#1061));
#1063= IFCCARTESIANPOINT((1000.,-2300.,-100.));
#1064= IFCCARTESIANPOINT((1000.,-2300.,100.));
#1065= IFCPOLYLOOP((#1054,#1053,#1063,#1064));
#1066= IFCFACEOUTERBOUND(#1065,.T.);
#1067= IFCFACE((#1066));
#1068= IFCCARTESIANPOINT((52.0301245623905,-2320.,100.));
#1069= IFCCARTESIANPOINT((52.0301245623905,-2320.,-100.));
#1070= IFCPOLYLOOP((#1059,#1058,#1068,#1069));
#1071= IFCFACEOUTERBOUND(#1070,.T.);
#1072= IFCFACE((#1071));
#1073= IFCCARTESIANPOINT((63.5705992207149,-2300.,-100.));
#1074= IFCCARTESIANPOINT((63.5705992207149,-2300.,100.));
#1075= IFCPOLYLOOP((#1064,#1063,#1073,#1074));
#1076= IFCFACEOUTERBOUND(#1075,.T.);
#1077= IFCFACE((#1076));
#1078= IFCCARTESIANPOINT((9.99982820693231,-2247.28367958263,100.));
#1079= IFCCARTESIANPOINT((9.99982820693231,-2247.28367958263,-100.));
#1080= IFCPOLYLOOP((#1069,#1068,#1078,#1079));
#1081= IFCFACEOUTERBOUND(#1080,.T.);
#1082= IFCFACE((#1081));
#1083= IFCCARTESIANPOINT((-9.99982820693231,-2172.71632041737,-100.));
#1084= IFCCARTESIANPOINT((-9.99982820693231,-2172.71632041737,100.));
#1085= IFCPOLYLOOP((#1074,#1073,#1083,#1084));
#1086= IFCFACEOUTERBOUND(#1085,.T.);
#1087= IFCFACE((#1086));
#1088= IFCCARTESIANPOINT((9.99890664283748,-2447.28755582285,100.));
#1089= IFCCARTESIANPOINT((9.99890664283748,-2447.28755582285,-100.));
#1090= IFCPOLYLOOP((#1079,#1078,#1088,#1089));
#1091= IFCFACEOUTERBOUND(#1090,.T.);
#1092= IFCFACE((#1091));
#1093= IFCCARTESIANPOINT((-10.0007497710289,-2372.72019665758,-100.));
#1094= IFCCARTESIANPOINT((-10.0007497710289,-2372.72019665758,100.));
#1095= IFCPOLYLOOP((#1084,#1083,#1093,#1094));
#1096= IFCFACEOUTERBOUND(#1095,.T.);
#1097= IFCFACE((#1096));
#1098= IFCCARTESIANPOINT((-63.5737612656822,-2320.,100.));
#1099= IFCCARTESIANPOINT((-63.5737612656822,-2320.,-100.));
#1100= IFCPOLYLOOP((#1089,#1088,#1098,#1099));
#1101= IFCFACEOUTERBOUND(#1100,.T.);
#1102= IFCFACE((#1101));
#1103= IFCCARTESIANPOINT((-52.0332866073595,-2300.,-100.));
#1104= IFCCARTESIANPOINT((-52.0332866073595,-2300.,100.));
#1105= IFCPOLYLOOP((#1094,#1093,#1103,#1104));
#1106= IFCFACEOUTERBOUND(#1105,.T.);
#1107= IFCFACE((#1106));
#1108= IFCCARTESIANPOINT((-1020.,-2320.,100.));
#1109= IFCCARTESIANPOINT((-1020.,-2320.,-100.));
#1110= IFCPOLYLOOP((#1099,#1098,#1108,#1109));
#1111= IFCFACEOUTERBOUND(#1110,.T.);
#1112= IFCFACE((#1111));
#1113= IFCCARTESIANPOINT((-1000.,-2300.,-100.));
#1114= IFCCARTESIANPOINT((-1000.,-2300.,100.));
#1115= IFCPOLYLOOP((#1104,#1103,#1113,#1114));
#1116= IFCFACEOUTERBOUND(#1115,.T.);
#1117= IFCFACE((#1116));
#1118= IFCPOLYLOOP((#1109,#1108,#1042,#1041));
#1119= IFCFACEOUTERBOUND(#1118,.T.);
#1120= IFCFACE((#1119));
#1121= IFCPOLYLOOP((#1114,#1113,#1051,#1050));
#1122= IFCFACEOUTERBOUND(#1121,.T.);
#1123= IFCFACE((#1122));
#1124= IFCPOLYLOOP((#1042,#1108,#1098,#1088,#1078,#1068,#1058,#1044,#1043));
#1125= IFCFACEOUTERBOUND(#1124,.T.);
#1126= IFCPOLYLOOP((#1054,#1064,#1074,#1084,#1094,#1104,#1114,#1050,#1049));
#1127= IFCFACEBOUND(#1126,.T.);
#1128= IFCFACE((#1125,#1127));
#1129= IFCPOLYLOOP((#1045,#1059,#1069,#1079,#1089,#1099,#1109,#1041,#1040));
#1130= IFCFACEOUTERBOUND(#1129,.T.);
#1131= IFCPOLYLOOP((#1051,#1113,#1103,#1093,#1083,#1073,#1063,#1053,#1052));
#1132= IFCFACEBOUND(#1131,.T.);
#1133= IFCFACE((#1130,#1132));
#1134= IFCCLOSEDSHELL((#1048,#1057,#1062,#1067,#1072,#1077,#1082,#1087,#1092,#1097,#1102,#1107,#1112,#1117,#1120,#1123,#1128,#1133));
#1135= IFCFACETEDBREP(#1134);
#1136= IFCSTYLEDITEM(#1135,(#1039),$);
#1137= IFCSHAPEREPRESENTATION(#12,'Body','Brep',(#1135));
#1138= IFCPRODUCTDEFINITIONSHAPE($,$,(#1137));
#1139= IFCCARTESIANPOINT((4000.,31100.,-10.));
#1140= IFCAXIS2PLACEMENT3D(#1139,#574,#239);
#1141= IFCLOCALPLACEMENT(#42,#1140);
#1142= IFCBEAM('1lZl77dxv14uAVA1eSAS9P',#44,'Ramme','PL200X20',$,#1141,#1138,'ID6f8ef1c7-9fbe-4113-829f-281a1c29c259');
#1143= IFCBEAMTYPE('1wmCKw1p1AiBi0uaIHFdJm',#5,'PL200X20',$,$,$,$,$,$,.NOTDEFINED.);
#1144= IFCPROPERTYSINGLEVALUE('Top elevation',$,IFCLABEL(' +2.437'),$);
#1145= IFCPROPERTYSINGLEVALUE('Bottom elevation',$,IFCLABEL(' -0.020'),$);
#1146= IFCPROPERTYSET('15gyg1QyT0BxmIwdgFuZB6',#5,'Tekla Common','Common Properties to Shared building elements',(#580,#102,#103,#104,#1144,#1145));
#1147= IFCPROPERTYSINGLEVALUE('Length',$,IFCLENGTHMEASURE(8975.4),$);
#1148= IFCPROPERTYSINGLEVALUE('Net surface area',$,IFCAREAMEASURE(3.949),$);
#1149= IFCPROPERTYSINGLEVALUE('Volume',$,IFCVOLUMEMEASURE(0.036),$);
#1150= IFCPROPERTYSET('2Wp7GOSyv2ORoeJrQQCci2',#5,'Tekla Quantity','Quantity Properties to Shared building elements',(#1147,#585,#635,#1148,#112,#192,#1149,#115));
#1151= IFCPROPERTYSINGLEVALUE('OuterSurfaceArea',$,IFCAREAMEASURE(3.9),$);
#1152= IFCPROPERTYSET('2wTwCPFYP6NQRCackx4pJ3',#5,'BeamBaseQuantities',$,(#1147,#1151,#118,#119));
#1153= IFCPROPERTYSET('2vw1M95Ub0sf0CkDNt3lqy',#5,'Pset_BeamCommon','Definition from IAI: Properties common to the definition of all occurrences of IfcBeam.',(#121,#592,#640,#127,#128,#123));
#1154= IFCCOLOURRGB('Unnamed',0.945098039215686,0.741176470588235,0.0392156862745098);
#1155= IFCSURFACESTYLERENDERING(#1154,0.,$,$,$,$,IFCNORMALISEDRATIOMEASURE(0.00390625),IFCSPECULAREXPONENT(10.),.NOTDEFINED.);
#1156= IFCSURFACESTYLE('MISCELLANEOUS/Misc_Undefined',.POSITIVE.,(#1155));
#1157= IFCPRESENTATIONSTYLEASSIGNMENT((#1156));
#1158= IFCCARTESIANPOINT((-7.00000000000023,-100.,70.));
#1159= IFCCARTESIANPOINT((-7.00000000000023,100.,70.));
#1160= IFCPOLYLOOP((#890,#1158,#1159,#893));
#1161= IFCFACEOUTERBOUND(#1160,.T.);
#1162= IFCFACE((#1161));
#1163= IFCCARTESIANPOINT((45.,-100.,0.));
#1164= IFCCARTESIANPOINT((45.,100.,0.));
#1165= IFCPOLYLOOP((#1158,#1163,#1164,#1159));
#1166= IFCFACEOUTERBOUND(#1165,.T.);
#1167= IFCFACE((#1166));
#1168= IFCPOLYLOOP((#1163,#890,#893,#1164));
#1169= IFCFACEOUTERBOUND(#1168,.T.);
#1170= IFCFACE((#1169));
#1171= IFCPOLYLOOP((#1164,#893,#1159));
#1172= IFCFACEOUTERBOUND(#1171,.T.);
#1173= IFCFACE((#1172));
#1174= IFCPOLYLOOP((#1163,#1158,#890));
#1175= IFCFACEOUTERBOUND(#1174,.T.);
#1176= IFCFACE((#1175));
#1177= IFCCLOSEDSHELL((#1162,#1167,#1170,#1173,#1176));
#1178= IFCFACETEDBREP(#1177);
#1179= IFCSTYLEDITEM(#1178,(#1157),$);
#1180= IFCSHAPEREPRESENTATION(#12,'Body','Brep',(#1178));
#1181= IFCPRODUCTDEFINITIONSHAPE($,$,(#1180));
#1182= IFCCARTESIANPOINT((3800.,31100.,700.));
#1183= IFCAXIS2PLACEMENT3D(#1182,#7,#96);
#1184= IFCLOCALPLACEMENT(#42,#1183);
#1185= IFCPLATE('3fe9G36mb9zfdsfAdhJRhG',#44,'Trekantlist','PL200X36',$,#1184,#1181,'IDe9a09403-1b09-49f6-99f6-a4a9eb4dbad0');
#1186= IFCPLATETYPE('3YfsUW1d1FBRt3$ES8uprd',#5,'PL200X36',$,$,$,$,$,$,.NOTDEFINED.);
#1187= IFCPROPERTYSINGLEVALUE('Top elevation',$,IFCLABEL(' +0.707'),$);
#1188= IFCPROPERTYSINGLEVALUE('Bottom elevation',$,IFCLABEL(' +0.655'),$);
#1189= IFCPROPERTYSET('2zXN0j__X17A68URSB5$k4',#5,'Tekla Common','Common Properties to Shared building elements',(#580,#102,#103,#104,#1187,#1188));
#1190= IFCPROPERTYSINGLEVALUE('Length',$,IFCLENGTHMEASURE(87.2),$);
#1191= IFCPROPERTYSINGLEVALUE('Height',$,IFCLENGTHMEASURE(36.1),$);
#1192= IFCPROPERTYSINGLEVALUE('Net surface area',$,IFCAREAMEASURE(0.044),$);
#1193= IFCPROPERTYSET('0vpXGcCw1ByugVIwdQXbCr',#5,'Tekla Quantity','Quantity Properties to Shared building elements',(#1190,#930,#1191,#1192,#112,#192,#588,#115));
#1194= IFCPROPERTYSINGLEVALUE('Width',$,IFCLENGTHMEASURE(36.1),$);
#1195= IFCPROPERTYSET('1h5IwZGTH2PRlI7n2RW7Qf',#5,'PlateBaseQuantities',$,(#1194,#984,#985,#940,#118,#986));
#1196= IFCPROPERTYSET('29wx6vR7zDzOso8_$FLE19',#5,'Pset_PlateCommon','Definition from IAI: Properties common to the definition of all occurrences of IfcPlate.',(#121,#127,#128,#122,#123,#126));
#1197= IFCCOLOURRGB('Unnamed',0.823529411764706,0.823529411764706,0.823529411764706);
#1198= IFCSURFACESTYLERENDERING(#1197,0.,$,$,$,$,IFCNORMALISEDRATIOMEASURE(0.00390625),IFCSPECULAREXPONENT(10.),.NOTDEFINED.);
#1199= IFCSURFACESTYLE('CONCRETE/B45_SV_Standard',.POSITIVE.,(#1198));
#1200= IFCPRESENTATIONSTYLEASSIGNMENT((#1199));
#1201= IFCCARTESIANPOINT((-250.,-100.,-250.));
#1202= IFCCARTESIANPOINT((-250.,100.,-250.));
#1203= IFCPOLYLOOP((#890,#1201,#1202,#893));
#1204= IFCFACEOUTERBOUND(#1203,.T.);
#1205= IFCFACE((#1204));
#1206= IFCCARTESIANPOINT((-455.,-100.,-250.));
#1207= IFCCARTESIANPOINT((-455.,100.,-250.));
#1208= IFCPOLYLOOP((#1201,#1206,#1207,#1202));
#1209= IFCFACEOUTERBOUND(#1208,.T.);
#1210= IFCFACE((#1209));
#1211= IFCCARTESIANPOINT((-507.,-100.,-180.));
#1212= IFCCARTESIANPOINT((-507.,100.,-180.));
#1213= IFCPOLYLOOP((#1206,#1211,#1212,#1207));
#1214= IFCFACEOUTERBOUND(#1213,.T.);
#1215= IFCFACE((#1214));
#1216= IFCCARTESIANPOINT((-525.,-100.,0.));
#1217= IFCCARTESIANPOINT((-525.,100.,0.));
#1218= IFCPOLYLOOP((#1211,#1216,#1217,#1212));
#1219= IFCFACEOUTERBOUND(#1218,.T.);
#1220= IFCFACE((#1219));
#1221= IFCCARTESIANPOINT((-1550.,-100.,0.));
#1222= IFCCARTESIANPOINT((-1550.,100.,0.));
#1223= IFCPOLYLOOP((#1216,#1221,#1222,#1217));
#1224= IFCFACEOUTERBOUND(#1223,.T.);
#1225= IFCFACE((#1224));
#1226= IFCCARTESIANPOINT((-1700.,-100.,80.));
#1227= IFCCARTESIANPOINT((-1700.,100.,80.));
#1228= IFCPOLYLOOP((#1221,#1226,#1227,#1222));
#1229= IFCFACEOUTERBOUND(#1228,.T.);
#1230= IFCFACE((#1229));
#1231= IFCCARTESIANPOINT((-1700.,-100.,950.));
#1232= IFCCARTESIANPOINT((-1700.,100.,950.));
#1233= IFCPOLYLOOP((#1226,#1231,#1232,#1227));
#1234= IFCFACEOUTERBOUND(#1233,.T.);
#1235= IFCFACE((#1234));
#1236= IFCCARTESIANPOINT((200.,-100.,950.));
#1237= IFCCARTESIANPOINT((200.,100.,950.));
#1238= IFCPOLYLOOP((#1231,#1236,#1237,#1232));
#1239= IFCFACEOUTERBOUND(#1238,.T.);
#1240= IFCFACE((#1239));
#1241= IFCCARTESIANPOINT((200.,-100.,0.));
#1242= IFCCARTESIANPOINT((200.,100.,0.));
#1243= IFCPOLYLOOP((#1236,#1241,#1242,#1237));
#1244= IFCFACEOUTERBOUND(#1243,.T.);
#1245= IFCFACE((#1244));
#1246= IFCPOLYLOOP((#1241,#890,#893,#1242));
#1247= IFCFACEOUTERBOUND(#1246,.T.);
#1248= IFCFACE((#1247));
#1249= IFCPOLYLOOP((#1207,#1212,#1217,#1222,#1227,#1232,#1237,#1242,#893,#1202));
#1250= IFCFACEOUTERBOUND(#1249,.T.);
#1251= IFCFACE((#1250));
#1252= IFCPOLYLOOP((#1241,#1236,#1231,#1226,#1221,#1216,#1211,#1206,#1201,#890));
#1253= IFCFACEOUTERBOUND(#1252,.T.);
#1254= IFCFACE((#1253));
#1255= IFCCLOSEDSHELL((#1205,#1210,#1215,#1220,#1225,#1230,#1235,#1240,#1245,#1248,#1251,#1254));
#1256= IFCFACETEDBREP(#1255);
#1257= IFCSTYLEDITEM(#1256,(#1200),$);
#1258= IFCSHAPEREPRESENTATION(#12,'Body','Brep',(#1256));
#1259= IFCPRODUCTDEFINITIONSHAPE($,$,(#1258));
#1260= IFCCARTESIANPOINT((4050.,31100.,200.));
#1261= IFCAXIS2PLACEMENT3D(#1260,#7,#96);
#1262= IFCLOCALPLACEMENT(#42,#1261);
#1263= IFCSLAB('0iStnn$pr8XQu552a4lNv0',#44,'Landkar','200X1200',$,#1262,#1259,'ID2c737c71-ff3d-4885-ae05-142904bd7e40',.NOTDEFINED.);
#1264= IFCSLABTYPE('2i7Wsjwsr5ke$XjUtFg7B2',#5,'200X1200',$,$,$,$,$,$,.NOTDEFINED.);
#1265= IFCPROPERTYSINGLEVALUE('Top elevation',$,IFCLABEL(' +1.900'),$);
#1266= IFCPROPERTYSET('0Yi4XIisX2X9iKognqEs$C',#5,'Tekla Common','Common Properties to Shared building elements',(#101,#102,#103,#104,#1265,#187));
#1267= IFCPROPERTYSINGLEVALUE('Length',$,IFCLENGTHMEASURE(1900.),$);
#1268= IFCPROPERTYSINGLEVALUE('Height',$,IFCLENGTHMEASURE(1200.),$);
#1269= IFCPROPERTYSINGLEVALUE('Net surface area',$,IFCAREAMEASURE(4.977),$);
#1270= IFCPROPERTYSINGLEVALUE('Area per tons',$,IFCAREAMEASURE(5.474),$);
#1271= IFCPROPERTYSINGLEVALUE('Gross footprint area',$,IFCAREAMEASURE(0.174),$);
#1272= IFCPROPERTYSINGLEVALUE('Volume',$,IFCVOLUMEMEASURE(0.379),$);
#1273= IFCPROPERTYSINGLEVALUE('Weight',$,IFCMASSMEASURE(909.26),$);
#1274= IFCPROPERTYSET('0KJYO$xq17ff01KOxwOzWj',#5,'Tekla Quantity','Quantity Properties to Shared building elements',(#1267,#930,#1268,#1269,#1270,#1271,#1272,#1273));
#1275= IFCPROPERTYSINGLEVALUE('NetArea',$,IFCAREAMEASURE(0.2),$);
#1276= IFCPROPERTYSINGLEVALUE('NetVolume',$,IFCVOLUMEMEASURE(0.4),$);
#1277= IFCPROPERTYSINGLEVALUE('NetWeight',$,IFCMASSMEASURE(909.3),$);
#1278= IFCPROPERTYSET('3QbCDoz9T3m8TKzKLI$_jt',#5,'SlabBaseQuantities',$,(#930,#1275,#1276,#1277));
#1279= IFCPROPERTYSET('0JpvRpnKzDvQSOaiYXvLqA',#5,'Pset_SlabCommon','Definition from IAI: Properties common to the definition of all occurrences of IfcSlab. Note: Properties for PitchAngle added in IFC 2x3',(#121,#122,#123,#124,#125,#126,#127,#128,#129,#130));
#1280= IFCRELAGGREGATES('3tlVaDJXn5FwZ4Mn3tTFaq',#5,$,$,#37,(#39));
#1281= IFCRELAGGREGATES('1XSipB9qP6QuBlzkgbIQXO',#5,$,$,#39,(#41));
#1282= IFCRELAGGREGATES('2NwILixvXAm9Jtb9ySeaCa',#5,$,$,#41,(#43));
#1283= IFCRELCONTAINEDINSPATIALSTRUCTURE('2DJZRZ3pr6Ag0IKZGetXuE',#5,$,$,(#1263,#1185,#1142,#1026,#974,#924,#874,#787,#737,#694,#673,#629,#578,#467,#330,#291,#242,#184,#99),#43);
#1284= IFCRELDEFINESBYPROPERTIES('1fgvQD1jz6CQRxSH4vyTOp',#5,$,$,(#99),#107);
#1285= IFCRELDEFINESBYPROPERTIES('3FzE573Kf19Q6Cw0xycjmE',#5,$,$,(#99),#116);
#1286= IFCRELDEFINESBYPROPERTIES('2Hccv9B890_Ar2EZ1ocEQK',#5,$,$,(#99),#120);
#1287= IFCRELDEFINESBYPROPERTIES('3IKbqf6955dARCEN4trkrG',#5,$,$,(#99),#131);
#1288= IFCRELDEFINESBYPROPERTIES('0ZCyOzQUX7MfuXaD07OtlQ',#5,$,$,(#184),#188);
#1289= IFCRELDEFINESBYPROPERTIES('3OSuv03RfEswM9czNUpy5M',#5,$,$,(#184),#194);
#1290= IFCRELDEFINESBYPROPERTIES('2$qv3z_SbEvOSeMKk0c9ti',#5,$,$,(#184),#197);
#1291= IFCRELDEFINESBYPROPERTIES('26L_9PlPHDQ9SoXNWYYOPJ',#5,$,$,(#184),#199);
#1292= IFCRELDEFINESBYPROPERTIES('2fDiNj2dv34hnIyzWkg$OO',#5,$,$,(#242),#245);
#1293= IFCRELDEFINESBYPROPERTIES('2La1RgLxf4PvvX48O3jOgQ',#5,$,$,(#242),#251);
#1294= IFCRELDEFINESBYPROPERTIES('1NnLnVRzf5CwkkApnrVDoe',#5,$,$,(#242),#253);
#1295= IFCRELDEFINESBYPROPERTIES('1b65Pg_r15Dhiwpd$4VPFZ',#5,$,$,(#242),#254);
#1296= IFCRELDEFINESBYPROPERTIES('1qm2L6FtzCtvJeaVWgILwc',#5,$,$,(#291),#295);
#1297= IFCRELDEFINESBYPROPERTIES('2mPIMj9pn0DflWmgcBwXht',#5,$,$,(#291),#300);
#1298= IFCRELDEFINESBYPROPERTIES('0x7ZLGdZ5E1PfAmzHPCKJn',#5,$,$,(#291),#301);
#1299= IFCRELDEFINESBYPROPERTIES('0oBQRqm_z2EA5ojlK7d5Oa',#5,$,$,(#291),#302);
#1300= IFCRELDEFINESBYPROPERTIES('2dv$AieAD3QB6azBY170aM',#5,$,$,(#330),#333);
#1301= IFCRELDEFINESBYPROPERTIES('11nGRqtvD4bBaMjeSNJpsu',#5,$,$,(#330),#337);
#1302= IFCRELDEFINESBYPROPERTIES('3JO_SOYZ960gTD_6dKfIs0',#5,$,$,(#330),#338);
#1303= IFCRELDEFINESBYPROPERTIES('2VHzCFBPv0ouu0y23ZO7Fg',#5,$,$,(#330),#339);
#1304= IFCRELDEFINESBYPROPERTIES('0ftv1ZOVT5deRJ9vpJN4ur',#5,$,$,(#467),#476);
#1305= IFCRELDEFINESBYPROPERTIES('36$Nt9QMf6YguA1zWZmbE9',#5,$,$,(#467),#507);
#1306= IFCRELDEFINESBYPROPERTIES('3agDpMb8jFC9kMQQB8N4lS',#5,$,$,(#467),#516);
#1307= IFCRELDEFINESBYPROPERTIES('09xCol2c99thvpoju8HXVi',#5,$,$,(#578),#583);
#1308= IFCRELDEFINESBYPROPERTIES('2k8HhMx7z8oemmNu_oovlY',#5,$,$,(#578),#589);
#1309= IFCRELDEFINESBYPROPERTIES('1VUJp34cT0fOR9xOKZzLfL',#5,$,$,(#578),#591);
#1310= IFCRELDEFINESBYPROPERTIES('3JszWA0trCiBalAUm4bVPO',#5,$,$,(#578),#594);
#1311= IFCRELDEFINESBYPROPERTIES('2kU3zOPsjDwA7eDW1pWKnw',#5,$,$,(#629),#632);
#1312= IFCRELDEFINESBYPROPERTIES('3AxdDI2p17o8UZfMhD7o9B',#5,$,$,(#629),#638);
#1313= IFCRELDEFINESBYPROPERTIES('1pFL35MCDDnBHyHCjvsr7L',#5,$,$,(#629),#639);
#1314= IFCRELDEFINESBYPROPERTIES('0DFg_XOSL3NPLgKZOk99cv',#5,$,$,(#629),#641);
#1315= IFCRELDEFINESBYPROPERTIES('2Po_ir0dL2TALGvc6miWHi',#5,$,$,(#673),#674);
#1316= IFCRELDEFINESBYPROPERTIES('19FPNOd$PBkeTPtxBc43LU',#5,$,$,(#673),#679);
#1317= IFCRELDEFINESBYPROPERTIES('0oqFeqCGH67Qt5Cb1ywJxl',#5,$,$,(#673),#681);
#1318= IFCRELDEFINESBYPROPERTIES('1pmKKkKMH4RP8e3e9FGtzy',#5,$,$,(#673),#682);
#1319= IFCRELDEFINESBYPROPERTIES('1in_uPA9v2iw$2bbP5CmTG',#5,$,$,(#694),#695);
#1320= IFCRELDEFINESBYPROPERTIES('21HBvTBJz0EPLzq3XkMiud',#5,$,$,(#694),#696);
#1321= IFCRELDEFINESBYPROPERTIES('2hgfhcbJH259o357hrfSxe',#5,$,$,(#694),#697);
#1322= IFCRELDEFINESBYPROPERTIES('1EJOs4tMj8uf_Qqg32nTHJ',#5,$,$,(#694),#698);
#1323= IFCRELDEFINESBYPROPERTIES('1dFLy3zPr8QRLEbMmAh40$',#5,$,$,(#737),#740);
#1324= IFCRELDEFINESBYPROPERTIES('3RLQShyIn5LRMMxMxjUZ3u',#5,$,$,(#737),#746);
#1325= IFCRELDEFINESBYPROPERTIES('0BY2OnAfL9KukeRbipad1E',#5,$,$,(#737),#747);
#1326= IFCRELDEFINESBYPROPERTIES('0y_bz9I1j6T9$Pqk0M4eXw',#5,$,$,(#737),#748);
#1327= IFCRELDEFINESBYPROPERTIES('16yqdWw1P3$QFtR$2C2H$D',#5,$,$,(#787),#792);
#1328= IFCRELDEFINESBYPROPERTIES('2khqoppvLEYvZciHfCgK8x',#5,$,$,(#787),#798);
#1329= IFCRELDEFINESBYPROPERTIES('3cvevNC5zEsAhk1jZmXdWw',#5,$,$,(#787),#800);
#1330= IFCRELDEFINESBYPROPERTIES('1_VwiawALCTgk_EwTSTBMd',#5,$,$,(#787),#801);
#1331= IFCRELDEFINESBYPROPERTIES('0V3RJC4wjDNwwDI0SWPv06',#5,$,$,(#874),#877);
#1332= IFCRELDEFINESBYPROPERTIES('0v9LAXbT5BPeCn3q_NGtiV',#5,$,$,(#874),#881);
#1333= IFCRELDEFINESBYPROPERTIES('3251tbdHn8mecyR$h48SGT',#5,$,$,(#874),#883);
#1334= IFCRELDEFINESBYPROPERTIES('2zrECb8A5APvEzyDx_1zKB',#5,$,$,(#874),#885);
#1335= IFCRELDEFINESBYPROPERTIES('0EPsZrRP52c9IDFUpINPRK',#5,$,$,(#924),#928);
#1336= IFCRELDEFINESBYPROPERTIES('0Fsvyp2NnBP83oUcCJ6a16',#5,$,$,(#924),#936);
#1337= IFCRELDEFINESBYPROPERTIES('0VJMiv$f93k8zcxfaGiLHL',#5,$,$,(#924),#942);
#1338= IFCRELDEFINESBYPROPERTIES('2Of3CoMoL9lwvIKDPrdypL',#5,$,$,(#924),#943);
#1339= IFCRELDEFINESBYPROPERTIES('0Yfr9IzZT34P3kPbtU44i6',#5,$,$,(#974),#978);
#1340= IFCRELDEFINESBYPROPERTIES('0RoNspw9v2d8cQyWGkQONE',#5,$,$,(#974),#982);
#1341= IFCRELDEFINESBYPROPERTIES('04M3KM2ifFnfzRrFu47Dgf',#5,$,$,(#974),#987);
#1342= IFCRELDEFINESBYPROPERTIES('09g3v5gAz0IQ9K$x6h9c1v',#5,$,$,(#974),#988);
#1343= IFCRELDEFINESBYPROPERTIES('3V3xD3QU55CxyQSJSYxXka',#5,$,$,(#1026),#1028);
#1344= IFCRELDEFINESBYPROPERTIES('1p0WUSi_1DpQ62rPGa3moY',#5,$,$,(#1026),#1032);
#1345= IFCRELDEFINESBYPROPERTIES('2Sr5OMUjP2VO8Yzzualgbi',#5,$,$,(#1026),#1033);
#1346= IFCRELDEFINESBYPROPERTIES('3pF3hAU6XDlhoaoCAM9gt3',#5,$,$,(#1026),#1035);
#1347= IFCRELDEFINESBYPROPERTIES('30NiHvUeT7Ohh1lWZpefAR',#5,$,$,(#1142),#1146);
#1348= IFCRELDEFINESBYPROPERTIES('3bMnLZhMv5y8qJ1A58Xjs7',#5,$,$,(#1142),#1150);
#1349= IFCRELDEFINESBYPROPERTIES('0gVaVEeaX4yuWcGz0yu0nI',#5,$,$,(#1142),#1152);
#1350= IFCRELDEFINESBYPROPERTIES('3PY7i7zh161Pu7hsvL3Y29',#5,$,$,(#1142),#1153);
#1351= IFCRELDEFINESBYPROPERTIES('1zTstTsDn3UQYOATJGF5$J',#5,$,$,(#1185),#1189);
#1352= IFCRELDEFINESBYPROPERTIES('0aNHAUBTL5rf60vhpeNH7w',#5,$,$,(#1185),#1193);
#1353= IFCRELDEFINESBYPROPERTIES('3zZPnJHV51LAT3cqxTuSq4',#5,$,$,(#1185),#1195);
#1354= IFCRELDEFINESBYPROPERTIES('3wXeQYK1vE_PH6bsc5uZuo',#5,$,$,(#1185),#1196);
#1355= IFCRELDEFINESBYPROPERTIES('2T8ukZY71CagEd8xqLxiys',#5,$,$,(#1263),#1266);
#1356= IFCRELDEFINESBYPROPERTIES('13JR3TLuT10OS4y_MfBAyH',#5,$,$,(#1263),#1274);
#1357= IFCRELDEFINESBYPROPERTIES('2_jyZ3kS94r9WM3kmRIsl3',#5,$,$,(#1263),#1278);
#1358= IFCRELDEFINESBYPROPERTIES('1hlblswTf8MPgO3waCwq2d',#5,$,$,(#1263),#1279);
#1359= IFCRELDEFINESBYTYPE('1Zlp12FHT39gEYu7FZDOME',#5,$,$,(#99),#100);
#1360= IFCRELDEFINESBYTYPE('3wgj9sQP15wwirnD038doh',#5,$,$,(#184),#185);
#1361= IFCRELDEFINESBYTYPE('0gv4Fbu9rFZhXi9sxNn_HJ',#5,$,$,(#242),#243);
#1362= IFCRELDEFINESBYTYPE('29TVqMPhv4fvLCbF7FmXLh',#5,$,$,(#330,#291),#292);
#1363= IFCRELDEFINESBYTYPE('3kn3CYV8H99AKMtjdondLI',#5,$,$,(#578),#579);
#1364= IFCRELDEFINESBYTYPE('2bYQWrvhX6axh2aFbYaT4t',#5,$,$,(#694,#673,#629),#630);
#1365= IFCRELDEFINESBYTYPE('2RMfUicFr6i8Xb5LpEAPLq',#5,$,$,(#737),#738);
#1366= IFCRELDEFINESBYTYPE('35dTvPAaH1BPGhQuJIfeN3',#5,$,$,(#1026,#874,#787),#788);
#1367= IFCRELDEFINESBYTYPE('282QNVgEPA5AQ8Nv1PRqGM',#5,$,$,(#924),#925);
#1368= IFCRELDEFINESBYTYPE('2i80HefKTEaBcUwLpP_XX8',#5,$,$,(#974),#975);
#1369= IFCRELDEFINESBYTYPE('2K99drmeP0UAIQJdWKwQqC',#5,$,$,(#1142),#1143);
#1370= IFCRELDEFINESBYTYPE('30QuppdPT1$uiZVZe9vdAv',#5,$,$,(#1185),#1186);
#1371= IFCRELDEFINESBYTYPE('2DYNIcgyLFUAla3yuPH4jT',#5,$,$,(#1263),#1264);
#1372= IFCRELASSOCIATESMATERIAL('2BA_$DEI11gPnk$BWF40oc',#5,$,$,(#1185,#1142,#1026,#974,#874,#787,#737,#694,#673,#629,#578,#330,#291,#242,#184,#99),#132);
#1373= IFCRELASSOCIATESMATERIAL('2xkArJfJT48Ple7M9SwPew',#5,$,$,(#467),#517);
#1374= IFCRELASSOCIATESMATERIAL('19d36i6cr22eyu_nqVBj8S',#5,$,$,(#1263,#924),#944);
#1375= IFCPRESENTATIONLAYERASSIGNMENT('L\S\xsmasser_2',$,(#93),$);
#1376= IFCPRESENTATIONLAYERASSIGNMENT('L\S\xsmasser_1',$,(#179,#237),$);
#1377= IFCPRESENTATIONLAYERASSIGNMENT('Gjennomsiktig',$,(#286,#325),$);
#1378= IFCPRESENTATIONLAYERASSIGNMENT('Armering_Rustfritt',$,(#460),$);
#1379= IFCPRESENTATIONLAYERASSIGNMENT('Krympeplast',$,(#571),$);
#1380= IFCPRESENTATIONLAYERASSIGNMENT('Rissanvisende_fuge',$,(#624),$);
#1381= IFCPRESENTATIONLAYERASSIGNMENT('Asfaltdekker_slitelag',$,(#668),$);
#1382= IFCPRESENTATIONLAYERASSIGNMENT('Asfaltdekker_bindlag',$,(#689),$);
#1383= IFCPRESENTATIONLAYERASSIGNMENT('Fuktisolering_(A3-4)',$,(#732),$);
#1384= IFCPRESENTATIONLAYERASSIGNMENT('Kleber',$,(#782),$);
#1385= IFCPRESENTATIONLAYERASSIGNMENT('Fuktisolering_(A3-2)',$,(#868),$);
#1386= IFCPRESENTATIONLAYERASSIGNMENT('Overgangsplate',$,(#919),$);
#1387= IFCPRESENTATIONLAYERASSIGNMENT('Bitumenbasert_hulkil',$,(#967),$);
#1388= IFCPRESENTATIONLAYERASSIGNMENT('Asfaltmembran',$,(#1021),$);
#1389= IFCPRESENTATIONLAYERASSIGNMENT('Ramme',$,(#1137),$);
#1390= IFCPRESENTATIONLAYERASSIGNMENT('Trekantlist',$,(#1180),$);
#1391= IFCPRESENTATIONLAYERASSIGNMENT('Landkar',$,(#1258),$);
ENDSEC;

END-ISO-10303-21;
